<?xml version="1.0" encoding="UTF-8" standalone="no"?>
<!-- Created with Inkscape (http://www.inkscape.org/) -->

<svg
   xmlns:dc="http://purl.org/dc/elements/1.1/"
   xmlns:cc="http://creativecommons.org/ns#"
   xmlns:rdf="http://www.w3.org/1999/02/22-rdf-syntax-ns#"
   xmlns:svg="http://www.w3.org/2000/svg"
   xmlns="http://www.w3.org/2000/svg"
   xmlns:sodipodi="http://sodipodi.sourceforge.net/DTD/sodipodi-0.dtd"
   xmlns:inkscape="http://www.inkscape.org/namespaces/inkscape"
   width="210mm"
   height="297mm"
   viewBox="0 0 744.09448819 1052.3622047"
   id="svg2"
   version="1.1"
   inkscape:version="0.91 r13725"
   sodipodi:docname="logo.svg">
  <defs
     id="defs4" />
  <sodipodi:namedview
     id="base"
     pagecolor="#ffffff"
     bordercolor="#666666"
     borderopacity="1.0"
     inkscape:pageopacity="0.0"
     inkscape:pageshadow="2"
     inkscape:zoom="0.98994949"
     inkscape:cx="421.84532"
     inkscape:cy="470.27572"
     inkscape:document-units="px"
     inkscape:current-layer="g4147"
     showgrid="false"
     inkscape:window-width="1920"
     inkscape:window-height="1155"
     inkscape:window-x="0"
     inkscape:window-y="1"
     inkscape:window-maximized="1" />
  <metadata
     id="metadata7">
    <rdf:RDF>
      <cc:Work
         rdf:about="">
        <dc:format>image/svg+xml</dc:format>
        <dc:type
           rdf:resource="http://purl.org/dc/dcmitype/StillImage" />
        <dc:title></dc:title>
      </cc:Work>
    </rdf:RDF>
  </metadata>
  <g
     inkscape:label="Layer 1"
     inkscape:groupmode="layer"
     id="layer1">
    <g
       id="g4147"
       transform="translate(1.4285774,-45.714287)"
       style="stroke-width:35.43307087;stroke-miterlimit:4;stroke-dasharray:none">
      <path
         style="fill:#e96b39;stroke-width:3.54330709;stroke-miterlimit:4;stroke-dasharray:none;stroke:#000000;stroke-opacity:1"
         d="m 481.10391,882.60248 c -8.7232,-1.78617 -27.05189,-14.88713 -35.13632,-25.1147 -2.23634,-2.82919 -6.8467,-9.23805 -10.24525,-14.24192 -12.66926,-18.65368 -21.83451,-25.35878 -30.97241,-22.65875 -5.46288,1.61414 -8.18412,3.71932 -22.73958,17.59156 -15.30126,14.58303 -24.76866,22.08447 -36.8344,29.18554 -19.07149,11.22416 -30.79875,14.47532 -44.73652,12.40234 -13.62024,-2.02576 -19.79467,-7.54321 -19.89026,-17.77387 -0.071,-7.59736 1.18407,-8.48828 13.27726,-9.42502 7.50548,-0.58138 11.14066,-1.37616 14.81842,-3.23982 5.40312,-2.73797 20.79969,-15.77416 24.75518,-20.96007 5.40571,-7.08724 7.08009,-15.16158 4.0432,-19.49735 -2.76433,-3.94663 -7.98266,-3.00964 -23.30107,4.18388 -7.50322,3.52351 -16.79223,7.37311 -20.64223,8.55467 -13.87777,4.25904 -29.99398,2.17177 -41,-5.31007 -2.75,-1.86944 -11.10255,-9.21401 -18.56122,-16.32127 -7.45867,-7.10727 -16.29548,-15.02626 -19.63734,-17.59777 -8.68662,-6.68419 -11.30144,-10.0937 -11.30144,-14.7361 0,-3.00815 0.60171,-4.32538 2.75,-6.02018 2.39486,-1.88932 3.52486,-2.08558 8.75,-1.5197 8.13661,0.8812 16.49226,4.96093 26.02762,12.70825 10.59064,8.60473 15.7605,11.47355 23.0095,12.7683 10.99747,1.96425 21.32969,-1.30019 30.58749,-9.66406 2.13146,-1.92565 3.86984,-4.01132 3.86307,-4.63482 -0.007,-0.6235 -3.04428,-2.36576 -6.75,-3.87167 -15.37717,-6.24892 -33.40087,-18.88222 -46.1415,-32.34181 -18.19687,-19.22374 -30.4624,-44.15602 -34.15862,-69.43461 -1.69938,-11.6221 -0.66959,-39.30129 1.99808,-53.70542 3.04326,-16.43214 6.24485,-25.62819 16.11236,-46.28013 11.70453,-24.49667 12.54197,-27.54284 10.8866,-39.59982 -0.93433,-6.80522 -0.9892,-9.98492 -0.20214,-11.71234 1.36351,-2.99258 6.94861,-5.68784 11.78632,-5.68784 11.81017,0 19.86807,24.40496 16.01621,48.50833 -0.8782,5.49542 -3.56698,17.64167 -5.97507,26.99167 -6.84691,26.5848 -8.46478,40.50566 -6.6245,57 1.36083,12.19708 3.23876,19.30806 8.13447,30.80209 5.83045,13.68855 9.67856,19.43703 19.93011,29.77249 7.74945,7.81287 11.05742,10.3548 17.95189,13.79468 14.76535,7.36692 16.25963,4.72286 6.11952,-10.82823 -12.99917,-19.93578 -18.02729,-34.13669 -20.1487,-56.90594 -2.35778,-25.30622 3.13,-52.09912 16.00892,-78.16017 7.96163,-16.1107 12.77363,-22.86333 24.97787,-35.05122 16.37713,-16.35517 33.73502,-26.75578 50.95296,-30.5303 17.87356,-3.91825 41.8705,-2.67941 62.49277,3.22617 20.66293,5.91722 37.63397,16.27337 52.96588,32.32111 13.20754,13.82417 22.26769,30.23859 27.23161,49.33595 2.33712,8.99146 2.71951,12.75385 3.17341,31.22337 0.80935,32.93383 -2.68454,51.24683 -13.78307,72.24311 -3.26868,6.1837 -5.94306,12.34884 -5.94306,13.70031 0,7.67757 12.16051,3.30132 24.41357,-8.7858 16.21662,-15.99702 27.67068,-40.67822 29.10851,-62.72304 1.2705,-19.47919 -2.48823,-39.33177 -12.63693,-66.74481 -7.50544,-20.27322 -8.36486,-24.09198 -8.37566,-37.21646 -0.009,-10.34907 0.24638,-12.0239 2.49499,-16.39338 3.73993,-7.2674 8.72402,-10.86134 15.76087,-11.36492 4.65721,-0.33328 6.21776,-0.029 8.30601,1.61936 3.96389,3.12898 5.17935,8.5392 3.41117,15.18373 -1.78831,6.72017 -1.83018,15.26327 -0.0985,20.10952 0.71291,1.9952 4.2483,7.86181 7.85642,13.03692 12.64913,18.14259 17.14814,27.5465 21.82104,45.61065 5.76733,22.29497 7.68027,52.97513 4.45591,71.465 -7.30114,41.86783 -39.7989,80.97565 -81.7812,98.41554 -4.82012,2.00233 -9.88262,4.67744 -11.25,5.94469 -2.90162,2.68913 -3.25176,6.8615 -0.86212,10.27319 2.61851,3.73845 17.25183,14.13614 25.37597,18.03087 7.33872,3.5182 7.75804,3.59496 19.5,3.56933 10.99585,-0.024 13.07422,-0.34867 24.83738,-3.88001 l 12.83738,-3.85382 2.66262,1.98033 c 1.46444,1.08919 2.80579,2.94294 2.98079,4.11945 0.86286,5.80124 -11.73733,20.57401 -22.96037,26.9193 -7.2502,4.09912 -17.80172,7.73536 -26.83049,9.24626 -23.30714,3.90029 -49.63044,-7.00718 -65.91287,-27.31202 -5.97426,-7.45014 -9.04584,-8.97035 -12.25555,-6.0656 -6.9454,6.2855 6.33486,35.50485 20.37349,44.82598 3.36458,2.23395 8.4846,4.32133 14.16143,5.77346 6.93062,1.77284 9.3262,2.85664 10.86249,4.91433 7.09654,9.50504 -15.24813,23.27441 -32.15232,19.8131 z m 17.14602,-6.63118 c 1.50469,-0.88561 0.69848,-4.20497 -1.16496,-4.7964 -3.42085,-1.08574 -10.08504,1.31143 -10.08504,3.62768 0,2.27498 7.96458,3.10238 11.25,1.16872 z m -183.74884,-0.32526 c 0.84966,-1.37478 -4.54318,-3.35611 -5.77687,-2.12242 -0.52251,0.52251 -0.64768,1.43923 -0.27814,2.03716 0.84381,1.36532 5.22575,1.42702 6.05501,0.0853 z m 163.49884,-2.46295 c 0,-1.73288 -3.02538,-3.53518 -5.93426,-3.53518 -2.69646,0 -2.62851,1.49241 0.15677,3.4433 2.80149,1.96224 5.77749,2.00957 5.77749,0.0919 z m -176.99642,-1.54187 c 2.28688,-4.27307 -7.22381,-9.37308 -10.80358,-5.79331 -1.72939,1.72939 -1.4828,3.5172 0.8,5.8 2.7157,2.7157 8.54869,2.7118 10.00358,-0.007 z m 234.67352,-37.59423 c 0.77446,-2.01822 -1.30077,-3.36845 -5.1771,-3.36845 -3.87633,0 -5.95156,1.35023 -5.1771,3.36845 0.43908,1.14422 1.91595,1.60092 5.1771,1.60092 3.26115,0 4.73802,-0.4567 5.1771,-1.60092 z m 18.92177,-1.01302 c 4.03104,-1.91286 4.50044,-4.92806 1.01445,-6.51638 -4.4871,-2.04446 -11.45362,3.20797 -8.68289,6.5465 1.66258,2.00328 3.39774,1.99646 7.66844,-0.0301 z m 20.40113,-9.32639 c 1.6811,-1.19392 2.5,-2.72284 2.5,-4.66759 0,-2.39397 -0.46221,-2.94547 -2.6836,-3.2021 -6.39081,-0.73827 -12.56065,6.33021 -8.26632,9.4703 2.07984,1.52081 4.77317,1.01063 8.44992,-1.60061 z m -299,-7.48212 c 0,-1.83929 -6.38789,-3.948 -9.55311,-3.15358 -3.22246,0.80879 -3.10157,2.17025 0.30311,3.41375 4.24671,1.55103 9.25,1.41031 9.25,-0.26017 z m 18.99114,-0.86741 c 3.09868,-1.56775 3.75555,-4.28161 1.19821,-4.95037 -2.0511,-0.53638 -8.80724,1.45812 -10.42742,3.0783 -2.85619,2.85619 4.38213,4.32442 9.22921,1.87207 z m 22.60136,-9.76731 c 6.34729,-3.92284 2.40243,-7.45632 -5.63575,-5.04802 -1.99713,0.59836 -4.44151,1.98336 -5.43196,3.0778 -1.52649,1.68675 -1.59644,2.23613 -0.45919,3.60643 1.71203,2.06287 6.68348,1.35719 11.5269,-1.63621 z M 233.8112,784.95089 c 0.20614,-1.44149 -0.53889,-2.73363 -2.20602,-3.82598 -4.22042,-2.76532 -6.44113,0.8369 -2.91676,4.73128 2.14582,2.37111 4.71926,1.91633 5.12278,-0.9053 z m -12.3827,-7.87441 c 0.86429,-0.86428 1.57143,-2.00974 1.57143,-2.54545 0,-1.51616 -4.7381,-5.88312 -6.38312,-5.88312 -1.38253,0 -4.61688,2.54801 -4.61688,3.63717 0,1.57277 2.439,4.59984 4.31537,5.35585 3.06127,1.23342 3.34686,1.20189 5.1132,-0.56445 z m 305.77746,-21.03511 c 3.39839,-1.75738 6.21748,-5.84742 5.43531,-7.88574 -0.85373,-2.22477 -4.25866,-1.84082 -9.6376,1.08676 -4.94359,2.69064 -7.77601,6.34695 -6.50717,8.39997 0.86832,1.40497 6.53465,0.55789 10.70946,-1.60099 z m -143.3629,-10.43909 c 18.03478,-7.9655 21.59488,-30.844 7.60544,-48.87531 -4.21385,-5.43133 -12.93777,-11.57446 -18.77121,-13.21815 -23.67413,-6.67064 -44.42542,15.85464 -37.27271,40.45909 4.31763,14.85211 20.93491,25.423 37.93848,24.13411 3.21372,-0.2436 7.93872,-1.36848 10.5,-2.49974 z m -21.15815,-11.97123 c -7.92187,-2.37782 -13.68498,-10.39698 -13.68498,-19.04217 0,-6.19284 2.08607,-10.93134 6.53018,-14.83332 6.82864,-5.99563 16.22019,-4.60632 23.31015,3.44829 6.36582,7.23196 7.70798,14.94989 3.90967,22.48217 -3.59018,7.11956 -11.87972,10.40192 -20.06502,7.94503 z m -91.68498,9.51974 c 0,-5.07807 -11.89667,-14.90613 -13.97431,-11.54444 -2.3918,3.87001 6.01775,14.04156 11.60917,14.04156 1.85542,0 2.36514,-0.53816 2.36514,-2.49712 z m 285.38364,-9.50576 c 5.43305,-6.01374 4.40564,-11.3883 -1.73099,-9.05516 -4.88312,1.85656 -9.43929,9.93806 -6.98598,12.39137 1.75456,1.75457 5.36674,0.3721 8.71697,-3.33621 z M 245.24302,716.62716 c 1.38055,-2.19274 -0.71873,-9.12141 -3.7569,-12.39965 -5.69347,-6.14336 -9.79217,-0.02 -5.55109,8.29318 3.00482,5.88994 7.05901,7.67856 9.30799,4.10647 z m 333.75521,-9.26998 c 2.53729,-4.78283 2.2012,-7.70927 -0.88536,-7.70927 -3.4539,0 -8.26853,9.90267 -6.09055,12.52697 1.73774,2.09386 4.21806,0.3809 6.97591,-4.8177 z m 10.92912,-22.34413 c 2.78289,-3.53787 2.90645,-10.36514 0.18759,-10.36514 -2.68875,0 -5.11501,4.25238 -5.11501,8.96482 0,4.82053 1.82836,5.34013 4.92742,1.40032 z m -363.12742,-0.56514 c 1.66956,-1.66956 1.49715,-6.01688 -0.42961,-10.83233 -1.27786,-3.19369 -2.0873,-4.00749 -3.75,-3.77024 -3.0546,0.43588 -3.452,8.0274 -0.6571,12.55257 2.1823,3.53332 3.00478,3.88193 4.83671,2.05 z m 368.59301,-26.38179 c 1.14762,-2.99065 0.61854,-9.16373 -0.89291,-10.41813 -1.26413,-1.04914 -1.74461,-0.65913 -3.0567,2.48115 -1.9089,4.56864 -1.11373,9.51877 1.52907,9.51877 0.99745,0 2.0867,-0.7118 2.42054,-1.58179 z M 220.4285,654.07648 c 2.25916,-2.25916 2.04968,-9.62171 -0.35759,-12.56779 -2.52996,-3.09623 -4.12089,-1.59761 -4.81186,4.53267 -0.36706,3.25658 -0.041,5.29047 1.13609,7.08696 1.94489,2.96829 2.00023,2.9813 4.03336,0.94816 z m 375.53625,-20.36283 c 1.27092,-2.37475 1.321,-7.06565 0.0961,-9.00144 -1.63274,-2.58029 -4.0609,0.64347 -4.0609,5.39148 0,5.74408 1.89787,7.47209 3.96482,3.60996 z M 223.76029,621.56894 c 1.76148,-3.38365 1.19556,-10.31741 -0.87408,-10.70948 -3.27753,-0.6209 -6.35162,9.92311 -3.67378,12.60095 1.61986,1.61986 3.0239,1.03591 4.54786,-1.89147 z m 5.20133,-24.37487 c 1.62103,-1.95322 1.89102,-10.71065 0.34697,-11.25428 -1.57084,-0.55305 -4.30866,4.84281 -4.30866,8.49179 0,4.27884 1.71231,5.47283 3.96169,2.76249 z m 18.48161,-50.76867 c 1.96224,-2.80149 2.00957,-5.77749 0.0919,-5.77749 -1.73288,0 -3.53518,3.02538 -3.53518,5.93426 0,2.69646 1.49241,2.62851 3.4433,-0.15677 z m 316.19804,-3.28521 c 0.70579,-1.83928 -2.35217,-6.78903 -3.68527,-5.96513 -1.34602,0.83188 -1.1902,4.83872 0.24393,6.27285 1.61231,1.61231 2.74336,1.51117 3.44134,-0.30772 z M 249.79993,530.44791 c 2.73607,-2.73607 -0.0439,-9.8 -3.8567,-9.8 -1.52912,0 -1.9433,0.69854 -1.9433,3.27749 0,3.13461 2.29125,7.72251 3.8567,7.72251 0.40882,0 1.2833,-0.54 1.9433,-1.2 z m 312.03229,-6.13596 c 1.45829,-3.04261 0.84165,-7.66404 -1.0226,-7.66404 -3.44858,0 -6.57831,7.89804 -4.10845,10.3679 1.36016,1.36017 3.79924,0.0749 5.13105,-2.70386 z M 338.99993,485.00231 c -8.27069,-1.52727 -12.96672,-3.55247 -15.84873,-6.83489 -4.50836,-5.13474 -5.43531,-9.48142 -4.92804,-23.1086 0.35087,-9.4257 0.93084,-13.12743 2.77964,-17.74136 3.49033,-8.71057 9.67502,-14.97911 19.36571,-19.62828 12.63467,-6.06155 18.49384,-7.45005 31.63142,-7.49598 9.90852,-0.0346 12.05356,0.25736 15.5,2.10994 8.50163,4.56991 11.67861,10.72567 11.77484,22.81506 0.17813,22.37816 -12.40196,38.69572 -35.77484,46.40332 -8.77261,2.89292 -19.46051,4.41138 -24.5,3.48079 z m 103.5,-0.43581 c -14.46286,-1.90751 -19.61951,-8.91072 -19.58369,-26.5965 0.0216,-10.6442 1.28605,-16.61966 5.16524,-24.40873 3.62444,-7.27756 8.35613,-11.30466 19.40089,-16.51195 17.96742,-8.47111 38.42021,-9.79261 48.21427,-3.11522 5.11738,3.48893 7.59002,8.95348 8.10916,17.92128 0.91085,15.73437 -3.3211,27.30339 -13.45545,36.78357 -12.39599,11.59584 -31.77797,18.04736 -47.85042,15.92755 z M 330.53047,382.39791 c -2.3354,-2.0359 -2.63656,-3.15398 -3.16496,-11.75 -0.32118,-5.225 0.3509,-28.175 1.49351,-51 1.14261,-22.825 2.55969,-52.075 3.14908,-65 1.33434,-29.26155 6.32744,-71.17772 10.04438,-84.32078 1.61622,-5.71493 7.1558,-11.23679 13.77517,-13.73112 9.46451,-3.56644 36.00108,-10.85481 47.60558,-13.07505 13.20208,-2.52591 18.75342,-2.14331 22.4344,1.54621 2.34218,2.3476 2.60844,3.32406 2.41579,8.85957 -0.12635,3.63064 -2.69281,16.00669 -6.16336,29.72117 -8.66154,34.22756 -12.19478,53.29399 -23.53465,127 -4.10402,26.675 -7.90695,50.47978 -8.45096,52.89952 -1.24322,5.52975 -3.12901,7.31897 -10.59037,10.04804 -7.0883,2.59261 -40.87963,11.05244 -44.14708,11.05244 -1.25705,0 -3.44699,-1.0125 -4.86653,-2.25 z m 106.96946,1.44321 c -4.19623,-0.75937 -4.50093,-2.50249 -4.48091,-25.63434 0.0105,-12.13238 0.46263,-29.93387 1.00474,-39.55887 0.5421,-9.625 1.6605,-32.8 2.48532,-51.5 1.89542,-42.97172 4.73568,-71.15684 9.17022,-91 3.30381,-14.78351 5.98581,-16.87278 31.59869,-24.61525 26.55896,-8.02846 44.0944,-11.01586 50.69587,-8.63673 7.58007,2.73181 7.45054,6.46058 -1.51981,43.75198 -7.56703,31.45751 -8.34253,35.22108 -12.87835,62.5 -3.92504,23.60559 -13.85553,86.7716 -15.56405,99 -2.94758,21.09681 -3.82582,22.69625 -14.12445,25.72337 -26.88942,7.90374 -41.0209,10.94096 -46.38727,9.96984 z"
         id="path4151"
         inkscape:connector-curvature="0" />
      <path
         style="fill:#954f5c;stroke-width:3.54330709;stroke-miterlimit:4;stroke-dasharray:none;stroke:#000000;stroke-opacity:1"
         d="m 378.99993,748.17571 c 0,-0.25971 2.18583,-1.41252 4.8574,-2.5618 6.04942,-2.60239 11.39374,-7.99276 14.17669,-14.29885 1.71263,-3.88077 2.07372,-6.39183 1.83293,-12.74649 -0.29795,-7.86307 -0.2789,-7.93125 2.9799,-10.66716 1.80387,-1.51442 4.49054,-5.0035 5.97038,-7.7535 5.04061,-9.36703 10.21972,-4.62551 10.99062,10.06199 0.38022,7.24414 0.12565,8.90336 -2.11793,13.80399 -4.91359,10.73268 -15.3638,19.1445 -28.62149,23.03864 -5.27341,1.54894 -10.0685,2.08385 -10.0685,1.12318 z m -16.31502,-14.54466 c -7.92187,-2.37782 -13.68498,-10.39698 -13.68498,-19.04217 0,-6.19284 2.08607,-10.93134 6.53018,-14.83332 6.82864,-5.99563 16.22019,-4.60632 23.31015,3.44829 6.36582,7.23196 7.70798,14.94989 3.90967,22.48217 -3.59018,7.11956 -11.87972,10.40192 -20.06502,7.94503 z m 62.81725,-61.55854 c -6.4545,-3.36547 -10.21514,-9.20499 -11.18125,-17.36222 -1.63063,-13.76811 10.27245,-26.59802 21.54362,-23.22109 8.96636,2.68638 13.55934,9.68678 13.6057,20.73713 0.0259,6.16699 -0.36114,7.71059 -3.00568,11.98803 -5.1065,8.25957 -13.88282,11.54954 -20.96239,7.85815 z m -82.16539,-9.93896 c -5.61085,-3.36318 -8.71531,-9.76289 -8.70198,-17.93869 0.0302,-18.53511 18.54333,-28.94716 29.6367,-16.66813 4.47065,4.94848 6.05916,9.87232 5.53276,17.14972 -1.10142,15.22686 -14.94987,24.36086 -26.46748,17.4571 z m -4.33684,-177.13124 c -8.27069,-1.52727 -12.96672,-3.55247 -15.84873,-6.83489 -4.50836,-5.13474 -5.43531,-9.48142 -4.92804,-23.1086 0.35087,-9.4257 0.93084,-13.12743 2.77964,-17.74136 3.49033,-8.71057 9.67502,-14.97911 19.36571,-19.62828 12.63467,-6.06155 18.49384,-7.45005 31.63142,-7.49598 9.90852,-0.0346 12.05356,0.25736 15.5,2.10994 8.50163,4.56991 11.67861,10.72567 11.77484,22.81506 0.17813,22.37816 -12.40196,38.69572 -35.77484,46.40332 -8.77261,2.89292 -19.46051,4.41138 -24.5,3.48079 z m 103.5,-0.43581 c -14.46286,-1.90751 -19.61951,-8.91072 -19.58369,-26.5965 0.0216,-10.6442 1.28605,-16.61966 5.16524,-24.40873 3.62444,-7.27756 8.35613,-11.30466 19.40089,-16.51195 17.96742,-8.47111 38.42021,-9.79261 48.21427,-3.11522 5.11738,3.48893 7.59002,8.95348 8.10916,17.92128 0.91085,15.73437 -3.3211,27.30339 -13.45545,36.78357 -12.39599,11.59584 -31.77797,18.04736 -47.85042,15.92755 z M 330.53047,382.39791 c -2.3354,-2.0359 -2.63656,-3.15398 -3.16496,-11.75 -0.32118,-5.225 0.3509,-28.175 1.49351,-51 1.14261,-22.825 2.55969,-52.075 3.14908,-65 1.33434,-29.26155 6.32744,-71.17772 10.04438,-84.32078 1.61622,-5.71493 7.1558,-11.23679 13.77517,-13.73112 9.46451,-3.56644 36.00108,-10.85481 47.60558,-13.07505 13.20208,-2.52591 18.75342,-2.14331 22.4344,1.54621 2.34218,2.3476 2.60844,3.32406 2.41579,8.85957 -0.12635,3.63064 -2.69281,16.00669 -6.16336,29.72117 -8.66154,34.22756 -12.19478,53.29399 -23.53465,127 -4.10402,26.675 -7.90695,50.47978 -8.45096,52.89952 -1.24322,5.52975 -3.12901,7.31897 -10.59037,10.04804 -7.0883,2.59261 -40.87963,11.05244 -44.14708,11.05244 -1.25705,0 -3.44699,-1.0125 -4.86653,-2.25 z m 106.96946,1.44321 c -4.19623,-0.75937 -4.50093,-2.50249 -4.48091,-25.63434 0.0105,-12.13238 0.46263,-29.93387 1.00474,-39.55887 0.5421,-9.625 1.6605,-32.8 2.48532,-51.5 1.89542,-42.97172 4.73568,-71.15684 9.17022,-91 3.30381,-14.78351 5.98581,-16.87278 31.59869,-24.61525 26.55896,-8.02846 44.0944,-11.01586 50.69587,-8.63673 7.58007,2.73181 7.45054,6.46058 -1.51981,43.75198 -7.56703,31.45751 -8.34253,35.22108 -12.87835,62.5 -3.92504,23.60559 -13.85553,86.7716 -15.56405,99 -2.94758,21.09681 -3.82582,22.69625 -14.12445,25.72337 -26.88942,7.90374 -41.0209,10.94096 -46.38727,9.96984 z"
         id="path4149"
         inkscape:connector-curvature="0" />
    </g>
  </g>
</svg>
