G04 #@! TF.GenerationSoftware,KiCad,Pcbnew,(5.1.5-0)*
G04 #@! TF.CreationDate,2019-12-30T00:03:19-08:00*
G04 #@! TF.ProjectId,badge,62616467-652e-46b6-9963-61645f706362,rev?*
G04 #@! TF.SameCoordinates,Original*
G04 #@! TF.FileFunction,Copper,L2,Bot*
G04 #@! TF.FilePolarity,Positive*
%FSLAX46Y46*%
G04 Gerber Fmt 4.6, Leading zero omitted, Abs format (unit mm)*
G04 Created by KiCad (PCBNEW (5.1.5-0)) date 2019-12-30 00:03:19*
%MOMM*%
%LPD*%
G04 APERTURE LIST*
%ADD10C,0.010000*%
%ADD11C,0.600000*%
G04 APERTURE END LIST*
D10*
G36*
X12533895Y-18069666D02*
G01*
X12602995Y-18110950D01*
X12711901Y-18191537D01*
X12841955Y-18295739D01*
X12974495Y-18407872D01*
X13090862Y-18512248D01*
X13172397Y-18593182D01*
X13199535Y-18629234D01*
X13177574Y-18671141D01*
X13108267Y-18761971D01*
X13002698Y-18889375D01*
X12871955Y-19041004D01*
X12727123Y-19204511D01*
X12579288Y-19367546D01*
X12439535Y-19517762D01*
X12318951Y-19642810D01*
X12228621Y-19730342D01*
X12179632Y-19768010D01*
X12176659Y-19768600D01*
X12126344Y-19740728D01*
X12031850Y-19666946D01*
X11909576Y-19560495D01*
X11844285Y-19500229D01*
X11666185Y-19320110D01*
X11552135Y-19170297D01*
X11494302Y-19036368D01*
X11486916Y-18932860D01*
X11729794Y-18932860D01*
X11746622Y-19042906D01*
X11833452Y-19171716D01*
X11939817Y-19280436D01*
X12153301Y-19480126D01*
X12318551Y-19296813D01*
X12483802Y-19113500D01*
X12348484Y-18994579D01*
X12167791Y-18847814D01*
X12028041Y-18765248D01*
X11918703Y-18743860D01*
X11829246Y-18780624D01*
X11779250Y-18831173D01*
X11729794Y-18932860D01*
X11486916Y-18932860D01*
X11484849Y-18903898D01*
X11492131Y-18851909D01*
X11551055Y-18713969D01*
X11658044Y-18597613D01*
X11788254Y-18523513D01*
X11903294Y-18509816D01*
X11988762Y-18512369D01*
X11991062Y-18509193D01*
X12234333Y-18509193D01*
X12262253Y-18573790D01*
X12332302Y-18669570D01*
X12423908Y-18773845D01*
X12516501Y-18863924D01*
X12589512Y-18917116D01*
X12609477Y-18923000D01*
X12651471Y-18896492D01*
X12727831Y-18830675D01*
X12750600Y-18809246D01*
X12827446Y-18722791D01*
X12867629Y-18652537D01*
X12869333Y-18641852D01*
X12837212Y-18588544D01*
X12756301Y-18508960D01*
X12649775Y-18421423D01*
X12540813Y-18344259D01*
X12452589Y-18295790D01*
X12421769Y-18288000D01*
X12335279Y-18324132D01*
X12263295Y-18410072D01*
X12234333Y-18509193D01*
X11991062Y-18509193D01*
X12019467Y-18469982D01*
X12022666Y-18413377D01*
X12060579Y-18261480D01*
X12159863Y-18140603D01*
X12298830Y-18065326D01*
X12455796Y-18050228D01*
X12533895Y-18069666D01*
G37*
X12533895Y-18069666D02*
X12602995Y-18110950D01*
X12711901Y-18191537D01*
X12841955Y-18295739D01*
X12974495Y-18407872D01*
X13090862Y-18512248D01*
X13172397Y-18593182D01*
X13199535Y-18629234D01*
X13177574Y-18671141D01*
X13108267Y-18761971D01*
X13002698Y-18889375D01*
X12871955Y-19041004D01*
X12727123Y-19204511D01*
X12579288Y-19367546D01*
X12439535Y-19517762D01*
X12318951Y-19642810D01*
X12228621Y-19730342D01*
X12179632Y-19768010D01*
X12176659Y-19768600D01*
X12126344Y-19740728D01*
X12031850Y-19666946D01*
X11909576Y-19560495D01*
X11844285Y-19500229D01*
X11666185Y-19320110D01*
X11552135Y-19170297D01*
X11494302Y-19036368D01*
X11486916Y-18932860D01*
X11729794Y-18932860D01*
X11746622Y-19042906D01*
X11833452Y-19171716D01*
X11939817Y-19280436D01*
X12153301Y-19480126D01*
X12318551Y-19296813D01*
X12483802Y-19113500D01*
X12348484Y-18994579D01*
X12167791Y-18847814D01*
X12028041Y-18765248D01*
X11918703Y-18743860D01*
X11829246Y-18780624D01*
X11779250Y-18831173D01*
X11729794Y-18932860D01*
X11486916Y-18932860D01*
X11484849Y-18903898D01*
X11492131Y-18851909D01*
X11551055Y-18713969D01*
X11658044Y-18597613D01*
X11788254Y-18523513D01*
X11903294Y-18509816D01*
X11988762Y-18512369D01*
X11991062Y-18509193D01*
X12234333Y-18509193D01*
X12262253Y-18573790D01*
X12332302Y-18669570D01*
X12423908Y-18773845D01*
X12516501Y-18863924D01*
X12589512Y-18917116D01*
X12609477Y-18923000D01*
X12651471Y-18896492D01*
X12727831Y-18830675D01*
X12750600Y-18809246D01*
X12827446Y-18722791D01*
X12867629Y-18652537D01*
X12869333Y-18641852D01*
X12837212Y-18588544D01*
X12756301Y-18508960D01*
X12649775Y-18421423D01*
X12540813Y-18344259D01*
X12452589Y-18295790D01*
X12421769Y-18288000D01*
X12335279Y-18324132D01*
X12263295Y-18410072D01*
X12234333Y-18509193D01*
X11991062Y-18509193D01*
X12019467Y-18469982D01*
X12022666Y-18413377D01*
X12060579Y-18261480D01*
X12159863Y-18140603D01*
X12298830Y-18065326D01*
X12455796Y-18050228D01*
X12533895Y-18069666D01*
G36*
X11341476Y-17551499D02*
G01*
X11420397Y-17584534D01*
X11586188Y-17701229D01*
X11701350Y-17845089D01*
X11758303Y-17999329D01*
X11749471Y-18147165D01*
X11709747Y-18225394D01*
X11641567Y-18274173D01*
X11577727Y-18255151D01*
X11536404Y-18184055D01*
X11535775Y-18076612D01*
X11536092Y-18075152D01*
X11539306Y-17986013D01*
X11492731Y-17908255D01*
X11429074Y-17849217D01*
X11331192Y-17779081D01*
X11259606Y-17765266D01*
X11215266Y-17781641D01*
X11156791Y-17822042D01*
X11142218Y-17869545D01*
X11176042Y-17940326D01*
X11262754Y-18050563D01*
X11303000Y-18097500D01*
X11410262Y-18237651D01*
X11462107Y-18353654D01*
X11472333Y-18440665D01*
X11436887Y-18601138D01*
X11343609Y-18717978D01*
X11212088Y-18781819D01*
X11061914Y-18783298D01*
X10912677Y-18713050D01*
X10908819Y-18710051D01*
X10817983Y-18608945D01*
X10748383Y-18482455D01*
X10746389Y-18477080D01*
X10696176Y-18376302D01*
X10640210Y-18348780D01*
X10623012Y-18352342D01*
X10542106Y-18343646D01*
X10453023Y-18293832D01*
X10427494Y-18268944D01*
X10879666Y-18268944D01*
X10908507Y-18394870D01*
X10981296Y-18494662D01*
X11077435Y-18549793D01*
X11176324Y-18541732D01*
X11180524Y-18539578D01*
X11245704Y-18476769D01*
X11260666Y-18430185D01*
X11235739Y-18359888D01*
X11172345Y-18255889D01*
X11129043Y-18197495D01*
X11043560Y-18099628D01*
X10985660Y-18063841D01*
X10938808Y-18079951D01*
X10938543Y-18080170D01*
X10897497Y-18154075D01*
X10879688Y-18265095D01*
X10879666Y-18268944D01*
X10427494Y-18268944D01*
X10387641Y-18230092D01*
X10385589Y-18179856D01*
X10411572Y-18142758D01*
X10483678Y-18095888D01*
X10531667Y-18096183D01*
X10594030Y-18077219D01*
X10699201Y-17993356D01*
X10841529Y-17849126D01*
X10846295Y-17843934D01*
X11004570Y-17682031D01*
X11130119Y-17583725D01*
X11237551Y-17542415D01*
X11341476Y-17551499D01*
G37*
X11341476Y-17551499D02*
X11420397Y-17584534D01*
X11586188Y-17701229D01*
X11701350Y-17845089D01*
X11758303Y-17999329D01*
X11749471Y-18147165D01*
X11709747Y-18225394D01*
X11641567Y-18274173D01*
X11577727Y-18255151D01*
X11536404Y-18184055D01*
X11535775Y-18076612D01*
X11536092Y-18075152D01*
X11539306Y-17986013D01*
X11492731Y-17908255D01*
X11429074Y-17849217D01*
X11331192Y-17779081D01*
X11259606Y-17765266D01*
X11215266Y-17781641D01*
X11156791Y-17822042D01*
X11142218Y-17869545D01*
X11176042Y-17940326D01*
X11262754Y-18050563D01*
X11303000Y-18097500D01*
X11410262Y-18237651D01*
X11462107Y-18353654D01*
X11472333Y-18440665D01*
X11436887Y-18601138D01*
X11343609Y-18717978D01*
X11212088Y-18781819D01*
X11061914Y-18783298D01*
X10912677Y-18713050D01*
X10908819Y-18710051D01*
X10817983Y-18608945D01*
X10748383Y-18482455D01*
X10746389Y-18477080D01*
X10696176Y-18376302D01*
X10640210Y-18348780D01*
X10623012Y-18352342D01*
X10542106Y-18343646D01*
X10453023Y-18293832D01*
X10427494Y-18268944D01*
X10879666Y-18268944D01*
X10908507Y-18394870D01*
X10981296Y-18494662D01*
X11077435Y-18549793D01*
X11176324Y-18541732D01*
X11180524Y-18539578D01*
X11245704Y-18476769D01*
X11260666Y-18430185D01*
X11235739Y-18359888D01*
X11172345Y-18255889D01*
X11129043Y-18197495D01*
X11043560Y-18099628D01*
X10985660Y-18063841D01*
X10938808Y-18079951D01*
X10938543Y-18080170D01*
X10897497Y-18154075D01*
X10879688Y-18265095D01*
X10879666Y-18268944D01*
X10427494Y-18268944D01*
X10387641Y-18230092D01*
X10385589Y-18179856D01*
X10411572Y-18142758D01*
X10483678Y-18095888D01*
X10531667Y-18096183D01*
X10594030Y-18077219D01*
X10699201Y-17993356D01*
X10841529Y-17849126D01*
X10846295Y-17843934D01*
X11004570Y-17682031D01*
X11130119Y-17583725D01*
X11237551Y-17542415D01*
X11341476Y-17551499D01*
G36*
X10643560Y-16332975D02*
G01*
X10667181Y-16357731D01*
X10684894Y-16378279D01*
X10722865Y-16427184D01*
X10727009Y-16472003D01*
X10689642Y-16533339D01*
X10603082Y-16631797D01*
X10581684Y-16655052D01*
X10403216Y-16848666D01*
X10518623Y-16848666D01*
X10646752Y-16886691D01*
X10763732Y-16984715D01*
X10848407Y-17118666D01*
X10879666Y-17259495D01*
X10839240Y-17477994D01*
X10724499Y-17686482D01*
X10598325Y-17822075D01*
X10434055Y-17920118D01*
X10250768Y-17956530D01*
X10073681Y-17930241D01*
X9938298Y-17850109D01*
X9854801Y-17753997D01*
X9802524Y-17660401D01*
X9802069Y-17658994D01*
X9767279Y-17595702D01*
X9739276Y-17587887D01*
X9688938Y-17576615D01*
X9638071Y-17533716D01*
X9958107Y-17533716D01*
X10019187Y-17638593D01*
X10033000Y-17653000D01*
X10157892Y-17726664D01*
X10298989Y-17719504D01*
X10447594Y-17632690D01*
X10572956Y-17494346D01*
X10639870Y-17349718D01*
X10647708Y-17214710D01*
X10595840Y-17105232D01*
X10483637Y-17037190D01*
X10471289Y-17033825D01*
X10320389Y-17037730D01*
X10172732Y-17121508D01*
X10044536Y-17268765D01*
X9966385Y-17416170D01*
X9958107Y-17533716D01*
X9638071Y-17533716D01*
X9636997Y-17532811D01*
X9614095Y-17500023D01*
X9611060Y-17461935D01*
X9634808Y-17407748D01*
X9692254Y-17326667D01*
X9790313Y-17207893D01*
X9935901Y-17040630D01*
X9995605Y-16972893D01*
X10194961Y-16746829D01*
X10345605Y-16576960D01*
X10455406Y-16456500D01*
X10532233Y-16378660D01*
X10583955Y-16336651D01*
X10618441Y-16323685D01*
X10643560Y-16332975D01*
G37*
X10643560Y-16332975D02*
X10667181Y-16357731D01*
X10684894Y-16378279D01*
X10722865Y-16427184D01*
X10727009Y-16472003D01*
X10689642Y-16533339D01*
X10603082Y-16631797D01*
X10581684Y-16655052D01*
X10403216Y-16848666D01*
X10518623Y-16848666D01*
X10646752Y-16886691D01*
X10763732Y-16984715D01*
X10848407Y-17118666D01*
X10879666Y-17259495D01*
X10839240Y-17477994D01*
X10724499Y-17686482D01*
X10598325Y-17822075D01*
X10434055Y-17920118D01*
X10250768Y-17956530D01*
X10073681Y-17930241D01*
X9938298Y-17850109D01*
X9854801Y-17753997D01*
X9802524Y-17660401D01*
X9802069Y-17658994D01*
X9767279Y-17595702D01*
X9739276Y-17587887D01*
X9688938Y-17576615D01*
X9638071Y-17533716D01*
X9958107Y-17533716D01*
X10019187Y-17638593D01*
X10033000Y-17653000D01*
X10157892Y-17726664D01*
X10298989Y-17719504D01*
X10447594Y-17632690D01*
X10572956Y-17494346D01*
X10639870Y-17349718D01*
X10647708Y-17214710D01*
X10595840Y-17105232D01*
X10483637Y-17037190D01*
X10471289Y-17033825D01*
X10320389Y-17037730D01*
X10172732Y-17121508D01*
X10044536Y-17268765D01*
X9966385Y-17416170D01*
X9958107Y-17533716D01*
X9638071Y-17533716D01*
X9636997Y-17532811D01*
X9614095Y-17500023D01*
X9611060Y-17461935D01*
X9634808Y-17407748D01*
X9692254Y-17326667D01*
X9790313Y-17207893D01*
X9935901Y-17040630D01*
X9995605Y-16972893D01*
X10194961Y-16746829D01*
X10345605Y-16576960D01*
X10455406Y-16456500D01*
X10532233Y-16378660D01*
X10583955Y-16336651D01*
X10618441Y-16323685D01*
X10643560Y-16332975D01*
G36*
X9534818Y-15914724D02*
G01*
X9549629Y-15917333D01*
X9565431Y-15951844D01*
X9567333Y-15980026D01*
X9603460Y-16036147D01*
X9673291Y-16069314D01*
X9809405Y-16142592D01*
X9919402Y-16272230D01*
X9982795Y-16430107D01*
X9990666Y-16504959D01*
X9956019Y-16695619D01*
X9862823Y-16873605D01*
X9727200Y-17023343D01*
X9565270Y-17129263D01*
X9393154Y-17175791D01*
X9301487Y-17170708D01*
X9173871Y-17118848D01*
X9053332Y-17025287D01*
X8964537Y-16913865D01*
X8932054Y-16813668D01*
X8915679Y-16789308D01*
X8866633Y-16842192D01*
X8847666Y-16869833D01*
X8780425Y-16991010D01*
X8774188Y-17081745D01*
X8831066Y-17172418D01*
X8871639Y-17215154D01*
X8971715Y-17291163D01*
X9072542Y-17304326D01*
X9099728Y-17299904D01*
X9219638Y-17303955D01*
X9290934Y-17355304D01*
X9337966Y-17417240D01*
X9321036Y-17454528D01*
X9277295Y-17480297D01*
X9107865Y-17527742D01*
X8935000Y-17490616D01*
X8765968Y-17375478D01*
X8627161Y-17216378D01*
X8569313Y-17058092D01*
X8589423Y-16890511D01*
X8607783Y-16842468D01*
X8663903Y-16745454D01*
X8722187Y-16665399D01*
X9101666Y-16665399D01*
X9126761Y-16763422D01*
X9187649Y-16867891D01*
X9262734Y-16948509D01*
X9322814Y-16975666D01*
X9383364Y-16957753D01*
X9478095Y-16914526D01*
X9480681Y-16913193D01*
X9592126Y-16826110D01*
X9693194Y-16699198D01*
X9761904Y-16564391D01*
X9779000Y-16479814D01*
X9741243Y-16373852D01*
X9646228Y-16288523D01*
X9521334Y-16246597D01*
X9497133Y-16245416D01*
X9384396Y-16281083D01*
X9266349Y-16371482D01*
X9166442Y-16491713D01*
X9108120Y-16616873D01*
X9101666Y-16665399D01*
X8722187Y-16665399D01*
X8758496Y-16615529D01*
X8879396Y-16466091D01*
X9014439Y-16310539D01*
X9151462Y-16162269D01*
X9278298Y-16034679D01*
X9382785Y-15941168D01*
X9452757Y-15895133D01*
X9469504Y-15893380D01*
X9534818Y-15914724D01*
G37*
X9534818Y-15914724D02*
X9549629Y-15917333D01*
X9565431Y-15951844D01*
X9567333Y-15980026D01*
X9603460Y-16036147D01*
X9673291Y-16069314D01*
X9809405Y-16142592D01*
X9919402Y-16272230D01*
X9982795Y-16430107D01*
X9990666Y-16504959D01*
X9956019Y-16695619D01*
X9862823Y-16873605D01*
X9727200Y-17023343D01*
X9565270Y-17129263D01*
X9393154Y-17175791D01*
X9301487Y-17170708D01*
X9173871Y-17118848D01*
X9053332Y-17025287D01*
X8964537Y-16913865D01*
X8932054Y-16813668D01*
X8915679Y-16789308D01*
X8866633Y-16842192D01*
X8847666Y-16869833D01*
X8780425Y-16991010D01*
X8774188Y-17081745D01*
X8831066Y-17172418D01*
X8871639Y-17215154D01*
X8971715Y-17291163D01*
X9072542Y-17304326D01*
X9099728Y-17299904D01*
X9219638Y-17303955D01*
X9290934Y-17355304D01*
X9337966Y-17417240D01*
X9321036Y-17454528D01*
X9277295Y-17480297D01*
X9107865Y-17527742D01*
X8935000Y-17490616D01*
X8765968Y-17375478D01*
X8627161Y-17216378D01*
X8569313Y-17058092D01*
X8589423Y-16890511D01*
X8607783Y-16842468D01*
X8663903Y-16745454D01*
X8722187Y-16665399D01*
X9101666Y-16665399D01*
X9126761Y-16763422D01*
X9187649Y-16867891D01*
X9262734Y-16948509D01*
X9322814Y-16975666D01*
X9383364Y-16957753D01*
X9478095Y-16914526D01*
X9480681Y-16913193D01*
X9592126Y-16826110D01*
X9693194Y-16699198D01*
X9761904Y-16564391D01*
X9779000Y-16479814D01*
X9741243Y-16373852D01*
X9646228Y-16288523D01*
X9521334Y-16246597D01*
X9497133Y-16245416D01*
X9384396Y-16281083D01*
X9266349Y-16371482D01*
X9166442Y-16491713D01*
X9108120Y-16616873D01*
X9101666Y-16665399D01*
X8722187Y-16665399D01*
X8758496Y-16615529D01*
X8879396Y-16466091D01*
X9014439Y-16310539D01*
X9151462Y-16162269D01*
X9278298Y-16034679D01*
X9382785Y-15941168D01*
X9452757Y-15895133D01*
X9469504Y-15893380D01*
X9534818Y-15914724D01*
G36*
X8642848Y-15214805D02*
G01*
X8806388Y-15275614D01*
X8951251Y-15383111D01*
X9009481Y-15453170D01*
X9083717Y-15626935D01*
X9087868Y-15807341D01*
X9033304Y-15982221D01*
X8931391Y-16139409D01*
X8793497Y-16266739D01*
X8630989Y-16352044D01*
X8455236Y-16383160D01*
X8277603Y-16347920D01*
X8207282Y-16311722D01*
X8102017Y-16221994D01*
X8027365Y-16126400D01*
X7985337Y-16017134D01*
X7963028Y-15883434D01*
X7961964Y-15755521D01*
X7983672Y-15663614D01*
X8002854Y-15641020D01*
X8071179Y-15638136D01*
X8130808Y-15699580D01*
X8166318Y-15805280D01*
X8170333Y-15859016D01*
X8203481Y-16009416D01*
X8289950Y-16115630D01*
X8410276Y-16166605D01*
X8544998Y-16151291D01*
X8616107Y-16112136D01*
X8654371Y-16077520D01*
X8657326Y-16040656D01*
X8616378Y-15985639D01*
X8522933Y-15896563D01*
X8477435Y-15855475D01*
X8351526Y-15743433D01*
X8238312Y-15644678D01*
X8167041Y-15584513D01*
X8115635Y-15542887D01*
X8442452Y-15542887D01*
X8486478Y-15599150D01*
X8585502Y-15691974D01*
X8594375Y-15699999D01*
X8713530Y-15804854D01*
X8786636Y-15857324D01*
X8828885Y-15863490D01*
X8855468Y-15829432D01*
X8864304Y-15808037D01*
X8887415Y-15686905D01*
X8845024Y-15580855D01*
X8786090Y-15513242D01*
X8678894Y-15429093D01*
X8584319Y-15417505D01*
X8486050Y-15468902D01*
X8445088Y-15505400D01*
X8442452Y-15542887D01*
X8115635Y-15542887D01*
X8076275Y-15511016D01*
X8229914Y-15376119D01*
X8345207Y-15288729D01*
X8455350Y-15226884D01*
X8490438Y-15214396D01*
X8642848Y-15214805D01*
G37*
X8642848Y-15214805D02*
X8806388Y-15275614D01*
X8951251Y-15383111D01*
X9009481Y-15453170D01*
X9083717Y-15626935D01*
X9087868Y-15807341D01*
X9033304Y-15982221D01*
X8931391Y-16139409D01*
X8793497Y-16266739D01*
X8630989Y-16352044D01*
X8455236Y-16383160D01*
X8277603Y-16347920D01*
X8207282Y-16311722D01*
X8102017Y-16221994D01*
X8027365Y-16126400D01*
X7985337Y-16017134D01*
X7963028Y-15883434D01*
X7961964Y-15755521D01*
X7983672Y-15663614D01*
X8002854Y-15641020D01*
X8071179Y-15638136D01*
X8130808Y-15699580D01*
X8166318Y-15805280D01*
X8170333Y-15859016D01*
X8203481Y-16009416D01*
X8289950Y-16115630D01*
X8410276Y-16166605D01*
X8544998Y-16151291D01*
X8616107Y-16112136D01*
X8654371Y-16077520D01*
X8657326Y-16040656D01*
X8616378Y-15985639D01*
X8522933Y-15896563D01*
X8477435Y-15855475D01*
X8351526Y-15743433D01*
X8238312Y-15644678D01*
X8167041Y-15584513D01*
X8115635Y-15542887D01*
X8442452Y-15542887D01*
X8486478Y-15599150D01*
X8585502Y-15691974D01*
X8594375Y-15699999D01*
X8713530Y-15804854D01*
X8786636Y-15857324D01*
X8828885Y-15863490D01*
X8855468Y-15829432D01*
X8864304Y-15808037D01*
X8887415Y-15686905D01*
X8845024Y-15580855D01*
X8786090Y-15513242D01*
X8678894Y-15429093D01*
X8584319Y-15417505D01*
X8486050Y-15468902D01*
X8445088Y-15505400D01*
X8442452Y-15542887D01*
X8115635Y-15542887D01*
X8076275Y-15511016D01*
X8229914Y-15376119D01*
X8345207Y-15288729D01*
X8455350Y-15226884D01*
X8490438Y-15214396D01*
X8642848Y-15214805D01*
D11*
X1473200Y38709600D03*
M02*
