G04 #@! TF.GenerationSoftware,KiCad,Pcbnew,(5.1.5-0)*
G04 #@! TF.CreationDate,2019-12-30T00:03:19-08:00*
G04 #@! TF.ProjectId,badge,62616467-652e-46b6-9963-61645f706362,rev?*
G04 #@! TF.SameCoordinates,Original*
G04 #@! TF.FileFunction,Legend,Top*
G04 #@! TF.FilePolarity,Positive*
%FSLAX46Y46*%
G04 Gerber Fmt 4.6, Leading zero omitted, Abs format (unit mm)*
G04 Created by KiCad (PCBNEW (5.1.5-0)) date 2019-12-30 00:03:19*
%MOMM*%
%LPD*%
G04 APERTURE LIST*
%ADD10C,0.010000*%
G04 APERTURE END LIST*
D10*
G36*
X2667886Y39144704D02*
G01*
X3820170Y39040672D01*
X4085166Y39008896D01*
X5440633Y38801287D01*
X6747314Y38524724D01*
X8006108Y38178808D01*
X9217913Y37763141D01*
X10383627Y37277324D01*
X11504148Y36720958D01*
X12580375Y36093646D01*
X13613207Y35394989D01*
X14603541Y34624589D01*
X15261166Y34052245D01*
X15500336Y33829160D01*
X15769960Y33568498D01*
X16055416Y33285169D01*
X16342080Y32994080D01*
X16615329Y32710140D01*
X16860540Y32448255D01*
X17063089Y32223335D01*
X17121861Y32155324D01*
X17892065Y31187415D01*
X18590218Y30176724D01*
X19216936Y29122044D01*
X19772836Y28022172D01*
X20258534Y26875901D01*
X20674647Y25682026D01*
X20977183Y24616834D01*
X21061528Y24277282D01*
X21135539Y23954819D01*
X21199991Y23641044D01*
X21255658Y23327557D01*
X21303314Y23005958D01*
X21343733Y22667848D01*
X21377690Y22304828D01*
X21405959Y21908496D01*
X21429314Y21470455D01*
X21448530Y20982302D01*
X21464379Y20435640D01*
X21477638Y19822068D01*
X21489080Y19133186D01*
X21490296Y19050000D01*
X21497831Y18087588D01*
X21490915Y17199417D01*
X21468742Y16376169D01*
X21430504Y15608525D01*
X21375393Y14887168D01*
X21302601Y14202778D01*
X21211322Y13546037D01*
X21100747Y12907626D01*
X20970069Y12278227D01*
X20864753Y11832167D01*
X20735537Y11338120D01*
X20595625Y10861895D01*
X20440143Y10390940D01*
X20264215Y9912706D01*
X20062967Y9414641D01*
X19831524Y8884196D01*
X19565011Y8308820D01*
X19258554Y7675961D01*
X19220483Y7598834D01*
X19001434Y7153807D01*
X18818591Y6777412D01*
X18669117Y6463155D01*
X18550173Y6204541D01*
X18458922Y5995075D01*
X18392527Y5828263D01*
X18348150Y5697609D01*
X18322952Y5596621D01*
X18314290Y5524799D01*
X18322262Y5432755D01*
X18373049Y5393654D01*
X18431939Y5383492D01*
X18649082Y5393780D01*
X18912210Y5465100D01*
X19214282Y5592477D01*
X19548255Y5770936D01*
X19907088Y5995505D01*
X20283740Y6261208D01*
X20671170Y6563071D01*
X21062336Y6896121D01*
X21450196Y7255383D01*
X21827710Y7635883D01*
X22187837Y8032646D01*
X22196869Y8043094D01*
X22882615Y8896397D01*
X23512629Y9800853D01*
X24083460Y10748512D01*
X24591653Y11731427D01*
X25033757Y12741647D01*
X25406319Y13771224D01*
X25705885Y14812208D01*
X25929002Y15856651D01*
X26072218Y16896602D01*
X26080531Y16983828D01*
X26097489Y17242375D01*
X26108261Y17568126D01*
X26113158Y17943870D01*
X26112494Y18352395D01*
X26106581Y18776489D01*
X26095732Y19198941D01*
X26080259Y19602537D01*
X26060476Y19970067D01*
X26036694Y20284319D01*
X26017240Y20468167D01*
X25887981Y21367500D01*
X25722280Y22277995D01*
X25517736Y23209029D01*
X25271945Y24169979D01*
X24982506Y25170224D01*
X24647015Y26219141D01*
X24263071Y27326107D01*
X24253386Y27353063D01*
X24038388Y27951659D01*
X23850201Y28477513D01*
X23686627Y28937425D01*
X23545471Y29338195D01*
X23424536Y29686624D01*
X23321625Y29989511D01*
X23234542Y30253658D01*
X23161090Y30485864D01*
X23099072Y30692929D01*
X23046293Y30881655D01*
X23000555Y31058841D01*
X22959662Y31231287D01*
X22921417Y31405794D01*
X22883624Y31589163D01*
X22881198Y31601215D01*
X22821357Y31928058D01*
X22774182Y32256436D01*
X22738851Y32599667D01*
X22714542Y32971071D01*
X22700433Y33383967D01*
X22695701Y33851674D01*
X22699524Y34387511D01*
X22701396Y34513613D01*
X22709456Y34937546D01*
X22720215Y35289167D01*
X22735830Y35580826D01*
X22758460Y35824874D01*
X22790261Y36033664D01*
X22833390Y36219547D01*
X22890006Y36394874D01*
X22962265Y36571997D01*
X23052326Y36763268D01*
X23116811Y36891942D01*
X23416877Y37416042D01*
X23746280Y37862274D01*
X24108453Y38233375D01*
X24506827Y38532083D01*
X24944834Y38761136D01*
X25425905Y38923273D01*
X25748777Y38991642D01*
X25906804Y39009511D01*
X26120200Y39021573D01*
X26359795Y39026673D01*
X26574277Y39024339D01*
X26808700Y39015812D01*
X26979871Y39003571D01*
X27109204Y38984073D01*
X27218113Y38953776D01*
X27328014Y38909140D01*
X27360258Y38894345D01*
X27665599Y38708500D01*
X27944468Y38453707D01*
X28185087Y38144402D01*
X28375676Y37795021D01*
X28474784Y37528500D01*
X28527942Y37269237D01*
X28553122Y36952409D01*
X28550792Y36600196D01*
X28521414Y36234779D01*
X28465457Y35878340D01*
X28437473Y35750500D01*
X28349138Y35347579D01*
X28289226Y34987579D01*
X28253554Y34635290D01*
X28237936Y34255497D01*
X28236333Y34057828D01*
X28251319Y33592611D01*
X28297525Y33195590D01*
X28376819Y32855546D01*
X28482631Y32579033D01*
X28569668Y32406866D01*
X28688415Y32195252D01*
X28841838Y31939474D01*
X29032902Y31634812D01*
X29264576Y31276548D01*
X29539824Y30859963D01*
X29861614Y30380338D01*
X29908671Y30310667D01*
X30370206Y29617641D01*
X30780909Y28977536D01*
X31145969Y28379791D01*
X31470575Y27813846D01*
X31759919Y27269141D01*
X32019191Y26735114D01*
X32253579Y26201205D01*
X32468275Y25656855D01*
X32668468Y25091501D01*
X32859349Y24494585D01*
X32998359Y24023886D01*
X33319275Y22793048D01*
X33594847Y21505910D01*
X33823117Y20178876D01*
X34002132Y18828348D01*
X34129936Y17470730D01*
X34204574Y16122426D01*
X34224092Y14799837D01*
X34204234Y13906500D01*
X34161431Y13088175D01*
X34096574Y12332600D01*
X34006485Y11619989D01*
X33887984Y10930559D01*
X33737893Y10244524D01*
X33553033Y9542097D01*
X33442527Y9165167D01*
X33029776Y7945408D01*
X32538194Y6750252D01*
X31970930Y5583151D01*
X31331133Y4447556D01*
X30621955Y3346919D01*
X29846544Y2284691D01*
X29008051Y1264323D01*
X28109625Y289266D01*
X27154417Y-637028D01*
X26145577Y-1511109D01*
X25086254Y-2329523D01*
X23979598Y-3088822D01*
X22828759Y-3785552D01*
X21636888Y-4416263D01*
X20616333Y-4888180D01*
X20254184Y-5048823D01*
X19903007Y-5211871D01*
X19575228Y-5371072D01*
X19283271Y-5520176D01*
X19039561Y-5652931D01*
X18856525Y-5763087D01*
X18798541Y-5802692D01*
X18609896Y-5982888D01*
X18498670Y-6189402D01*
X18464277Y-6415632D01*
X18506132Y-6654977D01*
X18623649Y-6900833D01*
X18816244Y-7146599D01*
X18927396Y-7255539D01*
X19157280Y-7453565D01*
X19446010Y-7684520D01*
X19779472Y-7938373D01*
X20143556Y-8205091D01*
X20524148Y-8474643D01*
X20907137Y-8736997D01*
X21278410Y-8982122D01*
X21623856Y-9199985D01*
X21865166Y-9343888D01*
X22133474Y-9492927D01*
X22428977Y-9647225D01*
X22730343Y-9796415D01*
X23016242Y-9930131D01*
X23265342Y-10038004D01*
X23403772Y-10091648D01*
X23618216Y-10155604D01*
X23871377Y-10205737D01*
X24171029Y-10242610D01*
X24524943Y-10266785D01*
X24940889Y-10278825D01*
X25426642Y-10279293D01*
X25886833Y-10271332D01*
X26219250Y-10262821D01*
X26513242Y-10252963D01*
X26778191Y-10239932D01*
X27023480Y-10221903D01*
X27258492Y-10197051D01*
X27492610Y-10163551D01*
X27735218Y-10119578D01*
X27995698Y-10063305D01*
X28283433Y-9992909D01*
X28607807Y-9906563D01*
X28978203Y-9802442D01*
X29404003Y-9678722D01*
X29894591Y-9533577D01*
X30298960Y-9413062D01*
X31790088Y-8968030D01*
X32213572Y-9292638D01*
X32545868Y-9576420D01*
X32794984Y-9855177D01*
X32962131Y-10130722D01*
X33048519Y-10404868D01*
X33062097Y-10563855D01*
X33027965Y-10841456D01*
X32928501Y-11157824D01*
X32769514Y-11505818D01*
X32556811Y-11878297D01*
X32296200Y-12268118D01*
X31993488Y-12668140D01*
X31654483Y-13071221D01*
X31284993Y-13470219D01*
X30890825Y-13857992D01*
X30477787Y-14227398D01*
X30051686Y-14571297D01*
X29618330Y-14882545D01*
X29472127Y-14978537D01*
X28840003Y-15346970D01*
X28135660Y-15690201D01*
X27368855Y-16004211D01*
X26549343Y-16284981D01*
X25746329Y-16513290D01*
X25264821Y-16631293D01*
X24836207Y-16721611D01*
X24434753Y-16787964D01*
X24034722Y-16834069D01*
X23610383Y-16863645D01*
X23219833Y-16878343D01*
X22309383Y-16868268D01*
X21424175Y-16787424D01*
X20554991Y-16633706D01*
X19692614Y-16405010D01*
X18827828Y-16099231D01*
X17951414Y-15714265D01*
X17801166Y-15641072D01*
X16882263Y-15144282D01*
X16024498Y-14590757D01*
X15222652Y-13976343D01*
X14471505Y-13296890D01*
X13765836Y-12548244D01*
X13465262Y-12192000D01*
X13204032Y-11884181D01*
X12961069Y-11622088D01*
X12742070Y-11410874D01*
X12552731Y-11255691D01*
X12398750Y-11161693D01*
X12295244Y-11133666D01*
X12187531Y-11172299D01*
X12084758Y-11274673D01*
X12002240Y-11420501D01*
X11956280Y-11582659D01*
X11940560Y-11894036D01*
X11975332Y-12261457D01*
X12057436Y-12675471D01*
X12183713Y-13126624D01*
X12351004Y-13605463D01*
X12556148Y-14102536D01*
X12795986Y-14608390D01*
X13067359Y-15113572D01*
X13227104Y-15384742D01*
X13549864Y-15881495D01*
X13899203Y-16358039D01*
X14263950Y-16801299D01*
X14632935Y-17198201D01*
X14994990Y-17535673D01*
X15216704Y-17713527D01*
X15520021Y-17912100D01*
X15891531Y-18109237D01*
X16314954Y-18297790D01*
X16774009Y-18470616D01*
X17252415Y-18620566D01*
X17335500Y-18643540D01*
X17826622Y-18781461D01*
X18242072Y-18910087D01*
X18589725Y-19033827D01*
X18877459Y-19157094D01*
X19113151Y-19284299D01*
X19304676Y-19419851D01*
X19459912Y-19568161D01*
X19586736Y-19733642D01*
X19693025Y-19920703D01*
X19721032Y-19979401D01*
X19778411Y-20120879D01*
X19811683Y-20256925D01*
X19826743Y-20420160D01*
X19829634Y-20580242D01*
X19827507Y-20756049D01*
X19815627Y-20887713D01*
X19786613Y-21004908D01*
X19733084Y-21137308D01*
X19647657Y-21314589D01*
X19646261Y-21317406D01*
X19415745Y-21693089D01*
X19106126Y-22052883D01*
X18722181Y-22392416D01*
X18268688Y-22707318D01*
X17895191Y-22919799D01*
X17523928Y-23114000D01*
X33824333Y-23114000D01*
X33824333Y-38227000D01*
X-33485667Y-38227000D01*
X-33485667Y-23114000D01*
X-24585084Y-23109692D01*
X-23563561Y-23109177D01*
X-22623481Y-23108641D01*
X-21761620Y-23108055D01*
X-20974755Y-23107391D01*
X-20259662Y-23106620D01*
X-19613117Y-23105712D01*
X-19031897Y-23104638D01*
X-18512777Y-23103371D01*
X-18052535Y-23101880D01*
X-17647946Y-23100137D01*
X-17295787Y-23098112D01*
X-16992834Y-23095778D01*
X-16735864Y-23093104D01*
X-16521652Y-23090063D01*
X-16346976Y-23086624D01*
X-16275163Y-23084618D01*
X-12657667Y-23084618D01*
X-12624550Y-23086083D01*
X-12510005Y-23087548D01*
X-12317270Y-23089008D01*
X-12049584Y-23090455D01*
X-11710186Y-23091885D01*
X-11302314Y-23093292D01*
X-10829208Y-23094669D01*
X-10294104Y-23096011D01*
X-9700242Y-23097313D01*
X-9050862Y-23098567D01*
X-8349200Y-23099769D01*
X-7598496Y-23100912D01*
X-6801988Y-23101991D01*
X-5962915Y-23102999D01*
X-5084516Y-23103932D01*
X-4170029Y-23104782D01*
X-3222692Y-23105545D01*
X-2245745Y-23106215D01*
X-1242425Y-23106785D01*
X-215972Y-23107250D01*
X-84667Y-23107301D01*
X12594166Y-23112132D01*
X12361333Y-22979576D01*
X11343997Y-22355058D01*
X10367723Y-21664643D01*
X9444514Y-20917244D01*
X8818964Y-20348421D01*
X8636704Y-20170567D01*
X8462018Y-19991404D01*
X8289331Y-19803858D01*
X8113069Y-19600857D01*
X7927657Y-19375328D01*
X7727521Y-19120199D01*
X7507085Y-18828398D01*
X7260775Y-18492850D01*
X6983017Y-18106485D01*
X6668235Y-17662228D01*
X6394139Y-17272000D01*
X6082374Y-16828951D01*
X5810442Y-16447582D01*
X5571419Y-16118991D01*
X5358381Y-15834272D01*
X5164403Y-15584522D01*
X4982561Y-15360837D01*
X4805931Y-15154313D01*
X4627589Y-14956046D01*
X4440609Y-14757133D01*
X4428909Y-14744925D01*
X4009833Y-14334963D01*
X3613191Y-14003625D01*
X3235045Y-13749080D01*
X2871460Y-13569498D01*
X2518497Y-13463046D01*
X2172221Y-13427895D01*
X1828694Y-13462213D01*
X1723059Y-13486433D01*
X1558674Y-13532543D01*
X1401664Y-13585581D01*
X1246693Y-13649646D01*
X1088424Y-13728839D01*
X921520Y-13827262D01*
X740644Y-13949013D01*
X540459Y-14098193D01*
X315629Y-14278903D01*
X60817Y-14495243D01*
X-229314Y-14751313D01*
X-560101Y-15051214D01*
X-936881Y-15399046D01*
X-1364991Y-15798909D01*
X-1715144Y-16128050D01*
X-2263959Y-16642722D01*
X-2760472Y-17103422D01*
X-3211882Y-17516411D01*
X-3625389Y-17887948D01*
X-4008192Y-18224295D01*
X-4367491Y-18531712D01*
X-4710484Y-18816461D01*
X-5044372Y-19084801D01*
X-5376354Y-19342994D01*
X-5650106Y-19549962D01*
X-6305815Y-20021645D01*
X-6994950Y-20483440D01*
X-7704516Y-20928006D01*
X-8421519Y-21348004D01*
X-9132964Y-21736093D01*
X-9825855Y-22084934D01*
X-10487199Y-22387186D01*
X-11104000Y-22635510D01*
X-11129491Y-22644928D01*
X-11345623Y-22719965D01*
X-11601131Y-22801663D01*
X-11874333Y-22883785D01*
X-12143546Y-22960091D01*
X-12387091Y-23024345D01*
X-12583285Y-23070307D01*
X-12657667Y-23084618D01*
X-16275163Y-23084618D01*
X-16208611Y-23082759D01*
X-16103333Y-23078440D01*
X-16027920Y-23073636D01*
X-15979147Y-23068320D01*
X-15953790Y-23062462D01*
X-15948627Y-23056033D01*
X-15960433Y-23049005D01*
X-15985984Y-23041348D01*
X-16022057Y-23033033D01*
X-16023167Y-23032795D01*
X-16638799Y-22873878D01*
X-17180438Y-22676325D01*
X-17650070Y-22438856D01*
X-18049681Y-22160193D01*
X-18381256Y-21839057D01*
X-18646784Y-21474168D01*
X-18756586Y-21272500D01*
X-18870532Y-21025046D01*
X-18953892Y-20801554D01*
X-19011091Y-20580196D01*
X-19046558Y-20339144D01*
X-19064719Y-20056571D01*
X-19069979Y-19727333D01*
X-19065209Y-19392124D01*
X-19047062Y-19126091D01*
X-19011812Y-18914299D01*
X-18955737Y-18741808D01*
X-18875114Y-18593683D01*
X-18766218Y-18454984D01*
X-18747750Y-18434651D01*
X-18628055Y-18319940D01*
X-18491582Y-18222139D01*
X-18329393Y-18138786D01*
X-18132548Y-18067417D01*
X-17892109Y-18005570D01*
X-17599136Y-17950784D01*
X-17244691Y-17900595D01*
X-16819835Y-17852542D01*
X-16531167Y-17824067D01*
X-16044196Y-17774720D01*
X-15628744Y-17723347D01*
X-15271705Y-17665262D01*
X-14959973Y-17595776D01*
X-14680443Y-17510203D01*
X-14420009Y-17403857D01*
X-14165565Y-17272050D01*
X-13904005Y-17110096D01*
X-13622224Y-16913308D01*
X-13307116Y-16676998D01*
X-13292667Y-16665916D01*
X-12934270Y-16384872D01*
X-12564954Y-16084342D01*
X-12194816Y-15773316D01*
X-11833953Y-15460785D01*
X-11492463Y-15155740D01*
X-11180441Y-14867171D01*
X-10907986Y-14604068D01*
X-10685193Y-14375423D01*
X-10549365Y-14223196D01*
X-10285197Y-13876393D01*
X-10061182Y-13516649D01*
X-9879507Y-13152930D01*
X-9742359Y-12794201D01*
X-9651924Y-12449427D01*
X-9610389Y-12127574D01*
X-9619942Y-11837609D01*
X-9682769Y-11588495D01*
X-9801056Y-11389200D01*
X-9846497Y-11341578D01*
X-9949050Y-11276419D01*
X-10088035Y-11242734D01*
X-10267516Y-11241703D01*
X-10491559Y-11274510D01*
X-10764227Y-11342334D01*
X-11089584Y-11446357D01*
X-11471696Y-11587760D01*
X-11914626Y-11767724D01*
X-12422440Y-11987431D01*
X-12999200Y-12248061D01*
X-13056792Y-12274562D01*
X-13734298Y-12583017D01*
X-14345365Y-12852943D01*
X-14897465Y-13087108D01*
X-15398072Y-13288278D01*
X-15854658Y-13459222D01*
X-16274697Y-13602706D01*
X-16665661Y-13721499D01*
X-17035024Y-13818366D01*
X-17390258Y-13896077D01*
X-17483667Y-13913939D01*
X-17680590Y-13940672D01*
X-17943584Y-13962105D01*
X-18255414Y-13978111D01*
X-18598844Y-13988563D01*
X-18956640Y-13993332D01*
X-19311566Y-13992290D01*
X-19646387Y-13985311D01*
X-19943868Y-13972267D01*
X-20186773Y-13953029D01*
X-20320000Y-13934952D01*
X-21140710Y-13756360D01*
X-21898255Y-13522436D01*
X-22592209Y-13233338D01*
X-23222142Y-12889223D01*
X-23304500Y-12837115D01*
X-23542468Y-12671617D01*
X-23836316Y-12445904D01*
X-24184132Y-12161632D01*
X-24584000Y-11820457D01*
X-25034005Y-11424036D01*
X-25532234Y-10974024D01*
X-26076772Y-10472079D01*
X-26543426Y-10035215D01*
X-27214021Y-9407963D01*
X-27832284Y-8839066D01*
X-28402941Y-8324328D01*
X-28930720Y-7859551D01*
X-29420346Y-7440540D01*
X-29876548Y-7063098D01*
X-30035500Y-6934993D01*
X-30483115Y-6558668D01*
X-30854330Y-6206103D01*
X-31152697Y-5873195D01*
X-31381769Y-5555845D01*
X-31545096Y-5249950D01*
X-31588484Y-5141843D01*
X-31651193Y-4895958D01*
X-31682821Y-4606130D01*
X-31683375Y-4323541D01*
X-30810571Y-4323541D01*
X-30809053Y-4572464D01*
X-30747985Y-4835382D01*
X-30684974Y-4987992D01*
X-30581324Y-5153800D01*
X-30415526Y-5357354D01*
X-30196170Y-5589874D01*
X-29931848Y-5842580D01*
X-29631148Y-6106692D01*
X-29421667Y-6279189D01*
X-29148030Y-6501055D01*
X-28876742Y-6725688D01*
X-28600628Y-6959468D01*
X-28312510Y-7208774D01*
X-28005211Y-7479986D01*
X-27671555Y-7779483D01*
X-27304365Y-8113644D01*
X-26896465Y-8488848D01*
X-26440677Y-8911476D01*
X-26036343Y-9288385D01*
X-25498479Y-9788681D01*
X-25016303Y-10232684D01*
X-24585623Y-10623957D01*
X-24202249Y-10966061D01*
X-23861987Y-11262561D01*
X-23560648Y-11517020D01*
X-23294039Y-11733000D01*
X-23057969Y-11914065D01*
X-22848246Y-12063778D01*
X-22660678Y-12185702D01*
X-22553540Y-12248978D01*
X-22050356Y-12499624D01*
X-21490111Y-12718031D01*
X-20896741Y-12896610D01*
X-20294184Y-13027771D01*
X-19926737Y-13081917D01*
X-19628199Y-13106682D01*
X-19277257Y-13118624D01*
X-18895571Y-13118477D01*
X-18504804Y-13106973D01*
X-18126615Y-13084845D01*
X-17782667Y-13052825D01*
X-17494622Y-13011645D01*
X-17420167Y-12997156D01*
X-17067683Y-12911215D01*
X-16667171Y-12791622D01*
X-16214885Y-12636931D01*
X-15707079Y-12445696D01*
X-15140006Y-12216474D01*
X-14509921Y-11947818D01*
X-13813078Y-11638285D01*
X-13349625Y-11426940D01*
X-12932230Y-11236194D01*
X-12578191Y-11077507D01*
X-12274851Y-10945646D01*
X-12009555Y-10835378D01*
X-11769645Y-10741470D01*
X-11542466Y-10658690D01*
X-11315362Y-10581804D01*
X-11269386Y-10566852D01*
X-10792419Y-10435921D01*
X-10368916Y-10369293D01*
X-9997076Y-10367127D01*
X-9675099Y-10429584D01*
X-9401183Y-10556825D01*
X-9173529Y-10749009D01*
X-9169342Y-10753620D01*
X-8958064Y-11049220D01*
X-8813655Y-11389581D01*
X-8735529Y-11768296D01*
X-8723098Y-12178959D01*
X-8775776Y-12615164D01*
X-8892975Y-13070504D01*
X-9074109Y-13538573D01*
X-9318590Y-14012965D01*
X-9493918Y-14295666D01*
X-9739067Y-14628852D01*
X-10058430Y-14998901D01*
X-10450651Y-15404494D01*
X-10914376Y-15844314D01*
X-11448250Y-16317044D01*
X-12050916Y-16821367D01*
X-12300088Y-17022947D01*
X-12728931Y-17361095D01*
X-13110296Y-17646075D01*
X-13457735Y-17883399D01*
X-13784800Y-18078584D01*
X-14105045Y-18237143D01*
X-14432020Y-18364590D01*
X-14779279Y-18466442D01*
X-15160372Y-18548210D01*
X-15588854Y-18615412D01*
X-16078275Y-18673560D01*
X-16446500Y-18710150D01*
X-16837586Y-18748228D01*
X-17153919Y-18782342D01*
X-17405222Y-18814193D01*
X-17601219Y-18845483D01*
X-17751633Y-18877912D01*
X-17866189Y-18913181D01*
X-17954609Y-18952990D01*
X-18003155Y-18982431D01*
X-18081538Y-19044869D01*
X-18135526Y-19119040D01*
X-18169704Y-19221444D01*
X-18188657Y-19368582D01*
X-18196972Y-19576955D01*
X-18198379Y-19685000D01*
X-18172010Y-20155377D01*
X-18082960Y-20570460D01*
X-17929289Y-20933933D01*
X-17709059Y-21249482D01*
X-17420331Y-21520792D01*
X-17131935Y-21712365D01*
X-16844295Y-21850633D01*
X-16487508Y-21979249D01*
X-16076885Y-22094539D01*
X-15627733Y-22192832D01*
X-15155362Y-22270454D01*
X-14675080Y-22323734D01*
X-14541500Y-22333775D01*
X-14118167Y-22362127D01*
X-14233563Y-22270127D01*
X-14349613Y-22126954D01*
X-14406623Y-21943495D01*
X-14397744Y-21746132D01*
X-14383153Y-21693857D01*
X-14284950Y-21515932D01*
X-14132430Y-21401253D01*
X-13928586Y-21350746D01*
X-13676409Y-21365332D01*
X-13475897Y-21413799D01*
X-13227679Y-21512728D01*
X-13037499Y-21636845D01*
X-12911639Y-21778604D01*
X-12856381Y-21930458D01*
X-12878005Y-22084858D01*
X-12892058Y-22115284D01*
X-12923592Y-22192446D01*
X-12919987Y-22224941D01*
X-12919740Y-22224945D01*
X-12847144Y-22213598D01*
X-12711963Y-22183000D01*
X-12532743Y-22138112D01*
X-12328029Y-22083899D01*
X-12116367Y-22025322D01*
X-11916300Y-21967344D01*
X-11746376Y-21914929D01*
X-11684000Y-21894245D01*
X-11120331Y-21681873D01*
X-10509199Y-21416415D01*
X-9862928Y-21104734D01*
X-9193843Y-20753693D01*
X-8514267Y-20370157D01*
X-7836524Y-19960988D01*
X-7172940Y-19533051D01*
X-6535837Y-19093209D01*
X-6159500Y-18817511D01*
X-5831477Y-18567438D01*
X-5504045Y-18309484D01*
X-5170182Y-18037527D01*
X-4822864Y-17745444D01*
X-4455070Y-17427113D01*
X-4059775Y-17076410D01*
X-3629958Y-16687213D01*
X-3158596Y-16253400D01*
X-2638665Y-15768846D01*
X-2327209Y-15476381D01*
X-1848973Y-15027596D01*
X-1425793Y-14633868D01*
X-1052246Y-14291002D01*
X-722912Y-13994800D01*
X-432369Y-13741066D01*
X-175195Y-13525603D01*
X54030Y-13344215D01*
X260729Y-13192705D01*
X450322Y-13066877D01*
X628231Y-12962534D01*
X799878Y-12875480D01*
X970683Y-12801518D01*
X1146068Y-12736452D01*
X1262335Y-12697824D01*
X1717534Y-12584235D01*
X2159800Y-12541349D01*
X2594024Y-12570768D01*
X3025093Y-12674092D01*
X3457897Y-12852924D01*
X3897326Y-13108865D01*
X4348267Y-13443517D01*
X4815611Y-13858481D01*
X4820927Y-13863561D01*
X5062611Y-14103658D01*
X5307109Y-14365539D01*
X5560166Y-14656437D01*
X5827523Y-14983583D01*
X6114923Y-15354211D01*
X6428109Y-15775552D01*
X6772824Y-16254839D01*
X7154810Y-16799304D01*
X7174388Y-16827500D01*
X7505330Y-17301643D01*
X7796869Y-17712956D01*
X8055510Y-18069743D01*
X8287762Y-18380312D01*
X8500130Y-18652971D01*
X8699120Y-18896026D01*
X8891240Y-19117783D01*
X9082995Y-19326551D01*
X9280893Y-19530636D01*
X9330810Y-19580624D01*
X9761810Y-19991634D01*
X10219244Y-20394118D01*
X10694847Y-20782683D01*
X11180353Y-21151935D01*
X11667500Y-21496480D01*
X12148021Y-21810926D01*
X12613653Y-22089878D01*
X13056131Y-22327944D01*
X13467190Y-22519730D01*
X13838566Y-22659843D01*
X14161995Y-22742889D01*
X14181666Y-22746267D01*
X14335988Y-22761561D01*
X14551796Y-22769341D01*
X14806291Y-22770109D01*
X15076673Y-22764365D01*
X15340142Y-22752609D01*
X15573897Y-22735341D01*
X15755139Y-22713062D01*
X15763995Y-22711551D01*
X16286467Y-22593209D01*
X16802268Y-22424716D01*
X17296550Y-22213377D01*
X17754463Y-21966499D01*
X18161158Y-21691389D01*
X18501788Y-21395352D01*
X18558690Y-21336405D01*
X18695186Y-21168772D01*
X18815694Y-20981365D01*
X18907699Y-20797389D01*
X18958686Y-20640046D01*
X18964919Y-20583223D01*
X18925033Y-20387330D01*
X18810035Y-20200052D01*
X18629442Y-20032575D01*
X18392771Y-19896085D01*
X18372984Y-19887392D01*
X18269762Y-19849225D01*
X18102315Y-19794515D01*
X17888187Y-19728680D01*
X17644924Y-19657137D01*
X17434889Y-19597702D01*
X16837845Y-19423397D01*
X16314014Y-19250577D01*
X15852271Y-19073295D01*
X15441490Y-18885606D01*
X15070544Y-18681562D01*
X14728307Y-18455217D01*
X14403654Y-18200626D01*
X14085457Y-17911842D01*
X13863130Y-17688788D01*
X13285989Y-17030838D01*
X12752823Y-16301796D01*
X12265085Y-15503780D01*
X11939176Y-14880166D01*
X11650763Y-14248381D01*
X11419267Y-13651633D01*
X11244778Y-13092716D01*
X11127385Y-12574424D01*
X11067178Y-12099549D01*
X11064244Y-11670884D01*
X11118675Y-11291222D01*
X11230559Y-10963356D01*
X11399985Y-10690080D01*
X11627043Y-10474186D01*
X11795050Y-10371267D01*
X12052338Y-10283675D01*
X12338314Y-10259641D01*
X12626250Y-10298707D01*
X12869333Y-10389683D01*
X13029463Y-10494118D01*
X13231669Y-10660843D01*
X13469055Y-10883081D01*
X13734728Y-11154055D01*
X14021792Y-11466988D01*
X14323353Y-11815101D01*
X14342021Y-11837273D01*
X15007003Y-12564006D01*
X15727877Y-13230785D01*
X16499224Y-13834487D01*
X17315623Y-14371986D01*
X18171656Y-14840161D01*
X19061901Y-15235886D01*
X19980939Y-15556039D01*
X20923351Y-15797496D01*
X21357166Y-15880251D01*
X21699474Y-15927068D01*
X22095533Y-15962232D01*
X22522155Y-15985171D01*
X22956148Y-15995312D01*
X23374323Y-15992081D01*
X23753491Y-15974908D01*
X24045333Y-15946646D01*
X24690804Y-15840301D01*
X25364395Y-15690712D01*
X26048297Y-15503773D01*
X26724699Y-15285378D01*
X27375790Y-15041421D01*
X27983760Y-14777796D01*
X28530798Y-14500396D01*
X28690437Y-14409468D01*
X29256162Y-14041648D01*
X29824073Y-13604080D01*
X30378659Y-13109815D01*
X30904411Y-12571901D01*
X30997473Y-12468422D01*
X31264228Y-12152734D01*
X31510143Y-11832523D01*
X31727637Y-11519562D01*
X31909127Y-11225625D01*
X32047030Y-10962483D01*
X32133764Y-10741911D01*
X32150300Y-10678476D01*
X32143223Y-10513911D01*
X32053747Y-10342701D01*
X31883605Y-10167689D01*
X31797656Y-10100407D01*
X31595796Y-9952228D01*
X30328814Y-10332902D01*
X29805445Y-10489377D01*
X29352743Y-10622488D01*
X28960645Y-10734392D01*
X28619088Y-10827241D01*
X28318008Y-10903191D01*
X28047344Y-10964396D01*
X27797031Y-11013010D01*
X27557008Y-11051189D01*
X27317211Y-11081086D01*
X27067576Y-11104856D01*
X26798042Y-11124654D01*
X26564166Y-11138917D01*
X26209551Y-11154576D01*
X25826319Y-11163299D01*
X25428934Y-11165440D01*
X25031859Y-11161356D01*
X24649556Y-11151403D01*
X24296488Y-11135938D01*
X23987117Y-11115315D01*
X23735908Y-11089891D01*
X23582593Y-11065533D01*
X23194806Y-10960446D01*
X22752926Y-10793624D01*
X22259449Y-10566310D01*
X21716869Y-10279746D01*
X21127682Y-9935178D01*
X20494381Y-9533847D01*
X20447000Y-9502697D01*
X19971218Y-9181861D01*
X19527221Y-8867990D01*
X19121232Y-8566111D01*
X18759480Y-8281254D01*
X18448188Y-8018447D01*
X18193584Y-7782721D01*
X18001893Y-7579102D01*
X17899501Y-7444966D01*
X17747291Y-7185708D01*
X17651716Y-6945474D01*
X17602813Y-6691009D01*
X17590484Y-6413500D01*
X17595091Y-6210087D01*
X17611530Y-6059696D01*
X17645593Y-5930894D01*
X17703073Y-5792251D01*
X17706224Y-5785447D01*
X17858530Y-5507034D01*
X18038624Y-5283740D01*
X18270607Y-5087642D01*
X18364158Y-5023145D01*
X18569366Y-4897472D01*
X18834431Y-4750331D01*
X19140442Y-4591303D01*
X19468488Y-4429965D01*
X19799658Y-4275899D01*
X20087166Y-4150357D01*
X21283711Y-3602002D01*
X22453532Y-2976123D01*
X23590872Y-2277221D01*
X24689976Y-1509801D01*
X25745086Y-678367D01*
X26750445Y212577D01*
X27700298Y1158528D01*
X28588888Y2154982D01*
X29314928Y3069167D01*
X30080041Y4152296D01*
X30768125Y5259928D01*
X31378018Y6389509D01*
X31908558Y7538482D01*
X32358582Y8704290D01*
X32726930Y9884378D01*
X33012440Y11076188D01*
X33057084Y11303000D01*
X33172944Y12032647D01*
X33257837Y12830686D01*
X33312296Y13686922D01*
X33336857Y14591162D01*
X33332054Y15533209D01*
X33298423Y16502870D01*
X33236499Y17489949D01*
X33146816Y18484252D01*
X33029909Y19475584D01*
X32886314Y20453749D01*
X32716565Y21408553D01*
X32521198Y22329802D01*
X32466268Y22562587D01*
X32222125Y23508523D01*
X31962585Y24382848D01*
X31683662Y25197843D01*
X31381367Y25965792D01*
X31299150Y26157663D01*
X31108212Y26575338D01*
X30893113Y27005734D01*
X30649041Y27457090D01*
X30371190Y27937643D01*
X30054749Y28455632D01*
X29694910Y29019297D01*
X29286863Y29636875D01*
X29146829Y29845000D01*
X28866333Y30261534D01*
X28628787Y30617314D01*
X28428656Y30920997D01*
X28260401Y31181240D01*
X28118488Y31406696D01*
X27997381Y31606023D01*
X27891542Y31787876D01*
X27806542Y31940500D01*
X27726846Y32084196D01*
X27678719Y32160692D01*
X27654211Y32177663D01*
X27645370Y32142786D01*
X27644262Y32097148D01*
X27607980Y31899694D01*
X27511107Y31730199D01*
X27368972Y31605558D01*
X27196900Y31542662D01*
X27137215Y31538334D01*
X26964260Y31574433D01*
X26782963Y31671459D01*
X26618302Y31812505D01*
X26502019Y31968310D01*
X26436556Y32118545D01*
X26397838Y32300212D01*
X26382222Y32472622D01*
X26385778Y32769576D01*
X26435561Y32996583D01*
X26532501Y33155228D01*
X26677530Y33247096D01*
X26853229Y33274000D01*
X26951420Y33266790D01*
X27033178Y33235999D01*
X27122422Y33167891D01*
X27240140Y33051750D01*
X27455239Y32829500D01*
X27398378Y33147000D01*
X27373190Y33345140D01*
X27358442Y33604267D01*
X27353845Y33932483D01*
X27357749Y34274301D01*
X27373981Y35084101D01*
X27294688Y34923836D01*
X27154982Y34711922D01*
X26966423Y34521939D01*
X26758072Y34382262D01*
X26723027Y34365673D01*
X26501741Y34307023D01*
X26296394Y34327093D01*
X26117064Y34420138D01*
X25973828Y34580416D01*
X25876765Y34802182D01*
X25863264Y34855698D01*
X25838458Y35127019D01*
X25847070Y35200167D01*
X27389666Y35200167D01*
X27410833Y35179000D01*
X27432000Y35200167D01*
X27410833Y35221334D01*
X27389666Y35200167D01*
X25847070Y35200167D01*
X25872836Y35418994D01*
X25958428Y35713475D01*
X26087267Y35992311D01*
X26251383Y36237355D01*
X26442807Y36430457D01*
X26598267Y36529682D01*
X26822159Y36602891D01*
X27020851Y36597552D01*
X27189470Y36517309D01*
X27323141Y36365802D01*
X27416990Y36146677D01*
X27464552Y35882213D01*
X27487712Y35626797D01*
X27572964Y35963815D01*
X27630826Y36266494D01*
X27659663Y36586251D01*
X27659566Y36899341D01*
X27630624Y37182020D01*
X27572925Y37410546D01*
X27567473Y37424760D01*
X27459420Y37627263D01*
X27305474Y37826640D01*
X27130041Y37994816D01*
X26991098Y38087781D01*
X26867829Y38123235D01*
X26681651Y38142004D01*
X26452441Y38145140D01*
X26200076Y38133696D01*
X25944435Y38108722D01*
X25705395Y38071271D01*
X25502834Y38022396D01*
X25454355Y38006449D01*
X25102205Y37843011D01*
X24765449Y37615141D01*
X24471209Y37342255D01*
X24383188Y37239578D01*
X24249955Y37053877D01*
X24106322Y36821378D01*
X23964089Y36564622D01*
X23835055Y36306149D01*
X23731017Y36068497D01*
X23663776Y35874208D01*
X23659103Y35856334D01*
X23642102Y35742707D01*
X23627832Y35556813D01*
X23616302Y35311009D01*
X23607522Y35017652D01*
X23601500Y34689097D01*
X23598246Y34337701D01*
X23597769Y33975821D01*
X23600078Y33615812D01*
X23605183Y33270032D01*
X23613093Y32950836D01*
X23623817Y32670582D01*
X23637364Y32441624D01*
X23653744Y32276321D01*
X23656411Y32258000D01*
X23700943Y31995434D01*
X23755197Y31726602D01*
X23821630Y31443369D01*
X23902701Y31137598D01*
X24000868Y30801151D01*
X24118588Y30425893D01*
X24258321Y30003685D01*
X24422522Y29526391D01*
X24613651Y28985875D01*
X24807326Y28448000D01*
X25160313Y27456527D01*
X25475786Y26531846D01*
X25755766Y25665882D01*
X26002277Y24850560D01*
X26217341Y24077805D01*
X26402981Y23339540D01*
X26561218Y22627690D01*
X26694075Y21934179D01*
X26803575Y21250933D01*
X26891741Y20569875D01*
X26960594Y19882930D01*
X26964848Y19833167D01*
X26982079Y19564955D01*
X26994747Y19234851D01*
X27002855Y18862135D01*
X27006407Y18466087D01*
X27005407Y18065985D01*
X26999859Y17681109D01*
X26989766Y17330738D01*
X26975133Y17034151D01*
X26964262Y16891000D01*
X26828029Y15834296D01*
X26612394Y14771277D01*
X26321319Y13710425D01*
X25958767Y12660223D01*
X25528699Y11629151D01*
X25035078Y10625692D01*
X24481865Y9658327D01*
X23873023Y8735538D01*
X23212513Y7865806D01*
X22504298Y7057614D01*
X22246430Y6791402D01*
X21722383Y6289051D01*
X21206496Y5842555D01*
X20703276Y5454748D01*
X20217232Y5128459D01*
X19752870Y4866520D01*
X19314698Y4671762D01*
X18907221Y4547017D01*
X18596628Y4498759D01*
X18263339Y4505605D01*
X17980570Y4577420D01*
X17751555Y4708938D01*
X17579528Y4894897D01*
X17467721Y5130034D01*
X17419369Y5409084D01*
X17437706Y5726785D01*
X17525964Y6077873D01*
X17563346Y6180667D01*
X17616060Y6306053D01*
X17701034Y6495083D01*
X17812589Y6735708D01*
X17945048Y7015881D01*
X18092732Y7323554D01*
X18249963Y7646678D01*
X18351403Y7852834D01*
X18516099Y8188409D01*
X18678644Y8523979D01*
X18832579Y8845888D01*
X18971443Y9140478D01*
X19088774Y9394091D01*
X19178113Y9593070D01*
X19212515Y9673167D01*
X19605518Y10713346D01*
X19934415Y11797079D01*
X20194990Y12908076D01*
X20383028Y14030048D01*
X20422915Y14351000D01*
X20460100Y14682687D01*
X20491562Y14982874D01*
X20517758Y15262528D01*
X20539145Y15532616D01*
X20556181Y15804103D01*
X20569322Y16087957D01*
X20579027Y16395142D01*
X20585752Y16736627D01*
X20589955Y17123377D01*
X20592092Y17566359D01*
X20592621Y18076538D01*
X20592363Y18415000D01*
X20589933Y19173742D01*
X20584077Y19855802D01*
X20574028Y20469127D01*
X20559023Y21021661D01*
X20538296Y21521347D01*
X20511080Y21976132D01*
X20476611Y22393958D01*
X20434124Y22782771D01*
X20382852Y23150516D01*
X20322032Y23505136D01*
X20250896Y23854576D01*
X20168681Y24206781D01*
X20074620Y24569695D01*
X19967948Y24951263D01*
X19960008Y24978810D01*
X19580521Y26153270D01*
X19134404Y27276468D01*
X18619742Y28351639D01*
X18034620Y29382020D01*
X17377123Y30370844D01*
X16645335Y31321348D01*
X15837343Y32236768D01*
X15394602Y32691866D01*
X14472999Y33556986D01*
X13524015Y34343069D01*
X12543455Y35052505D01*
X11527124Y35687688D01*
X10470830Y36251009D01*
X9370378Y36744860D01*
X8221573Y37171633D01*
X7020222Y37533720D01*
X6805366Y37590330D01*
X5657626Y37855361D01*
X4508389Y38056970D01*
X3339435Y38197620D01*
X2132542Y38279774D01*
X1566333Y38298448D01*
X523924Y38300172D01*
X-455653Y38255299D01*
X-1381502Y38161881D01*
X-2262728Y38017970D01*
X-3108435Y37821617D01*
X-3927727Y37570874D01*
X-4729710Y37263794D01*
X-5523488Y36898429D01*
X-5909929Y36698748D01*
X-6822105Y36171142D01*
X-7736907Y35563463D01*
X-8649048Y34879932D01*
X-9553239Y34124773D01*
X-10444191Y33302208D01*
X-11316618Y32416459D01*
X-11444358Y32279701D01*
X-11859478Y31822094D01*
X-12233936Y31385774D01*
X-12576335Y30958061D01*
X-12895283Y30526270D01*
X-13199383Y30077722D01*
X-13497243Y29599734D01*
X-13797467Y29079624D01*
X-14108661Y28504710D01*
X-14432266Y27876500D01*
X-15061082Y26558191D01*
X-15608478Y25252954D01*
X-16075855Y23956293D01*
X-16464618Y22663713D01*
X-16776169Y21370717D01*
X-17011911Y20072809D01*
X-17120882Y19261381D01*
X-17212538Y18219664D01*
X-17249345Y17156002D01*
X-17232695Y16081552D01*
X-17163980Y15007475D01*
X-17044589Y13944930D01*
X-16875914Y12905076D01*
X-16659346Y11899074D01*
X-16396276Y10938082D01*
X-16088096Y10033259D01*
X-15917145Y9604497D01*
X-15727580Y9171481D01*
X-15518168Y8729459D01*
X-15284078Y8269673D01*
X-15020479Y7783362D01*
X-14722541Y7261766D01*
X-14385432Y6696126D01*
X-14004321Y6077682D01*
X-13745363Y5666325D01*
X-13531830Y5317027D01*
X-13337048Y4974153D01*
X-13167195Y4650070D01*
X-13028451Y4357146D01*
X-12926997Y4107748D01*
X-12869010Y3914242D01*
X-12868366Y3911170D01*
X-12844836Y3636171D01*
X-12891111Y3394977D01*
X-13002451Y3196064D01*
X-13174119Y3047910D01*
X-13400581Y2959168D01*
X-13605869Y2939548D01*
X-13854222Y2964502D01*
X-14150004Y3035403D01*
X-14497575Y3153625D01*
X-14901299Y3320543D01*
X-15365535Y3537531D01*
X-15588548Y3648440D01*
X-15958227Y3841187D01*
X-16286631Y4027223D01*
X-16589112Y4217576D01*
X-16881021Y4423276D01*
X-17177709Y4655351D01*
X-17494529Y4924830D01*
X-17846831Y5242742D01*
X-17981307Y5367445D01*
X-18461441Y5830738D01*
X-18930144Y6313025D01*
X-19377312Y6802607D01*
X-19792843Y7287785D01*
X-20166634Y7756860D01*
X-20488582Y8198133D01*
X-20690393Y8504526D01*
X-20978625Y8997604D01*
X-21272937Y9557368D01*
X-21566326Y10166854D01*
X-21851786Y10809099D01*
X-22122313Y11467140D01*
X-22370903Y12124012D01*
X-22590550Y12762753D01*
X-22774250Y13366398D01*
X-22901674Y13859693D01*
X-23033253Y14502420D01*
X-23145102Y15202992D01*
X-23235580Y15940748D01*
X-23303047Y16695028D01*
X-23345861Y17445169D01*
X-23362380Y18170513D01*
X-23350964Y18850397D01*
X-23329103Y19240500D01*
X-23296222Y19647567D01*
X-23257709Y20044829D01*
X-23212091Y20440151D01*
X-23157894Y20841399D01*
X-23093644Y21256439D01*
X-23017869Y21693135D01*
X-22929094Y22159355D01*
X-22825847Y22662962D01*
X-22706653Y23211823D01*
X-22570039Y23813803D01*
X-22414533Y24476768D01*
X-22238659Y25208583D01*
X-22119724Y25696334D01*
X-21945302Y26413045D01*
X-21791619Y27055410D01*
X-21657243Y27630797D01*
X-21540742Y28146572D01*
X-21440681Y28610102D01*
X-21355629Y29028754D01*
X-21284153Y29409894D01*
X-21224820Y29760888D01*
X-21176198Y30089105D01*
X-21136853Y30401910D01*
X-21105353Y30706669D01*
X-21080265Y31010751D01*
X-21076843Y31058506D01*
X-21051402Y31688897D01*
X-21062309Y32314598D01*
X-21107421Y32929368D01*
X-21184599Y33526965D01*
X-21291700Y34101147D01*
X-21426584Y34645674D01*
X-21587109Y35154304D01*
X-21771134Y35620795D01*
X-21976519Y36038907D01*
X-22201122Y36402397D01*
X-22442802Y36705024D01*
X-22699417Y36940547D01*
X-22968828Y37102724D01*
X-23173939Y37171571D01*
X-23405220Y37191827D01*
X-23675269Y37165789D01*
X-23961898Y37100543D01*
X-24242919Y37003173D01*
X-24496141Y36880767D01*
X-24699375Y36740409D01*
X-24781802Y36658134D01*
X-24852495Y36556031D01*
X-24898690Y36437918D01*
X-24922784Y36287527D01*
X-24927178Y36088593D01*
X-24914269Y35824846D01*
X-24911150Y35780900D01*
X-24896158Y35585831D01*
X-24884193Y35466958D01*
X-24873113Y35415967D01*
X-24860778Y35424544D01*
X-24845047Y35484377D01*
X-24840382Y35506130D01*
X-24772191Y35682755D01*
X-24658452Y35827949D01*
X-24518131Y35922158D01*
X-24412494Y35947384D01*
X-24109653Y35924585D01*
X-23844719Y35826647D01*
X-23619568Y35655047D01*
X-23436078Y35411264D01*
X-23296123Y35096775D01*
X-23283529Y35058125D01*
X-23209888Y34727564D01*
X-23210541Y34435127D01*
X-23285963Y34177477D01*
X-23436628Y33951273D01*
X-23441720Y33945597D01*
X-23640326Y33766377D01*
X-23837521Y33671122D01*
X-24035467Y33659206D01*
X-24218594Y33720531D01*
X-24320603Y33802801D01*
X-24437031Y33942216D01*
X-24552355Y34116723D01*
X-24651052Y34304271D01*
X-24683648Y34381202D01*
X-24703946Y34427460D01*
X-24719116Y34441736D01*
X-24729893Y34415478D01*
X-24737016Y34340135D01*
X-24741221Y34207154D01*
X-24743246Y34007982D01*
X-24743826Y33734066D01*
X-24743834Y33682702D01*
X-24744576Y33384945D01*
X-24747850Y33154329D01*
X-24755227Y32973335D01*
X-24768276Y32824442D01*
X-24788570Y32690131D01*
X-24817677Y32552883D01*
X-24857170Y32395176D01*
X-24860359Y32382939D01*
X-24922306Y32157153D01*
X-24991845Y31928373D01*
X-25072005Y31689291D01*
X-25165814Y31432598D01*
X-25276300Y31150987D01*
X-25406494Y30837149D01*
X-25559424Y30483775D01*
X-25738118Y30083558D01*
X-25945605Y29629188D01*
X-26184914Y29113358D01*
X-26447270Y28553834D01*
X-26701243Y28013229D01*
X-26922374Y27540014D01*
X-27114640Y27125339D01*
X-27282018Y26760352D01*
X-27428487Y26436203D01*
X-27558024Y26144041D01*
X-27674608Y25875015D01*
X-27782215Y25620275D01*
X-27884823Y25370969D01*
X-27947441Y25215831D01*
X-28289383Y24305208D01*
X-28589873Y23379738D01*
X-28850087Y22432186D01*
X-29071203Y21455315D01*
X-29254398Y20441889D01*
X-29400850Y19384672D01*
X-29511737Y18276429D01*
X-29588235Y17109923D01*
X-29631523Y15877919D01*
X-29643076Y14795500D01*
X-29641355Y14255350D01*
X-29634983Y13786657D01*
X-29623162Y13376300D01*
X-29605097Y13011159D01*
X-29579990Y12678112D01*
X-29547047Y12364037D01*
X-29505469Y12055814D01*
X-29459340Y11768667D01*
X-29204325Y10528692D01*
X-28867241Y9303245D01*
X-28450006Y8096143D01*
X-27954538Y6911204D01*
X-27382754Y5752246D01*
X-26736572Y4623086D01*
X-26017910Y3527542D01*
X-25228686Y2469431D01*
X-24370816Y1452571D01*
X-24161424Y1222135D01*
X-23521272Y565585D01*
X-22815626Y-88817D01*
X-22057070Y-732103D01*
X-21258187Y-1355307D01*
X-20431559Y-1949462D01*
X-19589770Y-2505602D01*
X-18745401Y-3014761D01*
X-17911037Y-3467973D01*
X-17099260Y-3856270D01*
X-16933334Y-3928512D01*
X-16519825Y-4110696D01*
X-16181500Y-4272246D01*
X-15912428Y-4416793D01*
X-15706680Y-4547970D01*
X-15558325Y-4669410D01*
X-15461432Y-4784747D01*
X-15425744Y-4852021D01*
X-15385540Y-5004934D01*
X-15395486Y-5163045D01*
X-15459740Y-5334148D01*
X-15582463Y-5526037D01*
X-15767815Y-5746506D01*
X-16019955Y-6003351D01*
X-16061562Y-6043364D01*
X-16643220Y-6547260D01*
X-17250855Y-6973102D01*
X-17881361Y-7320105D01*
X-18531636Y-7587487D01*
X-19198575Y-7774464D01*
X-19879073Y-7880254D01*
X-20570028Y-7904074D01*
X-21268334Y-7845140D01*
X-21970888Y-7702670D01*
X-22282450Y-7612720D01*
X-22575771Y-7510728D01*
X-22868914Y-7388153D01*
X-23169680Y-7240127D01*
X-23485870Y-7061780D01*
X-23825284Y-6848242D01*
X-24195724Y-6594646D01*
X-24604990Y-6296120D01*
X-25060883Y-5947796D01*
X-25484667Y-5613880D01*
X-26158542Y-5105839D01*
X-26806868Y-4676318D01*
X-27432266Y-4323996D01*
X-28037355Y-4047550D01*
X-28624757Y-3845658D01*
X-29197093Y-3716999D01*
X-29265604Y-3706311D01*
X-29599368Y-3661783D01*
X-29865119Y-3640348D01*
X-30076922Y-3644322D01*
X-30248841Y-3676016D01*
X-30394940Y-3737745D01*
X-30529284Y-3831820D01*
X-30637827Y-3932005D01*
X-30753256Y-4104693D01*
X-30810571Y-4323541D01*
X-31683375Y-4323541D01*
X-31683417Y-4302521D01*
X-31653031Y-4015294D01*
X-31591711Y-3774611D01*
X-31586218Y-3760173D01*
X-31473789Y-3556667D01*
X-31300382Y-3345006D01*
X-31085234Y-3144115D01*
X-30847584Y-2972923D01*
X-30705981Y-2894188D01*
X-30603687Y-2845902D01*
X-30515016Y-2812632D01*
X-30421046Y-2791753D01*
X-30302850Y-2780635D01*
X-30141505Y-2776652D01*
X-29918086Y-2777175D01*
X-29866167Y-2777574D01*
X-29289780Y-2809621D01*
X-28728318Y-2898942D01*
X-28167271Y-3049430D01*
X-27592127Y-3264978D01*
X-26988375Y-3549480D01*
X-26987500Y-3549929D01*
X-26710722Y-3696931D01*
X-26445670Y-3848486D01*
X-26180358Y-4012661D01*
X-25902802Y-4197524D01*
X-25601014Y-4411142D01*
X-25263008Y-4661583D01*
X-24876799Y-4956914D01*
X-24743834Y-5060071D01*
X-24260418Y-5431254D01*
X-23830525Y-5749545D01*
X-23445509Y-6019529D01*
X-23096720Y-6245788D01*
X-22775513Y-6432906D01*
X-22473239Y-6585466D01*
X-22181252Y-6708051D01*
X-21890903Y-6805245D01*
X-21593546Y-6881629D01*
X-21280533Y-6941789D01*
X-21156904Y-6961167D01*
X-20759198Y-7008747D01*
X-20402456Y-7023709D01*
X-20049563Y-7006184D01*
X-19727158Y-6966181D01*
X-19105993Y-6830544D01*
X-18495705Y-6614578D01*
X-17904687Y-6322584D01*
X-17341331Y-5958864D01*
X-16814029Y-5527718D01*
X-16686754Y-5407901D01*
X-16419008Y-5148584D01*
X-16577366Y-5067341D01*
X-16680011Y-5017998D01*
X-16838031Y-4945929D01*
X-17028790Y-4861319D01*
X-17204945Y-4784929D01*
X-18259847Y-4292798D01*
X-19313275Y-3723752D01*
X-20355668Y-3085153D01*
X-21377468Y-2384367D01*
X-22369117Y-1628757D01*
X-23321054Y-825687D01*
X-24223721Y17478D01*
X-25067559Y893374D01*
X-25843009Y1794638D01*
X-25998817Y1989667D01*
X-26775039Y3037836D01*
X-27487274Y4129368D01*
X-28132821Y5258103D01*
X-28708976Y6417881D01*
X-29213038Y7602540D01*
X-29642305Y8805921D01*
X-29994073Y10021863D01*
X-30265641Y11244205D01*
X-30393331Y12007908D01*
X-30448697Y12475383D01*
X-30490311Y13015221D01*
X-30518525Y13616304D01*
X-30533690Y14267511D01*
X-30536157Y14957721D01*
X-30526277Y15675816D01*
X-30504400Y16410675D01*
X-30470879Y17151177D01*
X-30426064Y17886204D01*
X-30370306Y18604635D01*
X-30303956Y19295350D01*
X-30227365Y19947229D01*
X-30140885Y20549152D01*
X-30119553Y20679834D01*
X-30018950Y21253727D01*
X-29913026Y21798930D01*
X-29799015Y22323415D01*
X-29674152Y22835156D01*
X-29535672Y23342122D01*
X-29380809Y23852288D01*
X-29206799Y24373625D01*
X-29010876Y24914106D01*
X-28790276Y25481702D01*
X-28542232Y26084385D01*
X-28263981Y26730128D01*
X-27952756Y27426904D01*
X-27605792Y28182684D01*
X-27263633Y28913667D01*
X-26981688Y29514500D01*
X-26735278Y30046352D01*
X-26521723Y30515792D01*
X-26338340Y30929391D01*
X-26182447Y31293717D01*
X-26051364Y31615340D01*
X-25942409Y31900830D01*
X-25852899Y32156757D01*
X-25780154Y32389689D01*
X-25721491Y32606197D01*
X-25676557Y32801725D01*
X-25633011Y33108215D01*
X-25615125Y33482835D01*
X-25622741Y33913080D01*
X-25655701Y34386448D01*
X-25701842Y34800426D01*
X-25744900Y35181701D01*
X-25775135Y35554259D01*
X-25792230Y35904348D01*
X-25795868Y36218212D01*
X-25785733Y36482097D01*
X-25761506Y36682247D01*
X-25746665Y36745334D01*
X-25626980Y37012097D01*
X-25434189Y37262641D01*
X-25179269Y37490670D01*
X-24873197Y37689886D01*
X-24526950Y37853996D01*
X-24151505Y37976702D01*
X-23757838Y38051710D01*
X-23431500Y38073190D01*
X-23086571Y38055991D01*
X-22789744Y37993618D01*
X-22513235Y37878431D01*
X-22328853Y37770079D01*
X-21963115Y37484792D01*
X-21626199Y37123296D01*
X-21319727Y36689563D01*
X-21045319Y36187563D01*
X-20804595Y35621264D01*
X-20599177Y34994639D01*
X-20430686Y34311655D01*
X-20300741Y33576285D01*
X-20210963Y32792497D01*
X-20191054Y32533167D01*
X-20171085Y32156256D01*
X-20163342Y31779485D01*
X-20168807Y31396519D01*
X-20188461Y31001018D01*
X-20223288Y30586647D01*
X-20274269Y30147066D01*
X-20342385Y29675938D01*
X-20428618Y29166926D01*
X-20533951Y28613692D01*
X-20659365Y28009899D01*
X-20805843Y27349209D01*
X-20974365Y26625285D01*
X-21165915Y25831788D01*
X-21335555Y25146000D01*
X-21519449Y24400225D01*
X-21680999Y23724681D01*
X-21822345Y23108552D01*
X-21945627Y22541018D01*
X-22052984Y22011263D01*
X-22146555Y21508469D01*
X-22228480Y21021818D01*
X-22300898Y20540492D01*
X-22365949Y20053673D01*
X-22403032Y19748500D01*
X-22425782Y19489219D01*
X-22442502Y19162344D01*
X-22453304Y18784724D01*
X-22458298Y18373211D01*
X-22457595Y17944654D01*
X-22451304Y17515903D01*
X-22439538Y17103809D01*
X-22422407Y16725220D01*
X-22400020Y16396987D01*
X-22379671Y16192500D01*
X-22278718Y15434156D01*
X-22161206Y14728958D01*
X-22022549Y14061772D01*
X-21858162Y13417467D01*
X-21663459Y12780910D01*
X-21433855Y12136968D01*
X-21164764Y11470508D01*
X-20851600Y10766398D01*
X-20532438Y10096500D01*
X-20296523Y9631401D01*
X-20061265Y9206683D01*
X-19817241Y8809408D01*
X-19555028Y8426635D01*
X-19265202Y8045426D01*
X-18938341Y7652839D01*
X-18565023Y7235935D01*
X-18135823Y6781774D01*
X-18066232Y6709834D01*
X-17647925Y6285989D01*
X-17270217Y5920694D01*
X-16922156Y5605334D01*
X-16592792Y5331294D01*
X-16271175Y5089958D01*
X-15946353Y4872712D01*
X-15607376Y4670941D01*
X-15243292Y4476029D01*
X-15196555Y4452267D01*
X-14905598Y4308495D01*
X-14628488Y4177932D01*
X-14375451Y4064849D01*
X-14156712Y3973514D01*
X-13982496Y3908196D01*
X-13863029Y3873164D01*
X-13808537Y3872687D01*
X-13808476Y3872747D01*
X-13812745Y3924014D01*
X-13856143Y4035971D01*
X-13932843Y4197558D01*
X-14037020Y4397718D01*
X-14162850Y4625393D01*
X-14304505Y4869525D01*
X-14456161Y5119056D01*
X-14511399Y5207000D01*
X-15006489Y6001246D01*
X-15449104Y6741111D01*
X-15843002Y7435508D01*
X-16191945Y8093352D01*
X-16499690Y8723553D01*
X-16769998Y9335027D01*
X-17006628Y9936686D01*
X-17213340Y10537443D01*
X-17393893Y11146211D01*
X-17552046Y11771904D01*
X-17691559Y12423434D01*
X-17796997Y12996634D01*
X-17991744Y14366594D01*
X-18103916Y15731869D01*
X-18133327Y17093714D01*
X-18079793Y18453382D01*
X-17943125Y19812126D01*
X-17723140Y21171199D01*
X-17419650Y22531856D01*
X-17032470Y23895349D01*
X-16561414Y25262933D01*
X-16006297Y26635859D01*
X-15659757Y27405114D01*
X-15273713Y28210131D01*
X-14898641Y28944361D01*
X-14526494Y29619518D01*
X-14149225Y30247319D01*
X-13758788Y30839478D01*
X-13347136Y31407711D01*
X-12906222Y31963733D01*
X-12428001Y32519260D01*
X-11904425Y33086007D01*
X-11408834Y33594234D01*
X-10475240Y34491673D01*
X-9544529Y35305888D01*
X-8614406Y36038163D01*
X-7682572Y36689782D01*
X-6746730Y37262029D01*
X-5804583Y37756187D01*
X-4853834Y38173542D01*
X-3892184Y38515376D01*
X-2917337Y38782974D01*
X-1926996Y38977620D01*
X-1720881Y39008768D01*
X-684849Y39125561D01*
X401324Y39187148D01*
X1523587Y39193529D01*
X2667886Y39144704D01*
G37*
X2667886Y39144704D02*
X3820170Y39040672D01*
X4085166Y39008896D01*
X5440633Y38801287D01*
X6747314Y38524724D01*
X8006108Y38178808D01*
X9217913Y37763141D01*
X10383627Y37277324D01*
X11504148Y36720958D01*
X12580375Y36093646D01*
X13613207Y35394989D01*
X14603541Y34624589D01*
X15261166Y34052245D01*
X15500336Y33829160D01*
X15769960Y33568498D01*
X16055416Y33285169D01*
X16342080Y32994080D01*
X16615329Y32710140D01*
X16860540Y32448255D01*
X17063089Y32223335D01*
X17121861Y32155324D01*
X17892065Y31187415D01*
X18590218Y30176724D01*
X19216936Y29122044D01*
X19772836Y28022172D01*
X20258534Y26875901D01*
X20674647Y25682026D01*
X20977183Y24616834D01*
X21061528Y24277282D01*
X21135539Y23954819D01*
X21199991Y23641044D01*
X21255658Y23327557D01*
X21303314Y23005958D01*
X21343733Y22667848D01*
X21377690Y22304828D01*
X21405959Y21908496D01*
X21429314Y21470455D01*
X21448530Y20982302D01*
X21464379Y20435640D01*
X21477638Y19822068D01*
X21489080Y19133186D01*
X21490296Y19050000D01*
X21497831Y18087588D01*
X21490915Y17199417D01*
X21468742Y16376169D01*
X21430504Y15608525D01*
X21375393Y14887168D01*
X21302601Y14202778D01*
X21211322Y13546037D01*
X21100747Y12907626D01*
X20970069Y12278227D01*
X20864753Y11832167D01*
X20735537Y11338120D01*
X20595625Y10861895D01*
X20440143Y10390940D01*
X20264215Y9912706D01*
X20062967Y9414641D01*
X19831524Y8884196D01*
X19565011Y8308820D01*
X19258554Y7675961D01*
X19220483Y7598834D01*
X19001434Y7153807D01*
X18818591Y6777412D01*
X18669117Y6463155D01*
X18550173Y6204541D01*
X18458922Y5995075D01*
X18392527Y5828263D01*
X18348150Y5697609D01*
X18322952Y5596621D01*
X18314290Y5524799D01*
X18322262Y5432755D01*
X18373049Y5393654D01*
X18431939Y5383492D01*
X18649082Y5393780D01*
X18912210Y5465100D01*
X19214282Y5592477D01*
X19548255Y5770936D01*
X19907088Y5995505D01*
X20283740Y6261208D01*
X20671170Y6563071D01*
X21062336Y6896121D01*
X21450196Y7255383D01*
X21827710Y7635883D01*
X22187837Y8032646D01*
X22196869Y8043094D01*
X22882615Y8896397D01*
X23512629Y9800853D01*
X24083460Y10748512D01*
X24591653Y11731427D01*
X25033757Y12741647D01*
X25406319Y13771224D01*
X25705885Y14812208D01*
X25929002Y15856651D01*
X26072218Y16896602D01*
X26080531Y16983828D01*
X26097489Y17242375D01*
X26108261Y17568126D01*
X26113158Y17943870D01*
X26112494Y18352395D01*
X26106581Y18776489D01*
X26095732Y19198941D01*
X26080259Y19602537D01*
X26060476Y19970067D01*
X26036694Y20284319D01*
X26017240Y20468167D01*
X25887981Y21367500D01*
X25722280Y22277995D01*
X25517736Y23209029D01*
X25271945Y24169979D01*
X24982506Y25170224D01*
X24647015Y26219141D01*
X24263071Y27326107D01*
X24253386Y27353063D01*
X24038388Y27951659D01*
X23850201Y28477513D01*
X23686627Y28937425D01*
X23545471Y29338195D01*
X23424536Y29686624D01*
X23321625Y29989511D01*
X23234542Y30253658D01*
X23161090Y30485864D01*
X23099072Y30692929D01*
X23046293Y30881655D01*
X23000555Y31058841D01*
X22959662Y31231287D01*
X22921417Y31405794D01*
X22883624Y31589163D01*
X22881198Y31601215D01*
X22821357Y31928058D01*
X22774182Y32256436D01*
X22738851Y32599667D01*
X22714542Y32971071D01*
X22700433Y33383967D01*
X22695701Y33851674D01*
X22699524Y34387511D01*
X22701396Y34513613D01*
X22709456Y34937546D01*
X22720215Y35289167D01*
X22735830Y35580826D01*
X22758460Y35824874D01*
X22790261Y36033664D01*
X22833390Y36219547D01*
X22890006Y36394874D01*
X22962265Y36571997D01*
X23052326Y36763268D01*
X23116811Y36891942D01*
X23416877Y37416042D01*
X23746280Y37862274D01*
X24108453Y38233375D01*
X24506827Y38532083D01*
X24944834Y38761136D01*
X25425905Y38923273D01*
X25748777Y38991642D01*
X25906804Y39009511D01*
X26120200Y39021573D01*
X26359795Y39026673D01*
X26574277Y39024339D01*
X26808700Y39015812D01*
X26979871Y39003571D01*
X27109204Y38984073D01*
X27218113Y38953776D01*
X27328014Y38909140D01*
X27360258Y38894345D01*
X27665599Y38708500D01*
X27944468Y38453707D01*
X28185087Y38144402D01*
X28375676Y37795021D01*
X28474784Y37528500D01*
X28527942Y37269237D01*
X28553122Y36952409D01*
X28550792Y36600196D01*
X28521414Y36234779D01*
X28465457Y35878340D01*
X28437473Y35750500D01*
X28349138Y35347579D01*
X28289226Y34987579D01*
X28253554Y34635290D01*
X28237936Y34255497D01*
X28236333Y34057828D01*
X28251319Y33592611D01*
X28297525Y33195590D01*
X28376819Y32855546D01*
X28482631Y32579033D01*
X28569668Y32406866D01*
X28688415Y32195252D01*
X28841838Y31939474D01*
X29032902Y31634812D01*
X29264576Y31276548D01*
X29539824Y30859963D01*
X29861614Y30380338D01*
X29908671Y30310667D01*
X30370206Y29617641D01*
X30780909Y28977536D01*
X31145969Y28379791D01*
X31470575Y27813846D01*
X31759919Y27269141D01*
X32019191Y26735114D01*
X32253579Y26201205D01*
X32468275Y25656855D01*
X32668468Y25091501D01*
X32859349Y24494585D01*
X32998359Y24023886D01*
X33319275Y22793048D01*
X33594847Y21505910D01*
X33823117Y20178876D01*
X34002132Y18828348D01*
X34129936Y17470730D01*
X34204574Y16122426D01*
X34224092Y14799837D01*
X34204234Y13906500D01*
X34161431Y13088175D01*
X34096574Y12332600D01*
X34006485Y11619989D01*
X33887984Y10930559D01*
X33737893Y10244524D01*
X33553033Y9542097D01*
X33442527Y9165167D01*
X33029776Y7945408D01*
X32538194Y6750252D01*
X31970930Y5583151D01*
X31331133Y4447556D01*
X30621955Y3346919D01*
X29846544Y2284691D01*
X29008051Y1264323D01*
X28109625Y289266D01*
X27154417Y-637028D01*
X26145577Y-1511109D01*
X25086254Y-2329523D01*
X23979598Y-3088822D01*
X22828759Y-3785552D01*
X21636888Y-4416263D01*
X20616333Y-4888180D01*
X20254184Y-5048823D01*
X19903007Y-5211871D01*
X19575228Y-5371072D01*
X19283271Y-5520176D01*
X19039561Y-5652931D01*
X18856525Y-5763087D01*
X18798541Y-5802692D01*
X18609896Y-5982888D01*
X18498670Y-6189402D01*
X18464277Y-6415632D01*
X18506132Y-6654977D01*
X18623649Y-6900833D01*
X18816244Y-7146599D01*
X18927396Y-7255539D01*
X19157280Y-7453565D01*
X19446010Y-7684520D01*
X19779472Y-7938373D01*
X20143556Y-8205091D01*
X20524148Y-8474643D01*
X20907137Y-8736997D01*
X21278410Y-8982122D01*
X21623856Y-9199985D01*
X21865166Y-9343888D01*
X22133474Y-9492927D01*
X22428977Y-9647225D01*
X22730343Y-9796415D01*
X23016242Y-9930131D01*
X23265342Y-10038004D01*
X23403772Y-10091648D01*
X23618216Y-10155604D01*
X23871377Y-10205737D01*
X24171029Y-10242610D01*
X24524943Y-10266785D01*
X24940889Y-10278825D01*
X25426642Y-10279293D01*
X25886833Y-10271332D01*
X26219250Y-10262821D01*
X26513242Y-10252963D01*
X26778191Y-10239932D01*
X27023480Y-10221903D01*
X27258492Y-10197051D01*
X27492610Y-10163551D01*
X27735218Y-10119578D01*
X27995698Y-10063305D01*
X28283433Y-9992909D01*
X28607807Y-9906563D01*
X28978203Y-9802442D01*
X29404003Y-9678722D01*
X29894591Y-9533577D01*
X30298960Y-9413062D01*
X31790088Y-8968030D01*
X32213572Y-9292638D01*
X32545868Y-9576420D01*
X32794984Y-9855177D01*
X32962131Y-10130722D01*
X33048519Y-10404868D01*
X33062097Y-10563855D01*
X33027965Y-10841456D01*
X32928501Y-11157824D01*
X32769514Y-11505818D01*
X32556811Y-11878297D01*
X32296200Y-12268118D01*
X31993488Y-12668140D01*
X31654483Y-13071221D01*
X31284993Y-13470219D01*
X30890825Y-13857992D01*
X30477787Y-14227398D01*
X30051686Y-14571297D01*
X29618330Y-14882545D01*
X29472127Y-14978537D01*
X28840003Y-15346970D01*
X28135660Y-15690201D01*
X27368855Y-16004211D01*
X26549343Y-16284981D01*
X25746329Y-16513290D01*
X25264821Y-16631293D01*
X24836207Y-16721611D01*
X24434753Y-16787964D01*
X24034722Y-16834069D01*
X23610383Y-16863645D01*
X23219833Y-16878343D01*
X22309383Y-16868268D01*
X21424175Y-16787424D01*
X20554991Y-16633706D01*
X19692614Y-16405010D01*
X18827828Y-16099231D01*
X17951414Y-15714265D01*
X17801166Y-15641072D01*
X16882263Y-15144282D01*
X16024498Y-14590757D01*
X15222652Y-13976343D01*
X14471505Y-13296890D01*
X13765836Y-12548244D01*
X13465262Y-12192000D01*
X13204032Y-11884181D01*
X12961069Y-11622088D01*
X12742070Y-11410874D01*
X12552731Y-11255691D01*
X12398750Y-11161693D01*
X12295244Y-11133666D01*
X12187531Y-11172299D01*
X12084758Y-11274673D01*
X12002240Y-11420501D01*
X11956280Y-11582659D01*
X11940560Y-11894036D01*
X11975332Y-12261457D01*
X12057436Y-12675471D01*
X12183713Y-13126624D01*
X12351004Y-13605463D01*
X12556148Y-14102536D01*
X12795986Y-14608390D01*
X13067359Y-15113572D01*
X13227104Y-15384742D01*
X13549864Y-15881495D01*
X13899203Y-16358039D01*
X14263950Y-16801299D01*
X14632935Y-17198201D01*
X14994990Y-17535673D01*
X15216704Y-17713527D01*
X15520021Y-17912100D01*
X15891531Y-18109237D01*
X16314954Y-18297790D01*
X16774009Y-18470616D01*
X17252415Y-18620566D01*
X17335500Y-18643540D01*
X17826622Y-18781461D01*
X18242072Y-18910087D01*
X18589725Y-19033827D01*
X18877459Y-19157094D01*
X19113151Y-19284299D01*
X19304676Y-19419851D01*
X19459912Y-19568161D01*
X19586736Y-19733642D01*
X19693025Y-19920703D01*
X19721032Y-19979401D01*
X19778411Y-20120879D01*
X19811683Y-20256925D01*
X19826743Y-20420160D01*
X19829634Y-20580242D01*
X19827507Y-20756049D01*
X19815627Y-20887713D01*
X19786613Y-21004908D01*
X19733084Y-21137308D01*
X19647657Y-21314589D01*
X19646261Y-21317406D01*
X19415745Y-21693089D01*
X19106126Y-22052883D01*
X18722181Y-22392416D01*
X18268688Y-22707318D01*
X17895191Y-22919799D01*
X17523928Y-23114000D01*
X33824333Y-23114000D01*
X33824333Y-38227000D01*
X-33485667Y-38227000D01*
X-33485667Y-23114000D01*
X-24585084Y-23109692D01*
X-23563561Y-23109177D01*
X-22623481Y-23108641D01*
X-21761620Y-23108055D01*
X-20974755Y-23107391D01*
X-20259662Y-23106620D01*
X-19613117Y-23105712D01*
X-19031897Y-23104638D01*
X-18512777Y-23103371D01*
X-18052535Y-23101880D01*
X-17647946Y-23100137D01*
X-17295787Y-23098112D01*
X-16992834Y-23095778D01*
X-16735864Y-23093104D01*
X-16521652Y-23090063D01*
X-16346976Y-23086624D01*
X-16275163Y-23084618D01*
X-12657667Y-23084618D01*
X-12624550Y-23086083D01*
X-12510005Y-23087548D01*
X-12317270Y-23089008D01*
X-12049584Y-23090455D01*
X-11710186Y-23091885D01*
X-11302314Y-23093292D01*
X-10829208Y-23094669D01*
X-10294104Y-23096011D01*
X-9700242Y-23097313D01*
X-9050862Y-23098567D01*
X-8349200Y-23099769D01*
X-7598496Y-23100912D01*
X-6801988Y-23101991D01*
X-5962915Y-23102999D01*
X-5084516Y-23103932D01*
X-4170029Y-23104782D01*
X-3222692Y-23105545D01*
X-2245745Y-23106215D01*
X-1242425Y-23106785D01*
X-215972Y-23107250D01*
X-84667Y-23107301D01*
X12594166Y-23112132D01*
X12361333Y-22979576D01*
X11343997Y-22355058D01*
X10367723Y-21664643D01*
X9444514Y-20917244D01*
X8818964Y-20348421D01*
X8636704Y-20170567D01*
X8462018Y-19991404D01*
X8289331Y-19803858D01*
X8113069Y-19600857D01*
X7927657Y-19375328D01*
X7727521Y-19120199D01*
X7507085Y-18828398D01*
X7260775Y-18492850D01*
X6983017Y-18106485D01*
X6668235Y-17662228D01*
X6394139Y-17272000D01*
X6082374Y-16828951D01*
X5810442Y-16447582D01*
X5571419Y-16118991D01*
X5358381Y-15834272D01*
X5164403Y-15584522D01*
X4982561Y-15360837D01*
X4805931Y-15154313D01*
X4627589Y-14956046D01*
X4440609Y-14757133D01*
X4428909Y-14744925D01*
X4009833Y-14334963D01*
X3613191Y-14003625D01*
X3235045Y-13749080D01*
X2871460Y-13569498D01*
X2518497Y-13463046D01*
X2172221Y-13427895D01*
X1828694Y-13462213D01*
X1723059Y-13486433D01*
X1558674Y-13532543D01*
X1401664Y-13585581D01*
X1246693Y-13649646D01*
X1088424Y-13728839D01*
X921520Y-13827262D01*
X740644Y-13949013D01*
X540459Y-14098193D01*
X315629Y-14278903D01*
X60817Y-14495243D01*
X-229314Y-14751313D01*
X-560101Y-15051214D01*
X-936881Y-15399046D01*
X-1364991Y-15798909D01*
X-1715144Y-16128050D01*
X-2263959Y-16642722D01*
X-2760472Y-17103422D01*
X-3211882Y-17516411D01*
X-3625389Y-17887948D01*
X-4008192Y-18224295D01*
X-4367491Y-18531712D01*
X-4710484Y-18816461D01*
X-5044372Y-19084801D01*
X-5376354Y-19342994D01*
X-5650106Y-19549962D01*
X-6305815Y-20021645D01*
X-6994950Y-20483440D01*
X-7704516Y-20928006D01*
X-8421519Y-21348004D01*
X-9132964Y-21736093D01*
X-9825855Y-22084934D01*
X-10487199Y-22387186D01*
X-11104000Y-22635510D01*
X-11129491Y-22644928D01*
X-11345623Y-22719965D01*
X-11601131Y-22801663D01*
X-11874333Y-22883785D01*
X-12143546Y-22960091D01*
X-12387091Y-23024345D01*
X-12583285Y-23070307D01*
X-12657667Y-23084618D01*
X-16275163Y-23084618D01*
X-16208611Y-23082759D01*
X-16103333Y-23078440D01*
X-16027920Y-23073636D01*
X-15979147Y-23068320D01*
X-15953790Y-23062462D01*
X-15948627Y-23056033D01*
X-15960433Y-23049005D01*
X-15985984Y-23041348D01*
X-16022057Y-23033033D01*
X-16023167Y-23032795D01*
X-16638799Y-22873878D01*
X-17180438Y-22676325D01*
X-17650070Y-22438856D01*
X-18049681Y-22160193D01*
X-18381256Y-21839057D01*
X-18646784Y-21474168D01*
X-18756586Y-21272500D01*
X-18870532Y-21025046D01*
X-18953892Y-20801554D01*
X-19011091Y-20580196D01*
X-19046558Y-20339144D01*
X-19064719Y-20056571D01*
X-19069979Y-19727333D01*
X-19065209Y-19392124D01*
X-19047062Y-19126091D01*
X-19011812Y-18914299D01*
X-18955737Y-18741808D01*
X-18875114Y-18593683D01*
X-18766218Y-18454984D01*
X-18747750Y-18434651D01*
X-18628055Y-18319940D01*
X-18491582Y-18222139D01*
X-18329393Y-18138786D01*
X-18132548Y-18067417D01*
X-17892109Y-18005570D01*
X-17599136Y-17950784D01*
X-17244691Y-17900595D01*
X-16819835Y-17852542D01*
X-16531167Y-17824067D01*
X-16044196Y-17774720D01*
X-15628744Y-17723347D01*
X-15271705Y-17665262D01*
X-14959973Y-17595776D01*
X-14680443Y-17510203D01*
X-14420009Y-17403857D01*
X-14165565Y-17272050D01*
X-13904005Y-17110096D01*
X-13622224Y-16913308D01*
X-13307116Y-16676998D01*
X-13292667Y-16665916D01*
X-12934270Y-16384872D01*
X-12564954Y-16084342D01*
X-12194816Y-15773316D01*
X-11833953Y-15460785D01*
X-11492463Y-15155740D01*
X-11180441Y-14867171D01*
X-10907986Y-14604068D01*
X-10685193Y-14375423D01*
X-10549365Y-14223196D01*
X-10285197Y-13876393D01*
X-10061182Y-13516649D01*
X-9879507Y-13152930D01*
X-9742359Y-12794201D01*
X-9651924Y-12449427D01*
X-9610389Y-12127574D01*
X-9619942Y-11837609D01*
X-9682769Y-11588495D01*
X-9801056Y-11389200D01*
X-9846497Y-11341578D01*
X-9949050Y-11276419D01*
X-10088035Y-11242734D01*
X-10267516Y-11241703D01*
X-10491559Y-11274510D01*
X-10764227Y-11342334D01*
X-11089584Y-11446357D01*
X-11471696Y-11587760D01*
X-11914626Y-11767724D01*
X-12422440Y-11987431D01*
X-12999200Y-12248061D01*
X-13056792Y-12274562D01*
X-13734298Y-12583017D01*
X-14345365Y-12852943D01*
X-14897465Y-13087108D01*
X-15398072Y-13288278D01*
X-15854658Y-13459222D01*
X-16274697Y-13602706D01*
X-16665661Y-13721499D01*
X-17035024Y-13818366D01*
X-17390258Y-13896077D01*
X-17483667Y-13913939D01*
X-17680590Y-13940672D01*
X-17943584Y-13962105D01*
X-18255414Y-13978111D01*
X-18598844Y-13988563D01*
X-18956640Y-13993332D01*
X-19311566Y-13992290D01*
X-19646387Y-13985311D01*
X-19943868Y-13972267D01*
X-20186773Y-13953029D01*
X-20320000Y-13934952D01*
X-21140710Y-13756360D01*
X-21898255Y-13522436D01*
X-22592209Y-13233338D01*
X-23222142Y-12889223D01*
X-23304500Y-12837115D01*
X-23542468Y-12671617D01*
X-23836316Y-12445904D01*
X-24184132Y-12161632D01*
X-24584000Y-11820457D01*
X-25034005Y-11424036D01*
X-25532234Y-10974024D01*
X-26076772Y-10472079D01*
X-26543426Y-10035215D01*
X-27214021Y-9407963D01*
X-27832284Y-8839066D01*
X-28402941Y-8324328D01*
X-28930720Y-7859551D01*
X-29420346Y-7440540D01*
X-29876548Y-7063098D01*
X-30035500Y-6934993D01*
X-30483115Y-6558668D01*
X-30854330Y-6206103D01*
X-31152697Y-5873195D01*
X-31381769Y-5555845D01*
X-31545096Y-5249950D01*
X-31588484Y-5141843D01*
X-31651193Y-4895958D01*
X-31682821Y-4606130D01*
X-31683375Y-4323541D01*
X-30810571Y-4323541D01*
X-30809053Y-4572464D01*
X-30747985Y-4835382D01*
X-30684974Y-4987992D01*
X-30581324Y-5153800D01*
X-30415526Y-5357354D01*
X-30196170Y-5589874D01*
X-29931848Y-5842580D01*
X-29631148Y-6106692D01*
X-29421667Y-6279189D01*
X-29148030Y-6501055D01*
X-28876742Y-6725688D01*
X-28600628Y-6959468D01*
X-28312510Y-7208774D01*
X-28005211Y-7479986D01*
X-27671555Y-7779483D01*
X-27304365Y-8113644D01*
X-26896465Y-8488848D01*
X-26440677Y-8911476D01*
X-26036343Y-9288385D01*
X-25498479Y-9788681D01*
X-25016303Y-10232684D01*
X-24585623Y-10623957D01*
X-24202249Y-10966061D01*
X-23861987Y-11262561D01*
X-23560648Y-11517020D01*
X-23294039Y-11733000D01*
X-23057969Y-11914065D01*
X-22848246Y-12063778D01*
X-22660678Y-12185702D01*
X-22553540Y-12248978D01*
X-22050356Y-12499624D01*
X-21490111Y-12718031D01*
X-20896741Y-12896610D01*
X-20294184Y-13027771D01*
X-19926737Y-13081917D01*
X-19628199Y-13106682D01*
X-19277257Y-13118624D01*
X-18895571Y-13118477D01*
X-18504804Y-13106973D01*
X-18126615Y-13084845D01*
X-17782667Y-13052825D01*
X-17494622Y-13011645D01*
X-17420167Y-12997156D01*
X-17067683Y-12911215D01*
X-16667171Y-12791622D01*
X-16214885Y-12636931D01*
X-15707079Y-12445696D01*
X-15140006Y-12216474D01*
X-14509921Y-11947818D01*
X-13813078Y-11638285D01*
X-13349625Y-11426940D01*
X-12932230Y-11236194D01*
X-12578191Y-11077507D01*
X-12274851Y-10945646D01*
X-12009555Y-10835378D01*
X-11769645Y-10741470D01*
X-11542466Y-10658690D01*
X-11315362Y-10581804D01*
X-11269386Y-10566852D01*
X-10792419Y-10435921D01*
X-10368916Y-10369293D01*
X-9997076Y-10367127D01*
X-9675099Y-10429584D01*
X-9401183Y-10556825D01*
X-9173529Y-10749009D01*
X-9169342Y-10753620D01*
X-8958064Y-11049220D01*
X-8813655Y-11389581D01*
X-8735529Y-11768296D01*
X-8723098Y-12178959D01*
X-8775776Y-12615164D01*
X-8892975Y-13070504D01*
X-9074109Y-13538573D01*
X-9318590Y-14012965D01*
X-9493918Y-14295666D01*
X-9739067Y-14628852D01*
X-10058430Y-14998901D01*
X-10450651Y-15404494D01*
X-10914376Y-15844314D01*
X-11448250Y-16317044D01*
X-12050916Y-16821367D01*
X-12300088Y-17022947D01*
X-12728931Y-17361095D01*
X-13110296Y-17646075D01*
X-13457735Y-17883399D01*
X-13784800Y-18078584D01*
X-14105045Y-18237143D01*
X-14432020Y-18364590D01*
X-14779279Y-18466442D01*
X-15160372Y-18548210D01*
X-15588854Y-18615412D01*
X-16078275Y-18673560D01*
X-16446500Y-18710150D01*
X-16837586Y-18748228D01*
X-17153919Y-18782342D01*
X-17405222Y-18814193D01*
X-17601219Y-18845483D01*
X-17751633Y-18877912D01*
X-17866189Y-18913181D01*
X-17954609Y-18952990D01*
X-18003155Y-18982431D01*
X-18081538Y-19044869D01*
X-18135526Y-19119040D01*
X-18169704Y-19221444D01*
X-18188657Y-19368582D01*
X-18196972Y-19576955D01*
X-18198379Y-19685000D01*
X-18172010Y-20155377D01*
X-18082960Y-20570460D01*
X-17929289Y-20933933D01*
X-17709059Y-21249482D01*
X-17420331Y-21520792D01*
X-17131935Y-21712365D01*
X-16844295Y-21850633D01*
X-16487508Y-21979249D01*
X-16076885Y-22094539D01*
X-15627733Y-22192832D01*
X-15155362Y-22270454D01*
X-14675080Y-22323734D01*
X-14541500Y-22333775D01*
X-14118167Y-22362127D01*
X-14233563Y-22270127D01*
X-14349613Y-22126954D01*
X-14406623Y-21943495D01*
X-14397744Y-21746132D01*
X-14383153Y-21693857D01*
X-14284950Y-21515932D01*
X-14132430Y-21401253D01*
X-13928586Y-21350746D01*
X-13676409Y-21365332D01*
X-13475897Y-21413799D01*
X-13227679Y-21512728D01*
X-13037499Y-21636845D01*
X-12911639Y-21778604D01*
X-12856381Y-21930458D01*
X-12878005Y-22084858D01*
X-12892058Y-22115284D01*
X-12923592Y-22192446D01*
X-12919987Y-22224941D01*
X-12919740Y-22224945D01*
X-12847144Y-22213598D01*
X-12711963Y-22183000D01*
X-12532743Y-22138112D01*
X-12328029Y-22083899D01*
X-12116367Y-22025322D01*
X-11916300Y-21967344D01*
X-11746376Y-21914929D01*
X-11684000Y-21894245D01*
X-11120331Y-21681873D01*
X-10509199Y-21416415D01*
X-9862928Y-21104734D01*
X-9193843Y-20753693D01*
X-8514267Y-20370157D01*
X-7836524Y-19960988D01*
X-7172940Y-19533051D01*
X-6535837Y-19093209D01*
X-6159500Y-18817511D01*
X-5831477Y-18567438D01*
X-5504045Y-18309484D01*
X-5170182Y-18037527D01*
X-4822864Y-17745444D01*
X-4455070Y-17427113D01*
X-4059775Y-17076410D01*
X-3629958Y-16687213D01*
X-3158596Y-16253400D01*
X-2638665Y-15768846D01*
X-2327209Y-15476381D01*
X-1848973Y-15027596D01*
X-1425793Y-14633868D01*
X-1052246Y-14291002D01*
X-722912Y-13994800D01*
X-432369Y-13741066D01*
X-175195Y-13525603D01*
X54030Y-13344215D01*
X260729Y-13192705D01*
X450322Y-13066877D01*
X628231Y-12962534D01*
X799878Y-12875480D01*
X970683Y-12801518D01*
X1146068Y-12736452D01*
X1262335Y-12697824D01*
X1717534Y-12584235D01*
X2159800Y-12541349D01*
X2594024Y-12570768D01*
X3025093Y-12674092D01*
X3457897Y-12852924D01*
X3897326Y-13108865D01*
X4348267Y-13443517D01*
X4815611Y-13858481D01*
X4820927Y-13863561D01*
X5062611Y-14103658D01*
X5307109Y-14365539D01*
X5560166Y-14656437D01*
X5827523Y-14983583D01*
X6114923Y-15354211D01*
X6428109Y-15775552D01*
X6772824Y-16254839D01*
X7154810Y-16799304D01*
X7174388Y-16827500D01*
X7505330Y-17301643D01*
X7796869Y-17712956D01*
X8055510Y-18069743D01*
X8287762Y-18380312D01*
X8500130Y-18652971D01*
X8699120Y-18896026D01*
X8891240Y-19117783D01*
X9082995Y-19326551D01*
X9280893Y-19530636D01*
X9330810Y-19580624D01*
X9761810Y-19991634D01*
X10219244Y-20394118D01*
X10694847Y-20782683D01*
X11180353Y-21151935D01*
X11667500Y-21496480D01*
X12148021Y-21810926D01*
X12613653Y-22089878D01*
X13056131Y-22327944D01*
X13467190Y-22519730D01*
X13838566Y-22659843D01*
X14161995Y-22742889D01*
X14181666Y-22746267D01*
X14335988Y-22761561D01*
X14551796Y-22769341D01*
X14806291Y-22770109D01*
X15076673Y-22764365D01*
X15340142Y-22752609D01*
X15573897Y-22735341D01*
X15755139Y-22713062D01*
X15763995Y-22711551D01*
X16286467Y-22593209D01*
X16802268Y-22424716D01*
X17296550Y-22213377D01*
X17754463Y-21966499D01*
X18161158Y-21691389D01*
X18501788Y-21395352D01*
X18558690Y-21336405D01*
X18695186Y-21168772D01*
X18815694Y-20981365D01*
X18907699Y-20797389D01*
X18958686Y-20640046D01*
X18964919Y-20583223D01*
X18925033Y-20387330D01*
X18810035Y-20200052D01*
X18629442Y-20032575D01*
X18392771Y-19896085D01*
X18372984Y-19887392D01*
X18269762Y-19849225D01*
X18102315Y-19794515D01*
X17888187Y-19728680D01*
X17644924Y-19657137D01*
X17434889Y-19597702D01*
X16837845Y-19423397D01*
X16314014Y-19250577D01*
X15852271Y-19073295D01*
X15441490Y-18885606D01*
X15070544Y-18681562D01*
X14728307Y-18455217D01*
X14403654Y-18200626D01*
X14085457Y-17911842D01*
X13863130Y-17688788D01*
X13285989Y-17030838D01*
X12752823Y-16301796D01*
X12265085Y-15503780D01*
X11939176Y-14880166D01*
X11650763Y-14248381D01*
X11419267Y-13651633D01*
X11244778Y-13092716D01*
X11127385Y-12574424D01*
X11067178Y-12099549D01*
X11064244Y-11670884D01*
X11118675Y-11291222D01*
X11230559Y-10963356D01*
X11399985Y-10690080D01*
X11627043Y-10474186D01*
X11795050Y-10371267D01*
X12052338Y-10283675D01*
X12338314Y-10259641D01*
X12626250Y-10298707D01*
X12869333Y-10389683D01*
X13029463Y-10494118D01*
X13231669Y-10660843D01*
X13469055Y-10883081D01*
X13734728Y-11154055D01*
X14021792Y-11466988D01*
X14323353Y-11815101D01*
X14342021Y-11837273D01*
X15007003Y-12564006D01*
X15727877Y-13230785D01*
X16499224Y-13834487D01*
X17315623Y-14371986D01*
X18171656Y-14840161D01*
X19061901Y-15235886D01*
X19980939Y-15556039D01*
X20923351Y-15797496D01*
X21357166Y-15880251D01*
X21699474Y-15927068D01*
X22095533Y-15962232D01*
X22522155Y-15985171D01*
X22956148Y-15995312D01*
X23374323Y-15992081D01*
X23753491Y-15974908D01*
X24045333Y-15946646D01*
X24690804Y-15840301D01*
X25364395Y-15690712D01*
X26048297Y-15503773D01*
X26724699Y-15285378D01*
X27375790Y-15041421D01*
X27983760Y-14777796D01*
X28530798Y-14500396D01*
X28690437Y-14409468D01*
X29256162Y-14041648D01*
X29824073Y-13604080D01*
X30378659Y-13109815D01*
X30904411Y-12571901D01*
X30997473Y-12468422D01*
X31264228Y-12152734D01*
X31510143Y-11832523D01*
X31727637Y-11519562D01*
X31909127Y-11225625D01*
X32047030Y-10962483D01*
X32133764Y-10741911D01*
X32150300Y-10678476D01*
X32143223Y-10513911D01*
X32053747Y-10342701D01*
X31883605Y-10167689D01*
X31797656Y-10100407D01*
X31595796Y-9952228D01*
X30328814Y-10332902D01*
X29805445Y-10489377D01*
X29352743Y-10622488D01*
X28960645Y-10734392D01*
X28619088Y-10827241D01*
X28318008Y-10903191D01*
X28047344Y-10964396D01*
X27797031Y-11013010D01*
X27557008Y-11051189D01*
X27317211Y-11081086D01*
X27067576Y-11104856D01*
X26798042Y-11124654D01*
X26564166Y-11138917D01*
X26209551Y-11154576D01*
X25826319Y-11163299D01*
X25428934Y-11165440D01*
X25031859Y-11161356D01*
X24649556Y-11151403D01*
X24296488Y-11135938D01*
X23987117Y-11115315D01*
X23735908Y-11089891D01*
X23582593Y-11065533D01*
X23194806Y-10960446D01*
X22752926Y-10793624D01*
X22259449Y-10566310D01*
X21716869Y-10279746D01*
X21127682Y-9935178D01*
X20494381Y-9533847D01*
X20447000Y-9502697D01*
X19971218Y-9181861D01*
X19527221Y-8867990D01*
X19121232Y-8566111D01*
X18759480Y-8281254D01*
X18448188Y-8018447D01*
X18193584Y-7782721D01*
X18001893Y-7579102D01*
X17899501Y-7444966D01*
X17747291Y-7185708D01*
X17651716Y-6945474D01*
X17602813Y-6691009D01*
X17590484Y-6413500D01*
X17595091Y-6210087D01*
X17611530Y-6059696D01*
X17645593Y-5930894D01*
X17703073Y-5792251D01*
X17706224Y-5785447D01*
X17858530Y-5507034D01*
X18038624Y-5283740D01*
X18270607Y-5087642D01*
X18364158Y-5023145D01*
X18569366Y-4897472D01*
X18834431Y-4750331D01*
X19140442Y-4591303D01*
X19468488Y-4429965D01*
X19799658Y-4275899D01*
X20087166Y-4150357D01*
X21283711Y-3602002D01*
X22453532Y-2976123D01*
X23590872Y-2277221D01*
X24689976Y-1509801D01*
X25745086Y-678367D01*
X26750445Y212577D01*
X27700298Y1158528D01*
X28588888Y2154982D01*
X29314928Y3069167D01*
X30080041Y4152296D01*
X30768125Y5259928D01*
X31378018Y6389509D01*
X31908558Y7538482D01*
X32358582Y8704290D01*
X32726930Y9884378D01*
X33012440Y11076188D01*
X33057084Y11303000D01*
X33172944Y12032647D01*
X33257837Y12830686D01*
X33312296Y13686922D01*
X33336857Y14591162D01*
X33332054Y15533209D01*
X33298423Y16502870D01*
X33236499Y17489949D01*
X33146816Y18484252D01*
X33029909Y19475584D01*
X32886314Y20453749D01*
X32716565Y21408553D01*
X32521198Y22329802D01*
X32466268Y22562587D01*
X32222125Y23508523D01*
X31962585Y24382848D01*
X31683662Y25197843D01*
X31381367Y25965792D01*
X31299150Y26157663D01*
X31108212Y26575338D01*
X30893113Y27005734D01*
X30649041Y27457090D01*
X30371190Y27937643D01*
X30054749Y28455632D01*
X29694910Y29019297D01*
X29286863Y29636875D01*
X29146829Y29845000D01*
X28866333Y30261534D01*
X28628787Y30617314D01*
X28428656Y30920997D01*
X28260401Y31181240D01*
X28118488Y31406696D01*
X27997381Y31606023D01*
X27891542Y31787876D01*
X27806542Y31940500D01*
X27726846Y32084196D01*
X27678719Y32160692D01*
X27654211Y32177663D01*
X27645370Y32142786D01*
X27644262Y32097148D01*
X27607980Y31899694D01*
X27511107Y31730199D01*
X27368972Y31605558D01*
X27196900Y31542662D01*
X27137215Y31538334D01*
X26964260Y31574433D01*
X26782963Y31671459D01*
X26618302Y31812505D01*
X26502019Y31968310D01*
X26436556Y32118545D01*
X26397838Y32300212D01*
X26382222Y32472622D01*
X26385778Y32769576D01*
X26435561Y32996583D01*
X26532501Y33155228D01*
X26677530Y33247096D01*
X26853229Y33274000D01*
X26951420Y33266790D01*
X27033178Y33235999D01*
X27122422Y33167891D01*
X27240140Y33051750D01*
X27455239Y32829500D01*
X27398378Y33147000D01*
X27373190Y33345140D01*
X27358442Y33604267D01*
X27353845Y33932483D01*
X27357749Y34274301D01*
X27373981Y35084101D01*
X27294688Y34923836D01*
X27154982Y34711922D01*
X26966423Y34521939D01*
X26758072Y34382262D01*
X26723027Y34365673D01*
X26501741Y34307023D01*
X26296394Y34327093D01*
X26117064Y34420138D01*
X25973828Y34580416D01*
X25876765Y34802182D01*
X25863264Y34855698D01*
X25838458Y35127019D01*
X25847070Y35200167D01*
X27389666Y35200167D01*
X27410833Y35179000D01*
X27432000Y35200167D01*
X27410833Y35221334D01*
X27389666Y35200167D01*
X25847070Y35200167D01*
X25872836Y35418994D01*
X25958428Y35713475D01*
X26087267Y35992311D01*
X26251383Y36237355D01*
X26442807Y36430457D01*
X26598267Y36529682D01*
X26822159Y36602891D01*
X27020851Y36597552D01*
X27189470Y36517309D01*
X27323141Y36365802D01*
X27416990Y36146677D01*
X27464552Y35882213D01*
X27487712Y35626797D01*
X27572964Y35963815D01*
X27630826Y36266494D01*
X27659663Y36586251D01*
X27659566Y36899341D01*
X27630624Y37182020D01*
X27572925Y37410546D01*
X27567473Y37424760D01*
X27459420Y37627263D01*
X27305474Y37826640D01*
X27130041Y37994816D01*
X26991098Y38087781D01*
X26867829Y38123235D01*
X26681651Y38142004D01*
X26452441Y38145140D01*
X26200076Y38133696D01*
X25944435Y38108722D01*
X25705395Y38071271D01*
X25502834Y38022396D01*
X25454355Y38006449D01*
X25102205Y37843011D01*
X24765449Y37615141D01*
X24471209Y37342255D01*
X24383188Y37239578D01*
X24249955Y37053877D01*
X24106322Y36821378D01*
X23964089Y36564622D01*
X23835055Y36306149D01*
X23731017Y36068497D01*
X23663776Y35874208D01*
X23659103Y35856334D01*
X23642102Y35742707D01*
X23627832Y35556813D01*
X23616302Y35311009D01*
X23607522Y35017652D01*
X23601500Y34689097D01*
X23598246Y34337701D01*
X23597769Y33975821D01*
X23600078Y33615812D01*
X23605183Y33270032D01*
X23613093Y32950836D01*
X23623817Y32670582D01*
X23637364Y32441624D01*
X23653744Y32276321D01*
X23656411Y32258000D01*
X23700943Y31995434D01*
X23755197Y31726602D01*
X23821630Y31443369D01*
X23902701Y31137598D01*
X24000868Y30801151D01*
X24118588Y30425893D01*
X24258321Y30003685D01*
X24422522Y29526391D01*
X24613651Y28985875D01*
X24807326Y28448000D01*
X25160313Y27456527D01*
X25475786Y26531846D01*
X25755766Y25665882D01*
X26002277Y24850560D01*
X26217341Y24077805D01*
X26402981Y23339540D01*
X26561218Y22627690D01*
X26694075Y21934179D01*
X26803575Y21250933D01*
X26891741Y20569875D01*
X26960594Y19882930D01*
X26964848Y19833167D01*
X26982079Y19564955D01*
X26994747Y19234851D01*
X27002855Y18862135D01*
X27006407Y18466087D01*
X27005407Y18065985D01*
X26999859Y17681109D01*
X26989766Y17330738D01*
X26975133Y17034151D01*
X26964262Y16891000D01*
X26828029Y15834296D01*
X26612394Y14771277D01*
X26321319Y13710425D01*
X25958767Y12660223D01*
X25528699Y11629151D01*
X25035078Y10625692D01*
X24481865Y9658327D01*
X23873023Y8735538D01*
X23212513Y7865806D01*
X22504298Y7057614D01*
X22246430Y6791402D01*
X21722383Y6289051D01*
X21206496Y5842555D01*
X20703276Y5454748D01*
X20217232Y5128459D01*
X19752870Y4866520D01*
X19314698Y4671762D01*
X18907221Y4547017D01*
X18596628Y4498759D01*
X18263339Y4505605D01*
X17980570Y4577420D01*
X17751555Y4708938D01*
X17579528Y4894897D01*
X17467721Y5130034D01*
X17419369Y5409084D01*
X17437706Y5726785D01*
X17525964Y6077873D01*
X17563346Y6180667D01*
X17616060Y6306053D01*
X17701034Y6495083D01*
X17812589Y6735708D01*
X17945048Y7015881D01*
X18092732Y7323554D01*
X18249963Y7646678D01*
X18351403Y7852834D01*
X18516099Y8188409D01*
X18678644Y8523979D01*
X18832579Y8845888D01*
X18971443Y9140478D01*
X19088774Y9394091D01*
X19178113Y9593070D01*
X19212515Y9673167D01*
X19605518Y10713346D01*
X19934415Y11797079D01*
X20194990Y12908076D01*
X20383028Y14030048D01*
X20422915Y14351000D01*
X20460100Y14682687D01*
X20491562Y14982874D01*
X20517758Y15262528D01*
X20539145Y15532616D01*
X20556181Y15804103D01*
X20569322Y16087957D01*
X20579027Y16395142D01*
X20585752Y16736627D01*
X20589955Y17123377D01*
X20592092Y17566359D01*
X20592621Y18076538D01*
X20592363Y18415000D01*
X20589933Y19173742D01*
X20584077Y19855802D01*
X20574028Y20469127D01*
X20559023Y21021661D01*
X20538296Y21521347D01*
X20511080Y21976132D01*
X20476611Y22393958D01*
X20434124Y22782771D01*
X20382852Y23150516D01*
X20322032Y23505136D01*
X20250896Y23854576D01*
X20168681Y24206781D01*
X20074620Y24569695D01*
X19967948Y24951263D01*
X19960008Y24978810D01*
X19580521Y26153270D01*
X19134404Y27276468D01*
X18619742Y28351639D01*
X18034620Y29382020D01*
X17377123Y30370844D01*
X16645335Y31321348D01*
X15837343Y32236768D01*
X15394602Y32691866D01*
X14472999Y33556986D01*
X13524015Y34343069D01*
X12543455Y35052505D01*
X11527124Y35687688D01*
X10470830Y36251009D01*
X9370378Y36744860D01*
X8221573Y37171633D01*
X7020222Y37533720D01*
X6805366Y37590330D01*
X5657626Y37855361D01*
X4508389Y38056970D01*
X3339435Y38197620D01*
X2132542Y38279774D01*
X1566333Y38298448D01*
X523924Y38300172D01*
X-455653Y38255299D01*
X-1381502Y38161881D01*
X-2262728Y38017970D01*
X-3108435Y37821617D01*
X-3927727Y37570874D01*
X-4729710Y37263794D01*
X-5523488Y36898429D01*
X-5909929Y36698748D01*
X-6822105Y36171142D01*
X-7736907Y35563463D01*
X-8649048Y34879932D01*
X-9553239Y34124773D01*
X-10444191Y33302208D01*
X-11316618Y32416459D01*
X-11444358Y32279701D01*
X-11859478Y31822094D01*
X-12233936Y31385774D01*
X-12576335Y30958061D01*
X-12895283Y30526270D01*
X-13199383Y30077722D01*
X-13497243Y29599734D01*
X-13797467Y29079624D01*
X-14108661Y28504710D01*
X-14432266Y27876500D01*
X-15061082Y26558191D01*
X-15608478Y25252954D01*
X-16075855Y23956293D01*
X-16464618Y22663713D01*
X-16776169Y21370717D01*
X-17011911Y20072809D01*
X-17120882Y19261381D01*
X-17212538Y18219664D01*
X-17249345Y17156002D01*
X-17232695Y16081552D01*
X-17163980Y15007475D01*
X-17044589Y13944930D01*
X-16875914Y12905076D01*
X-16659346Y11899074D01*
X-16396276Y10938082D01*
X-16088096Y10033259D01*
X-15917145Y9604497D01*
X-15727580Y9171481D01*
X-15518168Y8729459D01*
X-15284078Y8269673D01*
X-15020479Y7783362D01*
X-14722541Y7261766D01*
X-14385432Y6696126D01*
X-14004321Y6077682D01*
X-13745363Y5666325D01*
X-13531830Y5317027D01*
X-13337048Y4974153D01*
X-13167195Y4650070D01*
X-13028451Y4357146D01*
X-12926997Y4107748D01*
X-12869010Y3914242D01*
X-12868366Y3911170D01*
X-12844836Y3636171D01*
X-12891111Y3394977D01*
X-13002451Y3196064D01*
X-13174119Y3047910D01*
X-13400581Y2959168D01*
X-13605869Y2939548D01*
X-13854222Y2964502D01*
X-14150004Y3035403D01*
X-14497575Y3153625D01*
X-14901299Y3320543D01*
X-15365535Y3537531D01*
X-15588548Y3648440D01*
X-15958227Y3841187D01*
X-16286631Y4027223D01*
X-16589112Y4217576D01*
X-16881021Y4423276D01*
X-17177709Y4655351D01*
X-17494529Y4924830D01*
X-17846831Y5242742D01*
X-17981307Y5367445D01*
X-18461441Y5830738D01*
X-18930144Y6313025D01*
X-19377312Y6802607D01*
X-19792843Y7287785D01*
X-20166634Y7756860D01*
X-20488582Y8198133D01*
X-20690393Y8504526D01*
X-20978625Y8997604D01*
X-21272937Y9557368D01*
X-21566326Y10166854D01*
X-21851786Y10809099D01*
X-22122313Y11467140D01*
X-22370903Y12124012D01*
X-22590550Y12762753D01*
X-22774250Y13366398D01*
X-22901674Y13859693D01*
X-23033253Y14502420D01*
X-23145102Y15202992D01*
X-23235580Y15940748D01*
X-23303047Y16695028D01*
X-23345861Y17445169D01*
X-23362380Y18170513D01*
X-23350964Y18850397D01*
X-23329103Y19240500D01*
X-23296222Y19647567D01*
X-23257709Y20044829D01*
X-23212091Y20440151D01*
X-23157894Y20841399D01*
X-23093644Y21256439D01*
X-23017869Y21693135D01*
X-22929094Y22159355D01*
X-22825847Y22662962D01*
X-22706653Y23211823D01*
X-22570039Y23813803D01*
X-22414533Y24476768D01*
X-22238659Y25208583D01*
X-22119724Y25696334D01*
X-21945302Y26413045D01*
X-21791619Y27055410D01*
X-21657243Y27630797D01*
X-21540742Y28146572D01*
X-21440681Y28610102D01*
X-21355629Y29028754D01*
X-21284153Y29409894D01*
X-21224820Y29760888D01*
X-21176198Y30089105D01*
X-21136853Y30401910D01*
X-21105353Y30706669D01*
X-21080265Y31010751D01*
X-21076843Y31058506D01*
X-21051402Y31688897D01*
X-21062309Y32314598D01*
X-21107421Y32929368D01*
X-21184599Y33526965D01*
X-21291700Y34101147D01*
X-21426584Y34645674D01*
X-21587109Y35154304D01*
X-21771134Y35620795D01*
X-21976519Y36038907D01*
X-22201122Y36402397D01*
X-22442802Y36705024D01*
X-22699417Y36940547D01*
X-22968828Y37102724D01*
X-23173939Y37171571D01*
X-23405220Y37191827D01*
X-23675269Y37165789D01*
X-23961898Y37100543D01*
X-24242919Y37003173D01*
X-24496141Y36880767D01*
X-24699375Y36740409D01*
X-24781802Y36658134D01*
X-24852495Y36556031D01*
X-24898690Y36437918D01*
X-24922784Y36287527D01*
X-24927178Y36088593D01*
X-24914269Y35824846D01*
X-24911150Y35780900D01*
X-24896158Y35585831D01*
X-24884193Y35466958D01*
X-24873113Y35415967D01*
X-24860778Y35424544D01*
X-24845047Y35484377D01*
X-24840382Y35506130D01*
X-24772191Y35682755D01*
X-24658452Y35827949D01*
X-24518131Y35922158D01*
X-24412494Y35947384D01*
X-24109653Y35924585D01*
X-23844719Y35826647D01*
X-23619568Y35655047D01*
X-23436078Y35411264D01*
X-23296123Y35096775D01*
X-23283529Y35058125D01*
X-23209888Y34727564D01*
X-23210541Y34435127D01*
X-23285963Y34177477D01*
X-23436628Y33951273D01*
X-23441720Y33945597D01*
X-23640326Y33766377D01*
X-23837521Y33671122D01*
X-24035467Y33659206D01*
X-24218594Y33720531D01*
X-24320603Y33802801D01*
X-24437031Y33942216D01*
X-24552355Y34116723D01*
X-24651052Y34304271D01*
X-24683648Y34381202D01*
X-24703946Y34427460D01*
X-24719116Y34441736D01*
X-24729893Y34415478D01*
X-24737016Y34340135D01*
X-24741221Y34207154D01*
X-24743246Y34007982D01*
X-24743826Y33734066D01*
X-24743834Y33682702D01*
X-24744576Y33384945D01*
X-24747850Y33154329D01*
X-24755227Y32973335D01*
X-24768276Y32824442D01*
X-24788570Y32690131D01*
X-24817677Y32552883D01*
X-24857170Y32395176D01*
X-24860359Y32382939D01*
X-24922306Y32157153D01*
X-24991845Y31928373D01*
X-25072005Y31689291D01*
X-25165814Y31432598D01*
X-25276300Y31150987D01*
X-25406494Y30837149D01*
X-25559424Y30483775D01*
X-25738118Y30083558D01*
X-25945605Y29629188D01*
X-26184914Y29113358D01*
X-26447270Y28553834D01*
X-26701243Y28013229D01*
X-26922374Y27540014D01*
X-27114640Y27125339D01*
X-27282018Y26760352D01*
X-27428487Y26436203D01*
X-27558024Y26144041D01*
X-27674608Y25875015D01*
X-27782215Y25620275D01*
X-27884823Y25370969D01*
X-27947441Y25215831D01*
X-28289383Y24305208D01*
X-28589873Y23379738D01*
X-28850087Y22432186D01*
X-29071203Y21455315D01*
X-29254398Y20441889D01*
X-29400850Y19384672D01*
X-29511737Y18276429D01*
X-29588235Y17109923D01*
X-29631523Y15877919D01*
X-29643076Y14795500D01*
X-29641355Y14255350D01*
X-29634983Y13786657D01*
X-29623162Y13376300D01*
X-29605097Y13011159D01*
X-29579990Y12678112D01*
X-29547047Y12364037D01*
X-29505469Y12055814D01*
X-29459340Y11768667D01*
X-29204325Y10528692D01*
X-28867241Y9303245D01*
X-28450006Y8096143D01*
X-27954538Y6911204D01*
X-27382754Y5752246D01*
X-26736572Y4623086D01*
X-26017910Y3527542D01*
X-25228686Y2469431D01*
X-24370816Y1452571D01*
X-24161424Y1222135D01*
X-23521272Y565585D01*
X-22815626Y-88817D01*
X-22057070Y-732103D01*
X-21258187Y-1355307D01*
X-20431559Y-1949462D01*
X-19589770Y-2505602D01*
X-18745401Y-3014761D01*
X-17911037Y-3467973D01*
X-17099260Y-3856270D01*
X-16933334Y-3928512D01*
X-16519825Y-4110696D01*
X-16181500Y-4272246D01*
X-15912428Y-4416793D01*
X-15706680Y-4547970D01*
X-15558325Y-4669410D01*
X-15461432Y-4784747D01*
X-15425744Y-4852021D01*
X-15385540Y-5004934D01*
X-15395486Y-5163045D01*
X-15459740Y-5334148D01*
X-15582463Y-5526037D01*
X-15767815Y-5746506D01*
X-16019955Y-6003351D01*
X-16061562Y-6043364D01*
X-16643220Y-6547260D01*
X-17250855Y-6973102D01*
X-17881361Y-7320105D01*
X-18531636Y-7587487D01*
X-19198575Y-7774464D01*
X-19879073Y-7880254D01*
X-20570028Y-7904074D01*
X-21268334Y-7845140D01*
X-21970888Y-7702670D01*
X-22282450Y-7612720D01*
X-22575771Y-7510728D01*
X-22868914Y-7388153D01*
X-23169680Y-7240127D01*
X-23485870Y-7061780D01*
X-23825284Y-6848242D01*
X-24195724Y-6594646D01*
X-24604990Y-6296120D01*
X-25060883Y-5947796D01*
X-25484667Y-5613880D01*
X-26158542Y-5105839D01*
X-26806868Y-4676318D01*
X-27432266Y-4323996D01*
X-28037355Y-4047550D01*
X-28624757Y-3845658D01*
X-29197093Y-3716999D01*
X-29265604Y-3706311D01*
X-29599368Y-3661783D01*
X-29865119Y-3640348D01*
X-30076922Y-3644322D01*
X-30248841Y-3676016D01*
X-30394940Y-3737745D01*
X-30529284Y-3831820D01*
X-30637827Y-3932005D01*
X-30753256Y-4104693D01*
X-30810571Y-4323541D01*
X-31683375Y-4323541D01*
X-31683417Y-4302521D01*
X-31653031Y-4015294D01*
X-31591711Y-3774611D01*
X-31586218Y-3760173D01*
X-31473789Y-3556667D01*
X-31300382Y-3345006D01*
X-31085234Y-3144115D01*
X-30847584Y-2972923D01*
X-30705981Y-2894188D01*
X-30603687Y-2845902D01*
X-30515016Y-2812632D01*
X-30421046Y-2791753D01*
X-30302850Y-2780635D01*
X-30141505Y-2776652D01*
X-29918086Y-2777175D01*
X-29866167Y-2777574D01*
X-29289780Y-2809621D01*
X-28728318Y-2898942D01*
X-28167271Y-3049430D01*
X-27592127Y-3264978D01*
X-26988375Y-3549480D01*
X-26987500Y-3549929D01*
X-26710722Y-3696931D01*
X-26445670Y-3848486D01*
X-26180358Y-4012661D01*
X-25902802Y-4197524D01*
X-25601014Y-4411142D01*
X-25263008Y-4661583D01*
X-24876799Y-4956914D01*
X-24743834Y-5060071D01*
X-24260418Y-5431254D01*
X-23830525Y-5749545D01*
X-23445509Y-6019529D01*
X-23096720Y-6245788D01*
X-22775513Y-6432906D01*
X-22473239Y-6585466D01*
X-22181252Y-6708051D01*
X-21890903Y-6805245D01*
X-21593546Y-6881629D01*
X-21280533Y-6941789D01*
X-21156904Y-6961167D01*
X-20759198Y-7008747D01*
X-20402456Y-7023709D01*
X-20049563Y-7006184D01*
X-19727158Y-6966181D01*
X-19105993Y-6830544D01*
X-18495705Y-6614578D01*
X-17904687Y-6322584D01*
X-17341331Y-5958864D01*
X-16814029Y-5527718D01*
X-16686754Y-5407901D01*
X-16419008Y-5148584D01*
X-16577366Y-5067341D01*
X-16680011Y-5017998D01*
X-16838031Y-4945929D01*
X-17028790Y-4861319D01*
X-17204945Y-4784929D01*
X-18259847Y-4292798D01*
X-19313275Y-3723752D01*
X-20355668Y-3085153D01*
X-21377468Y-2384367D01*
X-22369117Y-1628757D01*
X-23321054Y-825687D01*
X-24223721Y17478D01*
X-25067559Y893374D01*
X-25843009Y1794638D01*
X-25998817Y1989667D01*
X-26775039Y3037836D01*
X-27487274Y4129368D01*
X-28132821Y5258103D01*
X-28708976Y6417881D01*
X-29213038Y7602540D01*
X-29642305Y8805921D01*
X-29994073Y10021863D01*
X-30265641Y11244205D01*
X-30393331Y12007908D01*
X-30448697Y12475383D01*
X-30490311Y13015221D01*
X-30518525Y13616304D01*
X-30533690Y14267511D01*
X-30536157Y14957721D01*
X-30526277Y15675816D01*
X-30504400Y16410675D01*
X-30470879Y17151177D01*
X-30426064Y17886204D01*
X-30370306Y18604635D01*
X-30303956Y19295350D01*
X-30227365Y19947229D01*
X-30140885Y20549152D01*
X-30119553Y20679834D01*
X-30018950Y21253727D01*
X-29913026Y21798930D01*
X-29799015Y22323415D01*
X-29674152Y22835156D01*
X-29535672Y23342122D01*
X-29380809Y23852288D01*
X-29206799Y24373625D01*
X-29010876Y24914106D01*
X-28790276Y25481702D01*
X-28542232Y26084385D01*
X-28263981Y26730128D01*
X-27952756Y27426904D01*
X-27605792Y28182684D01*
X-27263633Y28913667D01*
X-26981688Y29514500D01*
X-26735278Y30046352D01*
X-26521723Y30515792D01*
X-26338340Y30929391D01*
X-26182447Y31293717D01*
X-26051364Y31615340D01*
X-25942409Y31900830D01*
X-25852899Y32156757D01*
X-25780154Y32389689D01*
X-25721491Y32606197D01*
X-25676557Y32801725D01*
X-25633011Y33108215D01*
X-25615125Y33482835D01*
X-25622741Y33913080D01*
X-25655701Y34386448D01*
X-25701842Y34800426D01*
X-25744900Y35181701D01*
X-25775135Y35554259D01*
X-25792230Y35904348D01*
X-25795868Y36218212D01*
X-25785733Y36482097D01*
X-25761506Y36682247D01*
X-25746665Y36745334D01*
X-25626980Y37012097D01*
X-25434189Y37262641D01*
X-25179269Y37490670D01*
X-24873197Y37689886D01*
X-24526950Y37853996D01*
X-24151505Y37976702D01*
X-23757838Y38051710D01*
X-23431500Y38073190D01*
X-23086571Y38055991D01*
X-22789744Y37993618D01*
X-22513235Y37878431D01*
X-22328853Y37770079D01*
X-21963115Y37484792D01*
X-21626199Y37123296D01*
X-21319727Y36689563D01*
X-21045319Y36187563D01*
X-20804595Y35621264D01*
X-20599177Y34994639D01*
X-20430686Y34311655D01*
X-20300741Y33576285D01*
X-20210963Y32792497D01*
X-20191054Y32533167D01*
X-20171085Y32156256D01*
X-20163342Y31779485D01*
X-20168807Y31396519D01*
X-20188461Y31001018D01*
X-20223288Y30586647D01*
X-20274269Y30147066D01*
X-20342385Y29675938D01*
X-20428618Y29166926D01*
X-20533951Y28613692D01*
X-20659365Y28009899D01*
X-20805843Y27349209D01*
X-20974365Y26625285D01*
X-21165915Y25831788D01*
X-21335555Y25146000D01*
X-21519449Y24400225D01*
X-21680999Y23724681D01*
X-21822345Y23108552D01*
X-21945627Y22541018D01*
X-22052984Y22011263D01*
X-22146555Y21508469D01*
X-22228480Y21021818D01*
X-22300898Y20540492D01*
X-22365949Y20053673D01*
X-22403032Y19748500D01*
X-22425782Y19489219D01*
X-22442502Y19162344D01*
X-22453304Y18784724D01*
X-22458298Y18373211D01*
X-22457595Y17944654D01*
X-22451304Y17515903D01*
X-22439538Y17103809D01*
X-22422407Y16725220D01*
X-22400020Y16396987D01*
X-22379671Y16192500D01*
X-22278718Y15434156D01*
X-22161206Y14728958D01*
X-22022549Y14061772D01*
X-21858162Y13417467D01*
X-21663459Y12780910D01*
X-21433855Y12136968D01*
X-21164764Y11470508D01*
X-20851600Y10766398D01*
X-20532438Y10096500D01*
X-20296523Y9631401D01*
X-20061265Y9206683D01*
X-19817241Y8809408D01*
X-19555028Y8426635D01*
X-19265202Y8045426D01*
X-18938341Y7652839D01*
X-18565023Y7235935D01*
X-18135823Y6781774D01*
X-18066232Y6709834D01*
X-17647925Y6285989D01*
X-17270217Y5920694D01*
X-16922156Y5605334D01*
X-16592792Y5331294D01*
X-16271175Y5089958D01*
X-15946353Y4872712D01*
X-15607376Y4670941D01*
X-15243292Y4476029D01*
X-15196555Y4452267D01*
X-14905598Y4308495D01*
X-14628488Y4177932D01*
X-14375451Y4064849D01*
X-14156712Y3973514D01*
X-13982496Y3908196D01*
X-13863029Y3873164D01*
X-13808537Y3872687D01*
X-13808476Y3872747D01*
X-13812745Y3924014D01*
X-13856143Y4035971D01*
X-13932843Y4197558D01*
X-14037020Y4397718D01*
X-14162850Y4625393D01*
X-14304505Y4869525D01*
X-14456161Y5119056D01*
X-14511399Y5207000D01*
X-15006489Y6001246D01*
X-15449104Y6741111D01*
X-15843002Y7435508D01*
X-16191945Y8093352D01*
X-16499690Y8723553D01*
X-16769998Y9335027D01*
X-17006628Y9936686D01*
X-17213340Y10537443D01*
X-17393893Y11146211D01*
X-17552046Y11771904D01*
X-17691559Y12423434D01*
X-17796997Y12996634D01*
X-17991744Y14366594D01*
X-18103916Y15731869D01*
X-18133327Y17093714D01*
X-18079793Y18453382D01*
X-17943125Y19812126D01*
X-17723140Y21171199D01*
X-17419650Y22531856D01*
X-17032470Y23895349D01*
X-16561414Y25262933D01*
X-16006297Y26635859D01*
X-15659757Y27405114D01*
X-15273713Y28210131D01*
X-14898641Y28944361D01*
X-14526494Y29619518D01*
X-14149225Y30247319D01*
X-13758788Y30839478D01*
X-13347136Y31407711D01*
X-12906222Y31963733D01*
X-12428001Y32519260D01*
X-11904425Y33086007D01*
X-11408834Y33594234D01*
X-10475240Y34491673D01*
X-9544529Y35305888D01*
X-8614406Y36038163D01*
X-7682572Y36689782D01*
X-6746730Y37262029D01*
X-5804583Y37756187D01*
X-4853834Y38173542D01*
X-3892184Y38515376D01*
X-2917337Y38782974D01*
X-1926996Y38977620D01*
X-1720881Y39008768D01*
X-684849Y39125561D01*
X401324Y39187148D01*
X1523587Y39193529D01*
X2667886Y39144704D01*
G36*
X16419836Y-21019904D02*
G01*
X16558600Y-21026738D01*
X16653915Y-21042936D01*
X16726383Y-21072430D01*
X16796607Y-21119154D01*
X16814313Y-21132527D01*
X16975121Y-21297427D01*
X17081570Y-21494352D01*
X17132465Y-21706055D01*
X17126611Y-21915287D01*
X17062812Y-22104799D01*
X16939874Y-22257343D01*
X16894598Y-22291143D01*
X16683589Y-22392549D01*
X16413494Y-22464390D01*
X16105359Y-22504431D01*
X15780230Y-22510442D01*
X15459153Y-22480190D01*
X15333332Y-22456735D01*
X15054330Y-22368840D01*
X14845947Y-22246720D01*
X14709995Y-22098371D01*
X14648284Y-21931787D01*
X14662622Y-21754964D01*
X14754820Y-21575897D01*
X14926689Y-21402581D01*
X15072085Y-21302700D01*
X15319531Y-21172024D01*
X15564021Y-21085549D01*
X15832030Y-21036702D01*
X16150034Y-21018911D01*
X16217021Y-21018500D01*
X16419836Y-21019904D01*
G37*
X16419836Y-21019904D02*
X16558600Y-21026738D01*
X16653915Y-21042936D01*
X16726383Y-21072430D01*
X16796607Y-21119154D01*
X16814313Y-21132527D01*
X16975121Y-21297427D01*
X17081570Y-21494352D01*
X17132465Y-21706055D01*
X17126611Y-21915287D01*
X17062812Y-22104799D01*
X16939874Y-22257343D01*
X16894598Y-22291143D01*
X16683589Y-22392549D01*
X16413494Y-22464390D01*
X16105359Y-22504431D01*
X15780230Y-22510442D01*
X15459153Y-22480190D01*
X15333332Y-22456735D01*
X15054330Y-22368840D01*
X14845947Y-22246720D01*
X14709995Y-22098371D01*
X14648284Y-21931787D01*
X14662622Y-21754964D01*
X14754820Y-21575897D01*
X14926689Y-21402581D01*
X15072085Y-21302700D01*
X15319531Y-21172024D01*
X15564021Y-21085549D01*
X15832030Y-21036702D01*
X16150034Y-21018911D01*
X16217021Y-21018500D01*
X16419836Y-21019904D01*
G36*
X12710774Y-20810061D02*
G01*
X12851907Y-20824365D01*
X12973685Y-20856675D01*
X13108717Y-20913922D01*
X13177017Y-20946966D01*
X13414900Y-21087760D01*
X13577088Y-21242870D01*
X13672483Y-21423117D01*
X13706504Y-21590732D01*
X13713363Y-21722403D01*
X13692388Y-21810720D01*
X13629269Y-21895360D01*
X13577351Y-21948781D01*
X13488210Y-22031168D01*
X13409539Y-22075914D01*
X13309476Y-22094389D01*
X13159316Y-22097966D01*
X12960415Y-22085296D01*
X12783164Y-22039676D01*
X12630348Y-21974859D01*
X12408388Y-21849961D01*
X12206088Y-21699687D01*
X12044909Y-21541854D01*
X11956426Y-21415366D01*
X11900862Y-21242548D01*
X11926193Y-21084672D01*
X12019288Y-20945084D01*
X12081648Y-20879084D01*
X12139119Y-20838360D01*
X12213693Y-20816810D01*
X12327362Y-20808335D01*
X12502117Y-20806834D01*
X12517683Y-20806833D01*
X12710774Y-20810061D01*
G37*
X12710774Y-20810061D02*
X12851907Y-20824365D01*
X12973685Y-20856675D01*
X13108717Y-20913922D01*
X13177017Y-20946966D01*
X13414900Y-21087760D01*
X13577088Y-21242870D01*
X13672483Y-21423117D01*
X13706504Y-21590732D01*
X13713363Y-21722403D01*
X13692388Y-21810720D01*
X13629269Y-21895360D01*
X13577351Y-21948781D01*
X13488210Y-22031168D01*
X13409539Y-22075914D01*
X13309476Y-22094389D01*
X13159316Y-22097966D01*
X12960415Y-22085296D01*
X12783164Y-22039676D01*
X12630348Y-21974859D01*
X12408388Y-21849961D01*
X12206088Y-21699687D01*
X12044909Y-21541854D01*
X11956426Y-21415366D01*
X11900862Y-21242548D01*
X11926193Y-21084672D01*
X12019288Y-20945084D01*
X12081648Y-20879084D01*
X12139119Y-20838360D01*
X12213693Y-20816810D01*
X12327362Y-20808335D01*
X12502117Y-20806834D01*
X12517683Y-20806833D01*
X12710774Y-20810061D01*
G36*
X-16507298Y-19986562D02*
G01*
X-16454533Y-19989180D01*
X-16133643Y-20033833D01*
X-15841453Y-20127420D01*
X-15583729Y-20261864D01*
X-15366237Y-20429091D01*
X-15194745Y-20621025D01*
X-15075020Y-20829591D01*
X-15012828Y-21046713D01*
X-15013936Y-21264317D01*
X-15084111Y-21474326D01*
X-15229120Y-21668666D01*
X-15244484Y-21683635D01*
X-15458080Y-21831814D01*
X-15722808Y-21927299D01*
X-16021193Y-21967012D01*
X-16335759Y-21947870D01*
X-16519485Y-21908381D01*
X-16799064Y-21796707D01*
X-17055647Y-21628986D01*
X-17271803Y-21420598D01*
X-17430097Y-21186922D01*
X-17485124Y-21056417D01*
X-17523623Y-20814013D01*
X-17484054Y-20578541D01*
X-17372749Y-20363647D01*
X-17196040Y-20182974D01*
X-17033092Y-20082339D01*
X-16907644Y-20025958D01*
X-16798900Y-19994535D01*
X-16675804Y-19983070D01*
X-16507298Y-19986562D01*
G37*
X-16507298Y-19986562D02*
X-16454533Y-19989180D01*
X-16133643Y-20033833D01*
X-15841453Y-20127420D01*
X-15583729Y-20261864D01*
X-15366237Y-20429091D01*
X-15194745Y-20621025D01*
X-15075020Y-20829591D01*
X-15012828Y-21046713D01*
X-15013936Y-21264317D01*
X-15084111Y-21474326D01*
X-15229120Y-21668666D01*
X-15244484Y-21683635D01*
X-15458080Y-21831814D01*
X-15722808Y-21927299D01*
X-16021193Y-21967012D01*
X-16335759Y-21947870D01*
X-16519485Y-21908381D01*
X-16799064Y-21796707D01*
X-17055647Y-21628986D01*
X-17271803Y-21420598D01*
X-17430097Y-21186922D01*
X-17485124Y-21056417D01*
X-17523623Y-20814013D01*
X-17484054Y-20578541D01*
X-17372749Y-20363647D01*
X-17196040Y-20182974D01*
X-17033092Y-20082339D01*
X-16907644Y-20025958D01*
X-16798900Y-19994535D01*
X-16675804Y-19983070D01*
X-16507298Y-19986562D01*
G36*
X22462291Y-14489462D02*
G01*
X22714430Y-14576271D01*
X22911398Y-14702770D01*
X23045613Y-14864972D01*
X23109490Y-15058888D01*
X23113841Y-15129843D01*
X23084274Y-15337640D01*
X22993560Y-15502350D01*
X22838054Y-15626238D01*
X22614110Y-15711571D01*
X22318082Y-15760615D01*
X22076833Y-15774320D01*
X21869915Y-15775891D01*
X21679373Y-15771240D01*
X21530314Y-15761300D01*
X21463000Y-15751446D01*
X21260717Y-15692991D01*
X21115086Y-15618153D01*
X20998104Y-15511937D01*
X20982996Y-15494396D01*
X20911512Y-15390149D01*
X20877988Y-15276199D01*
X20870333Y-15132391D01*
X20878554Y-14982158D01*
X20912346Y-14875814D01*
X20985398Y-14773417D01*
X20998605Y-14758185D01*
X21166911Y-14621252D01*
X21399332Y-14523689D01*
X21701511Y-14463395D01*
X21822833Y-14450869D01*
X22162564Y-14446332D01*
X22462291Y-14489462D01*
G37*
X22462291Y-14489462D02*
X22714430Y-14576271D01*
X22911398Y-14702770D01*
X23045613Y-14864972D01*
X23109490Y-15058888D01*
X23113841Y-15129843D01*
X23084274Y-15337640D01*
X22993560Y-15502350D01*
X22838054Y-15626238D01*
X22614110Y-15711571D01*
X22318082Y-15760615D01*
X22076833Y-15774320D01*
X21869915Y-15775891D01*
X21679373Y-15771240D01*
X21530314Y-15761300D01*
X21463000Y-15751446D01*
X21260717Y-15692991D01*
X21115086Y-15618153D01*
X20998104Y-15511937D01*
X20982996Y-15494396D01*
X20911512Y-15390149D01*
X20877988Y-15276199D01*
X20870333Y-15132391D01*
X20878554Y-14982158D01*
X20912346Y-14875814D01*
X20985398Y-14773417D01*
X20998605Y-14758185D01*
X21166911Y-14621252D01*
X21399332Y-14523689D01*
X21701511Y-14463395D01*
X21822833Y-14450869D01*
X22162564Y-14446332D01*
X22462291Y-14489462D01*
G36*
X25986745Y-13730422D02*
G01*
X26226861Y-13818561D01*
X26432081Y-13950866D01*
X26589633Y-14119513D01*
X26686745Y-14316675D01*
X26712333Y-14489609D01*
X26674856Y-14698039D01*
X26572195Y-14905648D01*
X26419000Y-15083428D01*
X26407272Y-15093575D01*
X26278809Y-15182611D01*
X26095246Y-15285016D01*
X25882228Y-15388679D01*
X25665397Y-15481487D01*
X25470396Y-15551328D01*
X25391837Y-15573196D01*
X25194604Y-15610067D01*
X25033608Y-15610742D01*
X24870833Y-15576085D01*
X24758314Y-15525179D01*
X24630062Y-15442790D01*
X24590603Y-15412038D01*
X24420191Y-15225613D01*
X24324706Y-15018645D01*
X24299661Y-14799949D01*
X24340570Y-14578341D01*
X24442944Y-14362634D01*
X24602297Y-14161644D01*
X24814143Y-13984186D01*
X25073994Y-13839075D01*
X25377364Y-13735126D01*
X25452916Y-13717948D01*
X25724506Y-13694275D01*
X25986745Y-13730422D01*
G37*
X25986745Y-13730422D02*
X26226861Y-13818561D01*
X26432081Y-13950866D01*
X26589633Y-14119513D01*
X26686745Y-14316675D01*
X26712333Y-14489609D01*
X26674856Y-14698039D01*
X26572195Y-14905648D01*
X26419000Y-15083428D01*
X26407272Y-15093575D01*
X26278809Y-15182611D01*
X26095246Y-15285016D01*
X25882228Y-15388679D01*
X25665397Y-15481487D01*
X25470396Y-15551328D01*
X25391837Y-15573196D01*
X25194604Y-15610067D01*
X25033608Y-15610742D01*
X24870833Y-15576085D01*
X24758314Y-15525179D01*
X24630062Y-15442790D01*
X24590603Y-15412038D01*
X24420191Y-15225613D01*
X24324706Y-15018645D01*
X24299661Y-14799949D01*
X24340570Y-14578341D01*
X24442944Y-14362634D01*
X24602297Y-14161644D01*
X24814143Y-13984186D01*
X25073994Y-13839075D01*
X25377364Y-13735126D01*
X25452916Y-13717948D01*
X25724506Y-13694275D01*
X25986745Y-13730422D01*
G36*
X29148988Y-12032068D02*
G01*
X29423028Y-12071284D01*
X29627111Y-12153593D01*
X29767824Y-12285902D01*
X29851755Y-12475121D01*
X29885491Y-12728157D01*
X29886853Y-12805833D01*
X29854650Y-13105924D01*
X29755989Y-13371379D01*
X29586671Y-13607822D01*
X29342495Y-13820880D01*
X29019262Y-14016177D01*
X28961193Y-14045527D01*
X28778585Y-14129798D01*
X28630194Y-14179356D01*
X28478280Y-14204098D01*
X28323210Y-14212857D01*
X28152153Y-14212070D01*
X28002091Y-14200588D01*
X27903572Y-14180845D01*
X27898931Y-14179024D01*
X27660484Y-14040355D01*
X27489645Y-13858760D01*
X27387579Y-13643789D01*
X27355453Y-13404992D01*
X27394431Y-13151918D01*
X27505679Y-12894118D01*
X27690362Y-12641143D01*
X27708798Y-12620909D01*
X28005254Y-12358784D01*
X28337597Y-12170692D01*
X28698295Y-12059713D01*
X29079814Y-12028928D01*
X29148988Y-12032068D01*
G37*
X29148988Y-12032068D02*
X29423028Y-12071284D01*
X29627111Y-12153593D01*
X29767824Y-12285902D01*
X29851755Y-12475121D01*
X29885491Y-12728157D01*
X29886853Y-12805833D01*
X29854650Y-13105924D01*
X29755989Y-13371379D01*
X29586671Y-13607822D01*
X29342495Y-13820880D01*
X29019262Y-14016177D01*
X28961193Y-14045527D01*
X28778585Y-14129798D01*
X28630194Y-14179356D01*
X28478280Y-14204098D01*
X28323210Y-14212857D01*
X28152153Y-14212070D01*
X28002091Y-14200588D01*
X27903572Y-14180845D01*
X27898931Y-14179024D01*
X27660484Y-14040355D01*
X27489645Y-13858760D01*
X27387579Y-13643789D01*
X27355453Y-13404992D01*
X27394431Y-13151918D01*
X27505679Y-12894118D01*
X27690362Y-12641143D01*
X27708798Y-12620909D01*
X28005254Y-12358784D01*
X28337597Y-12170692D01*
X28698295Y-12059713D01*
X29079814Y-12028928D01*
X29148988Y-12032068D01*
G36*
X-20284943Y-11589816D02*
G01*
X-20004640Y-11651612D01*
X-19743402Y-11742105D01*
X-19513656Y-11856763D01*
X-19327831Y-11991056D01*
X-19198354Y-12140450D01*
X-19137653Y-12300414D01*
X-19134667Y-12344422D01*
X-19157073Y-12515715D01*
X-19233797Y-12638462D01*
X-19379094Y-12733972D01*
X-19402666Y-12745002D01*
X-19572962Y-12794220D01*
X-19801234Y-12820704D01*
X-20063905Y-12824476D01*
X-20337398Y-12805555D01*
X-20598137Y-12763962D01*
X-20682573Y-12743906D01*
X-21026260Y-12635138D01*
X-21288620Y-12510569D01*
X-21468708Y-12370663D01*
X-21488863Y-12348032D01*
X-21562283Y-12240754D01*
X-21583192Y-12134224D01*
X-21575883Y-12045967D01*
X-21523086Y-11882327D01*
X-21408530Y-11755715D01*
X-21223611Y-11658198D01*
X-21115957Y-11621934D01*
X-20853029Y-11570445D01*
X-20571881Y-11561250D01*
X-20284943Y-11589816D01*
G37*
X-20284943Y-11589816D02*
X-20004640Y-11651612D01*
X-19743402Y-11742105D01*
X-19513656Y-11856763D01*
X-19327831Y-11991056D01*
X-19198354Y-12140450D01*
X-19137653Y-12300414D01*
X-19134667Y-12344422D01*
X-19157073Y-12515715D01*
X-19233797Y-12638462D01*
X-19379094Y-12733972D01*
X-19402666Y-12745002D01*
X-19572962Y-12794220D01*
X-19801234Y-12820704D01*
X-20063905Y-12824476D01*
X-20337398Y-12805555D01*
X-20598137Y-12763962D01*
X-20682573Y-12743906D01*
X-21026260Y-12635138D01*
X-21288620Y-12510569D01*
X-21468708Y-12370663D01*
X-21488863Y-12348032D01*
X-21562283Y-12240754D01*
X-21583192Y-12134224D01*
X-21575883Y-12045967D01*
X-21523086Y-11882327D01*
X-21408530Y-11755715D01*
X-21223611Y-11658198D01*
X-21115957Y-11621934D01*
X-20853029Y-11570445D01*
X-20571881Y-11561250D01*
X-20284943Y-11589816D01*
G36*
X-16039252Y-11165213D02*
G01*
X-15837655Y-11253474D01*
X-15686662Y-11389417D01*
X-15597776Y-11563715D01*
X-15578667Y-11702667D01*
X-15616454Y-11881187D01*
X-15721247Y-12070029D01*
X-15880196Y-12251384D01*
X-16080450Y-12407443D01*
X-16092772Y-12415164D01*
X-16298680Y-12512822D01*
X-16558929Y-12592780D01*
X-16846764Y-12650695D01*
X-17135434Y-12682227D01*
X-17398186Y-12683035D01*
X-17580293Y-12656542D01*
X-17826300Y-12565125D01*
X-18008164Y-12437640D01*
X-18122963Y-12284194D01*
X-18167774Y-12114895D01*
X-18139673Y-11939848D01*
X-18035739Y-11769163D01*
X-17877351Y-11629290D01*
X-17665084Y-11508045D01*
X-17394542Y-11391413D01*
X-17092043Y-11287553D01*
X-16783905Y-11204626D01*
X-16496445Y-11150793D01*
X-16279949Y-11133963D01*
X-16039252Y-11165213D01*
G37*
X-16039252Y-11165213D02*
X-15837655Y-11253474D01*
X-15686662Y-11389417D01*
X-15597776Y-11563715D01*
X-15578667Y-11702667D01*
X-15616454Y-11881187D01*
X-15721247Y-12070029D01*
X-15880196Y-12251384D01*
X-16080450Y-12407443D01*
X-16092772Y-12415164D01*
X-16298680Y-12512822D01*
X-16558929Y-12592780D01*
X-16846764Y-12650695D01*
X-17135434Y-12682227D01*
X-17398186Y-12683035D01*
X-17580293Y-12656542D01*
X-17826300Y-12565125D01*
X-18008164Y-12437640D01*
X-18122963Y-12284194D01*
X-18167774Y-12114895D01*
X-18139673Y-11939848D01*
X-18035739Y-11769163D01*
X-17877351Y-11629290D01*
X-17665084Y-11508045D01*
X-17394542Y-11391413D01*
X-17092043Y-11287553D01*
X-16783905Y-11204626D01*
X-16496445Y-11150793D01*
X-16279949Y-11133963D01*
X-16039252Y-11165213D01*
G36*
X-12471174Y-9447196D02*
G01*
X-12231129Y-9518913D01*
X-12044237Y-9630072D01*
X-11916792Y-9775957D01*
X-11855085Y-9951853D01*
X-11865410Y-10153043D01*
X-11922000Y-10313073D01*
X-12032422Y-10473245D01*
X-12209389Y-10643892D01*
X-12437284Y-10815045D01*
X-12700491Y-10976735D01*
X-12983392Y-11118992D01*
X-13270372Y-11231847D01*
X-13439145Y-11281584D01*
X-13662000Y-11321084D01*
X-13910639Y-11338740D01*
X-14151552Y-11333969D01*
X-14351228Y-11306184D01*
X-14382480Y-11298041D01*
X-14536211Y-11219515D01*
X-14686795Y-11086446D01*
X-14807775Y-10925686D01*
X-14859870Y-10813532D01*
X-14882485Y-10617704D01*
X-14828577Y-10418492D01*
X-14705777Y-10221800D01*
X-14521717Y-10033531D01*
X-14284030Y-9859591D01*
X-14000347Y-9705882D01*
X-13678301Y-9578308D01*
X-13325523Y-9482775D01*
X-13085557Y-9440957D01*
X-12758081Y-9419639D01*
X-12471174Y-9447196D01*
G37*
X-12471174Y-9447196D02*
X-12231129Y-9518913D01*
X-12044237Y-9630072D01*
X-11916792Y-9775957D01*
X-11855085Y-9951853D01*
X-11865410Y-10153043D01*
X-11922000Y-10313073D01*
X-12032422Y-10473245D01*
X-12209389Y-10643892D01*
X-12437284Y-10815045D01*
X-12700491Y-10976735D01*
X-12983392Y-11118992D01*
X-13270372Y-11231847D01*
X-13439145Y-11281584D01*
X-13662000Y-11321084D01*
X-13910639Y-11338740D01*
X-14151552Y-11333969D01*
X-14351228Y-11306184D01*
X-14382480Y-11298041D01*
X-14536211Y-11219515D01*
X-14686795Y-11086446D01*
X-14807775Y-10925686D01*
X-14859870Y-10813532D01*
X-14882485Y-10617704D01*
X-14828577Y-10418492D01*
X-14705777Y-10221800D01*
X-14521717Y-10033531D01*
X-14284030Y-9859591D01*
X-14000347Y-9705882D01*
X-13678301Y-9578308D01*
X-13325523Y-9482775D01*
X-13085557Y-9440957D01*
X-12758081Y-9419639D01*
X-12471174Y-9447196D01*
G36*
X-26800934Y-6266241D02*
G01*
X-26546303Y-6375326D01*
X-26314869Y-6538529D01*
X-26130066Y-6742261D01*
X-26109192Y-6773333D01*
X-26042035Y-6887864D01*
X-26007276Y-6987494D01*
X-25997009Y-7107093D01*
X-26001515Y-7248230D01*
X-26023788Y-7451650D01*
X-26068698Y-7592688D01*
X-26102424Y-7647781D01*
X-26276201Y-7821922D01*
X-26476968Y-7916199D01*
X-26702802Y-7929862D01*
X-26787027Y-7915546D01*
X-27001647Y-7827849D01*
X-27206318Y-7672756D01*
X-27385987Y-7467383D01*
X-27525597Y-7228846D01*
X-27608603Y-6981497D01*
X-27634108Y-6835309D01*
X-27632892Y-6732333D01*
X-27601928Y-6634498D01*
X-27576720Y-6580448D01*
X-27454617Y-6408560D01*
X-27290727Y-6285811D01*
X-27107524Y-6227530D01*
X-27055323Y-6224858D01*
X-26800934Y-6266241D01*
G37*
X-26800934Y-6266241D02*
X-26546303Y-6375326D01*
X-26314869Y-6538529D01*
X-26130066Y-6742261D01*
X-26109192Y-6773333D01*
X-26042035Y-6887864D01*
X-26007276Y-6987494D01*
X-25997009Y-7107093D01*
X-26001515Y-7248230D01*
X-26023788Y-7451650D01*
X-26068698Y-7592688D01*
X-26102424Y-7647781D01*
X-26276201Y-7821922D01*
X-26476968Y-7916199D01*
X-26702802Y-7929862D01*
X-26787027Y-7915546D01*
X-27001647Y-7827849D01*
X-27206318Y-7672756D01*
X-27385987Y-7467383D01*
X-27525597Y-7228846D01*
X-27608603Y-6981497D01*
X-27634108Y-6835309D01*
X-27632892Y-6732333D01*
X-27601928Y-6634498D01*
X-27576720Y-6580448D01*
X-27454617Y-6408560D01*
X-27290727Y-6285811D01*
X-27107524Y-6227530D01*
X-27055323Y-6224858D01*
X-26800934Y-6266241D01*
G36*
X-28869757Y-4395443D02*
G01*
X-28667462Y-4493901D01*
X-28442863Y-4648786D01*
X-28207823Y-4852782D01*
X-28152833Y-4906580D01*
X-27944697Y-5137988D01*
X-27811730Y-5343002D01*
X-27750998Y-5527909D01*
X-27759564Y-5698995D01*
X-27768499Y-5729596D01*
X-27850698Y-5898281D01*
X-27982948Y-6083564D01*
X-28143301Y-6257494D01*
X-28263023Y-6359396D01*
X-28460085Y-6454440D01*
X-28694663Y-6475636D01*
X-28962709Y-6422895D01*
X-29087553Y-6377338D01*
X-29412589Y-6206594D01*
X-29676688Y-5983067D01*
X-29890728Y-5696622D01*
X-29966896Y-5557936D01*
X-30043610Y-5349394D01*
X-30048343Y-5159855D01*
X-29978078Y-4978151D01*
X-29829801Y-4793112D01*
X-29736876Y-4705827D01*
X-29510733Y-4534304D01*
X-29288993Y-4417452D01*
X-29088255Y-4363465D01*
X-29037885Y-4360730D01*
X-28869757Y-4395443D01*
G37*
X-28869757Y-4395443D02*
X-28667462Y-4493901D01*
X-28442863Y-4648786D01*
X-28207823Y-4852782D01*
X-28152833Y-4906580D01*
X-27944697Y-5137988D01*
X-27811730Y-5343002D01*
X-27750998Y-5527909D01*
X-27759564Y-5698995D01*
X-27768499Y-5729596D01*
X-27850698Y-5898281D01*
X-27982948Y-6083564D01*
X-28143301Y-6257494D01*
X-28263023Y-6359396D01*
X-28460085Y-6454440D01*
X-28694663Y-6475636D01*
X-28962709Y-6422895D01*
X-29087553Y-6377338D01*
X-29412589Y-6206594D01*
X-29676688Y-5983067D01*
X-29890728Y-5696622D01*
X-29966896Y-5557936D01*
X-30043610Y-5349394D01*
X-30048343Y-5159855D01*
X-29978078Y-4978151D01*
X-29829801Y-4793112D01*
X-29736876Y-4705827D01*
X-29510733Y-4534304D01*
X-29288993Y-4417452D01*
X-29088255Y-4363465D01*
X-29037885Y-4360730D01*
X-28869757Y-4395443D01*
G36*
X22164066Y-826502D02*
G01*
X22292018Y-872340D01*
X22454061Y-992669D01*
X22559782Y-1165030D01*
X22606606Y-1376035D01*
X22591954Y-1612294D01*
X22513250Y-1860418D01*
X22491168Y-1907145D01*
X22340260Y-2144191D01*
X22130398Y-2383666D01*
X21883912Y-2604304D01*
X21623131Y-2784842D01*
X21500627Y-2850441D01*
X21198614Y-2977306D01*
X20880401Y-3079532D01*
X20562990Y-3154098D01*
X20263384Y-3197981D01*
X19998585Y-3208161D01*
X19785594Y-3181614D01*
X19731298Y-3164921D01*
X19559985Y-3062527D01*
X19453470Y-2905978D01*
X19411381Y-2694683D01*
X19410607Y-2653312D01*
X19453422Y-2392272D01*
X19578400Y-2130689D01*
X19783096Y-1871151D01*
X20065064Y-1616243D01*
X20421858Y-1368553D01*
X20849690Y-1131337D01*
X21250363Y-952867D01*
X21602292Y-842695D01*
X21906513Y-800636D01*
X22164066Y-826502D01*
G37*
X22164066Y-826502D02*
X22292018Y-872340D01*
X22454061Y-992669D01*
X22559782Y-1165030D01*
X22606606Y-1376035D01*
X22591954Y-1612294D01*
X22513250Y-1860418D01*
X22491168Y-1907145D01*
X22340260Y-2144191D01*
X22130398Y-2383666D01*
X21883912Y-2604304D01*
X21623131Y-2784842D01*
X21500627Y-2850441D01*
X21198614Y-2977306D01*
X20880401Y-3079532D01*
X20562990Y-3154098D01*
X20263384Y-3197981D01*
X19998585Y-3208161D01*
X19785594Y-3181614D01*
X19731298Y-3164921D01*
X19559985Y-3062527D01*
X19453470Y-2905978D01*
X19411381Y-2694683D01*
X19410607Y-2653312D01*
X19453422Y-2392272D01*
X19578400Y-2130689D01*
X19783096Y-1871151D01*
X20065064Y-1616243D01*
X20421858Y-1368553D01*
X20849690Y-1131337D01*
X21250363Y-952867D01*
X21602292Y-842695D01*
X21906513Y-800636D01*
X22164066Y-826502D01*
G36*
X-4583695Y9638837D02*
G01*
X-4284772Y9611338D01*
X-4148667Y9591126D01*
X-3686283Y9485913D01*
X-3233345Y9332255D01*
X-2778404Y9124592D01*
X-2310009Y8857364D01*
X-1816711Y8525010D01*
X-1556934Y8332512D01*
X-997275Y7853811D01*
X-496637Y7316343D01*
X-58248Y6725020D01*
X314670Y6084752D01*
X618890Y5400452D01*
X851187Y4677033D01*
X856520Y4656667D01*
X908420Y4445287D01*
X945722Y4257478D01*
X971581Y4068281D01*
X989149Y3852735D01*
X1001580Y3585880D01*
X1005158Y3480273D01*
X1011291Y3085883D01*
X1002872Y2756878D01*
X980151Y2501571D01*
X974593Y2464273D01*
X832614Y1831367D01*
X617875Y1240741D01*
X332048Y694859D01*
X-23196Y196186D01*
X-446184Y-252816D01*
X-935245Y-649681D01*
X-1297462Y-884251D01*
X-1758328Y-1114651D01*
X-2278296Y-1299968D01*
X-2842561Y-1436427D01*
X-3436320Y-1520254D01*
X-3894667Y-1546368D01*
X-4125100Y-1549740D01*
X-4334908Y-1550248D01*
X-4504824Y-1548026D01*
X-4615584Y-1543210D01*
X-4635500Y-1541128D01*
X-5291417Y-1427419D01*
X-5887058Y-1278139D01*
X-6441394Y-1087528D01*
X-6973394Y-849826D01*
X-7063815Y-803887D01*
X-7680133Y-442290D01*
X-8237141Y-26870D01*
X-8731645Y438332D01*
X-9160450Y949273D01*
X-9520361Y1501911D01*
X-9808182Y2092203D01*
X-10020718Y2716107D01*
X-10096439Y3033007D01*
X-10195708Y3703769D01*
X-10214577Y4275667D01*
X-9670966Y4275667D01*
X-9666116Y3890068D01*
X-9647810Y3565164D01*
X-9612658Y3277585D01*
X-9557269Y3003960D01*
X-9478255Y2720919D01*
X-9419219Y2540153D01*
X-9185985Y1983795D01*
X-8878093Y1458399D01*
X-8501487Y969012D01*
X-8062110Y520678D01*
X-7565908Y118443D01*
X-7018822Y-232648D01*
X-6426799Y-527549D01*
X-5795781Y-761217D01*
X-5401942Y-869681D01*
X-4924328Y-959013D01*
X-4411005Y-1009422D01*
X-3888992Y-1020406D01*
X-3385307Y-991462D01*
X-2926971Y-922086D01*
X-2899834Y-916262D01*
X-2439169Y-799399D01*
X-2043763Y-663251D01*
X-1695203Y-501474D01*
X-1693334Y-500476D01*
X-1183809Y-185794D01*
X-741883Y178630D01*
X-365751Y595086D01*
X-53606Y1065865D01*
X196358Y1593258D01*
X369102Y2116187D01*
X411755Y2282606D01*
X442007Y2431629D01*
X462038Y2584455D01*
X474027Y2762283D01*
X480155Y2986310D01*
X482324Y3217334D01*
X468520Y3732947D01*
X417577Y4199349D01*
X323785Y4642015D01*
X181432Y5086417D01*
X-15191Y5558031D01*
X-67654Y5670837D01*
X-404778Y6291244D01*
X-807185Y6862513D01*
X-1277761Y7387927D01*
X-1819394Y7870767D01*
X-2335745Y8248776D01*
X-2780122Y8529091D01*
X-3191767Y8747501D01*
X-3588885Y8909729D01*
X-3989685Y9021498D01*
X-4412375Y9088531D01*
X-4875161Y9116549D01*
X-5101167Y9117955D01*
X-5375911Y9113556D01*
X-5590505Y9103408D01*
X-5769408Y9084869D01*
X-5937080Y9055297D01*
X-6117980Y9012049D01*
X-6143367Y9005385D01*
X-6728009Y8807805D01*
X-7277137Y8536079D01*
X-7785186Y8195255D01*
X-8246592Y7790378D01*
X-8655790Y7326498D01*
X-9007216Y6808658D01*
X-9295307Y6241908D01*
X-9358251Y6089445D01*
X-9407400Y5950491D01*
X-9467247Y5760406D01*
X-9528222Y5550268D01*
X-9557297Y5443015D01*
X-9599401Y5275104D01*
X-9629607Y5127685D01*
X-9649883Y4980542D01*
X-9662197Y4813461D01*
X-9668519Y4606229D01*
X-9670816Y4338629D01*
X-9670966Y4275667D01*
X-10214577Y4275667D01*
X-10217533Y4365256D01*
X-10165400Y5012101D01*
X-10042800Y5638940D01*
X-9853219Y6240406D01*
X-9600145Y6811134D01*
X-9287067Y7345759D01*
X-8917473Y7838915D01*
X-8494851Y8285236D01*
X-8022689Y8679357D01*
X-7504475Y9015912D01*
X-6943698Y9289536D01*
X-6343844Y9494863D01*
X-5821381Y9609145D01*
X-5564022Y9638150D01*
X-5252501Y9652558D01*
X-4915998Y9652682D01*
X-4583695Y9638837D01*
G37*
X-4583695Y9638837D02*
X-4284772Y9611338D01*
X-4148667Y9591126D01*
X-3686283Y9485913D01*
X-3233345Y9332255D01*
X-2778404Y9124592D01*
X-2310009Y8857364D01*
X-1816711Y8525010D01*
X-1556934Y8332512D01*
X-997275Y7853811D01*
X-496637Y7316343D01*
X-58248Y6725020D01*
X314670Y6084752D01*
X618890Y5400452D01*
X851187Y4677033D01*
X856520Y4656667D01*
X908420Y4445287D01*
X945722Y4257478D01*
X971581Y4068281D01*
X989149Y3852735D01*
X1001580Y3585880D01*
X1005158Y3480273D01*
X1011291Y3085883D01*
X1002872Y2756878D01*
X980151Y2501571D01*
X974593Y2464273D01*
X832614Y1831367D01*
X617875Y1240741D01*
X332048Y694859D01*
X-23196Y196186D01*
X-446184Y-252816D01*
X-935245Y-649681D01*
X-1297462Y-884251D01*
X-1758328Y-1114651D01*
X-2278296Y-1299968D01*
X-2842561Y-1436427D01*
X-3436320Y-1520254D01*
X-3894667Y-1546368D01*
X-4125100Y-1549740D01*
X-4334908Y-1550248D01*
X-4504824Y-1548026D01*
X-4615584Y-1543210D01*
X-4635500Y-1541128D01*
X-5291417Y-1427419D01*
X-5887058Y-1278139D01*
X-6441394Y-1087528D01*
X-6973394Y-849826D01*
X-7063815Y-803887D01*
X-7680133Y-442290D01*
X-8237141Y-26870D01*
X-8731645Y438332D01*
X-9160450Y949273D01*
X-9520361Y1501911D01*
X-9808182Y2092203D01*
X-10020718Y2716107D01*
X-10096439Y3033007D01*
X-10195708Y3703769D01*
X-10214577Y4275667D01*
X-9670966Y4275667D01*
X-9666116Y3890068D01*
X-9647810Y3565164D01*
X-9612658Y3277585D01*
X-9557269Y3003960D01*
X-9478255Y2720919D01*
X-9419219Y2540153D01*
X-9185985Y1983795D01*
X-8878093Y1458399D01*
X-8501487Y969012D01*
X-8062110Y520678D01*
X-7565908Y118443D01*
X-7018822Y-232648D01*
X-6426799Y-527549D01*
X-5795781Y-761217D01*
X-5401942Y-869681D01*
X-4924328Y-959013D01*
X-4411005Y-1009422D01*
X-3888992Y-1020406D01*
X-3385307Y-991462D01*
X-2926971Y-922086D01*
X-2899834Y-916262D01*
X-2439169Y-799399D01*
X-2043763Y-663251D01*
X-1695203Y-501474D01*
X-1693334Y-500476D01*
X-1183809Y-185794D01*
X-741883Y178630D01*
X-365751Y595086D01*
X-53606Y1065865D01*
X196358Y1593258D01*
X369102Y2116187D01*
X411755Y2282606D01*
X442007Y2431629D01*
X462038Y2584455D01*
X474027Y2762283D01*
X480155Y2986310D01*
X482324Y3217334D01*
X468520Y3732947D01*
X417577Y4199349D01*
X323785Y4642015D01*
X181432Y5086417D01*
X-15191Y5558031D01*
X-67654Y5670837D01*
X-404778Y6291244D01*
X-807185Y6862513D01*
X-1277761Y7387927D01*
X-1819394Y7870767D01*
X-2335745Y8248776D01*
X-2780122Y8529091D01*
X-3191767Y8747501D01*
X-3588885Y8909729D01*
X-3989685Y9021498D01*
X-4412375Y9088531D01*
X-4875161Y9116549D01*
X-5101167Y9117955D01*
X-5375911Y9113556D01*
X-5590505Y9103408D01*
X-5769408Y9084869D01*
X-5937080Y9055297D01*
X-6117980Y9012049D01*
X-6143367Y9005385D01*
X-6728009Y8807805D01*
X-7277137Y8536079D01*
X-7785186Y8195255D01*
X-8246592Y7790378D01*
X-8655790Y7326498D01*
X-9007216Y6808658D01*
X-9295307Y6241908D01*
X-9358251Y6089445D01*
X-9407400Y5950491D01*
X-9467247Y5760406D01*
X-9528222Y5550268D01*
X-9557297Y5443015D01*
X-9599401Y5275104D01*
X-9629607Y5127685D01*
X-9649883Y4980542D01*
X-9662197Y4813461D01*
X-9668519Y4606229D01*
X-9670816Y4338629D01*
X-9670966Y4275667D01*
X-10214577Y4275667D01*
X-10217533Y4365256D01*
X-10165400Y5012101D01*
X-10042800Y5638940D01*
X-9853219Y6240406D01*
X-9600145Y6811134D01*
X-9287067Y7345759D01*
X-8917473Y7838915D01*
X-8494851Y8285236D01*
X-8022689Y8679357D01*
X-7504475Y9015912D01*
X-6943698Y9289536D01*
X-6343844Y9494863D01*
X-5821381Y9609145D01*
X-5564022Y9638150D01*
X-5252501Y9652558D01*
X-4915998Y9652682D01*
X-4583695Y9638837D01*
G36*
X-22077306Y1752912D02*
G01*
X-21819082Y1673958D01*
X-21535135Y1531956D01*
X-21230254Y1328012D01*
X-20909229Y1063228D01*
X-20804299Y966231D01*
X-20475350Y625253D01*
X-20226875Y301639D01*
X-20057188Y-7691D01*
X-19964602Y-305820D01*
X-19947430Y-595828D01*
X-19947646Y-598869D01*
X-19965934Y-755413D01*
X-20002003Y-862013D01*
X-20069550Y-953293D01*
X-20100590Y-985461D01*
X-20179416Y-1056814D01*
X-20256089Y-1098812D01*
X-20358199Y-1120657D01*
X-20513335Y-1131554D01*
X-20542241Y-1132787D01*
X-20740676Y-1133117D01*
X-20897883Y-1110504D01*
X-21055734Y-1058236D01*
X-21086553Y-1045537D01*
X-21441934Y-856374D01*
X-21787423Y-597804D01*
X-22107801Y-284916D01*
X-22387849Y67198D01*
X-22612349Y443449D01*
X-22634987Y489827D01*
X-22756533Y798749D01*
X-22807434Y1070457D01*
X-22788724Y1312796D01*
X-22757172Y1416190D01*
X-22649739Y1600459D01*
X-22497424Y1717266D01*
X-22305016Y1767716D01*
X-22077306Y1752912D01*
G37*
X-22077306Y1752912D02*
X-21819082Y1673958D01*
X-21535135Y1531956D01*
X-21230254Y1328012D01*
X-20909229Y1063228D01*
X-20804299Y966231D01*
X-20475350Y625253D01*
X-20226875Y301639D01*
X-20057188Y-7691D01*
X-19964602Y-305820D01*
X-19947430Y-595828D01*
X-19947646Y-598869D01*
X-19965934Y-755413D01*
X-20002003Y-862013D01*
X-20069550Y-953293D01*
X-20100590Y-985461D01*
X-20179416Y-1056814D01*
X-20256089Y-1098812D01*
X-20358199Y-1120657D01*
X-20513335Y-1131554D01*
X-20542241Y-1132787D01*
X-20740676Y-1133117D01*
X-20897883Y-1110504D01*
X-21055734Y-1058236D01*
X-21086553Y-1045537D01*
X-21441934Y-856374D01*
X-21787423Y-597804D01*
X-22107801Y-284916D01*
X-22387849Y67198D01*
X-22612349Y443449D01*
X-22634987Y489827D01*
X-22756533Y798749D01*
X-22807434Y1070457D01*
X-22788724Y1312796D01*
X-22757172Y1416190D01*
X-22649739Y1600459D01*
X-22497424Y1717266D01*
X-22305016Y1767716D01*
X-22077306Y1752912D01*
G36*
X26489256Y2866385D02*
G01*
X26700954Y2804753D01*
X26864427Y2690686D01*
X26926465Y2610436D01*
X27010300Y2393940D01*
X27028013Y2138566D01*
X26981024Y1856489D01*
X26870756Y1559884D01*
X26784839Y1397000D01*
X26660765Y1216213D01*
X26491826Y1013470D01*
X26295112Y805448D01*
X26087711Y608823D01*
X25886713Y440271D01*
X25709209Y316471D01*
X25638499Y278366D01*
X25345504Y170694D01*
X25085171Y138438D01*
X24852368Y181249D01*
X24765968Y219230D01*
X24586186Y344773D01*
X24472987Y506613D01*
X24419293Y717668D01*
X24412594Y864169D01*
X24452595Y1165296D01*
X24560651Y1481764D01*
X24726011Y1797958D01*
X24937924Y2098268D01*
X25185638Y2367078D01*
X25458403Y2588778D01*
X25693760Y2724718D01*
X25972764Y2827563D01*
X26242228Y2874387D01*
X26489256Y2866385D01*
G37*
X26489256Y2866385D02*
X26700954Y2804753D01*
X26864427Y2690686D01*
X26926465Y2610436D01*
X27010300Y2393940D01*
X27028013Y2138566D01*
X26981024Y1856489D01*
X26870756Y1559884D01*
X26784839Y1397000D01*
X26660765Y1216213D01*
X26491826Y1013470D01*
X26295112Y805448D01*
X26087711Y608823D01*
X25886713Y440271D01*
X25709209Y316471D01*
X25638499Y278366D01*
X25345504Y170694D01*
X25085171Y138438D01*
X24852368Y181249D01*
X24765968Y219230D01*
X24586186Y344773D01*
X24472987Y506613D01*
X24419293Y717668D01*
X24412594Y864169D01*
X24452595Y1165296D01*
X24560651Y1481764D01*
X24726011Y1797958D01*
X24937924Y2098268D01*
X25185638Y2367078D01*
X25458403Y2588778D01*
X25693760Y2724718D01*
X25972764Y2827563D01*
X26242228Y2874387D01*
X26489256Y2866385D01*
G36*
X-25447503Y6478779D02*
G01*
X-25203976Y6362987D01*
X-24965230Y6180763D01*
X-24738778Y5940915D01*
X-24532134Y5652248D01*
X-24352812Y5323570D01*
X-24208324Y4963687D01*
X-24130976Y4693942D01*
X-24067683Y4367679D01*
X-24051623Y4099630D01*
X-24084749Y3876465D01*
X-24169019Y3684851D01*
X-24304113Y3513799D01*
X-24510251Y3353991D01*
X-24737919Y3275886D01*
X-24984721Y3279972D01*
X-25177906Y3336053D01*
X-25425937Y3475981D01*
X-25663163Y3685953D01*
X-25882299Y3951416D01*
X-26076059Y4257819D01*
X-26237160Y4590612D01*
X-26358315Y4935245D01*
X-26432239Y5277165D01*
X-26451649Y5601822D01*
X-26425483Y5827946D01*
X-26336407Y6094886D01*
X-26196947Y6301673D01*
X-26013021Y6442757D01*
X-25790549Y6512587D01*
X-25688299Y6519334D01*
X-25447503Y6478779D01*
G37*
X-25447503Y6478779D02*
X-25203976Y6362987D01*
X-24965230Y6180763D01*
X-24738778Y5940915D01*
X-24532134Y5652248D01*
X-24352812Y5323570D01*
X-24208324Y4963687D01*
X-24130976Y4693942D01*
X-24067683Y4367679D01*
X-24051623Y4099630D01*
X-24084749Y3876465D01*
X-24169019Y3684851D01*
X-24304113Y3513799D01*
X-24510251Y3353991D01*
X-24737919Y3275886D01*
X-24984721Y3279972D01*
X-25177906Y3336053D01*
X-25425937Y3475981D01*
X-25663163Y3685953D01*
X-25882299Y3951416D01*
X-26076059Y4257819D01*
X-26237160Y4590612D01*
X-26358315Y4935245D01*
X-26432239Y5277165D01*
X-26451649Y5601822D01*
X-26425483Y5827946D01*
X-26336407Y6094886D01*
X-26196947Y6301673D01*
X-26013021Y6442757D01*
X-25790549Y6512587D01*
X-25688299Y6519334D01*
X-25447503Y6478779D01*
G36*
X29894867Y6839133D02*
G01*
X30110761Y6754577D01*
X30267065Y6628562D01*
X30350758Y6481036D01*
X30391332Y6278025D01*
X30388163Y6037277D01*
X30340627Y5776536D01*
X30301551Y5648582D01*
X30182228Y5358657D01*
X30030161Y5070197D01*
X29856256Y4798422D01*
X29671416Y4558551D01*
X29486548Y4365803D01*
X29312555Y4235397D01*
X29274821Y4215631D01*
X29060622Y4154768D01*
X28852375Y4172882D01*
X28699965Y4244061D01*
X28536544Y4389460D01*
X28437347Y4568964D01*
X28395482Y4797488D01*
X28393271Y4907713D01*
X28426013Y5195042D01*
X28509720Y5501913D01*
X28635267Y5811899D01*
X28793527Y6108570D01*
X28975373Y6375498D01*
X29171678Y6596256D01*
X29373317Y6754413D01*
X29438815Y6789757D01*
X29663649Y6852268D01*
X29894867Y6839133D01*
G37*
X29894867Y6839133D02*
X30110761Y6754577D01*
X30267065Y6628562D01*
X30350758Y6481036D01*
X30391332Y6278025D01*
X30388163Y6037277D01*
X30340627Y5776536D01*
X30301551Y5648582D01*
X30182228Y5358657D01*
X30030161Y5070197D01*
X29856256Y4798422D01*
X29671416Y4558551D01*
X29486548Y4365803D01*
X29312555Y4235397D01*
X29274821Y4215631D01*
X29060622Y4154768D01*
X28852375Y4172882D01*
X28699965Y4244061D01*
X28536544Y4389460D01*
X28437347Y4568964D01*
X28395482Y4797488D01*
X28393271Y4907713D01*
X28426013Y5195042D01*
X28509720Y5501913D01*
X28635267Y5811899D01*
X28793527Y6108570D01*
X28975373Y6375498D01*
X29171678Y6596256D01*
X29373317Y6754413D01*
X29438815Y6789757D01*
X29663649Y6852268D01*
X29894867Y6839133D01*
G36*
X31882355Y10874343D02*
G01*
X32046479Y10767632D01*
X32160694Y10616956D01*
X32206887Y10477124D01*
X32233759Y10278341D01*
X32241740Y10043989D01*
X32231261Y9797447D01*
X32202751Y9562096D01*
X32156641Y9361316D01*
X32136535Y9303819D01*
X32023568Y9072277D01*
X31871134Y8835421D01*
X31698961Y8620076D01*
X31526775Y8453064D01*
X31490254Y8425039D01*
X31308486Y8330891D01*
X31117652Y8294846D01*
X30941459Y8318504D01*
X30828383Y8380313D01*
X30707840Y8532360D01*
X30626953Y8744234D01*
X30585016Y9001336D01*
X30581325Y9289063D01*
X30615175Y9592816D01*
X30685861Y9897994D01*
X30792678Y10189997D01*
X30927970Y10443448D01*
X31096228Y10652526D01*
X31287932Y10801863D01*
X31490946Y10889751D01*
X31693132Y10914480D01*
X31882355Y10874343D01*
G37*
X31882355Y10874343D02*
X32046479Y10767632D01*
X32160694Y10616956D01*
X32206887Y10477124D01*
X32233759Y10278341D01*
X32241740Y10043989D01*
X32231261Y9797447D01*
X32202751Y9562096D01*
X32156641Y9361316D01*
X32136535Y9303819D01*
X32023568Y9072277D01*
X31871134Y8835421D01*
X31698961Y8620076D01*
X31526775Y8453064D01*
X31490254Y8425039D01*
X31308486Y8330891D01*
X31117652Y8294846D01*
X30941459Y8318504D01*
X30828383Y8380313D01*
X30707840Y8532360D01*
X30626953Y8744234D01*
X30585016Y9001336D01*
X30581325Y9289063D01*
X30615175Y9592816D01*
X30685861Y9897994D01*
X30792678Y10189997D01*
X30927970Y10443448D01*
X31096228Y10652526D01*
X31287932Y10801863D01*
X31490946Y10889751D01*
X31693132Y10914480D01*
X31882355Y10874343D01*
G36*
X-27860525Y11699640D02*
G01*
X-27667346Y11608567D01*
X-27488669Y11445954D01*
X-27332466Y11214633D01*
X-27276275Y11099469D01*
X-27093405Y10611156D01*
X-26986912Y10142444D01*
X-26954177Y9715500D01*
X-26961556Y9445038D01*
X-26991580Y9237421D01*
X-27052495Y9072063D01*
X-27152545Y8928374D01*
X-27299975Y8785769D01*
X-27339999Y8752157D01*
X-27516719Y8657933D01*
X-27715976Y8636934D01*
X-27915984Y8690243D01*
X-27972494Y8720655D01*
X-28084511Y8817735D01*
X-28213087Y8974448D01*
X-28345495Y9170984D01*
X-28469005Y9387539D01*
X-28570889Y9604303D01*
X-28613839Y9718657D01*
X-28699086Y10050229D01*
X-28739493Y10387224D01*
X-28736502Y10714076D01*
X-28691554Y11015218D01*
X-28606094Y11275083D01*
X-28481562Y11478105D01*
X-28447354Y11515314D01*
X-28258500Y11655844D01*
X-28060233Y11716343D01*
X-27860525Y11699640D01*
G37*
X-27860525Y11699640D02*
X-27667346Y11608567D01*
X-27488669Y11445954D01*
X-27332466Y11214633D01*
X-27276275Y11099469D01*
X-27093405Y10611156D01*
X-26986912Y10142444D01*
X-26954177Y9715500D01*
X-26961556Y9445038D01*
X-26991580Y9237421D01*
X-27052495Y9072063D01*
X-27152545Y8928374D01*
X-27299975Y8785769D01*
X-27339999Y8752157D01*
X-27516719Y8657933D01*
X-27715976Y8636934D01*
X-27915984Y8690243D01*
X-27972494Y8720655D01*
X-28084511Y8817735D01*
X-28213087Y8974448D01*
X-28345495Y9170984D01*
X-28469005Y9387539D01*
X-28570889Y9604303D01*
X-28613839Y9718657D01*
X-28699086Y10050229D01*
X-28739493Y10387224D01*
X-28736502Y10714076D01*
X-28691554Y11015218D01*
X-28606094Y11275083D01*
X-28481562Y11478105D01*
X-28447354Y11515314D01*
X-28258500Y11655844D01*
X-28060233Y11716343D01*
X-27860525Y11699640D01*
G36*
X32350298Y15380551D02*
G01*
X32509922Y15291692D01*
X32650253Y15135394D01*
X32764003Y14920205D01*
X32843884Y14654673D01*
X32854348Y14600824D01*
X32882280Y14365439D01*
X32891136Y14099721D01*
X32882266Y13827762D01*
X32857021Y13573657D01*
X32816751Y13361500D01*
X32778451Y13246527D01*
X32656563Y13064945D01*
X32484499Y12930831D01*
X32282591Y12852504D01*
X32071171Y12838283D01*
X31894576Y12884867D01*
X31717561Y13009560D01*
X31585805Y13196299D01*
X31500161Y13435045D01*
X31461476Y13715761D01*
X31470602Y14028408D01*
X31528388Y14362946D01*
X31635684Y14709339D01*
X31722634Y14915373D01*
X31827020Y15120365D01*
X31922312Y15257764D01*
X32021898Y15341603D01*
X32139164Y15385917D01*
X32178666Y15393422D01*
X32350298Y15380551D01*
G37*
X32350298Y15380551D02*
X32509922Y15291692D01*
X32650253Y15135394D01*
X32764003Y14920205D01*
X32843884Y14654673D01*
X32854348Y14600824D01*
X32882280Y14365439D01*
X32891136Y14099721D01*
X32882266Y13827762D01*
X32857021Y13573657D01*
X32816751Y13361500D01*
X32778451Y13246527D01*
X32656563Y13064945D01*
X32484499Y12930831D01*
X32282591Y12852504D01*
X32071171Y12838283D01*
X31894576Y12884867D01*
X31717561Y13009560D01*
X31585805Y13196299D01*
X31500161Y13435045D01*
X31461476Y13715761D01*
X31470602Y14028408D01*
X31528388Y14362946D01*
X31635684Y14709339D01*
X31722634Y14915373D01*
X31827020Y15120365D01*
X31922312Y15257764D01*
X32021898Y15341603D01*
X32139164Y15385917D01*
X32178666Y15393422D01*
X32350298Y15380551D01*
G36*
X-28595226Y16484959D02*
G01*
X-28404820Y16349591D01*
X-28249853Y16179651D01*
X-28108791Y15936859D01*
X-28003390Y15637680D01*
X-27935478Y15303340D01*
X-27906880Y14955066D01*
X-27919423Y14614082D01*
X-27974934Y14301615D01*
X-28067001Y14054666D01*
X-28139099Y13946063D01*
X-28249949Y13813938D01*
X-28357513Y13704375D01*
X-28486690Y13591815D01*
X-28586017Y13530314D01*
X-28680467Y13506411D01*
X-28728610Y13504334D01*
X-28831730Y13515617D01*
X-28921825Y13559692D01*
X-29026535Y13651895D01*
X-29064387Y13690669D01*
X-29177475Y13828954D01*
X-29295502Y14004968D01*
X-29383532Y14162612D01*
X-29455599Y14320667D01*
X-29500356Y14458374D01*
X-29525716Y14609508D01*
X-29539593Y14807842D01*
X-29540738Y14833527D01*
X-29539257Y15169017D01*
X-29508426Y15497174D01*
X-29451872Y15803357D01*
X-29373222Y16072924D01*
X-29276104Y16291231D01*
X-29164144Y16443637D01*
X-29135686Y16468611D01*
X-28971711Y16548074D01*
X-28787874Y16552322D01*
X-28595226Y16484959D01*
G37*
X-28595226Y16484959D02*
X-28404820Y16349591D01*
X-28249853Y16179651D01*
X-28108791Y15936859D01*
X-28003390Y15637680D01*
X-27935478Y15303340D01*
X-27906880Y14955066D01*
X-27919423Y14614082D01*
X-27974934Y14301615D01*
X-28067001Y14054666D01*
X-28139099Y13946063D01*
X-28249949Y13813938D01*
X-28357513Y13704375D01*
X-28486690Y13591815D01*
X-28586017Y13530314D01*
X-28680467Y13506411D01*
X-28728610Y13504334D01*
X-28831730Y13515617D01*
X-28921825Y13559692D01*
X-29026535Y13651895D01*
X-29064387Y13690669D01*
X-29177475Y13828954D01*
X-29295502Y14004968D01*
X-29383532Y14162612D01*
X-29455599Y14320667D01*
X-29500356Y14458374D01*
X-29525716Y14609508D01*
X-29539593Y14807842D01*
X-29540738Y14833527D01*
X-29539257Y15169017D01*
X-29508426Y15497174D01*
X-29451872Y15803357D01*
X-29373222Y16072924D01*
X-29276104Y16291231D01*
X-29164144Y16443637D01*
X-29135686Y16468611D01*
X-28971711Y16548074D01*
X-28787874Y16552322D01*
X-28595226Y16484959D01*
G36*
X32621525Y19138289D02*
G01*
X32783806Y19024342D01*
X32910042Y18838442D01*
X32998052Y18583870D01*
X33045653Y18263909D01*
X33047223Y18242027D01*
X33047454Y17924362D01*
X33007769Y17627997D01*
X32933682Y17360444D01*
X32830705Y17129218D01*
X32704352Y16941832D01*
X32560136Y16805802D01*
X32403570Y16728639D01*
X32240167Y16717860D01*
X32075442Y16780976D01*
X32010235Y16828750D01*
X31894694Y16960671D01*
X31812139Y17139296D01*
X31759946Y17374426D01*
X31735490Y17675865D01*
X31732873Y17864667D01*
X31754840Y18243110D01*
X31816223Y18563369D01*
X31914758Y18821156D01*
X32048184Y19012184D01*
X32214238Y19132164D01*
X32410656Y19176808D01*
X32425383Y19177000D01*
X32621525Y19138289D01*
G37*
X32621525Y19138289D02*
X32783806Y19024342D01*
X32910042Y18838442D01*
X32998052Y18583870D01*
X33045653Y18263909D01*
X33047223Y18242027D01*
X33047454Y17924362D01*
X33007769Y17627997D01*
X32933682Y17360444D01*
X32830705Y17129218D01*
X32704352Y16941832D01*
X32560136Y16805802D01*
X32403570Y16728639D01*
X32240167Y16717860D01*
X32075442Y16780976D01*
X32010235Y16828750D01*
X31894694Y16960671D01*
X31812139Y17139296D01*
X31759946Y17374426D01*
X31735490Y17675865D01*
X31732873Y17864667D01*
X31754840Y18243110D01*
X31816223Y18563369D01*
X31914758Y18821156D01*
X32048184Y19012184D01*
X32214238Y19132164D01*
X32410656Y19176808D01*
X32425383Y19177000D01*
X32621525Y19138289D01*
G36*
X-27883793Y21262557D02*
G01*
X-27784087Y21190993D01*
X-27756234Y21166900D01*
X-27627224Y21016301D01*
X-27536404Y20819545D01*
X-27480852Y20566518D01*
X-27457648Y20247106D01*
X-27456576Y20129500D01*
X-27473048Y19787074D01*
X-27524412Y19498080D01*
X-27617275Y19236146D01*
X-27737367Y19009086D01*
X-27836578Y18867260D01*
X-27947515Y18742615D01*
X-28020344Y18681003D01*
X-28208016Y18601704D01*
X-28414823Y18589844D01*
X-28609735Y18646252D01*
X-28642255Y18664384D01*
X-28811270Y18794032D01*
X-28929368Y18952385D01*
X-29001474Y19152324D01*
X-29032513Y19406730D01*
X-29030118Y19678849D01*
X-28978026Y20122018D01*
X-28866766Y20509902D01*
X-28694187Y20849811D01*
X-28677982Y20874675D01*
X-28537406Y21064027D01*
X-28404380Y21186622D01*
X-28259951Y21256118D01*
X-28109752Y21284061D01*
X-27978247Y21288907D01*
X-27883793Y21262557D01*
G37*
X-27883793Y21262557D02*
X-27784087Y21190993D01*
X-27756234Y21166900D01*
X-27627224Y21016301D01*
X-27536404Y20819545D01*
X-27480852Y20566518D01*
X-27457648Y20247106D01*
X-27456576Y20129500D01*
X-27473048Y19787074D01*
X-27524412Y19498080D01*
X-27617275Y19236146D01*
X-27737367Y19009086D01*
X-27836578Y18867260D01*
X-27947515Y18742615D01*
X-28020344Y18681003D01*
X-28208016Y18601704D01*
X-28414823Y18589844D01*
X-28609735Y18646252D01*
X-28642255Y18664384D01*
X-28811270Y18794032D01*
X-28929368Y18952385D01*
X-29001474Y19152324D01*
X-29032513Y19406730D01*
X-29030118Y19678849D01*
X-28978026Y20122018D01*
X-28866766Y20509902D01*
X-28694187Y20849811D01*
X-28677982Y20874675D01*
X-28537406Y21064027D01*
X-28404380Y21186622D01*
X-28259951Y21256118D01*
X-28109752Y21284061D01*
X-27978247Y21288907D01*
X-27883793Y21262557D01*
G36*
X-26905644Y25340989D02*
G01*
X-26780593Y25267564D01*
X-26679976Y25122572D01*
X-26605647Y24916046D01*
X-26559461Y24658019D01*
X-26543273Y24358525D01*
X-26558937Y24027596D01*
X-26603072Y23704013D01*
X-26679948Y23387626D01*
X-26787901Y23142659D01*
X-26933057Y22959624D01*
X-27121542Y22829035D01*
X-27187802Y22798521D01*
X-27321481Y22749076D01*
X-27419045Y22739025D01*
X-27519754Y22769192D01*
X-27598429Y22807150D01*
X-27742830Y22919044D01*
X-27845091Y23089656D01*
X-27908330Y23325911D01*
X-27931898Y23548122D01*
X-27931798Y23863019D01*
X-27888303Y24154318D01*
X-27795074Y24451639D01*
X-27683980Y24706305D01*
X-27526092Y24986695D01*
X-27358552Y25189304D01*
X-27183742Y25312191D01*
X-27004044Y25353412D01*
X-26905644Y25340989D01*
G37*
X-26905644Y25340989D02*
X-26780593Y25267564D01*
X-26679976Y25122572D01*
X-26605647Y24916046D01*
X-26559461Y24658019D01*
X-26543273Y24358525D01*
X-26558937Y24027596D01*
X-26603072Y23704013D01*
X-26679948Y23387626D01*
X-26787901Y23142659D01*
X-26933057Y22959624D01*
X-27121542Y22829035D01*
X-27187802Y22798521D01*
X-27321481Y22749076D01*
X-27419045Y22739025D01*
X-27519754Y22769192D01*
X-27598429Y22807150D01*
X-27742830Y22919044D01*
X-27845091Y23089656D01*
X-27908330Y23325911D01*
X-27931898Y23548122D01*
X-27931798Y23863019D01*
X-27888303Y24154318D01*
X-27795074Y24451639D01*
X-27683980Y24706305D01*
X-27526092Y24986695D01*
X-27358552Y25189304D01*
X-27183742Y25312191D01*
X-27004044Y25353412D01*
X-26905644Y25340989D01*
G36*
X-23779543Y32652947D02*
G01*
X-23650391Y32534811D01*
X-23565596Y32358836D01*
X-23537492Y32146906D01*
X-23563512Y31894111D01*
X-23646964Y31644639D01*
X-23795364Y31376887D01*
X-23816713Y31344280D01*
X-23984383Y31135706D01*
X-24164179Y30989874D01*
X-24346118Y30911245D01*
X-24520215Y30904282D01*
X-24665080Y30965148D01*
X-24768741Y31077840D01*
X-24828046Y31244418D01*
X-24845498Y31473804D01*
X-24840876Y31592152D01*
X-24788158Y31925492D01*
X-24672654Y32211538D01*
X-24489954Y32463959D01*
X-24308258Y32618750D01*
X-24120965Y32699074D01*
X-23940564Y32709087D01*
X-23779543Y32652947D01*
G37*
X-23779543Y32652947D02*
X-23650391Y32534811D01*
X-23565596Y32358836D01*
X-23537492Y32146906D01*
X-23563512Y31894111D01*
X-23646964Y31644639D01*
X-23795364Y31376887D01*
X-23816713Y31344280D01*
X-23984383Y31135706D01*
X-24164179Y30989874D01*
X-24346118Y30911245D01*
X-24520215Y30904282D01*
X-24665080Y30965148D01*
X-24768741Y31077840D01*
X-24828046Y31244418D01*
X-24845498Y31473804D01*
X-24840876Y31592152D01*
X-24788158Y31925492D01*
X-24672654Y32211538D01*
X-24489954Y32463959D01*
X-24308258Y32618750D01*
X-24120965Y32699074D01*
X-23940564Y32709087D01*
X-23779543Y32652947D01*
G36*
X-4142516Y7389951D02*
G01*
X-3687249Y7232681D01*
X-3239885Y6994622D01*
X-3021486Y6845342D01*
X-2627589Y6512887D01*
X-2264467Y6123979D01*
X-1943195Y5694607D01*
X-1674849Y5240763D01*
X-1470506Y4778434D01*
X-1373458Y4466167D01*
X-1323255Y4180851D01*
X-1299982Y3849171D01*
X-1303661Y3505039D01*
X-1334312Y3182368D01*
X-1372557Y2984500D01*
X-1459769Y2710601D01*
X-1586306Y2408476D01*
X-1737420Y2108165D01*
X-1898362Y1839709D01*
X-2010661Y1684729D01*
X-2307878Y1377884D01*
X-2667166Y1111144D01*
X-3071400Y894666D01*
X-3503459Y738610D01*
X-3677178Y696028D01*
X-3952721Y656885D01*
X-4272277Y641608D01*
X-4598657Y650095D01*
X-4894670Y682243D01*
X-4987000Y699666D01*
X-5483369Y844348D01*
X-5933215Y1055195D01*
X-6347489Y1338255D01*
X-6667500Y1627653D01*
X-7025466Y2047560D01*
X-7312220Y2509738D01*
X-7525222Y3006936D01*
X-7661935Y3531904D01*
X-7719819Y4077391D01*
X-7715222Y4208799D01*
X-7107629Y4208799D01*
X-7076337Y3749807D01*
X-6974481Y3294941D01*
X-6800135Y2853724D01*
X-6700334Y2667007D01*
X-6557890Y2457619D01*
X-6369916Y2232193D01*
X-6155668Y2009884D01*
X-5934403Y1809849D01*
X-5725377Y1651244D01*
X-5609167Y1581491D01*
X-5161088Y1389004D01*
X-4715295Y1279706D01*
X-4264427Y1252669D01*
X-3801121Y1306967D01*
X-3666613Y1337000D01*
X-3283438Y1473236D01*
X-2934571Y1680113D01*
X-2626363Y1948354D01*
X-2365166Y2268683D01*
X-2157332Y2631823D01*
X-2009212Y3028497D01*
X-1927157Y3449428D01*
X-1917520Y3885339D01*
X-1917902Y3891104D01*
X-1971415Y4276980D01*
X-2082246Y4649063D01*
X-2256313Y5021621D01*
X-2499538Y5408923D01*
X-2611865Y5563646D01*
X-2943519Y5953568D01*
X-3299259Y6275816D01*
X-3673065Y6528657D01*
X-4058914Y6710358D01*
X-4450785Y6819186D01*
X-4842656Y6853408D01*
X-5228504Y6811291D01*
X-5602310Y6691103D01*
X-5921465Y6516083D01*
X-6273085Y6232328D01*
X-6565704Y5895558D01*
X-6797395Y5515297D01*
X-6966231Y5101068D01*
X-7070285Y4662394D01*
X-7107629Y4208799D01*
X-7715222Y4208799D01*
X-7702145Y4582584D01*
X-7629532Y5052424D01*
X-7508074Y5470000D01*
X-7329175Y5857534D01*
X-7084244Y6237250D01*
X-7038553Y6298499D01*
X-6698673Y6683506D01*
X-6324018Y6993534D01*
X-5920685Y7227754D01*
X-5494772Y7385335D01*
X-5052375Y7465449D01*
X-4599590Y7467264D01*
X-4142516Y7389951D01*
G37*
X-4142516Y7389951D02*
X-3687249Y7232681D01*
X-3239885Y6994622D01*
X-3021486Y6845342D01*
X-2627589Y6512887D01*
X-2264467Y6123979D01*
X-1943195Y5694607D01*
X-1674849Y5240763D01*
X-1470506Y4778434D01*
X-1373458Y4466167D01*
X-1323255Y4180851D01*
X-1299982Y3849171D01*
X-1303661Y3505039D01*
X-1334312Y3182368D01*
X-1372557Y2984500D01*
X-1459769Y2710601D01*
X-1586306Y2408476D01*
X-1737420Y2108165D01*
X-1898362Y1839709D01*
X-2010661Y1684729D01*
X-2307878Y1377884D01*
X-2667166Y1111144D01*
X-3071400Y894666D01*
X-3503459Y738610D01*
X-3677178Y696028D01*
X-3952721Y656885D01*
X-4272277Y641608D01*
X-4598657Y650095D01*
X-4894670Y682243D01*
X-4987000Y699666D01*
X-5483369Y844348D01*
X-5933215Y1055195D01*
X-6347489Y1338255D01*
X-6667500Y1627653D01*
X-7025466Y2047560D01*
X-7312220Y2509738D01*
X-7525222Y3006936D01*
X-7661935Y3531904D01*
X-7719819Y4077391D01*
X-7715222Y4208799D01*
X-7107629Y4208799D01*
X-7076337Y3749807D01*
X-6974481Y3294941D01*
X-6800135Y2853724D01*
X-6700334Y2667007D01*
X-6557890Y2457619D01*
X-6369916Y2232193D01*
X-6155668Y2009884D01*
X-5934403Y1809849D01*
X-5725377Y1651244D01*
X-5609167Y1581491D01*
X-5161088Y1389004D01*
X-4715295Y1279706D01*
X-4264427Y1252669D01*
X-3801121Y1306967D01*
X-3666613Y1337000D01*
X-3283438Y1473236D01*
X-2934571Y1680113D01*
X-2626363Y1948354D01*
X-2365166Y2268683D01*
X-2157332Y2631823D01*
X-2009212Y3028497D01*
X-1927157Y3449428D01*
X-1917520Y3885339D01*
X-1917902Y3891104D01*
X-1971415Y4276980D01*
X-2082246Y4649063D01*
X-2256313Y5021621D01*
X-2499538Y5408923D01*
X-2611865Y5563646D01*
X-2943519Y5953568D01*
X-3299259Y6275816D01*
X-3673065Y6528657D01*
X-4058914Y6710358D01*
X-4450785Y6819186D01*
X-4842656Y6853408D01*
X-5228504Y6811291D01*
X-5602310Y6691103D01*
X-5921465Y6516083D01*
X-6273085Y6232328D01*
X-6565704Y5895558D01*
X-6797395Y5515297D01*
X-6966231Y5101068D01*
X-7070285Y4662394D01*
X-7107629Y4208799D01*
X-7715222Y4208799D01*
X-7702145Y4582584D01*
X-7629532Y5052424D01*
X-7508074Y5470000D01*
X-7329175Y5857534D01*
X-7084244Y6237250D01*
X-7038553Y6298499D01*
X-6698673Y6683506D01*
X-6324018Y6993534D01*
X-5920685Y7227754D01*
X-5494772Y7385335D01*
X-5052375Y7465449D01*
X-4599590Y7467264D01*
X-4142516Y7389951D01*
M02*
