G04 #@! TF.GenerationSoftware,KiCad,Pcbnew,(5.1.5-0)*
G04 #@! TF.CreationDate,2019-12-28T15:25:09-08:00*
G04 #@! TF.ProjectId,badge,62616467-652e-46b6-9963-61645f706362,rev?*
G04 #@! TF.SameCoordinates,Original*
G04 #@! TF.FileFunction,Legend,Bot*
G04 #@! TF.FilePolarity,Positive*
%FSLAX46Y46*%
G04 Gerber Fmt 4.6, Leading zero omitted, Abs format (unit mm)*
G04 Created by KiCad (PCBNEW (5.1.5-0)) date 2019-12-28 15:25:09*
%MOMM*%
%LPD*%
G04 APERTURE LIST*
%ADD10C,0.010000*%
G04 APERTURE END LIST*
D10*
G36*
X-5715000Y-36065680D02*
G01*
X-5719360Y-36193486D01*
X-5737905Y-36257559D01*
X-5778833Y-36278621D01*
X-5799667Y-36279666D01*
X-5866140Y-36304565D01*
X-5884334Y-36385141D01*
X-5851144Y-36490473D01*
X-5799667Y-36543491D01*
X-5743036Y-36607331D01*
X-5716829Y-36689937D01*
X-5725143Y-36759981D01*
X-5767917Y-36786379D01*
X-5847150Y-36765174D01*
X-5894918Y-36741941D01*
X-5999662Y-36632821D01*
X-6069802Y-36449630D01*
X-6103939Y-36196181D01*
X-6105289Y-36167856D01*
X-6117167Y-35877500D01*
X-5916084Y-35864597D01*
X-5715000Y-35851694D01*
X-5715000Y-36065680D01*
G37*
X-5715000Y-36065680D02*
X-5719360Y-36193486D01*
X-5737905Y-36257559D01*
X-5778833Y-36278621D01*
X-5799667Y-36279666D01*
X-5866140Y-36304565D01*
X-5884334Y-36385141D01*
X-5851144Y-36490473D01*
X-5799667Y-36543491D01*
X-5743036Y-36607331D01*
X-5716829Y-36689937D01*
X-5725143Y-36759981D01*
X-5767917Y-36786379D01*
X-5847150Y-36765174D01*
X-5894918Y-36741941D01*
X-5999662Y-36632821D01*
X-6069802Y-36449630D01*
X-6103939Y-36196181D01*
X-6105289Y-36167856D01*
X-6117167Y-35877500D01*
X-5916084Y-35864597D01*
X-5715000Y-35851694D01*
X-5715000Y-36065680D01*
G36*
X11384406Y-33688491D02*
G01*
X11624598Y-33780344D01*
X11806727Y-33926441D01*
X11925610Y-34121498D01*
X11976066Y-34360231D01*
X11967968Y-34549967D01*
X11928965Y-34699022D01*
X11849690Y-34820957D01*
X11720446Y-34922203D01*
X11531537Y-35009196D01*
X11273267Y-35088370D01*
X11089521Y-35132870D01*
X10819617Y-35202188D01*
X10624902Y-35272913D01*
X10495973Y-35350084D01*
X10423432Y-35438736D01*
X10402809Y-35500840D01*
X10408078Y-35668823D01*
X10483536Y-35811977D01*
X10616570Y-35923147D01*
X10794567Y-35995176D01*
X11004913Y-36020909D01*
X11234996Y-35993190D01*
X11259602Y-35986937D01*
X11467410Y-35900937D01*
X11607995Y-35768564D01*
X11686107Y-35594507D01*
X11721045Y-35490060D01*
X11770446Y-35444296D01*
X11865737Y-35433182D01*
X11897298Y-35433000D01*
X12005313Y-35438427D01*
X12052883Y-35465906D01*
X12064064Y-35532229D01*
X12064070Y-35549416D01*
X12031575Y-35718658D01*
X11948520Y-35901877D01*
X11832946Y-36063428D01*
X11775766Y-36119030D01*
X11557851Y-36248822D01*
X11285878Y-36321193D01*
X10969861Y-36334073D01*
X10808961Y-36318986D01*
X10562160Y-36256399D01*
X10341015Y-36144868D01*
X10170155Y-35997947D01*
X10129888Y-35945322D01*
X10048869Y-35757963D01*
X10028028Y-35545898D01*
X10063153Y-35333031D01*
X10150032Y-35143267D01*
X10284453Y-35000510D01*
X10297994Y-34991272D01*
X10377600Y-34955268D01*
X10519123Y-34906447D01*
X10702068Y-34851399D01*
X10892285Y-34800173D01*
X11093650Y-34746989D01*
X11271231Y-34696452D01*
X11405194Y-34654439D01*
X11473963Y-34627794D01*
X11576986Y-34529428D01*
X11614907Y-34390426D01*
X11583095Y-34231767D01*
X11498996Y-34107467D01*
X11365250Y-34031043D01*
X11172342Y-33998829D01*
X10985040Y-34001353D01*
X10775018Y-34032078D01*
X10628521Y-34100341D01*
X10528540Y-34217546D01*
X10473992Y-34344000D01*
X10424273Y-34443262D01*
X10344019Y-34485950D01*
X10288693Y-34494166D01*
X10172299Y-34494183D01*
X10113290Y-34455712D01*
X10102434Y-34364536D01*
X10123226Y-34239348D01*
X10183834Y-34067756D01*
X10296526Y-33923687D01*
X10329282Y-33892915D01*
X10495824Y-33771562D01*
X10685029Y-33696593D01*
X10918769Y-33661213D01*
X11091333Y-33656165D01*
X11384406Y-33688491D01*
G37*
X11384406Y-33688491D02*
X11624598Y-33780344D01*
X11806727Y-33926441D01*
X11925610Y-34121498D01*
X11976066Y-34360231D01*
X11967968Y-34549967D01*
X11928965Y-34699022D01*
X11849690Y-34820957D01*
X11720446Y-34922203D01*
X11531537Y-35009196D01*
X11273267Y-35088370D01*
X11089521Y-35132870D01*
X10819617Y-35202188D01*
X10624902Y-35272913D01*
X10495973Y-35350084D01*
X10423432Y-35438736D01*
X10402809Y-35500840D01*
X10408078Y-35668823D01*
X10483536Y-35811977D01*
X10616570Y-35923147D01*
X10794567Y-35995176D01*
X11004913Y-36020909D01*
X11234996Y-35993190D01*
X11259602Y-35986937D01*
X11467410Y-35900937D01*
X11607995Y-35768564D01*
X11686107Y-35594507D01*
X11721045Y-35490060D01*
X11770446Y-35444296D01*
X11865737Y-35433182D01*
X11897298Y-35433000D01*
X12005313Y-35438427D01*
X12052883Y-35465906D01*
X12064064Y-35532229D01*
X12064070Y-35549416D01*
X12031575Y-35718658D01*
X11948520Y-35901877D01*
X11832946Y-36063428D01*
X11775766Y-36119030D01*
X11557851Y-36248822D01*
X11285878Y-36321193D01*
X10969861Y-36334073D01*
X10808961Y-36318986D01*
X10562160Y-36256399D01*
X10341015Y-36144868D01*
X10170155Y-35997947D01*
X10129888Y-35945322D01*
X10048869Y-35757963D01*
X10028028Y-35545898D01*
X10063153Y-35333031D01*
X10150032Y-35143267D01*
X10284453Y-35000510D01*
X10297994Y-34991272D01*
X10377600Y-34955268D01*
X10519123Y-34906447D01*
X10702068Y-34851399D01*
X10892285Y-34800173D01*
X11093650Y-34746989D01*
X11271231Y-34696452D01*
X11405194Y-34654439D01*
X11473963Y-34627794D01*
X11576986Y-34529428D01*
X11614907Y-34390426D01*
X11583095Y-34231767D01*
X11498996Y-34107467D01*
X11365250Y-34031043D01*
X11172342Y-33998829D01*
X10985040Y-34001353D01*
X10775018Y-34032078D01*
X10628521Y-34100341D01*
X10528540Y-34217546D01*
X10473992Y-34344000D01*
X10424273Y-34443262D01*
X10344019Y-34485950D01*
X10288693Y-34494166D01*
X10172299Y-34494183D01*
X10113290Y-34455712D01*
X10102434Y-34364536D01*
X10123226Y-34239348D01*
X10183834Y-34067756D01*
X10296526Y-33923687D01*
X10329282Y-33892915D01*
X10495824Y-33771562D01*
X10685029Y-33696593D01*
X10918769Y-33661213D01*
X11091333Y-33656165D01*
X11384406Y-33688491D01*
G36*
X-8538759Y-33656188D02*
G01*
X-8395282Y-33679215D01*
X-8261279Y-33727403D01*
X-8174230Y-33769504D01*
X-7920487Y-33943167D01*
X-7731325Y-34171530D01*
X-7606798Y-34454481D01*
X-7546960Y-34791907D01*
X-7545291Y-35093928D01*
X-7590761Y-35444711D01*
X-7685812Y-35730972D01*
X-7834310Y-35959456D01*
X-8040121Y-36136906D01*
X-8191500Y-36221107D01*
X-8419086Y-36292938D01*
X-8682643Y-36320961D01*
X-8944722Y-36303528D01*
X-9112336Y-36261600D01*
X-9350755Y-36133949D01*
X-9554016Y-35942250D01*
X-9706938Y-35704730D01*
X-9793610Y-35443583D01*
X-9819217Y-35306000D01*
X-9633059Y-35306000D01*
X-9515383Y-35311184D01*
X-9452065Y-35340199D01*
X-9412871Y-35413240D01*
X-9395407Y-35464750D01*
X-9286743Y-35699352D01*
X-9136681Y-35868388D01*
X-9049377Y-35924982D01*
X-8889225Y-35971658D01*
X-8689925Y-35980146D01*
X-8486479Y-35953124D01*
X-8313893Y-35893270D01*
X-8267416Y-35865174D01*
X-8117671Y-35709925D01*
X-8009625Y-35499137D01*
X-7944139Y-35251438D01*
X-7922074Y-34985455D01*
X-7944291Y-34719815D01*
X-8011652Y-34473147D01*
X-8125016Y-34264076D01*
X-8189920Y-34188569D01*
X-8370634Y-34057995D01*
X-8577802Y-33987834D01*
X-8793580Y-33975819D01*
X-9000123Y-34019678D01*
X-9179586Y-34117143D01*
X-9314124Y-34265943D01*
X-9350028Y-34336118D01*
X-9400989Y-34440553D01*
X-9458529Y-34487958D01*
X-9556501Y-34500778D01*
X-9599084Y-34501236D01*
X-9714159Y-34491630D01*
X-9770558Y-34453449D01*
X-9772366Y-34373697D01*
X-9723668Y-34239377D01*
X-9698742Y-34184166D01*
X-9555949Y-33958100D01*
X-9364120Y-33795741D01*
X-9118672Y-33694566D01*
X-8815023Y-33652054D01*
X-8729060Y-33650296D01*
X-8538759Y-33656188D01*
G37*
X-8538759Y-33656188D02*
X-8395282Y-33679215D01*
X-8261279Y-33727403D01*
X-8174230Y-33769504D01*
X-7920487Y-33943167D01*
X-7731325Y-34171530D01*
X-7606798Y-34454481D01*
X-7546960Y-34791907D01*
X-7545291Y-35093928D01*
X-7590761Y-35444711D01*
X-7685812Y-35730972D01*
X-7834310Y-35959456D01*
X-8040121Y-36136906D01*
X-8191500Y-36221107D01*
X-8419086Y-36292938D01*
X-8682643Y-36320961D01*
X-8944722Y-36303528D01*
X-9112336Y-36261600D01*
X-9350755Y-36133949D01*
X-9554016Y-35942250D01*
X-9706938Y-35704730D01*
X-9793610Y-35443583D01*
X-9819217Y-35306000D01*
X-9633059Y-35306000D01*
X-9515383Y-35311184D01*
X-9452065Y-35340199D01*
X-9412871Y-35413240D01*
X-9395407Y-35464750D01*
X-9286743Y-35699352D01*
X-9136681Y-35868388D01*
X-9049377Y-35924982D01*
X-8889225Y-35971658D01*
X-8689925Y-35980146D01*
X-8486479Y-35953124D01*
X-8313893Y-35893270D01*
X-8267416Y-35865174D01*
X-8117671Y-35709925D01*
X-8009625Y-35499137D01*
X-7944139Y-35251438D01*
X-7922074Y-34985455D01*
X-7944291Y-34719815D01*
X-8011652Y-34473147D01*
X-8125016Y-34264076D01*
X-8189920Y-34188569D01*
X-8370634Y-34057995D01*
X-8577802Y-33987834D01*
X-8793580Y-33975819D01*
X-9000123Y-34019678D01*
X-9179586Y-34117143D01*
X-9314124Y-34265943D01*
X-9350028Y-34336118D01*
X-9400989Y-34440553D01*
X-9458529Y-34487958D01*
X-9556501Y-34500778D01*
X-9599084Y-34501236D01*
X-9714159Y-34491630D01*
X-9770558Y-34453449D01*
X-9772366Y-34373697D01*
X-9723668Y-34239377D01*
X-9698742Y-34184166D01*
X-9555949Y-33958100D01*
X-9364120Y-33795741D01*
X-9118672Y-33694566D01*
X-8815023Y-33652054D01*
X-8729060Y-33650296D01*
X-8538759Y-33656188D01*
G36*
X-1905930Y-35102482D02*
G01*
X-1907534Y-35380919D01*
X-1912397Y-35589427D01*
X-1921807Y-35742725D01*
X-1937055Y-35855526D01*
X-1959429Y-35942549D01*
X-1985227Y-36007711D01*
X-2102047Y-36171420D01*
X-2268655Y-36276277D01*
X-2470912Y-36318945D01*
X-2694681Y-36296086D01*
X-2892659Y-36221924D01*
X-3007548Y-36166064D01*
X-3066371Y-36148143D01*
X-3087724Y-36166171D01*
X-3090334Y-36200757D01*
X-3106808Y-36252839D01*
X-3170334Y-36275728D01*
X-3259667Y-36279666D01*
X-3429000Y-36279666D01*
X-3429000Y-34374666D01*
X-3090334Y-34374666D01*
X-3090098Y-34935583D01*
X-3085974Y-35233435D01*
X-3072138Y-35460342D01*
X-3045960Y-35629732D01*
X-3004814Y-35755028D01*
X-2946073Y-35849656D01*
X-2902037Y-35896597D01*
X-2769182Y-35973777D01*
X-2610142Y-36000099D01*
X-2458383Y-35973827D01*
X-2375192Y-35923928D01*
X-2343184Y-35889272D01*
X-2319732Y-35843191D01*
X-2303220Y-35772539D01*
X-2292031Y-35664170D01*
X-2284548Y-35504937D01*
X-2279156Y-35281694D01*
X-2276392Y-35120404D01*
X-2264834Y-34395833D01*
X-2084917Y-34382815D01*
X-1905000Y-34369798D01*
X-1905930Y-35102482D01*
G37*
X-1905930Y-35102482D02*
X-1907534Y-35380919D01*
X-1912397Y-35589427D01*
X-1921807Y-35742725D01*
X-1937055Y-35855526D01*
X-1959429Y-35942549D01*
X-1985227Y-36007711D01*
X-2102047Y-36171420D01*
X-2268655Y-36276277D01*
X-2470912Y-36318945D01*
X-2694681Y-36296086D01*
X-2892659Y-36221924D01*
X-3007548Y-36166064D01*
X-3066371Y-36148143D01*
X-3087724Y-36166171D01*
X-3090334Y-36200757D01*
X-3106808Y-36252839D01*
X-3170334Y-36275728D01*
X-3259667Y-36279666D01*
X-3429000Y-36279666D01*
X-3429000Y-34374666D01*
X-3090334Y-34374666D01*
X-3090098Y-34935583D01*
X-3085974Y-35233435D01*
X-3072138Y-35460342D01*
X-3045960Y-35629732D01*
X-3004814Y-35755028D01*
X-2946073Y-35849656D01*
X-2902037Y-35896597D01*
X-2769182Y-35973777D01*
X-2610142Y-36000099D01*
X-2458383Y-35973827D01*
X-2375192Y-35923928D01*
X-2343184Y-35889272D01*
X-2319732Y-35843191D01*
X-2303220Y-35772539D01*
X-2292031Y-35664170D01*
X-2284548Y-35504937D01*
X-2279156Y-35281694D01*
X-2276392Y-35120404D01*
X-2264834Y-34395833D01*
X-2084917Y-34382815D01*
X-1905000Y-34369798D01*
X-1905930Y-35102482D01*
G36*
X1054040Y-33688903D02*
G01*
X1102792Y-33702248D01*
X1297898Y-33796039D01*
X1488810Y-33949983D01*
X1653625Y-34141439D01*
X1770438Y-34347768D01*
X1795667Y-34418423D01*
X1840806Y-34648937D01*
X1859677Y-34924018D01*
X1852316Y-35207755D01*
X1818754Y-35464238D01*
X1794609Y-35562899D01*
X1705488Y-35759976D01*
X1565508Y-35952814D01*
X1395336Y-36119541D01*
X1215641Y-36238289D01*
X1121833Y-36274788D01*
X908434Y-36310070D01*
X662418Y-36315241D01*
X424056Y-36291371D01*
X265656Y-36251987D01*
X83712Y-36151338D01*
X-88325Y-35992776D01*
X-234009Y-35798664D01*
X-336891Y-35591366D01*
X-380524Y-35393246D01*
X-381000Y-35372737D01*
X-364711Y-35327499D01*
X-302241Y-35311054D01*
X-204374Y-35314149D01*
X-90479Y-35329283D01*
X-27620Y-35369145D01*
X15465Y-35458550D01*
X29582Y-35499866D01*
X98068Y-35639648D01*
X199351Y-35778592D01*
X233484Y-35814631D01*
X335696Y-35900940D01*
X437991Y-35947847D01*
X577681Y-35970569D01*
X625307Y-35974435D01*
X893941Y-35960934D01*
X1113533Y-35878909D01*
X1282996Y-35729610D01*
X1401241Y-35514291D01*
X1467182Y-35234203D01*
X1481666Y-34988500D01*
X1454270Y-34660694D01*
X1372840Y-34395653D01*
X1238509Y-34194777D01*
X1052412Y-34059471D01*
X815685Y-33991135D01*
X667686Y-33982569D01*
X426393Y-34011855D01*
X242589Y-34098305D01*
X106796Y-34247277D01*
X64866Y-34323351D01*
X6327Y-34432495D01*
X-51053Y-34484602D01*
X-139066Y-34500632D01*
X-205627Y-34501666D01*
X-319401Y-34498541D01*
X-368157Y-34479389D01*
X-371529Y-34429546D01*
X-361527Y-34385250D01*
X-300497Y-34223759D01*
X-203269Y-34053118D01*
X-90950Y-33906525D01*
X-10421Y-33832975D01*
X211353Y-33722482D01*
X479632Y-33659650D01*
X768999Y-33647462D01*
X1054040Y-33688903D01*
G37*
X1054040Y-33688903D02*
X1102792Y-33702248D01*
X1297898Y-33796039D01*
X1488810Y-33949983D01*
X1653625Y-34141439D01*
X1770438Y-34347768D01*
X1795667Y-34418423D01*
X1840806Y-34648937D01*
X1859677Y-34924018D01*
X1852316Y-35207755D01*
X1818754Y-35464238D01*
X1794609Y-35562899D01*
X1705488Y-35759976D01*
X1565508Y-35952814D01*
X1395336Y-36119541D01*
X1215641Y-36238289D01*
X1121833Y-36274788D01*
X908434Y-36310070D01*
X662418Y-36315241D01*
X424056Y-36291371D01*
X265656Y-36251987D01*
X83712Y-36151338D01*
X-88325Y-35992776D01*
X-234009Y-35798664D01*
X-336891Y-35591366D01*
X-380524Y-35393246D01*
X-381000Y-35372737D01*
X-364711Y-35327499D01*
X-302241Y-35311054D01*
X-204374Y-35314149D01*
X-90479Y-35329283D01*
X-27620Y-35369145D01*
X15465Y-35458550D01*
X29582Y-35499866D01*
X98068Y-35639648D01*
X199351Y-35778592D01*
X233484Y-35814631D01*
X335696Y-35900940D01*
X437991Y-35947847D01*
X577681Y-35970569D01*
X625307Y-35974435D01*
X893941Y-35960934D01*
X1113533Y-35878909D01*
X1282996Y-35729610D01*
X1401241Y-35514291D01*
X1467182Y-35234203D01*
X1481666Y-34988500D01*
X1454270Y-34660694D01*
X1372840Y-34395653D01*
X1238509Y-34194777D01*
X1052412Y-34059471D01*
X815685Y-33991135D01*
X667686Y-33982569D01*
X426393Y-34011855D01*
X242589Y-34098305D01*
X106796Y-34247277D01*
X64866Y-34323351D01*
X6327Y-34432495D01*
X-51053Y-34484602D01*
X-139066Y-34500632D01*
X-205627Y-34501666D01*
X-319401Y-34498541D01*
X-368157Y-34479389D01*
X-371529Y-34429546D01*
X-361527Y-34385250D01*
X-300497Y-34223759D01*
X-203269Y-34053118D01*
X-90950Y-33906525D01*
X-10421Y-33832975D01*
X211353Y-33722482D01*
X479632Y-33659650D01*
X768999Y-33647462D01*
X1054040Y-33688903D01*
G36*
X4247046Y-34379731D02*
G01*
X4335722Y-34405891D01*
X4536030Y-34510765D01*
X4662043Y-34654707D01*
X4712798Y-34836596D01*
X4713255Y-34844764D01*
X4710140Y-34943121D01*
X4672092Y-34986161D01*
X4584221Y-35001643D01*
X4489049Y-35000317D01*
X4431821Y-34957860D01*
X4387234Y-34868695D01*
X4302100Y-34751675D01*
X4175665Y-34677585D01*
X4027233Y-34645076D01*
X3876104Y-34652797D01*
X3741580Y-34699398D01*
X3642962Y-34783529D01*
X3599551Y-34903840D01*
X3598981Y-34923836D01*
X3613372Y-34999960D01*
X3663888Y-35055695D01*
X3764212Y-35098036D01*
X3928027Y-35133977D01*
X4047577Y-35153168D01*
X4333948Y-35208202D01*
X4545330Y-35280607D01*
X4690819Y-35377840D01*
X4779508Y-35507358D01*
X4820494Y-35676617D01*
X4826000Y-35791352D01*
X4789647Y-35985668D01*
X4689787Y-36140565D01*
X4540213Y-36251157D01*
X4354719Y-36312561D01*
X4147102Y-36319894D01*
X3931155Y-36268270D01*
X3748877Y-36172713D01*
X3638986Y-36100611D01*
X3581335Y-36073933D01*
X3559255Y-36088909D01*
X3556000Y-36129099D01*
X3518293Y-36218254D01*
X3419723Y-36280970D01*
X3282110Y-36309011D01*
X3127275Y-36294146D01*
X3122083Y-36292818D01*
X3061420Y-36236186D01*
X3048000Y-36152506D01*
X3064934Y-36059098D01*
X3127459Y-36020763D01*
X3143250Y-36018027D01*
X3179422Y-36009803D01*
X3205571Y-35988594D01*
X3223898Y-35941739D01*
X3236604Y-35856575D01*
X3245890Y-35720439D01*
X3253957Y-35520668D01*
X3255563Y-35472163D01*
X3598333Y-35472163D01*
X3634297Y-35686861D01*
X3735275Y-35855649D01*
X3890898Y-35968598D01*
X4090797Y-36015785D01*
X4165601Y-36015176D01*
X4307442Y-35984298D01*
X4405974Y-35902988D01*
X4413485Y-35893170D01*
X4474407Y-35762696D01*
X4454208Y-35648286D01*
X4355375Y-35552681D01*
X4180399Y-35478619D01*
X4000500Y-35438825D01*
X3851343Y-35411845D01*
X3728490Y-35384810D01*
X3672416Y-35368402D01*
X3620709Y-35362611D01*
X3600535Y-35413305D01*
X3598333Y-35472163D01*
X3255563Y-35472163D01*
X3259666Y-35348333D01*
X3271670Y-35077448D01*
X3288118Y-34856039D01*
X3307906Y-34695445D01*
X3329930Y-34607002D01*
X3332286Y-34602434D01*
X3438590Y-34494154D01*
X3604735Y-34413530D01*
X3809203Y-34364775D01*
X4030480Y-34352104D01*
X4247046Y-34379731D01*
G37*
X4247046Y-34379731D02*
X4335722Y-34405891D01*
X4536030Y-34510765D01*
X4662043Y-34654707D01*
X4712798Y-34836596D01*
X4713255Y-34844764D01*
X4710140Y-34943121D01*
X4672092Y-34986161D01*
X4584221Y-35001643D01*
X4489049Y-35000317D01*
X4431821Y-34957860D01*
X4387234Y-34868695D01*
X4302100Y-34751675D01*
X4175665Y-34677585D01*
X4027233Y-34645076D01*
X3876104Y-34652797D01*
X3741580Y-34699398D01*
X3642962Y-34783529D01*
X3599551Y-34903840D01*
X3598981Y-34923836D01*
X3613372Y-34999960D01*
X3663888Y-35055695D01*
X3764212Y-35098036D01*
X3928027Y-35133977D01*
X4047577Y-35153168D01*
X4333948Y-35208202D01*
X4545330Y-35280607D01*
X4690819Y-35377840D01*
X4779508Y-35507358D01*
X4820494Y-35676617D01*
X4826000Y-35791352D01*
X4789647Y-35985668D01*
X4689787Y-36140565D01*
X4540213Y-36251157D01*
X4354719Y-36312561D01*
X4147102Y-36319894D01*
X3931155Y-36268270D01*
X3748877Y-36172713D01*
X3638986Y-36100611D01*
X3581335Y-36073933D01*
X3559255Y-36088909D01*
X3556000Y-36129099D01*
X3518293Y-36218254D01*
X3419723Y-36280970D01*
X3282110Y-36309011D01*
X3127275Y-36294146D01*
X3122083Y-36292818D01*
X3061420Y-36236186D01*
X3048000Y-36152506D01*
X3064934Y-36059098D01*
X3127459Y-36020763D01*
X3143250Y-36018027D01*
X3179422Y-36009803D01*
X3205571Y-35988594D01*
X3223898Y-35941739D01*
X3236604Y-35856575D01*
X3245890Y-35720439D01*
X3253957Y-35520668D01*
X3255563Y-35472163D01*
X3598333Y-35472163D01*
X3634297Y-35686861D01*
X3735275Y-35855649D01*
X3890898Y-35968598D01*
X4090797Y-36015785D01*
X4165601Y-36015176D01*
X4307442Y-35984298D01*
X4405974Y-35902988D01*
X4413485Y-35893170D01*
X4474407Y-35762696D01*
X4454208Y-35648286D01*
X4355375Y-35552681D01*
X4180399Y-35478619D01*
X4000500Y-35438825D01*
X3851343Y-35411845D01*
X3728490Y-35384810D01*
X3672416Y-35368402D01*
X3620709Y-35362611D01*
X3600535Y-35413305D01*
X3598333Y-35472163D01*
X3255563Y-35472163D01*
X3259666Y-35348333D01*
X3271670Y-35077448D01*
X3288118Y-34856039D01*
X3307906Y-34695445D01*
X3329930Y-34607002D01*
X3332286Y-34602434D01*
X3438590Y-34494154D01*
X3604735Y-34413530D01*
X3809203Y-34364775D01*
X4030480Y-34352104D01*
X4247046Y-34379731D01*
G36*
X9123495Y-34374285D02*
G01*
X9325486Y-34444843D01*
X9490301Y-34553787D01*
X9603680Y-34695908D01*
X9651368Y-34865996D01*
X9652000Y-34888927D01*
X9643011Y-34970262D01*
X9599009Y-35003534D01*
X9504401Y-35009666D01*
X9399029Y-34998017D01*
X9336921Y-34946810D01*
X9296831Y-34866135D01*
X9211344Y-34749001D01*
X9084572Y-34675957D01*
X8935904Y-34645361D01*
X8784730Y-34655571D01*
X8650438Y-34704944D01*
X8552418Y-34791838D01*
X8510059Y-34914613D01*
X8509648Y-34932800D01*
X8525605Y-35005511D01*
X8580398Y-35059512D01*
X8687350Y-35101348D01*
X8859786Y-35137564D01*
X8958244Y-35153168D01*
X9244615Y-35208202D01*
X9455997Y-35280607D01*
X9601485Y-35377840D01*
X9690175Y-35507358D01*
X9731161Y-35676617D01*
X9736666Y-35791352D01*
X9724607Y-35930588D01*
X9676577Y-36039126D01*
X9596457Y-36137571D01*
X9492588Y-36235425D01*
X9387724Y-36286696D01*
X9240690Y-36311273D01*
X9235860Y-36311742D01*
X9048251Y-36308740D01*
X8858461Y-36271261D01*
X8695677Y-36207553D01*
X8592288Y-36129839D01*
X8550943Y-36100205D01*
X8499675Y-36121738D01*
X8423803Y-36195567D01*
X8305300Y-36288845D01*
X8172022Y-36315578D01*
X8032750Y-36292818D01*
X7972129Y-36236030D01*
X7958666Y-36149562D01*
X7970745Y-36060237D01*
X8021599Y-36028219D01*
X8064500Y-36025666D01*
X8170333Y-36025666D01*
X8170333Y-35472163D01*
X8509000Y-35472163D01*
X8526254Y-35607793D01*
X8567022Y-35743919D01*
X8660943Y-35874543D01*
X8803537Y-35968054D01*
X8970340Y-36017976D01*
X9136885Y-36017834D01*
X9278709Y-35961151D01*
X9305350Y-35939350D01*
X9384495Y-35827686D01*
X9382476Y-35709220D01*
X9314409Y-35592149D01*
X9245269Y-35527586D01*
X9144416Y-35483159D01*
X8987990Y-35449209D01*
X8943992Y-35442224D01*
X8786879Y-35415711D01*
X8656080Y-35389007D01*
X8583083Y-35368921D01*
X8531405Y-35362649D01*
X8511229Y-35412849D01*
X8509000Y-35472163D01*
X8170333Y-35472163D01*
X8170333Y-35388564D01*
X8173172Y-35099724D01*
X8184112Y-34882576D01*
X8206787Y-34724264D01*
X8244831Y-34611932D01*
X8301877Y-34532724D01*
X8381561Y-34473782D01*
X8437035Y-34445020D01*
X8665012Y-34369164D01*
X8898584Y-34347323D01*
X9123495Y-34374285D01*
G37*
X9123495Y-34374285D02*
X9325486Y-34444843D01*
X9490301Y-34553787D01*
X9603680Y-34695908D01*
X9651368Y-34865996D01*
X9652000Y-34888927D01*
X9643011Y-34970262D01*
X9599009Y-35003534D01*
X9504401Y-35009666D01*
X9399029Y-34998017D01*
X9336921Y-34946810D01*
X9296831Y-34866135D01*
X9211344Y-34749001D01*
X9084572Y-34675957D01*
X8935904Y-34645361D01*
X8784730Y-34655571D01*
X8650438Y-34704944D01*
X8552418Y-34791838D01*
X8510059Y-34914613D01*
X8509648Y-34932800D01*
X8525605Y-35005511D01*
X8580398Y-35059512D01*
X8687350Y-35101348D01*
X8859786Y-35137564D01*
X8958244Y-35153168D01*
X9244615Y-35208202D01*
X9455997Y-35280607D01*
X9601485Y-35377840D01*
X9690175Y-35507358D01*
X9731161Y-35676617D01*
X9736666Y-35791352D01*
X9724607Y-35930588D01*
X9676577Y-36039126D01*
X9596457Y-36137571D01*
X9492588Y-36235425D01*
X9387724Y-36286696D01*
X9240690Y-36311273D01*
X9235860Y-36311742D01*
X9048251Y-36308740D01*
X8858461Y-36271261D01*
X8695677Y-36207553D01*
X8592288Y-36129839D01*
X8550943Y-36100205D01*
X8499675Y-36121738D01*
X8423803Y-36195567D01*
X8305300Y-36288845D01*
X8172022Y-36315578D01*
X8032750Y-36292818D01*
X7972129Y-36236030D01*
X7958666Y-36149562D01*
X7970745Y-36060237D01*
X8021599Y-36028219D01*
X8064500Y-36025666D01*
X8170333Y-36025666D01*
X8170333Y-35472163D01*
X8509000Y-35472163D01*
X8526254Y-35607793D01*
X8567022Y-35743919D01*
X8660943Y-35874543D01*
X8803537Y-35968054D01*
X8970340Y-36017976D01*
X9136885Y-36017834D01*
X9278709Y-35961151D01*
X9305350Y-35939350D01*
X9384495Y-35827686D01*
X9382476Y-35709220D01*
X9314409Y-35592149D01*
X9245269Y-35527586D01*
X9144416Y-35483159D01*
X8987990Y-35449209D01*
X8943992Y-35442224D01*
X8786879Y-35415711D01*
X8656080Y-35389007D01*
X8583083Y-35368921D01*
X8531405Y-35362649D01*
X8511229Y-35412849D01*
X8509000Y-35472163D01*
X8170333Y-35472163D01*
X8170333Y-35388564D01*
X8173172Y-35099724D01*
X8184112Y-34882576D01*
X8206787Y-34724264D01*
X8244831Y-34611932D01*
X8301877Y-34532724D01*
X8381561Y-34473782D01*
X8437035Y-34445020D01*
X8665012Y-34369164D01*
X8898584Y-34347323D01*
X9123495Y-34374285D01*
G36*
X-10461781Y-34954748D02*
G01*
X-10346490Y-35263623D01*
X-10241415Y-35547081D01*
X-10150101Y-35795403D01*
X-10076092Y-35998874D01*
X-10022934Y-36147776D01*
X-9994171Y-36232391D01*
X-9990030Y-36247916D01*
X-10028228Y-36267107D01*
X-10123802Y-36278400D01*
X-10175374Y-36279666D01*
X-10360081Y-36279666D01*
X-10496836Y-35897357D01*
X-10633592Y-35515048D01*
X-11123592Y-35526940D01*
X-11613592Y-35538833D01*
X-11736991Y-35909250D01*
X-11860389Y-36279666D01*
X-12068528Y-36279666D01*
X-12188143Y-36277730D01*
X-12263372Y-36272790D01*
X-12276601Y-36269083D01*
X-12262725Y-36228211D01*
X-12223414Y-36117280D01*
X-12162090Y-35945828D01*
X-12082178Y-35723391D01*
X-11987100Y-35459506D01*
X-11880282Y-35163712D01*
X-11878916Y-35159933D01*
X-11472334Y-35159933D01*
X-11433249Y-35168563D01*
X-11328975Y-35175158D01*
X-11178984Y-35178681D01*
X-11113761Y-35179000D01*
X-10755188Y-35179000D01*
X-10925235Y-34704303D01*
X-11003159Y-34488170D01*
X-11058127Y-34341682D01*
X-11095289Y-34254619D01*
X-11119795Y-34216761D01*
X-11136796Y-34217886D01*
X-11151442Y-34247776D01*
X-11153061Y-34252190D01*
X-11246908Y-34512167D01*
X-11329555Y-34743397D01*
X-11396956Y-34934384D01*
X-11445071Y-35073634D01*
X-11469854Y-35149651D01*
X-11472334Y-35159933D01*
X-11878916Y-35159933D01*
X-11816906Y-34988500D01*
X-11357277Y-33718500D01*
X-10934169Y-33693330D01*
X-10461781Y-34954748D01*
G37*
X-10461781Y-34954748D02*
X-10346490Y-35263623D01*
X-10241415Y-35547081D01*
X-10150101Y-35795403D01*
X-10076092Y-35998874D01*
X-10022934Y-36147776D01*
X-9994171Y-36232391D01*
X-9990030Y-36247916D01*
X-10028228Y-36267107D01*
X-10123802Y-36278400D01*
X-10175374Y-36279666D01*
X-10360081Y-36279666D01*
X-10496836Y-35897357D01*
X-10633592Y-35515048D01*
X-11123592Y-35526940D01*
X-11613592Y-35538833D01*
X-11736991Y-35909250D01*
X-11860389Y-36279666D01*
X-12068528Y-36279666D01*
X-12188143Y-36277730D01*
X-12263372Y-36272790D01*
X-12276601Y-36269083D01*
X-12262725Y-36228211D01*
X-12223414Y-36117280D01*
X-12162090Y-35945828D01*
X-12082178Y-35723391D01*
X-11987100Y-35459506D01*
X-11880282Y-35163712D01*
X-11878916Y-35159933D01*
X-11472334Y-35159933D01*
X-11433249Y-35168563D01*
X-11328975Y-35175158D01*
X-11178984Y-35178681D01*
X-11113761Y-35179000D01*
X-10755188Y-35179000D01*
X-10925235Y-34704303D01*
X-11003159Y-34488170D01*
X-11058127Y-34341682D01*
X-11095289Y-34254619D01*
X-11119795Y-34216761D01*
X-11136796Y-34217886D01*
X-11151442Y-34247776D01*
X-11153061Y-34252190D01*
X-11246908Y-34512167D01*
X-11329555Y-34743397D01*
X-11396956Y-34934384D01*
X-11445071Y-35073634D01*
X-11469854Y-35149651D01*
X-11472334Y-35159933D01*
X-11878916Y-35159933D01*
X-11816906Y-34988500D01*
X-11357277Y-33718500D01*
X-10934169Y-33693330D01*
X-10461781Y-34954748D01*
G36*
X-3810000Y-34710646D02*
G01*
X-4298208Y-34722573D01*
X-4786415Y-34734500D01*
X-4253128Y-35380760D01*
X-4064137Y-35612001D01*
X-3924549Y-35788875D01*
X-3827994Y-35920719D01*
X-3768103Y-36016867D01*
X-3738505Y-36086655D01*
X-3732831Y-36139417D01*
X-3733171Y-36142760D01*
X-3746500Y-36258500D01*
X-5334000Y-36281534D01*
X-5334000Y-35941000D01*
X-4804834Y-35941000D01*
X-4604370Y-35939327D01*
X-4438750Y-35934760D01*
X-4324003Y-35927975D01*
X-4276158Y-35919647D01*
X-4275667Y-35918684D01*
X-4301445Y-35880649D01*
X-4373167Y-35788207D01*
X-4482415Y-35651860D01*
X-4620772Y-35482111D01*
X-4779821Y-35289463D01*
X-4783667Y-35284833D01*
X-4965656Y-35063833D01*
X-5099159Y-34895960D01*
X-5191320Y-34770516D01*
X-5249282Y-34676801D01*
X-5280188Y-34604116D01*
X-5291183Y-34541762D01*
X-5291667Y-34523982D01*
X-5291667Y-34374666D01*
X-3810000Y-34374666D01*
X-3810000Y-34710646D01*
G37*
X-3810000Y-34710646D02*
X-4298208Y-34722573D01*
X-4786415Y-34734500D01*
X-4253128Y-35380760D01*
X-4064137Y-35612001D01*
X-3924549Y-35788875D01*
X-3827994Y-35920719D01*
X-3768103Y-36016867D01*
X-3738505Y-36086655D01*
X-3732831Y-36139417D01*
X-3733171Y-36142760D01*
X-3746500Y-36258500D01*
X-5334000Y-36281534D01*
X-5334000Y-35941000D01*
X-4804834Y-35941000D01*
X-4604370Y-35939327D01*
X-4438750Y-35934760D01*
X-4324003Y-35927975D01*
X-4276158Y-35919647D01*
X-4275667Y-35918684D01*
X-4301445Y-35880649D01*
X-4373167Y-35788207D01*
X-4482415Y-35651860D01*
X-4620772Y-35482111D01*
X-4779821Y-35289463D01*
X-4783667Y-35284833D01*
X-4965656Y-35063833D01*
X-5099159Y-34895960D01*
X-5191320Y-34770516D01*
X-5249282Y-34676801D01*
X-5280188Y-34604116D01*
X-5291183Y-34541762D01*
X-5291667Y-34523982D01*
X-5291667Y-34374666D01*
X-3810000Y-34374666D01*
X-3810000Y-34710646D01*
G36*
X-1403699Y-34382102D02*
G01*
X-1277005Y-34445807D01*
X-1201400Y-34507302D01*
X-1122563Y-34594417D01*
X-1099360Y-34495125D01*
X-1063838Y-34424538D01*
X-983933Y-34390835D01*
X-919079Y-34382694D01*
X-762000Y-34369555D01*
X-762000Y-36279666D01*
X-1100667Y-36279666D01*
X-1100667Y-35001200D01*
X-1244600Y-34857266D01*
X-1363544Y-34758547D01*
X-1477182Y-34717506D01*
X-1540934Y-34713333D01*
X-1638236Y-34708523D01*
X-1681667Y-34677873D01*
X-1692953Y-34597055D01*
X-1693334Y-34542671D01*
X-1677384Y-34409595D01*
X-1631580Y-34348312D01*
X-1533461Y-34345327D01*
X-1403699Y-34382102D01*
G37*
X-1403699Y-34382102D02*
X-1277005Y-34445807D01*
X-1201400Y-34507302D01*
X-1122563Y-34594417D01*
X-1099360Y-34495125D01*
X-1063838Y-34424538D01*
X-983933Y-34390835D01*
X-919079Y-34382694D01*
X-762000Y-34369555D01*
X-762000Y-36279666D01*
X-1100667Y-36279666D01*
X-1100667Y-35001200D01*
X-1244600Y-34857266D01*
X-1363544Y-34758547D01*
X-1477182Y-34717506D01*
X-1540934Y-34713333D01*
X-1638236Y-34708523D01*
X-1681667Y-34677873D01*
X-1692953Y-34597055D01*
X-1693334Y-34542671D01*
X-1677384Y-34409595D01*
X-1631580Y-34348312D01*
X-1533461Y-34345327D01*
X-1403699Y-34382102D01*
G36*
X5672666Y-34120666D02*
G01*
X5674329Y-34261264D01*
X5685970Y-34337151D01*
X5717567Y-34368284D01*
X5779099Y-34374619D01*
X5799666Y-34374666D01*
X5884993Y-34382926D01*
X5919990Y-34424821D01*
X5926666Y-34522833D01*
X5919586Y-34622380D01*
X5883676Y-34663211D01*
X5799666Y-34671000D01*
X5672666Y-34671000D01*
X5672666Y-35363790D01*
X5671883Y-35623926D01*
X5668504Y-35813574D01*
X5660983Y-35946904D01*
X5647773Y-36038091D01*
X5627329Y-36101304D01*
X5598106Y-36150716D01*
X5584927Y-36168124D01*
X5519910Y-36234934D01*
X5441423Y-36268372D01*
X5318802Y-36279211D01*
X5267427Y-36279666D01*
X5037666Y-36279666D01*
X5037666Y-36134182D01*
X5045879Y-36034731D01*
X5087015Y-35991001D01*
X5175250Y-35975432D01*
X5312833Y-35962166D01*
X5336205Y-34671000D01*
X5186935Y-34671000D01*
X5087142Y-34664580D01*
X5046022Y-34628194D01*
X5037692Y-34536148D01*
X5037666Y-34522833D01*
X5044219Y-34423527D01*
X5081193Y-34382801D01*
X5174555Y-34374685D01*
X5185833Y-34374666D01*
X5334000Y-34374666D01*
X5334000Y-33866666D01*
X5672666Y-33866666D01*
X5672666Y-34120666D01*
G37*
X5672666Y-34120666D02*
X5674329Y-34261264D01*
X5685970Y-34337151D01*
X5717567Y-34368284D01*
X5779099Y-34374619D01*
X5799666Y-34374666D01*
X5884993Y-34382926D01*
X5919990Y-34424821D01*
X5926666Y-34522833D01*
X5919586Y-34622380D01*
X5883676Y-34663211D01*
X5799666Y-34671000D01*
X5672666Y-34671000D01*
X5672666Y-35363790D01*
X5671883Y-35623926D01*
X5668504Y-35813574D01*
X5660983Y-35946904D01*
X5647773Y-36038091D01*
X5627329Y-36101304D01*
X5598106Y-36150716D01*
X5584927Y-36168124D01*
X5519910Y-36234934D01*
X5441423Y-36268372D01*
X5318802Y-36279211D01*
X5267427Y-36279666D01*
X5037666Y-36279666D01*
X5037666Y-36134182D01*
X5045879Y-36034731D01*
X5087015Y-35991001D01*
X5175250Y-35975432D01*
X5312833Y-35962166D01*
X5336205Y-34671000D01*
X5186935Y-34671000D01*
X5087142Y-34664580D01*
X5046022Y-34628194D01*
X5037692Y-34536148D01*
X5037666Y-34522833D01*
X5044219Y-34423527D01*
X5081193Y-34382801D01*
X5174555Y-34374685D01*
X5185833Y-34374666D01*
X5334000Y-34374666D01*
X5334000Y-33866666D01*
X5672666Y-33866666D01*
X5672666Y-34120666D01*
G36*
X7088680Y-34411514D02*
G01*
X7254640Y-34504882D01*
X7366000Y-34592478D01*
X7366000Y-34483572D01*
X7374774Y-34413481D01*
X7417035Y-34382324D01*
X7516689Y-34374725D01*
X7535333Y-34374666D01*
X7704666Y-34374666D01*
X7704666Y-36279666D01*
X7373598Y-36279666D01*
X7359216Y-35634083D01*
X7351816Y-35373636D01*
X7341885Y-35183652D01*
X7327750Y-35049929D01*
X7307736Y-34958268D01*
X7280170Y-34894469D01*
X7270156Y-34878607D01*
X7148042Y-34756913D01*
X6995572Y-34686220D01*
X6835745Y-34669860D01*
X6691555Y-34711163D01*
X6607072Y-34782542D01*
X6574253Y-34830446D01*
X6550779Y-34886971D01*
X6535104Y-34966287D01*
X6525683Y-35082568D01*
X6520968Y-35249985D01*
X6519416Y-35482709D01*
X6519333Y-35586875D01*
X6519333Y-36279666D01*
X6180666Y-36279666D01*
X6180824Y-35507083D01*
X6181711Y-35227886D01*
X6185061Y-35019771D01*
X6192108Y-34869162D01*
X6204083Y-34762481D01*
X6222222Y-34686153D01*
X6247754Y-34626602D01*
X6263226Y-34599618D01*
X6351499Y-34482938D01*
X6459168Y-34410811D01*
X6615806Y-34365002D01*
X6656289Y-34357271D01*
X6870224Y-34354699D01*
X7088680Y-34411514D01*
G37*
X7088680Y-34411514D02*
X7254640Y-34504882D01*
X7366000Y-34592478D01*
X7366000Y-34483572D01*
X7374774Y-34413481D01*
X7417035Y-34382324D01*
X7516689Y-34374725D01*
X7535333Y-34374666D01*
X7704666Y-34374666D01*
X7704666Y-36279666D01*
X7373598Y-36279666D01*
X7359216Y-35634083D01*
X7351816Y-35373636D01*
X7341885Y-35183652D01*
X7327750Y-35049929D01*
X7307736Y-34958268D01*
X7280170Y-34894469D01*
X7270156Y-34878607D01*
X7148042Y-34756913D01*
X6995572Y-34686220D01*
X6835745Y-34669860D01*
X6691555Y-34711163D01*
X6607072Y-34782542D01*
X6574253Y-34830446D01*
X6550779Y-34886971D01*
X6535104Y-34966287D01*
X6525683Y-35082568D01*
X6520968Y-35249985D01*
X6519416Y-35482709D01*
X6519333Y-35586875D01*
X6519333Y-36279666D01*
X6180666Y-36279666D01*
X6180824Y-35507083D01*
X6181711Y-35227886D01*
X6185061Y-35019771D01*
X6192108Y-34869162D01*
X6204083Y-34762481D01*
X6222222Y-34686153D01*
X6247754Y-34626602D01*
X6263226Y-34599618D01*
X6351499Y-34482938D01*
X6459168Y-34410811D01*
X6615806Y-34365002D01*
X6656289Y-34357271D01*
X6870224Y-34354699D01*
X7088680Y-34411514D01*
G36*
X4106333Y-31665333D02*
G01*
X4103004Y-31790879D01*
X4085591Y-31853507D01*
X4042952Y-31874913D01*
X3997647Y-31877000D01*
X3920758Y-31888034D01*
X3907906Y-31936337D01*
X3916659Y-31972250D01*
X3971212Y-32076487D01*
X4025345Y-32137785D01*
X4088604Y-32226071D01*
X4106333Y-32296535D01*
X4097429Y-32362407D01*
X4056798Y-32377411D01*
X3963559Y-32347658D01*
X3950051Y-32342260D01*
X3838681Y-32264795D01*
X3760748Y-32130391D01*
X3711980Y-31929526D01*
X3695001Y-31773934D01*
X3670779Y-31453666D01*
X4106333Y-31453666D01*
X4106333Y-31665333D01*
G37*
X4106333Y-31665333D02*
X4103004Y-31790879D01*
X4085591Y-31853507D01*
X4042952Y-31874913D01*
X3997647Y-31877000D01*
X3920758Y-31888034D01*
X3907906Y-31936337D01*
X3916659Y-31972250D01*
X3971212Y-32076487D01*
X4025345Y-32137785D01*
X4088604Y-32226071D01*
X4106333Y-32296535D01*
X4097429Y-32362407D01*
X4056798Y-32377411D01*
X3963559Y-32347658D01*
X3950051Y-32342260D01*
X3838681Y-32264795D01*
X3760748Y-32130391D01*
X3711980Y-31929526D01*
X3695001Y-31773934D01*
X3670779Y-31453666D01*
X4106333Y-31453666D01*
X4106333Y-31665333D01*
G36*
X-14180845Y-29401144D02*
G01*
X-13982447Y-29496073D01*
X-13823011Y-29661794D01*
X-13722829Y-29837501D01*
X-13676791Y-29941712D01*
X-13645311Y-30036130D01*
X-13625652Y-30140497D01*
X-13615073Y-30274555D01*
X-13610834Y-30458044D01*
X-13610167Y-30649333D01*
X-13611181Y-30883534D01*
X-13616141Y-31052682D01*
X-13627924Y-31176386D01*
X-13649405Y-31274254D01*
X-13683462Y-31365892D01*
X-13729725Y-31464306D01*
X-13831145Y-31637787D01*
X-13945401Y-31756702D01*
X-14029778Y-31813556D01*
X-14242270Y-31895525D01*
X-14478052Y-31918145D01*
X-14702345Y-31879215D01*
X-14753167Y-31859331D01*
X-14928325Y-31742414D01*
X-15081939Y-31568468D01*
X-15174610Y-31401259D01*
X-15245391Y-31167284D01*
X-15289680Y-30883969D01*
X-15304307Y-30583369D01*
X-15301808Y-30544126D01*
X-14918852Y-30544126D01*
X-14918184Y-30774160D01*
X-14908080Y-30987884D01*
X-14888478Y-31160473D01*
X-14868086Y-31246358D01*
X-14773506Y-31419475D01*
X-14640282Y-31540161D01*
X-14485400Y-31601495D01*
X-14325845Y-31596558D01*
X-14185607Y-31524346D01*
X-14075554Y-31380512D01*
X-14001423Y-31160413D01*
X-13963333Y-30864507D01*
X-13957836Y-30649333D01*
X-13971554Y-30338294D01*
X-14011393Y-30097988D01*
X-14080439Y-29917673D01*
X-14181778Y-29786608D01*
X-14213456Y-29759540D01*
X-14367849Y-29684943D01*
X-14529539Y-29684603D01*
X-14680856Y-29751876D01*
X-14804126Y-29880120D01*
X-14864885Y-30004411D01*
X-14892139Y-30134426D01*
X-14910149Y-30322606D01*
X-14918852Y-30544126D01*
X-15301808Y-30544126D01*
X-15286102Y-30297535D01*
X-15284770Y-30287751D01*
X-15215497Y-29964846D01*
X-15106075Y-29714940D01*
X-14953723Y-29535056D01*
X-14755656Y-29422218D01*
X-14509091Y-29373450D01*
X-14427479Y-29370866D01*
X-14180845Y-29401144D01*
G37*
X-14180845Y-29401144D02*
X-13982447Y-29496073D01*
X-13823011Y-29661794D01*
X-13722829Y-29837501D01*
X-13676791Y-29941712D01*
X-13645311Y-30036130D01*
X-13625652Y-30140497D01*
X-13615073Y-30274555D01*
X-13610834Y-30458044D01*
X-13610167Y-30649333D01*
X-13611181Y-30883534D01*
X-13616141Y-31052682D01*
X-13627924Y-31176386D01*
X-13649405Y-31274254D01*
X-13683462Y-31365892D01*
X-13729725Y-31464306D01*
X-13831145Y-31637787D01*
X-13945401Y-31756702D01*
X-14029778Y-31813556D01*
X-14242270Y-31895525D01*
X-14478052Y-31918145D01*
X-14702345Y-31879215D01*
X-14753167Y-31859331D01*
X-14928325Y-31742414D01*
X-15081939Y-31568468D01*
X-15174610Y-31401259D01*
X-15245391Y-31167284D01*
X-15289680Y-30883969D01*
X-15304307Y-30583369D01*
X-15301808Y-30544126D01*
X-14918852Y-30544126D01*
X-14918184Y-30774160D01*
X-14908080Y-30987884D01*
X-14888478Y-31160473D01*
X-14868086Y-31246358D01*
X-14773506Y-31419475D01*
X-14640282Y-31540161D01*
X-14485400Y-31601495D01*
X-14325845Y-31596558D01*
X-14185607Y-31524346D01*
X-14075554Y-31380512D01*
X-14001423Y-31160413D01*
X-13963333Y-30864507D01*
X-13957836Y-30649333D01*
X-13971554Y-30338294D01*
X-14011393Y-30097988D01*
X-14080439Y-29917673D01*
X-14181778Y-29786608D01*
X-14213456Y-29759540D01*
X-14367849Y-29684943D01*
X-14529539Y-29684603D01*
X-14680856Y-29751876D01*
X-14804126Y-29880120D01*
X-14864885Y-30004411D01*
X-14892139Y-30134426D01*
X-14910149Y-30322606D01*
X-14918852Y-30544126D01*
X-15301808Y-30544126D01*
X-15286102Y-30297535D01*
X-15284770Y-30287751D01*
X-15215497Y-29964846D01*
X-15106075Y-29714940D01*
X-14953723Y-29535056D01*
X-14755656Y-29422218D01*
X-14509091Y-29373450D01*
X-14427479Y-29370866D01*
X-14180845Y-29401144D01*
G36*
X-10176018Y-29430329D02*
G01*
X-9986312Y-29565339D01*
X-9836189Y-29767955D01*
X-9728658Y-30034392D01*
X-9666724Y-30360868D01*
X-9652000Y-30649333D01*
X-9676638Y-31016953D01*
X-9749042Y-31328724D01*
X-9866944Y-31579718D01*
X-10028079Y-31765011D01*
X-10215673Y-31874403D01*
X-10426069Y-31916896D01*
X-10655029Y-31904872D01*
X-10862258Y-31841350D01*
X-10896412Y-31823386D01*
X-11064288Y-31681153D01*
X-11200931Y-31472450D01*
X-11302203Y-31211021D01*
X-11363966Y-30910609D01*
X-11379839Y-30625266D01*
X-11005657Y-30625266D01*
X-10990367Y-30946689D01*
X-10944591Y-31196448D01*
X-10865276Y-31382975D01*
X-10749370Y-31514707D01*
X-10663920Y-31569459D01*
X-10577474Y-31609326D01*
X-10509756Y-31617070D01*
X-10423258Y-31591894D01*
X-10351952Y-31562834D01*
X-10237716Y-31496964D01*
X-10154650Y-31400615D01*
X-10097791Y-31260878D01*
X-10062175Y-31064842D01*
X-10042838Y-30799598D01*
X-10041081Y-30754340D01*
X-10038298Y-30505498D01*
X-10047559Y-30290314D01*
X-10067718Y-30131158D01*
X-10074508Y-30102068D01*
X-10156560Y-29909337D01*
X-10278606Y-29766487D01*
X-10426623Y-29687216D01*
X-10510868Y-29675666D01*
X-10685195Y-29713717D01*
X-10822709Y-29826750D01*
X-10922535Y-30013090D01*
X-10983801Y-30271058D01*
X-11005631Y-30598978D01*
X-11005657Y-30625266D01*
X-11379839Y-30625266D01*
X-11382082Y-30584959D01*
X-11358611Y-30288276D01*
X-11289447Y-29969699D01*
X-11182058Y-29723429D01*
X-11032550Y-29544378D01*
X-10837029Y-29427460D01*
X-10662151Y-29378263D01*
X-10402300Y-29366709D01*
X-10176018Y-29430329D01*
G37*
X-10176018Y-29430329D02*
X-9986312Y-29565339D01*
X-9836189Y-29767955D01*
X-9728658Y-30034392D01*
X-9666724Y-30360868D01*
X-9652000Y-30649333D01*
X-9676638Y-31016953D01*
X-9749042Y-31328724D01*
X-9866944Y-31579718D01*
X-10028079Y-31765011D01*
X-10215673Y-31874403D01*
X-10426069Y-31916896D01*
X-10655029Y-31904872D01*
X-10862258Y-31841350D01*
X-10896412Y-31823386D01*
X-11064288Y-31681153D01*
X-11200931Y-31472450D01*
X-11302203Y-31211021D01*
X-11363966Y-30910609D01*
X-11379839Y-30625266D01*
X-11005657Y-30625266D01*
X-10990367Y-30946689D01*
X-10944591Y-31196448D01*
X-10865276Y-31382975D01*
X-10749370Y-31514707D01*
X-10663920Y-31569459D01*
X-10577474Y-31609326D01*
X-10509756Y-31617070D01*
X-10423258Y-31591894D01*
X-10351952Y-31562834D01*
X-10237716Y-31496964D01*
X-10154650Y-31400615D01*
X-10097791Y-31260878D01*
X-10062175Y-31064842D01*
X-10042838Y-30799598D01*
X-10041081Y-30754340D01*
X-10038298Y-30505498D01*
X-10047559Y-30290314D01*
X-10067718Y-30131158D01*
X-10074508Y-30102068D01*
X-10156560Y-29909337D01*
X-10278606Y-29766487D01*
X-10426623Y-29687216D01*
X-10510868Y-29675666D01*
X-10685195Y-29713717D01*
X-10822709Y-29826750D01*
X-10922535Y-30013090D01*
X-10983801Y-30271058D01*
X-11005631Y-30598978D01*
X-11005657Y-30625266D01*
X-11379839Y-30625266D01*
X-11382082Y-30584959D01*
X-11358611Y-30288276D01*
X-11289447Y-29969699D01*
X-11182058Y-29723429D01*
X-11032550Y-29544378D01*
X-10837029Y-29427460D01*
X-10662151Y-29378263D01*
X-10402300Y-29366709D01*
X-10176018Y-29430329D01*
G36*
X-1381078Y-29939536D02*
G01*
X-1138611Y-29995278D01*
X-949070Y-30097610D01*
X-821316Y-30239128D01*
X-764210Y-30412431D01*
X-762000Y-30456731D01*
X-773004Y-30530162D01*
X-822793Y-30559849D01*
X-907314Y-30564666D01*
X-1019628Y-30549014D01*
X-1074066Y-30494885D01*
X-1079150Y-30481104D01*
X-1160612Y-30352438D01*
X-1296288Y-30267298D01*
X-1464339Y-30232000D01*
X-1642925Y-30252862D01*
X-1737769Y-30290587D01*
X-1826731Y-30354403D01*
X-1859880Y-30443016D01*
X-1862667Y-30503301D01*
X-1853634Y-30592302D01*
X-1817019Y-30653812D01*
X-1738548Y-30695417D01*
X-1603945Y-30724701D01*
X-1399982Y-30749143D01*
X-1108927Y-30804088D01*
X-890212Y-30902913D01*
X-743699Y-31045732D01*
X-669249Y-31232660D01*
X-659041Y-31361906D01*
X-678004Y-31517429D01*
X-722469Y-31649714D01*
X-735604Y-31672576D01*
X-871702Y-31807851D01*
X-1055454Y-31888784D01*
X-1268470Y-31914011D01*
X-1492363Y-31882168D01*
X-1708742Y-31791891D01*
X-1774537Y-31749630D01*
X-1850443Y-31703739D01*
X-1902873Y-31712779D01*
X-1965037Y-31773662D01*
X-2103534Y-31874134D01*
X-2268750Y-31895811D01*
X-2317750Y-31888935D01*
X-2386062Y-31845036D01*
X-2418180Y-31766349D01*
X-2412334Y-31684212D01*
X-2366755Y-31629964D01*
X-2332769Y-31623000D01*
X-2302540Y-31617640D01*
X-2280518Y-31593471D01*
X-2264989Y-31538356D01*
X-2254240Y-31440162D01*
X-2246557Y-31286751D01*
X-2241889Y-31123894D01*
X-1862667Y-31123894D01*
X-1846707Y-31264255D01*
X-1806974Y-31383937D01*
X-1793736Y-31406241D01*
X-1676405Y-31516917D01*
X-1521375Y-31589051D01*
X-1354480Y-31617719D01*
X-1201555Y-31597995D01*
X-1100667Y-31538333D01*
X-1037259Y-31432398D01*
X-1016000Y-31327642D01*
X-1044060Y-31213669D01*
X-1133618Y-31128015D01*
X-1292744Y-31065271D01*
X-1459217Y-31030542D01*
X-1607019Y-31004386D01*
X-1729963Y-30978972D01*
X-1782096Y-30965533D01*
X-1832372Y-30959854D01*
X-1856011Y-30997725D01*
X-1862565Y-31097923D01*
X-1862667Y-31123894D01*
X-2241889Y-31123894D01*
X-2240228Y-31065989D01*
X-2237519Y-30948432D01*
X-2222500Y-30273864D01*
X-2101053Y-30147114D01*
X-1946453Y-30037720D01*
X-1740112Y-29963962D01*
X-1510378Y-29934013D01*
X-1381078Y-29939536D01*
G37*
X-1381078Y-29939536D02*
X-1138611Y-29995278D01*
X-949070Y-30097610D01*
X-821316Y-30239128D01*
X-764210Y-30412431D01*
X-762000Y-30456731D01*
X-773004Y-30530162D01*
X-822793Y-30559849D01*
X-907314Y-30564666D01*
X-1019628Y-30549014D01*
X-1074066Y-30494885D01*
X-1079150Y-30481104D01*
X-1160612Y-30352438D01*
X-1296288Y-30267298D01*
X-1464339Y-30232000D01*
X-1642925Y-30252862D01*
X-1737769Y-30290587D01*
X-1826731Y-30354403D01*
X-1859880Y-30443016D01*
X-1862667Y-30503301D01*
X-1853634Y-30592302D01*
X-1817019Y-30653812D01*
X-1738548Y-30695417D01*
X-1603945Y-30724701D01*
X-1399982Y-30749143D01*
X-1108927Y-30804088D01*
X-890212Y-30902913D01*
X-743699Y-31045732D01*
X-669249Y-31232660D01*
X-659041Y-31361906D01*
X-678004Y-31517429D01*
X-722469Y-31649714D01*
X-735604Y-31672576D01*
X-871702Y-31807851D01*
X-1055454Y-31888784D01*
X-1268470Y-31914011D01*
X-1492363Y-31882168D01*
X-1708742Y-31791891D01*
X-1774537Y-31749630D01*
X-1850443Y-31703739D01*
X-1902873Y-31712779D01*
X-1965037Y-31773662D01*
X-2103534Y-31874134D01*
X-2268750Y-31895811D01*
X-2317750Y-31888935D01*
X-2386062Y-31845036D01*
X-2418180Y-31766349D01*
X-2412334Y-31684212D01*
X-2366755Y-31629964D01*
X-2332769Y-31623000D01*
X-2302540Y-31617640D01*
X-2280518Y-31593471D01*
X-2264989Y-31538356D01*
X-2254240Y-31440162D01*
X-2246557Y-31286751D01*
X-2241889Y-31123894D01*
X-1862667Y-31123894D01*
X-1846707Y-31264255D01*
X-1806974Y-31383937D01*
X-1793736Y-31406241D01*
X-1676405Y-31516917D01*
X-1521375Y-31589051D01*
X-1354480Y-31617719D01*
X-1201555Y-31597995D01*
X-1100667Y-31538333D01*
X-1037259Y-31432398D01*
X-1016000Y-31327642D01*
X-1044060Y-31213669D01*
X-1133618Y-31128015D01*
X-1292744Y-31065271D01*
X-1459217Y-31030542D01*
X-1607019Y-31004386D01*
X-1729963Y-30978972D01*
X-1782096Y-30965533D01*
X-1832372Y-30959854D01*
X-1856011Y-30997725D01*
X-1862565Y-31097923D01*
X-1862667Y-31123894D01*
X-2241889Y-31123894D01*
X-2240228Y-31065989D01*
X-2237519Y-30948432D01*
X-2222500Y-30273864D01*
X-2101053Y-30147114D01*
X-1946453Y-30037720D01*
X-1740112Y-29963962D01*
X-1510378Y-29934013D01*
X-1381078Y-29939536D01*
G36*
X5666483Y-29397015D02*
G01*
X5883461Y-29495546D01*
X6051937Y-29662528D01*
X6157479Y-29854801D01*
X6204916Y-30034495D01*
X6221221Y-30246196D01*
X6205160Y-30448255D01*
X6178070Y-30551327D01*
X6061396Y-30749027D01*
X5888926Y-30898657D01*
X5678690Y-30993595D01*
X5448719Y-31027222D01*
X5217043Y-30992915D01*
X5102422Y-30946306D01*
X4998724Y-30899117D01*
X4930717Y-30878752D01*
X4919367Y-30880521D01*
X4918300Y-30928300D01*
X4934893Y-31031963D01*
X4954848Y-31123298D01*
X5038838Y-31346885D01*
X5165272Y-31509179D01*
X5326520Y-31602612D01*
X5458690Y-31623000D01*
X5615462Y-31593318D01*
X5745191Y-31515467D01*
X5826022Y-31406233D01*
X5842000Y-31328590D01*
X5854196Y-31274087D01*
X5905382Y-31248626D01*
X6017448Y-31242019D01*
X6028041Y-31242000D01*
X6214083Y-31242000D01*
X6179018Y-31397473D01*
X6091593Y-31617685D01*
X5944083Y-31779736D01*
X5740635Y-31880620D01*
X5485401Y-31917334D01*
X5461000Y-31917396D01*
X5241601Y-31892726D01*
X5073234Y-31833742D01*
X4880390Y-31693346D01*
X4734182Y-31497824D01*
X4632481Y-31241972D01*
X4573156Y-30920580D01*
X4554187Y-30564666D01*
X4557475Y-30299008D01*
X4567106Y-30186653D01*
X4946489Y-30186653D01*
X4973442Y-30402048D01*
X5060345Y-30560409D01*
X5210551Y-30667668D01*
X5220778Y-30672230D01*
X5346480Y-30719206D01*
X5444793Y-30726302D01*
X5558986Y-30693495D01*
X5612049Y-30672023D01*
X5747656Y-30574107D01*
X5834032Y-30428060D01*
X5871297Y-30254546D01*
X5859569Y-30074232D01*
X5798969Y-29907782D01*
X5689616Y-29775863D01*
X5606581Y-29724524D01*
X5410820Y-29678308D01*
X5213573Y-29716588D01*
X5163819Y-29739604D01*
X5045166Y-29825226D01*
X4976732Y-29943576D01*
X4948610Y-30115031D01*
X4946489Y-30186653D01*
X4567106Y-30186653D01*
X4574831Y-30096540D01*
X4611207Y-29936279D01*
X4671555Y-29797240D01*
X4760825Y-29658438D01*
X4771454Y-29643872D01*
X4923249Y-29489999D01*
X5112310Y-29399328D01*
X5353341Y-29365299D01*
X5397500Y-29364673D01*
X5666483Y-29397015D01*
G37*
X5666483Y-29397015D02*
X5883461Y-29495546D01*
X6051937Y-29662528D01*
X6157479Y-29854801D01*
X6204916Y-30034495D01*
X6221221Y-30246196D01*
X6205160Y-30448255D01*
X6178070Y-30551327D01*
X6061396Y-30749027D01*
X5888926Y-30898657D01*
X5678690Y-30993595D01*
X5448719Y-31027222D01*
X5217043Y-30992915D01*
X5102422Y-30946306D01*
X4998724Y-30899117D01*
X4930717Y-30878752D01*
X4919367Y-30880521D01*
X4918300Y-30928300D01*
X4934893Y-31031963D01*
X4954848Y-31123298D01*
X5038838Y-31346885D01*
X5165272Y-31509179D01*
X5326520Y-31602612D01*
X5458690Y-31623000D01*
X5615462Y-31593318D01*
X5745191Y-31515467D01*
X5826022Y-31406233D01*
X5842000Y-31328590D01*
X5854196Y-31274087D01*
X5905382Y-31248626D01*
X6017448Y-31242019D01*
X6028041Y-31242000D01*
X6214083Y-31242000D01*
X6179018Y-31397473D01*
X6091593Y-31617685D01*
X5944083Y-31779736D01*
X5740635Y-31880620D01*
X5485401Y-31917334D01*
X5461000Y-31917396D01*
X5241601Y-31892726D01*
X5073234Y-31833742D01*
X4880390Y-31693346D01*
X4734182Y-31497824D01*
X4632481Y-31241972D01*
X4573156Y-30920580D01*
X4554187Y-30564666D01*
X4557475Y-30299008D01*
X4567106Y-30186653D01*
X4946489Y-30186653D01*
X4973442Y-30402048D01*
X5060345Y-30560409D01*
X5210551Y-30667668D01*
X5220778Y-30672230D01*
X5346480Y-30719206D01*
X5444793Y-30726302D01*
X5558986Y-30693495D01*
X5612049Y-30672023D01*
X5747656Y-30574107D01*
X5834032Y-30428060D01*
X5871297Y-30254546D01*
X5859569Y-30074232D01*
X5798969Y-29907782D01*
X5689616Y-29775863D01*
X5606581Y-29724524D01*
X5410820Y-29678308D01*
X5213573Y-29716588D01*
X5163819Y-29739604D01*
X5045166Y-29825226D01*
X4976732Y-29943576D01*
X4948610Y-30115031D01*
X4946489Y-30186653D01*
X4567106Y-30186653D01*
X4574831Y-30096540D01*
X4611207Y-29936279D01*
X4671555Y-29797240D01*
X4760825Y-29658438D01*
X4771454Y-29643872D01*
X4923249Y-29489999D01*
X5112310Y-29399328D01*
X5353341Y-29365299D01*
X5397500Y-29364673D01*
X5666483Y-29397015D01*
G36*
X11049000Y-31877000D02*
G01*
X10900833Y-31877000D01*
X10800938Y-31869432D01*
X10759995Y-31833857D01*
X10752666Y-31763787D01*
X10752666Y-31650574D01*
X10657416Y-31739800D01*
X10465168Y-31866154D01*
X10247518Y-31914848D01*
X10015340Y-31884727D01*
X9865176Y-31824083D01*
X9724006Y-31729548D01*
X9609396Y-31594857D01*
X9549290Y-31496000D01*
X9485626Y-31374136D01*
X9446873Y-31269109D01*
X9426965Y-31152308D01*
X9419837Y-30995121D01*
X9419220Y-30891247D01*
X9764916Y-30891247D01*
X9782666Y-31104198D01*
X9835913Y-31299845D01*
X9920762Y-31458352D01*
X10033320Y-31559882D01*
X10063618Y-31573419D01*
X10190292Y-31611495D01*
X10290749Y-31611433D01*
X10411753Y-31571896D01*
X10433714Y-31562834D01*
X10574784Y-31460089D01*
X10676054Y-31294624D01*
X10732259Y-31081024D01*
X10738132Y-30833872D01*
X10728137Y-30747503D01*
X10667340Y-30553095D01*
X10559741Y-30403837D01*
X10420579Y-30304156D01*
X10265091Y-30258481D01*
X10108515Y-30271238D01*
X9966090Y-30346855D01*
X9853054Y-30489760D01*
X9851482Y-30492782D01*
X9786557Y-30680830D01*
X9764916Y-30891247D01*
X9419220Y-30891247D01*
X9419166Y-30882166D01*
X9422030Y-30689811D01*
X9434216Y-30555132D01*
X9461114Y-30451230D01*
X9508112Y-30351205D01*
X9534984Y-30304149D01*
X9682170Y-30126952D01*
X9872617Y-30003936D01*
X10087247Y-29939679D01*
X10306982Y-29938756D01*
X10512744Y-30005746D01*
X10586049Y-30051980D01*
X10710333Y-30143868D01*
X10710333Y-29294666D01*
X11049000Y-29294666D01*
X11049000Y-31877000D01*
G37*
X11049000Y-31877000D02*
X10900833Y-31877000D01*
X10800938Y-31869432D01*
X10759995Y-31833857D01*
X10752666Y-31763787D01*
X10752666Y-31650574D01*
X10657416Y-31739800D01*
X10465168Y-31866154D01*
X10247518Y-31914848D01*
X10015340Y-31884727D01*
X9865176Y-31824083D01*
X9724006Y-31729548D01*
X9609396Y-31594857D01*
X9549290Y-31496000D01*
X9485626Y-31374136D01*
X9446873Y-31269109D01*
X9426965Y-31152308D01*
X9419837Y-30995121D01*
X9419220Y-30891247D01*
X9764916Y-30891247D01*
X9782666Y-31104198D01*
X9835913Y-31299845D01*
X9920762Y-31458352D01*
X10033320Y-31559882D01*
X10063618Y-31573419D01*
X10190292Y-31611495D01*
X10290749Y-31611433D01*
X10411753Y-31571896D01*
X10433714Y-31562834D01*
X10574784Y-31460089D01*
X10676054Y-31294624D01*
X10732259Y-31081024D01*
X10738132Y-30833872D01*
X10728137Y-30747503D01*
X10667340Y-30553095D01*
X10559741Y-30403837D01*
X10420579Y-30304156D01*
X10265091Y-30258481D01*
X10108515Y-30271238D01*
X9966090Y-30346855D01*
X9853054Y-30489760D01*
X9851482Y-30492782D01*
X9786557Y-30680830D01*
X9764916Y-30891247D01*
X9419220Y-30891247D01*
X9419166Y-30882166D01*
X9422030Y-30689811D01*
X9434216Y-30555132D01*
X9461114Y-30451230D01*
X9508112Y-30351205D01*
X9534984Y-30304149D01*
X9682170Y-30126952D01*
X9872617Y-30003936D01*
X10087247Y-29939679D01*
X10306982Y-29938756D01*
X10512744Y-30005746D01*
X10586049Y-30051980D01*
X10710333Y-30143868D01*
X10710333Y-29294666D01*
X11049000Y-29294666D01*
X11049000Y-31877000D01*
G36*
X12556279Y-30010445D02*
G01*
X12786012Y-30157275D01*
X12952250Y-30359638D01*
X13054281Y-30616259D01*
X13091394Y-30925867D01*
X13091448Y-30966833D01*
X13080444Y-31143491D01*
X13054780Y-31307497D01*
X13024505Y-31411333D01*
X12927191Y-31570551D01*
X12786628Y-31722875D01*
X12632007Y-31839224D01*
X12559660Y-31874403D01*
X12404494Y-31907126D01*
X12210506Y-31913639D01*
X12019251Y-31894329D01*
X11916833Y-31868376D01*
X11765908Y-31787531D01*
X11623235Y-31663493D01*
X11508225Y-31518621D01*
X11440285Y-31375271D01*
X11430000Y-31307602D01*
X11455593Y-31262498D01*
X11542510Y-31243565D01*
X11599333Y-31242000D01*
X11722956Y-31255141D01*
X11768474Y-31293978D01*
X11768666Y-31297579D01*
X11805193Y-31384069D01*
X11898551Y-31476423D01*
X12024410Y-31556402D01*
X12158437Y-31605770D01*
X12186382Y-31610682D01*
X12378526Y-31599131D01*
X12537202Y-31513029D01*
X12655276Y-31358292D01*
X12720374Y-31167916D01*
X12749060Y-31030333D01*
X11387666Y-31030333D01*
X11387902Y-30850416D01*
X11401381Y-30734000D01*
X11732243Y-30734000D01*
X12216121Y-30734000D01*
X12428184Y-30732404D01*
X12569103Y-30726398D01*
X12652361Y-30714154D01*
X12691442Y-30693844D01*
X12700000Y-30668397D01*
X12661503Y-30511644D01*
X12558898Y-30381993D01*
X12411509Y-30292148D01*
X12238659Y-30254812D01*
X12095670Y-30271111D01*
X11924441Y-30353522D01*
X11811286Y-30494337D01*
X11770339Y-30601166D01*
X11732243Y-30734000D01*
X11401381Y-30734000D01*
X11421306Y-30561929D01*
X11521756Y-30322847D01*
X11636686Y-30178686D01*
X11846567Y-30024687D01*
X12084813Y-29945696D01*
X12336021Y-29944533D01*
X12556279Y-30010445D01*
G37*
X12556279Y-30010445D02*
X12786012Y-30157275D01*
X12952250Y-30359638D01*
X13054281Y-30616259D01*
X13091394Y-30925867D01*
X13091448Y-30966833D01*
X13080444Y-31143491D01*
X13054780Y-31307497D01*
X13024505Y-31411333D01*
X12927191Y-31570551D01*
X12786628Y-31722875D01*
X12632007Y-31839224D01*
X12559660Y-31874403D01*
X12404494Y-31907126D01*
X12210506Y-31913639D01*
X12019251Y-31894329D01*
X11916833Y-31868376D01*
X11765908Y-31787531D01*
X11623235Y-31663493D01*
X11508225Y-31518621D01*
X11440285Y-31375271D01*
X11430000Y-31307602D01*
X11455593Y-31262498D01*
X11542510Y-31243565D01*
X11599333Y-31242000D01*
X11722956Y-31255141D01*
X11768474Y-31293978D01*
X11768666Y-31297579D01*
X11805193Y-31384069D01*
X11898551Y-31476423D01*
X12024410Y-31556402D01*
X12158437Y-31605770D01*
X12186382Y-31610682D01*
X12378526Y-31599131D01*
X12537202Y-31513029D01*
X12655276Y-31358292D01*
X12720374Y-31167916D01*
X12749060Y-31030333D01*
X11387666Y-31030333D01*
X11387902Y-30850416D01*
X11401381Y-30734000D01*
X11732243Y-30734000D01*
X12216121Y-30734000D01*
X12428184Y-30732404D01*
X12569103Y-30726398D01*
X12652361Y-30714154D01*
X12691442Y-30693844D01*
X12700000Y-30668397D01*
X12661503Y-30511644D01*
X12558898Y-30381993D01*
X12411509Y-30292148D01*
X12238659Y-30254812D01*
X12095670Y-30271111D01*
X11924441Y-30353522D01*
X11811286Y-30494337D01*
X11770339Y-30601166D01*
X11732243Y-30734000D01*
X11401381Y-30734000D01*
X11421306Y-30561929D01*
X11521756Y-30322847D01*
X11636686Y-30178686D01*
X11846567Y-30024687D01*
X12084813Y-29945696D01*
X12336021Y-29944533D01*
X12556279Y-30010445D01*
G36*
X-12376402Y-29357096D02*
G01*
X-12216329Y-29392003D01*
X-12066728Y-29448428D01*
X-12014220Y-29477704D01*
X-11878748Y-29608344D01*
X-11767459Y-29789468D01*
X-11698134Y-29987134D01*
X-11684000Y-30107969D01*
X-11688785Y-30211768D01*
X-11719692Y-30257038D01*
X-11801548Y-30268067D01*
X-11847923Y-30268333D01*
X-11952502Y-30263088D01*
X-12004551Y-30231498D01*
X-12030309Y-30149777D01*
X-12039639Y-30094528D01*
X-12106729Y-29898135D01*
X-12231096Y-29759305D01*
X-12404182Y-29685665D01*
X-12509500Y-29675666D01*
X-12703129Y-29709996D01*
X-12848122Y-29806575D01*
X-12934225Y-29955785D01*
X-12954000Y-30092495D01*
X-12932583Y-30233944D01*
X-12862396Y-30364731D01*
X-12734540Y-30494815D01*
X-12540112Y-30634158D01*
X-12387390Y-30726589D01*
X-12110874Y-30901979D01*
X-11907061Y-31070956D01*
X-11766212Y-31246392D01*
X-11678589Y-31441162D01*
X-11634455Y-31668138D01*
X-11629252Y-31728833D01*
X-11620500Y-31855833D01*
X-13335000Y-31878753D01*
X-13335000Y-31538333D01*
X-12678834Y-31538333D01*
X-12423631Y-31537086D01*
X-12241881Y-31532662D01*
X-12122396Y-31524033D01*
X-12053988Y-31510172D01*
X-12025472Y-31490052D01*
X-12022667Y-31478089D01*
X-12060369Y-31390842D01*
X-12167985Y-31278026D01*
X-12337276Y-31146645D01*
X-12560008Y-31003705D01*
X-12624857Y-30965967D01*
X-12889016Y-30805309D01*
X-13082420Y-30661562D01*
X-13214267Y-30523781D01*
X-13293754Y-30381021D01*
X-13330081Y-30222335D01*
X-13335000Y-30120909D01*
X-13298588Y-29864428D01*
X-13194567Y-29652630D01*
X-13030763Y-29491750D01*
X-12815000Y-29388024D01*
X-12555104Y-29347685D01*
X-12376402Y-29357096D01*
G37*
X-12376402Y-29357096D02*
X-12216329Y-29392003D01*
X-12066728Y-29448428D01*
X-12014220Y-29477704D01*
X-11878748Y-29608344D01*
X-11767459Y-29789468D01*
X-11698134Y-29987134D01*
X-11684000Y-30107969D01*
X-11688785Y-30211768D01*
X-11719692Y-30257038D01*
X-11801548Y-30268067D01*
X-11847923Y-30268333D01*
X-11952502Y-30263088D01*
X-12004551Y-30231498D01*
X-12030309Y-30149777D01*
X-12039639Y-30094528D01*
X-12106729Y-29898135D01*
X-12231096Y-29759305D01*
X-12404182Y-29685665D01*
X-12509500Y-29675666D01*
X-12703129Y-29709996D01*
X-12848122Y-29806575D01*
X-12934225Y-29955785D01*
X-12954000Y-30092495D01*
X-12932583Y-30233944D01*
X-12862396Y-30364731D01*
X-12734540Y-30494815D01*
X-12540112Y-30634158D01*
X-12387390Y-30726589D01*
X-12110874Y-30901979D01*
X-11907061Y-31070956D01*
X-11766212Y-31246392D01*
X-11678589Y-31441162D01*
X-11634455Y-31668138D01*
X-11629252Y-31728833D01*
X-11620500Y-31855833D01*
X-13335000Y-31878753D01*
X-13335000Y-31538333D01*
X-12678834Y-31538333D01*
X-12423631Y-31537086D01*
X-12241881Y-31532662D01*
X-12122396Y-31524033D01*
X-12053988Y-31510172D01*
X-12025472Y-31490052D01*
X-12022667Y-31478089D01*
X-12060369Y-31390842D01*
X-12167985Y-31278026D01*
X-12337276Y-31146645D01*
X-12560008Y-31003705D01*
X-12624857Y-30965967D01*
X-12889016Y-30805309D01*
X-13082420Y-30661562D01*
X-13214267Y-30523781D01*
X-13293754Y-30381021D01*
X-13330081Y-30222335D01*
X-13335000Y-30120909D01*
X-13298588Y-29864428D01*
X-13194567Y-29652630D01*
X-13030763Y-29491750D01*
X-12815000Y-29388024D01*
X-12555104Y-29347685D01*
X-12376402Y-29357096D01*
G36*
X-8383732Y-29375171D02*
G01*
X-8186050Y-29426659D01*
X-8155973Y-29440130D01*
X-7975917Y-29573401D01*
X-7842980Y-29766789D01*
X-7767669Y-30004066D01*
X-7761067Y-30049983D01*
X-7735207Y-30268333D01*
X-7906716Y-30268333D01*
X-8015072Y-30263652D01*
X-8069489Y-30233981D01*
X-8096549Y-30155874D01*
X-8108252Y-30090604D01*
X-8176255Y-29892881D01*
X-8299383Y-29755391D01*
X-8470746Y-29684345D01*
X-8568576Y-29675666D01*
X-8765465Y-29708961D01*
X-8913576Y-29802748D01*
X-9002627Y-29947879D01*
X-9024434Y-30081160D01*
X-9011787Y-30217526D01*
X-8977588Y-30332957D01*
X-8968974Y-30349143D01*
X-8910378Y-30409456D01*
X-8796198Y-30499379D01*
X-8643972Y-30605843D01*
X-8502732Y-30696523D01*
X-8324759Y-30810182D01*
X-8162552Y-30920629D01*
X-8036757Y-31013427D01*
X-7977929Y-31063541D01*
X-7840114Y-31247667D01*
X-7740508Y-31476035D01*
X-7697696Y-31686500D01*
X-7683744Y-31855833D01*
X-9398000Y-31878753D01*
X-9398000Y-31538333D01*
X-8741834Y-31538333D01*
X-8507738Y-31535940D01*
X-8313325Y-31529274D01*
X-8171513Y-31519105D01*
X-8095222Y-31506202D01*
X-8085667Y-31499248D01*
X-8122020Y-31415781D01*
X-8224028Y-31304699D01*
X-8381118Y-31175226D01*
X-8582715Y-31036591D01*
X-8694064Y-30968392D01*
X-8954881Y-30804402D01*
X-9145870Y-30658713D01*
X-9277036Y-30521429D01*
X-9358384Y-30382653D01*
X-9391154Y-30278823D01*
X-9406598Y-30043921D01*
X-9354942Y-29817489D01*
X-9244974Y-29619814D01*
X-9085484Y-29471183D01*
X-9026917Y-29438020D01*
X-8840503Y-29380764D01*
X-8613995Y-29359843D01*
X-8383732Y-29375171D01*
G37*
X-8383732Y-29375171D02*
X-8186050Y-29426659D01*
X-8155973Y-29440130D01*
X-7975917Y-29573401D01*
X-7842980Y-29766789D01*
X-7767669Y-30004066D01*
X-7761067Y-30049983D01*
X-7735207Y-30268333D01*
X-7906716Y-30268333D01*
X-8015072Y-30263652D01*
X-8069489Y-30233981D01*
X-8096549Y-30155874D01*
X-8108252Y-30090604D01*
X-8176255Y-29892881D01*
X-8299383Y-29755391D01*
X-8470746Y-29684345D01*
X-8568576Y-29675666D01*
X-8765465Y-29708961D01*
X-8913576Y-29802748D01*
X-9002627Y-29947879D01*
X-9024434Y-30081160D01*
X-9011787Y-30217526D01*
X-8977588Y-30332957D01*
X-8968974Y-30349143D01*
X-8910378Y-30409456D01*
X-8796198Y-30499379D01*
X-8643972Y-30605843D01*
X-8502732Y-30696523D01*
X-8324759Y-30810182D01*
X-8162552Y-30920629D01*
X-8036757Y-31013427D01*
X-7977929Y-31063541D01*
X-7840114Y-31247667D01*
X-7740508Y-31476035D01*
X-7697696Y-31686500D01*
X-7683744Y-31855833D01*
X-9398000Y-31878753D01*
X-9398000Y-31538333D01*
X-8741834Y-31538333D01*
X-8507738Y-31535940D01*
X-8313325Y-31529274D01*
X-8171513Y-31519105D01*
X-8095222Y-31506202D01*
X-8085667Y-31499248D01*
X-8122020Y-31415781D01*
X-8224028Y-31304699D01*
X-8381118Y-31175226D01*
X-8582715Y-31036591D01*
X-8694064Y-30968392D01*
X-8954881Y-30804402D01*
X-9145870Y-30658713D01*
X-9277036Y-30521429D01*
X-9358384Y-30382653D01*
X-9391154Y-30278823D01*
X-9406598Y-30043921D01*
X-9354942Y-29817489D01*
X-9244974Y-29619814D01*
X-9085484Y-29471183D01*
X-9026917Y-29438020D01*
X-8840503Y-29380764D01*
X-8613995Y-29359843D01*
X-8383732Y-29375171D01*
G36*
X-5668004Y-29395507D02*
G01*
X-5613885Y-29450437D01*
X-5610275Y-29460509D01*
X-5520123Y-29627907D01*
X-5369422Y-29742373D01*
X-5184983Y-29802843D01*
X-5052513Y-29833765D01*
X-4983234Y-29865641D01*
X-4956854Y-29913532D01*
X-4953000Y-29975001D01*
X-4953000Y-30099000D01*
X-5545667Y-30099000D01*
X-5545667Y-31877000D01*
X-5707945Y-31877000D01*
X-5819815Y-31870236D01*
X-5891426Y-31853504D01*
X-5898445Y-31848777D01*
X-5905668Y-31800775D01*
X-5912209Y-31678990D01*
X-5917820Y-31494304D01*
X-5922256Y-31257601D01*
X-5925271Y-30979761D01*
X-5926619Y-30671669D01*
X-5926667Y-30599944D01*
X-5926667Y-29379333D01*
X-5781353Y-29379333D01*
X-5668004Y-29395507D01*
G37*
X-5668004Y-29395507D02*
X-5613885Y-29450437D01*
X-5610275Y-29460509D01*
X-5520123Y-29627907D01*
X-5369422Y-29742373D01*
X-5184983Y-29802843D01*
X-5052513Y-29833765D01*
X-4983234Y-29865641D01*
X-4956854Y-29913532D01*
X-4953000Y-29975001D01*
X-4953000Y-30099000D01*
X-5545667Y-30099000D01*
X-5545667Y-31877000D01*
X-5707945Y-31877000D01*
X-5819815Y-31870236D01*
X-5891426Y-31853504D01*
X-5898445Y-31848777D01*
X-5905668Y-31800775D01*
X-5912209Y-31678990D01*
X-5917820Y-31494304D01*
X-5922256Y-31257601D01*
X-5925271Y-30979761D01*
X-5926619Y-30671669D01*
X-5926667Y-30599944D01*
X-5926667Y-29379333D01*
X-5781353Y-29379333D01*
X-5668004Y-29395507D01*
G36*
X-3349219Y-29970918D02*
G01*
X-3161534Y-30095371D01*
X-3143250Y-30111669D01*
X-3048000Y-30198425D01*
X-3048000Y-30085212D01*
X-3039816Y-30012439D01*
X-2999245Y-29980086D01*
X-2902264Y-29972092D01*
X-2878667Y-29972000D01*
X-2709334Y-29972000D01*
X-2709334Y-31877000D01*
X-3048000Y-31877000D01*
X-3048000Y-31282231D01*
X-3051466Y-31001017D01*
X-3064137Y-30790283D01*
X-3089426Y-30636041D01*
X-3130744Y-30524304D01*
X-3191501Y-30441082D01*
X-3268845Y-30376736D01*
X-3379774Y-30329080D01*
X-3501920Y-30310666D01*
X-3587186Y-30306028D01*
X-3627565Y-30276760D01*
X-3639828Y-30199836D01*
X-3640667Y-30120166D01*
X-3636390Y-30002701D01*
X-3614912Y-29947049D01*
X-3563262Y-29930460D01*
X-3532051Y-29929666D01*
X-3349219Y-29970918D01*
G37*
X-3349219Y-29970918D02*
X-3161534Y-30095371D01*
X-3143250Y-30111669D01*
X-3048000Y-30198425D01*
X-3048000Y-30085212D01*
X-3039816Y-30012439D01*
X-2999245Y-29980086D01*
X-2902264Y-29972092D01*
X-2878667Y-29972000D01*
X-2709334Y-29972000D01*
X-2709334Y-31877000D01*
X-3048000Y-31877000D01*
X-3048000Y-31282231D01*
X-3051466Y-31001017D01*
X-3064137Y-30790283D01*
X-3089426Y-30636041D01*
X-3130744Y-30524304D01*
X-3191501Y-30441082D01*
X-3268845Y-30376736D01*
X-3379774Y-30329080D01*
X-3501920Y-30310666D01*
X-3587186Y-30306028D01*
X-3627565Y-30276760D01*
X-3639828Y-30199836D01*
X-3640667Y-30120166D01*
X-3636390Y-30002701D01*
X-3614912Y-29947049D01*
X-3563262Y-29930460D01*
X-3532051Y-29929666D01*
X-3349219Y-29970918D01*
G36*
X294192Y-29473547D02*
G01*
X323998Y-29566914D01*
X376590Y-29725364D01*
X446941Y-29934012D01*
X530023Y-30177972D01*
X620811Y-30442358D01*
X647247Y-30518945D01*
X946708Y-31385463D01*
X1192279Y-30646981D01*
X1279897Y-30384996D01*
X1367259Y-30126440D01*
X1447354Y-29891873D01*
X1513172Y-29701858D01*
X1548719Y-29601583D01*
X1659589Y-29294666D01*
X2159000Y-29294666D01*
X2159000Y-31877000D01*
X1820333Y-31877000D01*
X1818182Y-30871583D01*
X1816032Y-29866166D01*
X1468932Y-30861000D01*
X1121833Y-31855833D01*
X773179Y-31881321D01*
X470859Y-31006531D01*
X380184Y-30743220D01*
X297439Y-30501174D01*
X227182Y-30293867D01*
X173972Y-30134777D01*
X142366Y-30037378D01*
X137186Y-30020120D01*
X127519Y-30028133D01*
X117261Y-30110730D01*
X107028Y-30257837D01*
X97431Y-30459380D01*
X89086Y-30705285D01*
X84666Y-30882166D01*
X63500Y-31855833D01*
X-86180Y-31868431D01*
X-194057Y-31869053D01*
X-261867Y-31854041D01*
X-266097Y-31850792D01*
X-273711Y-31802362D01*
X-280622Y-31679976D01*
X-286579Y-31494345D01*
X-291333Y-31256179D01*
X-294631Y-30976188D01*
X-296225Y-30665081D01*
X-296334Y-30557611D01*
X-296334Y-29294666D01*
X240598Y-29294666D01*
X294192Y-29473547D01*
G37*
X294192Y-29473547D02*
X323998Y-29566914D01*
X376590Y-29725364D01*
X446941Y-29934012D01*
X530023Y-30177972D01*
X620811Y-30442358D01*
X647247Y-30518945D01*
X946708Y-31385463D01*
X1192279Y-30646981D01*
X1279897Y-30384996D01*
X1367259Y-30126440D01*
X1447354Y-29891873D01*
X1513172Y-29701858D01*
X1548719Y-29601583D01*
X1659589Y-29294666D01*
X2159000Y-29294666D01*
X2159000Y-31877000D01*
X1820333Y-31877000D01*
X1818182Y-30871583D01*
X1816032Y-29866166D01*
X1468932Y-30861000D01*
X1121833Y-31855833D01*
X773179Y-31881321D01*
X470859Y-31006531D01*
X380184Y-30743220D01*
X297439Y-30501174D01*
X227182Y-30293867D01*
X173972Y-30134777D01*
X142366Y-30037378D01*
X137186Y-30020120D01*
X127519Y-30028133D01*
X117261Y-30110730D01*
X107028Y-30257837D01*
X97431Y-30459380D01*
X89086Y-30705285D01*
X84666Y-30882166D01*
X63500Y-31855833D01*
X-86180Y-31868431D01*
X-194057Y-31869053D01*
X-261867Y-31854041D01*
X-266097Y-31850792D01*
X-273711Y-31802362D01*
X-280622Y-31679976D01*
X-286579Y-31494345D01*
X-291333Y-31256179D01*
X-294631Y-30976188D01*
X-296225Y-30665081D01*
X-296334Y-30557611D01*
X-296334Y-29294666D01*
X240598Y-29294666D01*
X294192Y-29473547D01*
G36*
X7473714Y-29365320D02*
G01*
X7682314Y-29419748D01*
X7797780Y-29477423D01*
X7924029Y-29600180D01*
X8035108Y-29778994D01*
X8115428Y-29985257D01*
X8142269Y-30109583D01*
X8165010Y-30268333D01*
X7800481Y-30268333D01*
X7776354Y-30088416D01*
X7724681Y-29917536D01*
X7621945Y-29792083D01*
X7462748Y-29696260D01*
X7292525Y-29668156D01*
X7129108Y-29700758D01*
X6990327Y-29787055D01*
X6894014Y-29920034D01*
X6858000Y-30092495D01*
X6872844Y-30215542D01*
X6923802Y-30327695D01*
X7020504Y-30439299D01*
X7172585Y-30560695D01*
X7389678Y-30702226D01*
X7472590Y-30752347D01*
X7729837Y-30919361D01*
X7917575Y-31076147D01*
X8047598Y-31236121D01*
X8131696Y-31412694D01*
X8167285Y-31542560D01*
X8192533Y-31654081D01*
X8207377Y-31737738D01*
X8202037Y-31797509D01*
X8166732Y-31837370D01*
X8091681Y-31861299D01*
X7967103Y-31873273D01*
X7783216Y-31877270D01*
X7530240Y-31877267D01*
X7344833Y-31877000D01*
X6477000Y-31877000D01*
X6477000Y-31538333D01*
X7836453Y-31538333D01*
X7759976Y-31404717D01*
X7683515Y-31312249D01*
X7560875Y-31205036D01*
X7438027Y-31118967D01*
X7154210Y-30941329D01*
X6934780Y-30797952D01*
X6771105Y-30680242D01*
X6654553Y-30579604D01*
X6576493Y-30487444D01*
X6528291Y-30395166D01*
X6501316Y-30294177D01*
X6486936Y-30175881D01*
X6486582Y-30171643D01*
X6503344Y-29916427D01*
X6593526Y-29695871D01*
X6750014Y-29520190D01*
X6965693Y-29399596D01*
X7041094Y-29375627D01*
X7247793Y-29348975D01*
X7473714Y-29365320D01*
G37*
X7473714Y-29365320D02*
X7682314Y-29419748D01*
X7797780Y-29477423D01*
X7924029Y-29600180D01*
X8035108Y-29778994D01*
X8115428Y-29985257D01*
X8142269Y-30109583D01*
X8165010Y-30268333D01*
X7800481Y-30268333D01*
X7776354Y-30088416D01*
X7724681Y-29917536D01*
X7621945Y-29792083D01*
X7462748Y-29696260D01*
X7292525Y-29668156D01*
X7129108Y-29700758D01*
X6990327Y-29787055D01*
X6894014Y-29920034D01*
X6858000Y-30092495D01*
X6872844Y-30215542D01*
X6923802Y-30327695D01*
X7020504Y-30439299D01*
X7172585Y-30560695D01*
X7389678Y-30702226D01*
X7472590Y-30752347D01*
X7729837Y-30919361D01*
X7917575Y-31076147D01*
X8047598Y-31236121D01*
X8131696Y-31412694D01*
X8167285Y-31542560D01*
X8192533Y-31654081D01*
X8207377Y-31737738D01*
X8202037Y-31797509D01*
X8166732Y-31837370D01*
X8091681Y-31861299D01*
X7967103Y-31873273D01*
X7783216Y-31877270D01*
X7530240Y-31877267D01*
X7344833Y-31877000D01*
X6477000Y-31877000D01*
X6477000Y-31538333D01*
X7836453Y-31538333D01*
X7759976Y-31404717D01*
X7683515Y-31312249D01*
X7560875Y-31205036D01*
X7438027Y-31118967D01*
X7154210Y-30941329D01*
X6934780Y-30797952D01*
X6771105Y-30680242D01*
X6654553Y-30579604D01*
X6576493Y-30487444D01*
X6528291Y-30395166D01*
X6501316Y-30294177D01*
X6486936Y-30175881D01*
X6486582Y-30171643D01*
X6503344Y-29916427D01*
X6593526Y-29695871D01*
X6750014Y-29520190D01*
X6965693Y-29399596D01*
X7041094Y-29375627D01*
X7247793Y-29348975D01*
X7473714Y-29365320D01*
G36*
X15070666Y-31877000D02*
G01*
X14908388Y-31877000D01*
X14796518Y-31870236D01*
X14724907Y-31853504D01*
X14717888Y-31848777D01*
X14707459Y-31798172D01*
X14698769Y-31679476D01*
X14692609Y-31509262D01*
X14689768Y-31304100D01*
X14689666Y-31256111D01*
X14689666Y-30691666D01*
X13462000Y-30691666D01*
X13462000Y-30353000D01*
X14689666Y-30353000D01*
X14689666Y-29633333D01*
X13292666Y-29633333D01*
X13292666Y-29294666D01*
X15070666Y-29294666D01*
X15070666Y-31877000D01*
G37*
X15070666Y-31877000D02*
X14908388Y-31877000D01*
X14796518Y-31870236D01*
X14724907Y-31853504D01*
X14717888Y-31848777D01*
X14707459Y-31798172D01*
X14698769Y-31679476D01*
X14692609Y-31509262D01*
X14689768Y-31304100D01*
X14689666Y-31256111D01*
X14689666Y-30691666D01*
X13462000Y-30691666D01*
X13462000Y-30353000D01*
X14689666Y-30353000D01*
X14689666Y-29633333D01*
X13292666Y-29633333D01*
X13292666Y-29294666D01*
X15070666Y-29294666D01*
X15070666Y-31877000D01*
G36*
X-6629634Y-25559042D02*
G01*
X-6420940Y-25647341D01*
X-6272666Y-25788842D01*
X-6189628Y-25979562D01*
X-6172957Y-26124488D01*
X-6185292Y-26258852D01*
X-6233512Y-26366337D01*
X-6328205Y-26455212D01*
X-6479957Y-26533745D01*
X-6699356Y-26610205D01*
X-6850743Y-26653833D01*
X-7058439Y-26714919D01*
X-7196320Y-26767666D01*
X-7277623Y-26820190D01*
X-7315587Y-26880607D01*
X-7323667Y-26943789D01*
X-7284659Y-27062429D01*
X-7174742Y-27150793D01*
X-7004579Y-27201293D01*
X-6953679Y-27207128D01*
X-6745792Y-27198454D01*
X-6593919Y-27130234D01*
X-6490421Y-26998748D01*
X-6479944Y-26976415D01*
X-6427850Y-26884756D01*
X-6358763Y-26846404D01*
X-6256888Y-26839333D01*
X-6152576Y-26843661D01*
X-6112404Y-26868380D01*
X-6115891Y-26931089D01*
X-6121412Y-26955750D01*
X-6206261Y-27171561D01*
X-6343552Y-27352881D01*
X-6405065Y-27405694D01*
X-6554849Y-27475107D01*
X-6753566Y-27510469D01*
X-6972380Y-27511203D01*
X-7182456Y-27476735D01*
X-7323667Y-27424036D01*
X-7507063Y-27286793D01*
X-7621275Y-27102127D01*
X-7662212Y-26876763D01*
X-7662268Y-26867826D01*
X-7623007Y-26694452D01*
X-7505697Y-26552461D01*
X-7311279Y-26442758D01*
X-7171176Y-26396334D01*
X-6917239Y-26322623D01*
X-6736298Y-26258060D01*
X-6617922Y-26197353D01*
X-6551680Y-26135208D01*
X-6527500Y-26069679D01*
X-6549304Y-25959867D01*
X-6630774Y-25881090D01*
X-6752209Y-25834900D01*
X-6893905Y-25822853D01*
X-7036161Y-25846501D01*
X-7159275Y-25907400D01*
X-7243544Y-26007102D01*
X-7246316Y-26012983D01*
X-7296726Y-26085940D01*
X-7378264Y-26115768D01*
X-7458269Y-26119666D01*
X-7562922Y-26115449D01*
X-7603245Y-26091145D01*
X-7599535Y-26029278D01*
X-7593467Y-26003250D01*
X-7504784Y-25799871D01*
X-7353520Y-25650018D01*
X-7145959Y-25557959D01*
X-6893936Y-25527929D01*
X-6629634Y-25559042D01*
G37*
X-6629634Y-25559042D02*
X-6420940Y-25647341D01*
X-6272666Y-25788842D01*
X-6189628Y-25979562D01*
X-6172957Y-26124488D01*
X-6185292Y-26258852D01*
X-6233512Y-26366337D01*
X-6328205Y-26455212D01*
X-6479957Y-26533745D01*
X-6699356Y-26610205D01*
X-6850743Y-26653833D01*
X-7058439Y-26714919D01*
X-7196320Y-26767666D01*
X-7277623Y-26820190D01*
X-7315587Y-26880607D01*
X-7323667Y-26943789D01*
X-7284659Y-27062429D01*
X-7174742Y-27150793D01*
X-7004579Y-27201293D01*
X-6953679Y-27207128D01*
X-6745792Y-27198454D01*
X-6593919Y-27130234D01*
X-6490421Y-26998748D01*
X-6479944Y-26976415D01*
X-6427850Y-26884756D01*
X-6358763Y-26846404D01*
X-6256888Y-26839333D01*
X-6152576Y-26843661D01*
X-6112404Y-26868380D01*
X-6115891Y-26931089D01*
X-6121412Y-26955750D01*
X-6206261Y-27171561D01*
X-6343552Y-27352881D01*
X-6405065Y-27405694D01*
X-6554849Y-27475107D01*
X-6753566Y-27510469D01*
X-6972380Y-27511203D01*
X-7182456Y-27476735D01*
X-7323667Y-27424036D01*
X-7507063Y-27286793D01*
X-7621275Y-27102127D01*
X-7662212Y-26876763D01*
X-7662268Y-26867826D01*
X-7623007Y-26694452D01*
X-7505697Y-26552461D01*
X-7311279Y-26442758D01*
X-7171176Y-26396334D01*
X-6917239Y-26322623D01*
X-6736298Y-26258060D01*
X-6617922Y-26197353D01*
X-6551680Y-26135208D01*
X-6527500Y-26069679D01*
X-6549304Y-25959867D01*
X-6630774Y-25881090D01*
X-6752209Y-25834900D01*
X-6893905Y-25822853D01*
X-7036161Y-25846501D01*
X-7159275Y-25907400D01*
X-7243544Y-26007102D01*
X-7246316Y-26012983D01*
X-7296726Y-26085940D01*
X-7378264Y-26115768D01*
X-7458269Y-26119666D01*
X-7562922Y-26115449D01*
X-7603245Y-26091145D01*
X-7599535Y-26029278D01*
X-7593467Y-26003250D01*
X-7504784Y-25799871D01*
X-7353520Y-25650018D01*
X-7145959Y-25557959D01*
X-6893936Y-25527929D01*
X-6629634Y-25559042D01*
G36*
X-4906008Y-25542284D02*
G01*
X-4667226Y-25613269D01*
X-4461408Y-25747158D01*
X-4390697Y-25820124D01*
X-4265254Y-26028278D01*
X-4187932Y-26282200D01*
X-4160868Y-26556571D01*
X-4186197Y-26826069D01*
X-4266056Y-27065372D01*
X-4282957Y-27097253D01*
X-4434507Y-27285194D01*
X-4638198Y-27420551D01*
X-4875230Y-27496956D01*
X-5126803Y-27508036D01*
X-5347386Y-27457912D01*
X-5540607Y-27359333D01*
X-5681961Y-27217341D01*
X-5761839Y-27084436D01*
X-5822016Y-26954061D01*
X-5832205Y-26880155D01*
X-5787502Y-26847523D01*
X-5683250Y-26840964D01*
X-5563068Y-26856603D01*
X-5482807Y-26916096D01*
X-5439834Y-26976896D01*
X-5304421Y-27117904D01*
X-5127373Y-27193565D01*
X-4928413Y-27196872D01*
X-4863659Y-27181600D01*
X-4741901Y-27130327D01*
X-4662270Y-27048448D01*
X-4611994Y-26953071D01*
X-4559706Y-26836244D01*
X-4531226Y-26751351D01*
X-4535951Y-26693298D01*
X-4583280Y-26656993D01*
X-4682609Y-26637343D01*
X-4843336Y-26629256D01*
X-5074858Y-26627639D01*
X-5212469Y-26627666D01*
X-5895270Y-26627666D01*
X-5866086Y-26369718D01*
X-5843605Y-26238268D01*
X-5509322Y-26238268D01*
X-5486445Y-26288125D01*
X-5406767Y-26316089D01*
X-5261321Y-26328405D01*
X-5041141Y-26331318D01*
X-5013648Y-26331333D01*
X-4804369Y-26330839D01*
X-4666223Y-26327494D01*
X-4585676Y-26318503D01*
X-4549194Y-26301072D01*
X-4543243Y-26272405D01*
X-4552389Y-26236083D01*
X-4649191Y-26038182D01*
X-4804354Y-25900936D01*
X-4847771Y-25878019D01*
X-5025245Y-25836472D01*
X-5202634Y-25868053D01*
X-5354565Y-25965235D01*
X-5420533Y-26047889D01*
X-5484363Y-26160271D01*
X-5509322Y-26238268D01*
X-5843605Y-26238268D01*
X-5820911Y-26105573D01*
X-5747186Y-25907689D01*
X-5634860Y-25759709D01*
X-5473882Y-25645272D01*
X-5397500Y-25607011D01*
X-5156513Y-25538699D01*
X-4906008Y-25542284D01*
G37*
X-4906008Y-25542284D02*
X-4667226Y-25613269D01*
X-4461408Y-25747158D01*
X-4390697Y-25820124D01*
X-4265254Y-26028278D01*
X-4187932Y-26282200D01*
X-4160868Y-26556571D01*
X-4186197Y-26826069D01*
X-4266056Y-27065372D01*
X-4282957Y-27097253D01*
X-4434507Y-27285194D01*
X-4638198Y-27420551D01*
X-4875230Y-27496956D01*
X-5126803Y-27508036D01*
X-5347386Y-27457912D01*
X-5540607Y-27359333D01*
X-5681961Y-27217341D01*
X-5761839Y-27084436D01*
X-5822016Y-26954061D01*
X-5832205Y-26880155D01*
X-5787502Y-26847523D01*
X-5683250Y-26840964D01*
X-5563068Y-26856603D01*
X-5482807Y-26916096D01*
X-5439834Y-26976896D01*
X-5304421Y-27117904D01*
X-5127373Y-27193565D01*
X-4928413Y-27196872D01*
X-4863659Y-27181600D01*
X-4741901Y-27130327D01*
X-4662270Y-27048448D01*
X-4611994Y-26953071D01*
X-4559706Y-26836244D01*
X-4531226Y-26751351D01*
X-4535951Y-26693298D01*
X-4583280Y-26656993D01*
X-4682609Y-26637343D01*
X-4843336Y-26629256D01*
X-5074858Y-26627639D01*
X-5212469Y-26627666D01*
X-5895270Y-26627666D01*
X-5866086Y-26369718D01*
X-5843605Y-26238268D01*
X-5509322Y-26238268D01*
X-5486445Y-26288125D01*
X-5406767Y-26316089D01*
X-5261321Y-26328405D01*
X-5041141Y-26331318D01*
X-5013648Y-26331333D01*
X-4804369Y-26330839D01*
X-4666223Y-26327494D01*
X-4585676Y-26318503D01*
X-4549194Y-26301072D01*
X-4543243Y-26272405D01*
X-4552389Y-26236083D01*
X-4649191Y-26038182D01*
X-4804354Y-25900936D01*
X-4847771Y-25878019D01*
X-5025245Y-25836472D01*
X-5202634Y-25868053D01*
X-5354565Y-25965235D01*
X-5420533Y-26047889D01*
X-5484363Y-26160271D01*
X-5509322Y-26238268D01*
X-5843605Y-26238268D01*
X-5820911Y-26105573D01*
X-5747186Y-25907689D01*
X-5634860Y-25759709D01*
X-5473882Y-25645272D01*
X-5397500Y-25607011D01*
X-5156513Y-25538699D01*
X-4906008Y-25542284D01*
G36*
X3394895Y-25540898D02*
G01*
X3607542Y-25603708D01*
X3786470Y-25728755D01*
X3798385Y-25740192D01*
X3957811Y-25952112D01*
X4059941Y-26207927D01*
X4103002Y-26487609D01*
X4085219Y-26771132D01*
X4004816Y-27038467D01*
X3926164Y-27182189D01*
X3771868Y-27342242D01*
X3566470Y-27452289D01*
X3330487Y-27507487D01*
X3084434Y-27502992D01*
X2852585Y-27435678D01*
X2647868Y-27297810D01*
X2495400Y-27096517D01*
X2397783Y-26836954D01*
X2357616Y-26524277D01*
X2356721Y-26452647D01*
X2367826Y-26354714D01*
X2719800Y-26354714D01*
X2720609Y-26585366D01*
X2770572Y-26843494D01*
X2864837Y-27036823D01*
X2998648Y-27161565D01*
X3167252Y-27213934D01*
X3365898Y-27190140D01*
X3444231Y-27162041D01*
X3586181Y-27058091D01*
X3679064Y-26886223D01*
X3722151Y-26648032D01*
X3725333Y-26548042D01*
X3700058Y-26271633D01*
X3625427Y-26059050D01*
X3503228Y-25912843D01*
X3335251Y-25835565D01*
X3217333Y-25823333D01*
X3023856Y-25859833D01*
X2873583Y-25964948D01*
X2770802Y-26132101D01*
X2719800Y-26354714D01*
X2367826Y-26354714D01*
X2390552Y-26154316D01*
X2486063Y-25909729D01*
X2639990Y-25722748D01*
X2849071Y-25597233D01*
X3110043Y-25537045D01*
X3132008Y-25535244D01*
X3394895Y-25540898D01*
G37*
X3394895Y-25540898D02*
X3607542Y-25603708D01*
X3786470Y-25728755D01*
X3798385Y-25740192D01*
X3957811Y-25952112D01*
X4059941Y-26207927D01*
X4103002Y-26487609D01*
X4085219Y-26771132D01*
X4004816Y-27038467D01*
X3926164Y-27182189D01*
X3771868Y-27342242D01*
X3566470Y-27452289D01*
X3330487Y-27507487D01*
X3084434Y-27502992D01*
X2852585Y-27435678D01*
X2647868Y-27297810D01*
X2495400Y-27096517D01*
X2397783Y-26836954D01*
X2357616Y-26524277D01*
X2356721Y-26452647D01*
X2367826Y-26354714D01*
X2719800Y-26354714D01*
X2720609Y-26585366D01*
X2770572Y-26843494D01*
X2864837Y-27036823D01*
X2998648Y-27161565D01*
X3167252Y-27213934D01*
X3365898Y-27190140D01*
X3444231Y-27162041D01*
X3586181Y-27058091D01*
X3679064Y-26886223D01*
X3722151Y-26648032D01*
X3725333Y-26548042D01*
X3700058Y-26271633D01*
X3625427Y-26059050D01*
X3503228Y-25912843D01*
X3335251Y-25835565D01*
X3217333Y-25823333D01*
X3023856Y-25859833D01*
X2873583Y-25964948D01*
X2770802Y-26132101D01*
X2719800Y-26354714D01*
X2367826Y-26354714D01*
X2390552Y-26154316D01*
X2486063Y-25909729D01*
X2639990Y-25722748D01*
X2849071Y-25597233D01*
X3110043Y-25537045D01*
X3132008Y-25535244D01*
X3394895Y-25540898D01*
G36*
X5618520Y-24837447D02*
G01*
X5866675Y-24898375D01*
X5937136Y-24928519D01*
X6169710Y-25086832D01*
X6355868Y-25304716D01*
X6492286Y-25568864D01*
X6575640Y-25865966D01*
X6602608Y-26182714D01*
X6569866Y-26505800D01*
X6474091Y-26821917D01*
X6432719Y-26913101D01*
X6267739Y-27158612D01*
X6050041Y-27344281D01*
X5791197Y-27465354D01*
X5502782Y-27517079D01*
X5196369Y-27494703D01*
X5083019Y-27467344D01*
X4843238Y-27356971D01*
X4631544Y-27180266D01*
X4463533Y-26954638D01*
X4354797Y-26697494D01*
X4340342Y-26638250D01*
X4311272Y-26500666D01*
X4500547Y-26500666D01*
X4619917Y-26506163D01*
X4681617Y-26532169D01*
X4712413Y-26592956D01*
X4718877Y-26617083D01*
X4815497Y-26848499D01*
X4969947Y-27022267D01*
X5172215Y-27131362D01*
X5412291Y-27168759D01*
X5498512Y-27164127D01*
X5740719Y-27104162D01*
X5932323Y-26978336D01*
X6075207Y-26784733D01*
X6171251Y-26521436D01*
X6183750Y-26466305D01*
X6210405Y-26203339D01*
X6190040Y-25929240D01*
X6127253Y-25674206D01*
X6033182Y-25478105D01*
X5879740Y-25311798D01*
X5689328Y-25203418D01*
X5478938Y-25152653D01*
X5265561Y-25159190D01*
X5066190Y-25222717D01*
X4897817Y-25342922D01*
X4785990Y-25501032D01*
X4724939Y-25616695D01*
X4670143Y-25674483D01*
X4594485Y-25694332D01*
X4520351Y-25696333D01*
X4349255Y-25696333D01*
X4374715Y-25539442D01*
X4444620Y-25341004D01*
X4578648Y-25150256D01*
X4757841Y-24991224D01*
X4852148Y-24934333D01*
X5079288Y-24855597D01*
X5345402Y-24823245D01*
X5618520Y-24837447D01*
G37*
X5618520Y-24837447D02*
X5866675Y-24898375D01*
X5937136Y-24928519D01*
X6169710Y-25086832D01*
X6355868Y-25304716D01*
X6492286Y-25568864D01*
X6575640Y-25865966D01*
X6602608Y-26182714D01*
X6569866Y-26505800D01*
X6474091Y-26821917D01*
X6432719Y-26913101D01*
X6267739Y-27158612D01*
X6050041Y-27344281D01*
X5791197Y-27465354D01*
X5502782Y-27517079D01*
X5196369Y-27494703D01*
X5083019Y-27467344D01*
X4843238Y-27356971D01*
X4631544Y-27180266D01*
X4463533Y-26954638D01*
X4354797Y-26697494D01*
X4340342Y-26638250D01*
X4311272Y-26500666D01*
X4500547Y-26500666D01*
X4619917Y-26506163D01*
X4681617Y-26532169D01*
X4712413Y-26592956D01*
X4718877Y-26617083D01*
X4815497Y-26848499D01*
X4969947Y-27022267D01*
X5172215Y-27131362D01*
X5412291Y-27168759D01*
X5498512Y-27164127D01*
X5740719Y-27104162D01*
X5932323Y-26978336D01*
X6075207Y-26784733D01*
X6171251Y-26521436D01*
X6183750Y-26466305D01*
X6210405Y-26203339D01*
X6190040Y-25929240D01*
X6127253Y-25674206D01*
X6033182Y-25478105D01*
X5879740Y-25311798D01*
X5689328Y-25203418D01*
X5478938Y-25152653D01*
X5265561Y-25159190D01*
X5066190Y-25222717D01*
X4897817Y-25342922D01*
X4785990Y-25501032D01*
X4724939Y-25616695D01*
X4670143Y-25674483D01*
X4594485Y-25694332D01*
X4520351Y-25696333D01*
X4349255Y-25696333D01*
X4374715Y-25539442D01*
X4444620Y-25341004D01*
X4578648Y-25150256D01*
X4757841Y-24991224D01*
X4852148Y-24934333D01*
X5079288Y-24855597D01*
X5345402Y-24823245D01*
X5618520Y-24837447D01*
G36*
X-8043334Y-25315333D02*
G01*
X-8041671Y-25455931D01*
X-8030030Y-25531818D01*
X-7998433Y-25562951D01*
X-7936901Y-25569285D01*
X-7916334Y-25569333D01*
X-7831007Y-25577593D01*
X-7796010Y-25619488D01*
X-7789334Y-25717500D01*
X-7796414Y-25817047D01*
X-7832324Y-25857877D01*
X-7916334Y-25865666D01*
X-8043334Y-25865666D01*
X-8043334Y-26494349D01*
X-8047385Y-26804575D01*
X-8060773Y-27040623D01*
X-8085348Y-27212649D01*
X-8122960Y-27330811D01*
X-8175461Y-27405264D01*
X-8214337Y-27432893D01*
X-8300514Y-27457639D01*
X-8424922Y-27471284D01*
X-8554493Y-27472914D01*
X-8656158Y-27461614D01*
X-8692445Y-27446111D01*
X-8713309Y-27386741D01*
X-8720667Y-27300626D01*
X-8708504Y-27217837D01*
X-8654830Y-27181099D01*
X-8583084Y-27170098D01*
X-8445500Y-27156833D01*
X-8422158Y-25871193D01*
X-8560829Y-25857846D01*
X-8656655Y-25838920D01*
X-8694052Y-25790232D01*
X-8699500Y-25717500D01*
X-8688778Y-25628455D01*
X-8639116Y-25589517D01*
X-8561917Y-25577234D01*
X-8424334Y-25563968D01*
X-8424334Y-25061333D01*
X-8043334Y-25061333D01*
X-8043334Y-25315333D01*
G37*
X-8043334Y-25315333D02*
X-8041671Y-25455931D01*
X-8030030Y-25531818D01*
X-7998433Y-25562951D01*
X-7936901Y-25569285D01*
X-7916334Y-25569333D01*
X-7831007Y-25577593D01*
X-7796010Y-25619488D01*
X-7789334Y-25717500D01*
X-7796414Y-25817047D01*
X-7832324Y-25857877D01*
X-7916334Y-25865666D01*
X-8043334Y-25865666D01*
X-8043334Y-26494349D01*
X-8047385Y-26804575D01*
X-8060773Y-27040623D01*
X-8085348Y-27212649D01*
X-8122960Y-27330811D01*
X-8175461Y-27405264D01*
X-8214337Y-27432893D01*
X-8300514Y-27457639D01*
X-8424922Y-27471284D01*
X-8554493Y-27472914D01*
X-8656158Y-27461614D01*
X-8692445Y-27446111D01*
X-8713309Y-27386741D01*
X-8720667Y-27300626D01*
X-8708504Y-27217837D01*
X-8654830Y-27181099D01*
X-8583084Y-27170098D01*
X-8445500Y-27156833D01*
X-8422158Y-25871193D01*
X-8560829Y-25857846D01*
X-8656655Y-25838920D01*
X-8694052Y-25790232D01*
X-8699500Y-25717500D01*
X-8688778Y-25628455D01*
X-8639116Y-25589517D01*
X-8561917Y-25577234D01*
X-8424334Y-25563968D01*
X-8424334Y-25061333D01*
X-8043334Y-25061333D01*
X-8043334Y-25315333D01*
G36*
X-3503148Y-25347083D02*
G01*
X-3447307Y-25585026D01*
X-3382239Y-25864932D01*
X-3317363Y-26146178D01*
X-3277565Y-26320086D01*
X-3231816Y-26514238D01*
X-3191617Y-26672529D01*
X-3160989Y-26779976D01*
X-3143956Y-26821598D01*
X-3142972Y-26821416D01*
X-3127386Y-26777635D01*
X-3092689Y-26663847D01*
X-3042258Y-26491669D01*
X-2979471Y-26272716D01*
X-2907707Y-26018607D01*
X-2863108Y-25858995D01*
X-2599835Y-24913166D01*
X-2180732Y-24913166D01*
X-1907653Y-25900036D01*
X-1634573Y-26886906D01*
X-1499385Y-26302203D01*
X-1439693Y-26043764D01*
X-1376637Y-25770319D01*
X-1317662Y-25514180D01*
X-1270214Y-25307659D01*
X-1269547Y-25304750D01*
X-1174897Y-24892000D01*
X-967642Y-24892000D01*
X-844895Y-24895079D01*
X-787686Y-24910940D01*
X-776938Y-24949519D01*
X-784736Y-24987250D01*
X-801546Y-25051886D01*
X-836892Y-25186974D01*
X-887774Y-25381085D01*
X-951195Y-25622787D01*
X-1024157Y-25900649D01*
X-1103661Y-26203243D01*
X-1115074Y-26246666D01*
X-1421063Y-27410833D01*
X-1621130Y-27423753D01*
X-1765080Y-27421991D01*
X-1833923Y-27392369D01*
X-1839710Y-27381420D01*
X-1855897Y-27326388D01*
X-1891296Y-27201886D01*
X-1942500Y-27020035D01*
X-2006102Y-26792955D01*
X-2078696Y-26532767D01*
X-2125766Y-26363591D01*
X-2393311Y-25401016D01*
X-2671089Y-26405925D01*
X-2948868Y-27410833D01*
X-3147033Y-27423753D01*
X-3291935Y-27421540D01*
X-3360823Y-27390388D01*
X-3365531Y-27381420D01*
X-3381186Y-27327356D01*
X-3415195Y-27202413D01*
X-3464614Y-27017656D01*
X-3526502Y-26784151D01*
X-3597914Y-26512964D01*
X-3675906Y-26215159D01*
X-3684261Y-26183166D01*
X-3762974Y-25882061D01*
X-3835512Y-25605340D01*
X-3898898Y-25364304D01*
X-3950153Y-25170252D01*
X-3986300Y-25034484D01*
X-4004361Y-24968299D01*
X-4005015Y-24966083D01*
X-4006857Y-24921623D01*
X-3965400Y-24899408D01*
X-3862658Y-24892272D01*
X-3819051Y-24892000D01*
X-3610729Y-24892000D01*
X-3503148Y-25347083D01*
G37*
X-3503148Y-25347083D02*
X-3447307Y-25585026D01*
X-3382239Y-25864932D01*
X-3317363Y-26146178D01*
X-3277565Y-26320086D01*
X-3231816Y-26514238D01*
X-3191617Y-26672529D01*
X-3160989Y-26779976D01*
X-3143956Y-26821598D01*
X-3142972Y-26821416D01*
X-3127386Y-26777635D01*
X-3092689Y-26663847D01*
X-3042258Y-26491669D01*
X-2979471Y-26272716D01*
X-2907707Y-26018607D01*
X-2863108Y-25858995D01*
X-2599835Y-24913166D01*
X-2180732Y-24913166D01*
X-1907653Y-25900036D01*
X-1634573Y-26886906D01*
X-1499385Y-26302203D01*
X-1439693Y-26043764D01*
X-1376637Y-25770319D01*
X-1317662Y-25514180D01*
X-1270214Y-25307659D01*
X-1269547Y-25304750D01*
X-1174897Y-24892000D01*
X-967642Y-24892000D01*
X-844895Y-24895079D01*
X-787686Y-24910940D01*
X-776938Y-24949519D01*
X-784736Y-24987250D01*
X-801546Y-25051886D01*
X-836892Y-25186974D01*
X-887774Y-25381085D01*
X-951195Y-25622787D01*
X-1024157Y-25900649D01*
X-1103661Y-26203243D01*
X-1115074Y-26246666D01*
X-1421063Y-27410833D01*
X-1621130Y-27423753D01*
X-1765080Y-27421991D01*
X-1833923Y-27392369D01*
X-1839710Y-27381420D01*
X-1855897Y-27326388D01*
X-1891296Y-27201886D01*
X-1942500Y-27020035D01*
X-2006102Y-26792955D01*
X-2078696Y-26532767D01*
X-2125766Y-26363591D01*
X-2393311Y-25401016D01*
X-2671089Y-26405925D01*
X-2948868Y-27410833D01*
X-3147033Y-27423753D01*
X-3291935Y-27421540D01*
X-3360823Y-27390388D01*
X-3365531Y-27381420D01*
X-3381186Y-27327356D01*
X-3415195Y-27202413D01*
X-3464614Y-27017656D01*
X-3526502Y-26784151D01*
X-3597914Y-26512964D01*
X-3675906Y-26215159D01*
X-3684261Y-26183166D01*
X-3762974Y-25882061D01*
X-3835512Y-25605340D01*
X-3898898Y-25364304D01*
X-3950153Y-25170252D01*
X-3986300Y-25034484D01*
X-4004361Y-24968299D01*
X-4005015Y-24966083D01*
X-4006857Y-24921623D01*
X-3965400Y-24899408D01*
X-3862658Y-24892272D01*
X-3819051Y-24892000D01*
X-3610729Y-24892000D01*
X-3503148Y-25347083D01*
G36*
X1245453Y-25549913D02*
G01*
X1468998Y-25625132D01*
X1617700Y-25725675D01*
X1672385Y-25767569D01*
X1691318Y-25743355D01*
X1693333Y-25681727D01*
X1701624Y-25609465D01*
X1742501Y-25577339D01*
X1839968Y-25569419D01*
X1862666Y-25569333D01*
X2032000Y-25569333D01*
X2032000Y-27432000D01*
X1651000Y-27432000D01*
X1651000Y-26820158D01*
X1648162Y-26539071D01*
X1637651Y-26329103D01*
X1616467Y-26176837D01*
X1581610Y-26068855D01*
X1530082Y-25991740D01*
X1458881Y-25932073D01*
X1451360Y-25927070D01*
X1328093Y-25877682D01*
X1179433Y-25859688D01*
X1039826Y-25873568D01*
X943718Y-25919805D01*
X943548Y-25919975D01*
X890697Y-26004686D01*
X851630Y-26143801D01*
X825245Y-26345123D01*
X810437Y-26616458D01*
X806176Y-26892250D01*
X804333Y-27432000D01*
X458810Y-27432000D01*
X472866Y-26680583D01*
X481444Y-26362696D01*
X495947Y-26118012D01*
X519629Y-25935108D01*
X555749Y-25802561D01*
X607563Y-25708950D01*
X678327Y-25642851D01*
X771298Y-25592843D01*
X784618Y-25587165D01*
X1007624Y-25535645D01*
X1245453Y-25549913D01*
G37*
X1245453Y-25549913D02*
X1468998Y-25625132D01*
X1617700Y-25725675D01*
X1672385Y-25767569D01*
X1691318Y-25743355D01*
X1693333Y-25681727D01*
X1701624Y-25609465D01*
X1742501Y-25577339D01*
X1839968Y-25569419D01*
X1862666Y-25569333D01*
X2032000Y-25569333D01*
X2032000Y-27432000D01*
X1651000Y-27432000D01*
X1651000Y-26820158D01*
X1648162Y-26539071D01*
X1637651Y-26329103D01*
X1616467Y-26176837D01*
X1581610Y-26068855D01*
X1530082Y-25991740D01*
X1458881Y-25932073D01*
X1451360Y-25927070D01*
X1328093Y-25877682D01*
X1179433Y-25859688D01*
X1039826Y-25873568D01*
X943718Y-25919805D01*
X943548Y-25919975D01*
X890697Y-26004686D01*
X851630Y-26143801D01*
X825245Y-26345123D01*
X810437Y-26616458D01*
X806176Y-26892250D01*
X804333Y-27432000D01*
X458810Y-27432000D01*
X472866Y-26680583D01*
X481444Y-26362696D01*
X495947Y-26118012D01*
X519629Y-25935108D01*
X555749Y-25802561D01*
X607563Y-25708950D01*
X678327Y-25642851D01*
X771298Y-25592843D01*
X784618Y-25587165D01*
X1007624Y-25535645D01*
X1245453Y-25549913D01*
G36*
X7323666Y-27432000D02*
G01*
X6942666Y-27432000D01*
X6942666Y-27051000D01*
X7323666Y-27051000D01*
X7323666Y-27432000D01*
G37*
X7323666Y-27432000D02*
X6942666Y-27432000D01*
X6942666Y-27051000D01*
X7323666Y-27051000D01*
X7323666Y-27432000D01*
G36*
X8297333Y-27432000D02*
G01*
X7916333Y-27432000D01*
X7916333Y-27051000D01*
X8297333Y-27051000D01*
X8297333Y-27432000D01*
G37*
X8297333Y-27432000D02*
X7916333Y-27432000D01*
X7916333Y-27051000D01*
X8297333Y-27051000D01*
X8297333Y-27432000D01*
G36*
X7308218Y-25664583D02*
G01*
X7294584Y-26012020D01*
X7281662Y-26283921D01*
X7268096Y-26489394D01*
X7252529Y-26637545D01*
X7233603Y-26737479D01*
X7209963Y-26798304D01*
X7180252Y-26829125D01*
X7143113Y-26839049D01*
X7133200Y-26839333D01*
X7065959Y-26822240D01*
X7027600Y-26756271D01*
X7010767Y-26680583D01*
X7000653Y-26588489D01*
X6989215Y-26428243D01*
X6977376Y-26216330D01*
X6966058Y-25969234D01*
X6956298Y-25706916D01*
X6929472Y-24892000D01*
X7336958Y-24892000D01*
X7308218Y-25664583D01*
G37*
X7308218Y-25664583D02*
X7294584Y-26012020D01*
X7281662Y-26283921D01*
X7268096Y-26489394D01*
X7252529Y-26637545D01*
X7233603Y-26737479D01*
X7209963Y-26798304D01*
X7180252Y-26829125D01*
X7143113Y-26839049D01*
X7133200Y-26839333D01*
X7065959Y-26822240D01*
X7027600Y-26756271D01*
X7010767Y-26680583D01*
X7000653Y-26588489D01*
X6989215Y-26428243D01*
X6977376Y-26216330D01*
X6966058Y-25969234D01*
X6956298Y-25706916D01*
X6929472Y-24892000D01*
X7336958Y-24892000D01*
X7308218Y-25664583D01*
G36*
X8283191Y-25685750D02*
G01*
X8270609Y-26030180D01*
X8258225Y-26299106D01*
X8244640Y-26501675D01*
X8228453Y-26647034D01*
X8208267Y-26744329D01*
X8182683Y-26802709D01*
X8150301Y-26831320D01*
X8109723Y-26839309D01*
X8106764Y-26839333D01*
X8047146Y-26827324D01*
X8012523Y-26777159D01*
X7990184Y-26667628D01*
X7986266Y-26638250D01*
X7976283Y-26530134D01*
X7964647Y-26355664D01*
X7952379Y-26133108D01*
X7940502Y-25880735D01*
X7931781Y-25664583D01*
X7903041Y-24892000D01*
X8310279Y-24892000D01*
X8283191Y-25685750D01*
G37*
X8283191Y-25685750D02*
X8270609Y-26030180D01*
X8258225Y-26299106D01*
X8244640Y-26501675D01*
X8228453Y-26647034D01*
X8208267Y-26744329D01*
X8182683Y-26802709D01*
X8150301Y-26831320D01*
X8109723Y-26839309D01*
X8106764Y-26839333D01*
X8047146Y-26827324D01*
X8012523Y-26777159D01*
X7990184Y-26667628D01*
X7986266Y-26638250D01*
X7976283Y-26530134D01*
X7964647Y-26355664D01*
X7952379Y-26133108D01*
X7940502Y-25880735D01*
X7931781Y-25664583D01*
X7903041Y-24892000D01*
X8310279Y-24892000D01*
X8283191Y-25685750D01*
M02*
