G04 #@! TF.GenerationSoftware,KiCad,Pcbnew,(5.1.5-0)*
G04 #@! TF.CreationDate,2019-12-30T00:03:19-08:00*
G04 #@! TF.ProjectId,badge,62616467-652e-46b6-9963-61645f706362,rev?*
G04 #@! TF.SameCoordinates,Original*
G04 #@! TF.FileFunction,Copper,L1,Top*
G04 #@! TF.FilePolarity,Positive*
%FSLAX46Y46*%
G04 Gerber Fmt 4.6, Leading zero omitted, Abs format (unit mm)*
G04 Created by KiCad (PCBNEW (5.1.5-0)) date 2019-12-30 00:03:19*
%MOMM*%
%LPD*%
G04 APERTURE LIST*
%ADD10C,0.010000*%
%ADD11C,0.600000*%
G04 APERTURE END LIST*
D10*
G36*
X3326460Y7266988D02*
G01*
X3353861Y7252454D01*
X3527881Y7109468D01*
X3679358Y6894046D01*
X3808826Y6604462D01*
X3916821Y6238988D01*
X4003877Y5795895D01*
X4070529Y5273457D01*
X4108217Y4817041D01*
X4129474Y4392315D01*
X4129304Y4030373D01*
X4103962Y3711201D01*
X4049699Y3414782D01*
X3962770Y3121102D01*
X3839428Y2810145D01*
X3675927Y2461896D01*
X3662165Y2434167D01*
X3313948Y1828691D01*
X2893547Y1262761D01*
X2405245Y739576D01*
X1853324Y262332D01*
X1242068Y-165772D01*
X575758Y-541539D01*
X-141322Y-861772D01*
X-904889Y-1123272D01*
X-1218309Y-1209666D01*
X-1472768Y-1269582D01*
X-1728569Y-1319958D01*
X-1971002Y-1358926D01*
X-2185357Y-1384617D01*
X-2356924Y-1395160D01*
X-2470993Y-1388688D01*
X-2508250Y-1373572D01*
X-2533343Y-1331223D01*
X-2521763Y-1285179D01*
X-2465647Y-1229631D01*
X-2357136Y-1158767D01*
X-2188367Y-1066779D01*
X-1951481Y-947858D01*
X-1894417Y-919930D01*
X-1338409Y-620675D01*
X-857230Y-299433D01*
X-442180Y51939D01*
X-84561Y441587D01*
X224326Y877656D01*
X444525Y1270000D01*
X559737Y1513852D01*
X651734Y1750997D01*
X722649Y1994689D01*
X774620Y2258185D01*
X809781Y2554740D01*
X830268Y2897610D01*
X838215Y3300050D01*
X836646Y3704167D01*
X833939Y4036198D01*
X834644Y4293592D01*
X839200Y4486329D01*
X848045Y4624387D01*
X861618Y4717745D01*
X880358Y4776381D01*
X884119Y4783667D01*
X933580Y4850739D01*
X1030445Y4964439D01*
X1162614Y5111169D01*
X1317987Y5277327D01*
X1392593Y5355167D01*
X1564106Y5536751D01*
X1712413Y5704805D01*
X1849348Y5875187D01*
X1986745Y6063756D01*
X2136437Y6286373D01*
X2310258Y6558894D01*
X2408893Y6717177D01*
X2590777Y6968876D01*
X2779893Y7153342D01*
X2969824Y7266939D01*
X3154152Y7306033D01*
X3326460Y7266988D01*
G37*
X3326460Y7266988D02*
X3353861Y7252454D01*
X3527881Y7109468D01*
X3679358Y6894046D01*
X3808826Y6604462D01*
X3916821Y6238988D01*
X4003877Y5795895D01*
X4070529Y5273457D01*
X4108217Y4817041D01*
X4129474Y4392315D01*
X4129304Y4030373D01*
X4103962Y3711201D01*
X4049699Y3414782D01*
X3962770Y3121102D01*
X3839428Y2810145D01*
X3675927Y2461896D01*
X3662165Y2434167D01*
X3313948Y1828691D01*
X2893547Y1262761D01*
X2405245Y739576D01*
X1853324Y262332D01*
X1242068Y-165772D01*
X575758Y-541539D01*
X-141322Y-861772D01*
X-904889Y-1123272D01*
X-1218309Y-1209666D01*
X-1472768Y-1269582D01*
X-1728569Y-1319958D01*
X-1971002Y-1358926D01*
X-2185357Y-1384617D01*
X-2356924Y-1395160D01*
X-2470993Y-1388688D01*
X-2508250Y-1373572D01*
X-2533343Y-1331223D01*
X-2521763Y-1285179D01*
X-2465647Y-1229631D01*
X-2357136Y-1158767D01*
X-2188367Y-1066779D01*
X-1951481Y-947858D01*
X-1894417Y-919930D01*
X-1338409Y-620675D01*
X-857230Y-299433D01*
X-442180Y51939D01*
X-84561Y441587D01*
X224326Y877656D01*
X444525Y1270000D01*
X559737Y1513852D01*
X651734Y1750997D01*
X722649Y1994689D01*
X774620Y2258185D01*
X809781Y2554740D01*
X830268Y2897610D01*
X838215Y3300050D01*
X836646Y3704167D01*
X833939Y4036198D01*
X834644Y4293592D01*
X839200Y4486329D01*
X848045Y4624387D01*
X861618Y4717745D01*
X880358Y4776381D01*
X884119Y4783667D01*
X933580Y4850739D01*
X1030445Y4964439D01*
X1162614Y5111169D01*
X1317987Y5277327D01*
X1392593Y5355167D01*
X1564106Y5536751D01*
X1712413Y5704805D01*
X1849348Y5875187D01*
X1986745Y6063756D01*
X2136437Y6286373D01*
X2310258Y6558894D01*
X2408893Y6717177D01*
X2590777Y6968876D01*
X2779893Y7153342D01*
X2969824Y7266939D01*
X3154152Y7306033D01*
X3326460Y7266988D01*
D11*
X1473200Y38709600D03*
M02*
