%FSLAX45Y45*%
G04 Gerber Fmt 4.5, Leading zero omitted, Abs format (unit mm)*
G04 Created by KiCad (PCBNEW (5.1.5-0)) date 2019-12-28 15:25:19*
%MOMM*%
%LPD*%
G04 APERTURE LIST*
%TA.AperFunction,Profile*%
%ADD10C,0.100000*%
%TD*%
%ADD11C,0.200000*%
%ADD12C,0.300000*%
G04 APERTURE END LIST*
D10*
X1264898Y-2262234D02*
X1223626Y-2238987D01*
X1223626Y-2238987D02*
X1184695Y-2214783D01*
X1184695Y-2214783D02*
X1106005Y-2162221D01*
X1106005Y-2162221D02*
X1025398Y-2101215D01*
X1025398Y-2101215D02*
X949059Y-2036479D01*
X949059Y-2036479D02*
X913672Y-2003557D01*
X913672Y-2003557D02*
X880770Y-1970716D01*
X880770Y-1970716D02*
X850825Y-1938294D01*
X850825Y-1938294D02*
X824311Y-1906630D01*
X824311Y-1906630D02*
X748123Y-1804128D01*
X748123Y-1804128D02*
X657765Y-1675113D01*
X657765Y-1675113D02*
X619802Y-1620523D01*
X619802Y-1620523D02*
X583092Y-1570424D01*
X583092Y-1570424D02*
X547552Y-1524757D01*
X547552Y-1524757D02*
X513098Y-1483461D01*
X513098Y-1483461D02*
X479648Y-1446474D01*
X479648Y-1446474D02*
X447119Y-1413738D01*
X447119Y-1413738D02*
X415429Y-1385190D01*
X415429Y-1385190D02*
X384494Y-1360771D01*
X384494Y-1360771D02*
X354231Y-1340419D01*
X354231Y-1340419D02*
X324559Y-1324075D01*
X324559Y-1324075D02*
X295394Y-1311678D01*
X295394Y-1311678D02*
X266653Y-1303167D01*
X266653Y-1303167D02*
X238253Y-1298481D01*
X238253Y-1298481D02*
X210113Y-1297561D01*
X210113Y-1297561D02*
X182148Y-1300345D01*
X182148Y-1300345D02*
X154277Y-1306773D01*
X154277Y-1306773D02*
X122602Y-1317345D01*
X122602Y-1317345D02*
X92328Y-1330813D01*
X92328Y-1330813D02*
X60679Y-1349326D01*
X60679Y-1349326D02*
X24878Y-1375032D01*
X24878Y-1375032D02*
X-17851Y-1410078D01*
X-17851Y-1410078D02*
X-70286Y-1456613D01*
X-70286Y-1456613D02*
X-215378Y-1592741D01*
X-215378Y-1592741D02*
X-304476Y-1676455D01*
X-304476Y-1676455D02*
X-386291Y-1750650D01*
X-386291Y-1750650D02*
X-462427Y-1816598D01*
X-462427Y-1816598D02*
X-534491Y-1875571D01*
X-534491Y-1875571D02*
X-604090Y-1928844D01*
X-604090Y-1928844D02*
X-672830Y-1977688D01*
X-672830Y-1977688D02*
X-742317Y-2023376D01*
X-742317Y-2023376D02*
X-814157Y-2067181D01*
X-814157Y-2067181D02*
X-925124Y-2129613D01*
X-925124Y-2129613D02*
X-976979Y-2156429D01*
X-976979Y-2156429D02*
X-1026719Y-2180397D01*
X-1026719Y-2180397D02*
X-1074570Y-2201580D01*
X-1074570Y-2201580D02*
X-1120761Y-2220041D01*
X-1120761Y-2220041D02*
X-1156328Y-2231396D01*
X-1156328Y-2231396D02*
X-1183853Y-2243305D01*
X-1183853Y-2243305D02*
X-1203690Y-2255425D01*
X-1203690Y-2255425D02*
X-1216192Y-2267410D01*
X-1216192Y-2267410D02*
X-1221712Y-2278915D01*
X-1221712Y-2278915D02*
X-1221962Y-2284380D01*
X-1221962Y-2284380D02*
X-1220601Y-2289595D01*
X-1220601Y-2289595D02*
X-1213217Y-2299105D01*
X-1213217Y-2299105D02*
X-1199911Y-2307101D01*
X-1199911Y-2307101D02*
X-928023Y-2310313D01*
X-928023Y-2310313D02*
X-641120Y-2311303D01*
X-641120Y-2311303D02*
X-32524Y-2309507D01*
X-32524Y-2309507D02*
X605371Y-2307522D01*
X605371Y-2307522D02*
X928896Y-2308272D01*
X928896Y-2308272D02*
X1252055Y-2311153D01*
X1252055Y-2311153D02*
X1287081Y-2310127D01*
X1287081Y-2310127D02*
X1308711Y-2307440D01*
X1308711Y-2307440D02*
X1318867Y-2303196D01*
X1318867Y-2303196D02*
X1320244Y-2300522D01*
X1320244Y-2300522D02*
X1319474Y-2297498D01*
X1319474Y-2297498D02*
X1312457Y-2290450D01*
X1312457Y-2290450D02*
X1299739Y-2282154D01*
X1299739Y-2282154D02*
X1264900Y-2262233D01*
X1264900Y-2262233D02*
X1264898Y-2262234D01*
X3388826Y-3830113D02*
X-3356284Y-3830113D01*
X-3356284Y-3830113D02*
X-3356284Y-2307877D01*
X-3356284Y-2307877D02*
X-1609710Y-2309430D01*
X-1609710Y-2309430D02*
X-1642491Y-2269960D01*
X-1642491Y-2269960D02*
X-1653318Y-2244153D01*
X-1653318Y-2244153D02*
X-1685105Y-2233143D01*
X-1685105Y-2233143D02*
X-1714184Y-2220686D01*
X-1714184Y-2220686D02*
X-1740590Y-2206754D01*
X-1740590Y-2206754D02*
X-1764354Y-2191316D01*
X-1764354Y-2191316D02*
X-1785509Y-2174345D01*
X-1785509Y-2174345D02*
X-1804087Y-2155811D01*
X-1804087Y-2155811D02*
X-1820122Y-2135684D01*
X-1820122Y-2135684D02*
X-1833645Y-2113936D01*
X-1833645Y-2113936D02*
X-1844689Y-2090538D01*
X-1844689Y-2090538D02*
X-1853287Y-2065461D01*
X-1853287Y-2065461D02*
X-1859472Y-2038675D01*
X-1859472Y-2038675D02*
X-1863275Y-2010152D01*
X-1863275Y-2010152D02*
X-1864730Y-1979862D01*
X-1864730Y-1979862D02*
X-1863850Y-1938444D01*
X-1863850Y-1938444D02*
X-1862086Y-1921166D01*
X-1862086Y-1921166D02*
X-1859137Y-1905961D01*
X-1859137Y-1905961D02*
X-1854777Y-1892668D01*
X-1854777Y-1892668D02*
X-1848779Y-1881126D01*
X-1848779Y-1881126D02*
X-1840917Y-1871174D01*
X-1840917Y-1871174D02*
X-1830964Y-1862652D01*
X-1830964Y-1862652D02*
X-1818694Y-1855399D01*
X-1818694Y-1855399D02*
X-1803881Y-1849254D01*
X-1803881Y-1849254D02*
X-1786296Y-1844056D01*
X-1786296Y-1844056D02*
X-1765716Y-1839645D01*
X-1765716Y-1839645D02*
X-1714657Y-1832539D01*
X-1714657Y-1832539D02*
X-1648894Y-1826649D01*
X-1648894Y-1826649D02*
X-1568190Y-1818693D01*
X-1568190Y-1818693D02*
X-1505116Y-1808132D01*
X-1505116Y-1808132D02*
X-1478327Y-1801468D01*
X-1478327Y-1801468D02*
X-1453709Y-1793663D01*
X-1453709Y-1793663D02*
X-1430517Y-1784556D01*
X-1430517Y-1784556D02*
X-1408006Y-1773982D01*
X-1408006Y-1773982D02*
X-1368134Y-1750021D01*
X-1368134Y-1750021D02*
X-1317115Y-1713822D01*
X-1317115Y-1713822D02*
X-1259033Y-1668843D01*
X-1259033Y-1668843D02*
X-1197971Y-1618542D01*
X-1197971Y-1618542D02*
X-1138012Y-1566375D01*
X-1138012Y-1566375D02*
X-1083239Y-1515800D01*
X-1083239Y-1515800D02*
X-1037736Y-1470275D01*
X-1037736Y-1470275D02*
X-1005586Y-1433256D01*
X-1005586Y-1433256D02*
X-975507Y-1389450D01*
X-975507Y-1389450D02*
X-951301Y-1345040D01*
X-951301Y-1345040D02*
X-933155Y-1300926D01*
X-933155Y-1300926D02*
X-921256Y-1258008D01*
X-921256Y-1258008D02*
X-917707Y-1237279D01*
X-917707Y-1237279D02*
X-915790Y-1217187D01*
X-915790Y-1217187D02*
X-915530Y-1197844D01*
X-915530Y-1197844D02*
X-916946Y-1179363D01*
X-916946Y-1179363D02*
X-920064Y-1161856D01*
X-920064Y-1161856D02*
X-924907Y-1145436D01*
X-924907Y-1145436D02*
X-931498Y-1130216D01*
X-931498Y-1130216D02*
X-939861Y-1116307D01*
X-939861Y-1116307D02*
X-948784Y-1105213D01*
X-948784Y-1105213D02*
X-958825Y-1096013D01*
X-958825Y-1096013D02*
X-970165Y-1088739D01*
X-970165Y-1088739D02*
X-982985Y-1083424D01*
X-982985Y-1083424D02*
X-997470Y-1080100D01*
X-997470Y-1080100D02*
X-1013799Y-1078800D01*
X-1013799Y-1078800D02*
X-1032156Y-1079560D01*
X-1032156Y-1079560D02*
X-1052722Y-1082406D01*
X-1052722Y-1082406D02*
X-1101212Y-1094498D01*
X-1101212Y-1094498D02*
X-1160724Y-1115341D01*
X-1160724Y-1115341D02*
X-1232716Y-1145195D01*
X-1232716Y-1145195D02*
X-1318643Y-1184323D01*
X-1318643Y-1184323D02*
X-1413730Y-1227515D01*
X-1413730Y-1227515D02*
X-1508693Y-1268132D01*
X-1508693Y-1268132D02*
X-1592521Y-1301611D01*
X-1592521Y-1301611D02*
X-1654203Y-1323388D01*
X-1654203Y-1323388D02*
X-1696900Y-1335164D01*
X-1696900Y-1335164D02*
X-1740274Y-1344545D01*
X-1740274Y-1344545D02*
X-1784152Y-1351553D01*
X-1784152Y-1351553D02*
X-1828357Y-1356212D01*
X-1828357Y-1356212D02*
X-1872715Y-1358543D01*
X-1872715Y-1358543D02*
X-1917051Y-1358570D01*
X-1917051Y-1358570D02*
X-1961190Y-1356315D01*
X-1961190Y-1356315D02*
X-2004957Y-1351800D01*
X-2004957Y-1351800D02*
X-2048177Y-1345049D01*
X-2048177Y-1345049D02*
X-2090675Y-1336084D01*
X-2090675Y-1336084D02*
X-2132275Y-1324923D01*
X-2132275Y-1324923D02*
X-2172804Y-1311597D01*
X-2172804Y-1311597D02*
X-2212086Y-1296126D01*
X-2212086Y-1296126D02*
X-2249946Y-1278531D01*
X-2249946Y-1278531D02*
X-2286208Y-1258836D01*
X-2286208Y-1258836D02*
X-2320699Y-1237063D01*
X-2320699Y-1237063D02*
X-2369653Y-1199034D01*
X-2369653Y-1199034D02*
X-2442860Y-1136334D01*
X-2442860Y-1136334D02*
X-2530420Y-1057669D01*
X-2530420Y-1057669D02*
X-2622430Y-971744D01*
X-2622430Y-971744D02*
X-2715821Y-884183D01*
X-2715821Y-884183D02*
X-2807138Y-801060D01*
X-2807138Y-801060D02*
X-2885908Y-731762D01*
X-2885908Y-731762D02*
X-2941655Y-685675D01*
X-2941655Y-685675D02*
X-2990091Y-647281D01*
X-2990091Y-647281D02*
X-3029933Y-613018D01*
X-3029933Y-613018D02*
X-3061839Y-582028D01*
X-3061839Y-582028D02*
X-3086466Y-553453D01*
X-3086466Y-553453D02*
X-3104475Y-526434D01*
X-3104475Y-526434D02*
X-3116523Y-500112D01*
X-3116523Y-500112D02*
X-3123269Y-473629D01*
X-3123269Y-473629D02*
X-3125371Y-446125D01*
X-3125371Y-446125D02*
X-3123297Y-414078D01*
X-3123297Y-414078D02*
X-3120434Y-400935D01*
X-3120434Y-400935D02*
X-3116115Y-389187D01*
X-3116115Y-389187D02*
X-3110158Y-378439D01*
X-3110158Y-378439D02*
X-3102385Y-368299D01*
X-3102385Y-368299D02*
X-3080667Y-348261D01*
X-3080667Y-348261D02*
X-3066861Y-338004D01*
X-3066861Y-338004D02*
X-3053963Y-330150D01*
X-3053963Y-330150D02*
X-3040949Y-324522D01*
X-3040949Y-324522D02*
X-3026800Y-320942D01*
X-3026800Y-320942D02*
X-3010495Y-319233D01*
X-3010495Y-319233D02*
X-2991011Y-319218D01*
X-2991011Y-319218D02*
X-2938427Y-323558D01*
X-2938427Y-323558D02*
X-2888629Y-331382D01*
X-2888629Y-331382D02*
X-2838314Y-344170D01*
X-2838314Y-344170D02*
X-2787299Y-362011D01*
X-2787299Y-362011D02*
X-2735401Y-384994D01*
X-2735401Y-384994D02*
X-2682438Y-413210D01*
X-2682438Y-413210D02*
X-2628225Y-446747D01*
X-2628225Y-446747D02*
X-2572581Y-485695D01*
X-2572581Y-485695D02*
X-2515322Y-530143D01*
X-2515322Y-530143D02*
X-2454654Y-578359D01*
X-2454654Y-578359D02*
X-2400818Y-618626D01*
X-2400818Y-618626D02*
X-2352387Y-651737D01*
X-2352387Y-651737D02*
X-2307930Y-678485D01*
X-2307930Y-678485D02*
X-2266020Y-699663D01*
X-2266020Y-699663D02*
X-2225227Y-716064D01*
X-2225227Y-716064D02*
X-2184123Y-728480D01*
X-2184123Y-728480D02*
X-2141280Y-737704D01*
X-2141280Y-737704D02*
X-2107888Y-742696D01*
X-2107888Y-742696D02*
X-2074759Y-745698D01*
X-2074759Y-745698D02*
X-2041903Y-746714D01*
X-2041903Y-746714D02*
X-2009330Y-745744D01*
X-2009330Y-745744D02*
X-1977049Y-742798D01*
X-1977049Y-742798D02*
X-1945071Y-737875D01*
X-1945071Y-737875D02*
X-1913404Y-730978D01*
X-1913404Y-730978D02*
X-1882059Y-722111D01*
X-1882059Y-722111D02*
X-1851046Y-711276D01*
X-1851046Y-711276D02*
X-1820374Y-698477D01*
X-1820374Y-698477D02*
X-1790052Y-683717D01*
X-1790052Y-683717D02*
X-1760091Y-666998D01*
X-1760091Y-666998D02*
X-1730501Y-648324D01*
X-1730501Y-648324D02*
X-1701291Y-627698D01*
X-1701291Y-627698D02*
X-1672470Y-605123D01*
X-1672470Y-605123D02*
X-1644049Y-580601D01*
X-1644049Y-580601D02*
X-1619604Y-557048D01*
X-1619604Y-557048D02*
X-1599616Y-534992D01*
X-1599616Y-534992D02*
X-1586144Y-516904D01*
X-1586144Y-516904D02*
X-1582496Y-510121D01*
X-1582496Y-510121D02*
X-1581250Y-505258D01*
X-1581250Y-505258D02*
X-1583526Y-500648D01*
X-1583526Y-500648D02*
X-1589970Y-494591D01*
X-1589970Y-494591D02*
X-1613566Y-479169D01*
X-1613566Y-479169D02*
X-1648435Y-461057D01*
X-1648435Y-461057D02*
X-1690978Y-442321D01*
X-1690978Y-442321D02*
X-1738321Y-422080D01*
X-1738321Y-422080D02*
X-1786482Y-399539D01*
X-1786482Y-399539D02*
X-1835275Y-374830D01*
X-1835275Y-374830D02*
X-1884509Y-348086D01*
X-1884509Y-348086D02*
X-1983548Y-289021D01*
X-1983548Y-289021D02*
X-2082089Y-223403D01*
X-2082089Y-223403D02*
X-2178620Y-152290D01*
X-2178620Y-152290D02*
X-2271632Y-76741D01*
X-2271632Y-76741D02*
X-2316346Y-37635D01*
X-2316346Y-37635D02*
X-2359614Y2184D01*
X-2359614Y2184D02*
X-2401246Y42582D01*
X-2401246Y42582D02*
X-2441055Y83428D01*
X-2441055Y83428D02*
X-2495378Y143088D01*
X-2495378Y143088D02*
X-2547379Y204795D01*
X-2547379Y204795D02*
X-2596995Y268422D01*
X-2596995Y268422D02*
X-2644162Y333841D01*
X-2644162Y333841D02*
X-2688818Y400924D01*
X-2688818Y400924D02*
X-2730900Y469544D01*
X-2730900Y469544D02*
X-2770346Y539572D01*
X-2770346Y539572D02*
X-2807092Y610882D01*
X-2807092Y610882D02*
X-2841075Y683345D01*
X-2841075Y683345D02*
X-2872234Y756833D01*
X-2872234Y756833D02*
X-2900504Y831220D01*
X-2900504Y831220D02*
X-2925824Y906377D01*
X-2925824Y906377D02*
X-2948129Y982177D01*
X-2948129Y982177D02*
X-2967359Y1058492D01*
X-2967359Y1058492D02*
X-2983449Y1135195D01*
X-2983449Y1135195D02*
X-2996337Y1212157D01*
X-2996337Y1212157D02*
X-3001001Y1250523D01*
X-3001001Y1250523D02*
X-3004652Y1294309D01*
X-3004652Y1294309D02*
X-3009015Y1395345D01*
X-3009015Y1395345D02*
X-3009635Y1509676D01*
X-3009635Y1509676D02*
X-3006719Y1631715D01*
X-3006719Y1631715D02*
X-3000475Y1755874D01*
X-3000475Y1755874D02*
X-2991111Y1876565D01*
X-2991111Y1876565D02*
X-2978836Y1988200D01*
X-2978836Y1988200D02*
X-2963857Y2085192D01*
X-2963857Y2085192D02*
X-2944978Y2180442D01*
X-2944978Y2180442D02*
X-2924618Y2268225D01*
X-2924618Y2268225D02*
X-2901537Y2352101D01*
X-2901537Y2352101D02*
X-2874496Y2435633D01*
X-2874496Y2435633D02*
X-2842255Y2522380D01*
X-2842255Y2522380D02*
X-2803574Y2615903D01*
X-2803574Y2615903D02*
X-2757214Y2719763D01*
X-2757214Y2719763D02*
X-2701934Y2837521D01*
X-2701934Y2837521D02*
X-2638598Y2971475D01*
X-2638598Y2971475D02*
X-2590228Y3078541D01*
X-2590228Y3078541D02*
X-2555229Y3164522D01*
X-2555229Y3164522D02*
X-2542246Y3201419D01*
X-2542246Y3201419D02*
X-2532006Y3235221D01*
X-2532006Y3235221D02*
X-2524312Y3266653D01*
X-2524312Y3266653D02*
X-2518963Y3296441D01*
X-2518963Y3296441D02*
X-2515760Y3325310D01*
X-2515760Y3325310D02*
X-2514504Y3353985D01*
X-2514504Y3353985D02*
X-2514994Y3383192D01*
X-2514994Y3383192D02*
X-2517034Y3413656D01*
X-2517034Y3413656D02*
X-2524960Y3481256D01*
X-2524960Y3481256D02*
X-2533680Y3553727D01*
X-2533680Y3553727D02*
X-2537096Y3607408D01*
X-2537096Y3607408D02*
X-2535266Y3645613D01*
X-2535266Y3645613D02*
X-2532401Y3659946D01*
X-2532401Y3659946D02*
X-2528246Y3671652D01*
X-2528246Y3671652D02*
X-2516875Y3689592D01*
X-2516875Y3689592D02*
X-2500017Y3706622D01*
X-2500017Y3706622D02*
X-2478618Y3722286D01*
X-2478618Y3722286D02*
X-2453626Y3736125D01*
X-2453626Y3736125D02*
X-2425986Y3747685D01*
X-2425986Y3747685D02*
X-2396645Y3756507D01*
X-2396645Y3756507D02*
X-2366550Y3762136D01*
X-2366550Y3762136D02*
X-2336648Y3764113D01*
X-2336648Y3764113D02*
X-2318832Y3762963D01*
X-2318832Y3762963D02*
X-2301397Y3759562D01*
X-2301397Y3759562D02*
X-2284369Y3753984D01*
X-2284369Y3753984D02*
X-2267771Y3746301D01*
X-2267771Y3746301D02*
X-2251628Y3736588D01*
X-2251628Y3736588D02*
X-2235963Y3724919D01*
X-2235963Y3724919D02*
X-2220801Y3711366D01*
X-2220801Y3711366D02*
X-2206167Y3696003D01*
X-2206167Y3696003D02*
X-2178578Y3660142D01*
X-2178578Y3660142D02*
X-2153389Y3617924D01*
X-2153389Y3617924D02*
X-2130796Y3569938D01*
X-2130796Y3569938D02*
X-2110992Y3516772D01*
X-2110992Y3516772D02*
X-2094172Y3459014D01*
X-2094172Y3459014D02*
X-2080529Y3397253D01*
X-2080529Y3397253D02*
X-2070259Y3332077D01*
X-2070259Y3332077D02*
X-2063555Y3264074D01*
X-2063555Y3264074D02*
X-2060612Y3193833D01*
X-2060612Y3193833D02*
X-2061624Y3121942D01*
X-2061624Y3121942D02*
X-2066785Y3048989D01*
X-2066785Y3048989D02*
X-2076289Y2975562D01*
X-2076289Y2975562D02*
X-2091984Y2890690D01*
X-2091984Y2890690D02*
X-2115528Y2779671D01*
X-2115528Y2779671D02*
X-2143736Y2656904D01*
X-2143736Y2656904D02*
X-2173420Y2536786D01*
X-2173420Y2536786D02*
X-2211230Y2383891D01*
X-2211230Y2383891D02*
X-2241409Y2247393D01*
X-2241409Y2247393D02*
X-2264294Y2124390D01*
X-2264294Y2124390D02*
X-2280221Y2011978D01*
X-2280221Y2011978D02*
X-2289529Y1907255D01*
X-2289529Y1907255D02*
X-2291806Y1856870D01*
X-2291806Y1856870D02*
X-2292556Y1807319D01*
X-2292556Y1807319D02*
X-2289636Y1709266D01*
X-2289636Y1709266D02*
X-2281109Y1610194D01*
X-2281109Y1610194D02*
X-2272340Y1539415D01*
X-2272340Y1539415D02*
X-2262306Y1474584D01*
X-2262306Y1474584D02*
X-2250532Y1413896D01*
X-2250532Y1413896D02*
X-2236541Y1355549D01*
X-2236541Y1355549D02*
X-2219856Y1297736D01*
X-2219856Y1297736D02*
X-2200001Y1238656D01*
X-2200001Y1238656D02*
X-2176499Y1176503D01*
X-2176499Y1176503D02*
X-2148875Y1109475D01*
X-2148875Y1109475D02*
X-2114577Y1031682D01*
X-2114577Y1031682D02*
X-2081702Y963603D01*
X-2081702Y963603D02*
X-2048654Y902853D01*
X-2048654Y902853D02*
X-2013834Y847044D01*
X-2013834Y847044D02*
X-1975645Y793789D01*
X-1975645Y793789D02*
X-1932490Y740704D01*
X-1932490Y740704D02*
X-1882771Y685401D01*
X-1882771Y685401D02*
X-1824891Y625493D01*
X-1824891Y625493D02*
X-1741908Y544738D01*
X-1741908Y544738D02*
X-1706747Y513471D01*
X-1706747Y513471D02*
X-1673766Y486712D01*
X-1673766Y486712D02*
X-1641437Y463286D01*
X-1641437Y463286D02*
X-1608230Y442016D01*
X-1608230Y442016D02*
X-1572616Y421728D01*
X-1572616Y421728D02*
X-1533065Y401247D01*
X-1533065Y401247D02*
X-1453116Y364059D01*
X-1453116Y364059D02*
X-1420629Y351358D01*
X-1420629Y351358D02*
X-1393081Y342679D01*
X-1393081Y342679D02*
X-1370433Y338089D01*
X-1370433Y338089D02*
X-1352647Y337659D01*
X-1352647Y337659D02*
X-1339683Y341456D01*
X-1339683Y341456D02*
X-1334997Y344962D01*
X-1334997Y344962D02*
X-1331502Y349551D01*
X-1331502Y349551D02*
X-1328066Y362011D01*
X-1328066Y362011D02*
X-1329336Y378906D01*
X-1329336Y378906D02*
X-1335272Y400305D01*
X-1335272Y400305D02*
X-1345835Y426277D01*
X-1345835Y426277D02*
X-1360988Y456891D01*
X-1360988Y456891D02*
X-1380689Y492215D01*
X-1380689Y492215D02*
X-1433586Y577271D01*
X-1433586Y577271D02*
X-1471709Y637000D01*
X-1471709Y637000D02*
X-1506916Y694884D01*
X-1506916Y694884D02*
X-1539327Y751264D01*
X-1539327Y751264D02*
X-1569063Y806481D01*
X-1569063Y806481D02*
X-1596244Y860876D01*
X-1596244Y860876D02*
X-1620991Y914788D01*
X-1620991Y914788D02*
X-1643425Y968559D01*
X-1643425Y968559D02*
X-1663666Y1022530D01*
X-1663666Y1022530D02*
X-1681834Y1077040D01*
X-1681834Y1077040D02*
X-1698051Y1132430D01*
X-1698051Y1132430D02*
X-1712437Y1189042D01*
X-1712437Y1189042D02*
X-1725113Y1247215D01*
X-1725113Y1247215D02*
X-1736199Y1307290D01*
X-1736199Y1307290D02*
X-1745816Y1369608D01*
X-1745816Y1369608D02*
X-1754084Y1434509D01*
X-1754084Y1434509D02*
X-1761124Y1502334D01*
X-1761124Y1502334D02*
X-1766818Y1579742D01*
X-1766818Y1579742D02*
X-1769533Y1657663D01*
X-1769533Y1657663D02*
X-1769283Y1736045D01*
X-1769283Y1736045D02*
X-1766074Y1814835D01*
X-1766074Y1814835D02*
X-1759919Y1893980D01*
X-1759919Y1893980D02*
X-1750829Y1973428D01*
X-1750829Y1973428D02*
X-1738815Y2053125D01*
X-1738815Y2053125D02*
X-1723888Y2133018D01*
X-1723888Y2133018D02*
X-1706058Y2213056D01*
X-1706058Y2213056D02*
X-1685336Y2293184D01*
X-1685336Y2293184D02*
X-1661733Y2373350D01*
X-1661733Y2373350D02*
X-1635260Y2453502D01*
X-1635260Y2453502D02*
X-1605928Y2533586D01*
X-1605928Y2533586D02*
X-1573748Y2613550D01*
X-1573748Y2613550D02*
X-1538729Y2693341D01*
X-1538729Y2693341D02*
X-1500884Y2772906D01*
X-1500884Y2772906D02*
X-1454415Y2864455D01*
X-1454415Y2864455D02*
X-1410738Y2944561D01*
X-1410738Y2944561D02*
X-1367845Y3016042D01*
X-1367845Y3016042D02*
X-1323727Y3081715D01*
X-1323727Y3081715D02*
X-1276376Y3144399D01*
X-1276376Y3144399D02*
X-1223784Y3206913D01*
X-1223784Y3206913D02*
X-1163943Y3272073D01*
X-1163943Y3272073D02*
X-1094844Y3342698D01*
X-1094844Y3342698D02*
X-1044744Y3391412D01*
X-1044744Y3391412D02*
X-994297Y3437841D01*
X-994297Y3437841D02*
X-943530Y3481969D01*
X-943530Y3481969D02*
X-892469Y3523780D01*
X-892469Y3523780D02*
X-841142Y3563259D01*
X-841142Y3563259D02*
X-789574Y3600389D01*
X-789574Y3600389D02*
X-737792Y3635155D01*
X-737792Y3635155D02*
X-685824Y3667540D01*
X-685824Y3667540D02*
X-633695Y3697528D01*
X-633695Y3697528D02*
X-581433Y3725104D01*
X-581433Y3725104D02*
X-529065Y3750251D01*
X-529065Y3750251D02*
X-476616Y3772954D01*
X-476616Y3772954D02*
X-424113Y3793196D01*
X-424113Y3793196D02*
X-371584Y3810961D01*
X-371584Y3810961D02*
X-319055Y3826234D01*
X-319055Y3826234D02*
X-266553Y3838999D01*
X-266553Y3838999D02*
X-210945Y3849961D01*
X-210945Y3849961D02*
X-153231Y3858970D01*
X-153231Y3858970D02*
X-93636Y3866038D01*
X-93636Y3866038D02*
X-79685Y3876552D01*
X-79685Y3876552D02*
X-70812Y3885979D01*
X-70812Y3885979D02*
X-66304Y3894502D01*
X-66304Y3894502D02*
X-65444Y3902305D01*
X-65444Y3902305D02*
X-67526Y3909571D01*
X-67526Y3909571D02*
X-71833Y3916484D01*
X-71833Y3916484D02*
X-84268Y3929987D01*
X-84268Y3929987D02*
X-104136Y3951672D01*
X-104136Y3951672D02*
X-121858Y3975178D01*
X-121858Y3975178D02*
X-137278Y4000354D01*
X-137278Y4000354D02*
X-150241Y4027046D01*
X-150241Y4027046D02*
X-160593Y4055101D01*
X-160593Y4055101D02*
X-168179Y4084364D01*
X-168179Y4084364D02*
X-172844Y4114682D01*
X-172844Y4114682D02*
X-174433Y4145902D01*
X-174433Y4145902D02*
X-172844Y4177122D01*
X-172844Y4177122D02*
X-168179Y4207441D01*
X-168179Y4207441D02*
X-160593Y4236704D01*
X-160593Y4236704D02*
X-150241Y4264758D01*
X-150241Y4264758D02*
X-137278Y4291450D01*
X-137278Y4291450D02*
X-121858Y4316626D01*
X-121858Y4316626D02*
X-104136Y4340133D01*
X-104136Y4340133D02*
X-84268Y4361817D01*
X-84268Y4361817D02*
X-62406Y4381525D01*
X-62406Y4381525D02*
X-38708Y4399103D01*
X-38708Y4399103D02*
X-13326Y4414398D01*
X-13326Y4414398D02*
X13584Y4427256D01*
X13584Y4427256D02*
X41868Y4437524D01*
X41868Y4437524D02*
X71370Y4445048D01*
X71370Y4445048D02*
X101936Y4449675D01*
X101936Y4449675D02*
X133411Y4451252D01*
X133411Y4451252D02*
X164886Y4449675D01*
X164886Y4449675D02*
X195452Y4445048D01*
X195452Y4445048D02*
X224954Y4437524D01*
X224954Y4437524D02*
X253238Y4427256D01*
X253238Y4427256D02*
X280148Y4414398D01*
X280148Y4414398D02*
X305530Y4399103D01*
X305530Y4399103D02*
X329229Y4381525D01*
X329229Y4381525D02*
X351090Y4361817D01*
X351090Y4361817D02*
X370958Y4340133D01*
X370958Y4340133D02*
X388680Y4316626D01*
X388680Y4316626D02*
X404100Y4291450D01*
X404100Y4291450D02*
X417063Y4264758D01*
X417063Y4264758D02*
X427415Y4236704D01*
X427415Y4236704D02*
X435001Y4207441D01*
X435001Y4207441D02*
X439666Y4177122D01*
X439666Y4177122D02*
X441255Y4145902D01*
X441255Y4145902D02*
X439666Y4114682D01*
X439666Y4114682D02*
X435001Y4084364D01*
X435001Y4084364D02*
X427415Y4055101D01*
X427415Y4055101D02*
X417063Y4027046D01*
X417063Y4027046D02*
X404100Y4000355D01*
X404100Y4000355D02*
X388680Y3975178D01*
X388680Y3975178D02*
X370958Y3951672D01*
X370958Y3951672D02*
X351090Y3929988D01*
X351090Y3929988D02*
X341841Y3914462D01*
X341841Y3914462D02*
X336626Y3901018D01*
X336626Y3901018D02*
X334858Y3889621D01*
X334858Y3889621D02*
X335950Y3880237D01*
X335950Y3880237D02*
X339316Y3872830D01*
X339316Y3872830D02*
X344370Y3867366D01*
X344370Y3867366D02*
X350525Y3863811D01*
X350525Y3863811D02*
X357194Y3862130D01*
X357194Y3862130D02*
X423692Y3854086D01*
X423692Y3854086D02*
X490035Y3844206D01*
X490035Y3844206D02*
X555997Y3832500D01*
X555997Y3832500D02*
X621352Y3818982D01*
X621352Y3818982D02*
X685873Y3803663D01*
X685873Y3803663D02*
X749335Y3786554D01*
X749335Y3786554D02*
X811620Y3767667D01*
X811620Y3767667D02*
X872548Y3747060D01*
X872548Y3747060D02*
X932167Y3724702D01*
X932167Y3724702D02*
X990526Y3700563D01*
X990526Y3700563D02*
X1047674Y3674613D01*
X1047674Y3674613D02*
X1103659Y3646823D01*
X1103659Y3646823D02*
X1158532Y3617163D01*
X1158532Y3617163D02*
X1212340Y3585603D01*
X1212340Y3585603D02*
X1265132Y3552113D01*
X1265132Y3552113D02*
X1316957Y3516664D01*
X1316957Y3516664D02*
X1367865Y3479224D01*
X1367865Y3479224D02*
X1417904Y3439766D01*
X1417904Y3439766D02*
X1467123Y3398258D01*
X1467123Y3398258D02*
X1515571Y3354671D01*
X1515571Y3354671D02*
X1563296Y3308976D01*
X1563296Y3308976D02*
X1610348Y3261142D01*
X1610348Y3261142D02*
X1649815Y3218512D01*
X1649815Y3218512D02*
X1687703Y3174893D01*
X1687703Y3174893D02*
X1724013Y3130282D01*
X1724013Y3130282D02*
X1758746Y3084679D01*
X1758746Y3084679D02*
X1791904Y3038079D01*
X1791904Y3038079D02*
X1823489Y2990482D01*
X1823489Y2990482D02*
X1853500Y2941884D01*
X1853500Y2941884D02*
X1881940Y2892284D01*
X1881940Y2892284D02*
X1908809Y2841680D01*
X1908809Y2841680D02*
X1934109Y2790069D01*
X1934109Y2790069D02*
X1957841Y2737449D01*
X1957841Y2737449D02*
X1980007Y2683817D01*
X1980007Y2683817D02*
X2000607Y2629173D01*
X2000607Y2629173D02*
X2019642Y2573513D01*
X2019642Y2573513D02*
X2037115Y2516835D01*
X2037115Y2516835D02*
X2053025Y2459137D01*
X2053025Y2459137D02*
X2065847Y2407676D01*
X2065847Y2407676D02*
X2076076Y2360387D01*
X2076076Y2360387D02*
X2084098Y2313471D01*
X2084098Y2313471D02*
X2090299Y2263131D01*
X2090299Y2263131D02*
X2095065Y2205569D01*
X2095065Y2205569D02*
X2098782Y2136986D01*
X2098782Y2136986D02*
X2104613Y1951569D01*
X2104613Y1951569D02*
X2106247Y1853904D01*
X2106247Y1853904D02*
X2106163Y1761396D01*
X2106163Y1761396D02*
X2104282Y1673636D01*
X2104282Y1673636D02*
X2100526Y1590209D01*
X2100526Y1590209D02*
X2094816Y1510705D01*
X2094816Y1510705D02*
X2087073Y1434711D01*
X2087073Y1434711D02*
X2077219Y1361816D01*
X2077219Y1361816D02*
X2065175Y1291606D01*
X2065175Y1291606D02*
X2050863Y1223671D01*
X2050863Y1223671D02*
X2034203Y1157598D01*
X2034203Y1157598D02*
X2015118Y1092974D01*
X2015118Y1092974D02*
X1993529Y1029389D01*
X1993529Y1029389D02*
X1969356Y966429D01*
X1969356Y966429D02*
X1942522Y903684D01*
X1942522Y903684D02*
X1912948Y840740D01*
X1912948Y840740D02*
X1880556Y777185D01*
X1880556Y777185D02*
X1843044Y703068D01*
X1843044Y703068D02*
X1812325Y636372D01*
X1812325Y636372D02*
X1791568Y584404D01*
X1791568Y584404D02*
X1785917Y566228D01*
X1785917Y566228D02*
X1783945Y554473D01*
X1783945Y554473D02*
X1786214Y533351D01*
X1786214Y533351D02*
X1792829Y516718D01*
X1792829Y516718D02*
X1803502Y504470D01*
X1803502Y504470D02*
X1817946Y496505D01*
X1817946Y496505D02*
X1835874Y492719D01*
X1835874Y492719D02*
X1856998Y493009D01*
X1856998Y493009D02*
X1881031Y497270D01*
X1881031Y497270D02*
X1907685Y505400D01*
X1907685Y505400D02*
X1936674Y517295D01*
X1936674Y517295D02*
X1967709Y532852D01*
X1967709Y532852D02*
X2000504Y551967D01*
X2000504Y551967D02*
X2034771Y574537D01*
X2034771Y574537D02*
X2070223Y600458D01*
X2070223Y600458D02*
X2106572Y629627D01*
X2106572Y629627D02*
X2143532Y661942D01*
X2143532Y661942D02*
X2180813Y697297D01*
X2180813Y697297D02*
X2229313Y747665D01*
X2229313Y747665D02*
X2275874Y801073D01*
X2275874Y801073D02*
X2320370Y857250D01*
X2320370Y857250D02*
X2362676Y915926D01*
X2362676Y915926D02*
X2402667Y976834D01*
X2402667Y976834D02*
X2440217Y1039702D01*
X2440217Y1039702D02*
X2475203Y1104261D01*
X2475203Y1104261D02*
X2507499Y1170242D01*
X2507499Y1170242D02*
X2536979Y1237376D01*
X2536979Y1237376D02*
X2563519Y1305391D01*
X2563519Y1305391D02*
X2586993Y1374020D01*
X2586993Y1374020D02*
X2607276Y1442992D01*
X2607276Y1442992D02*
X2624244Y1512038D01*
X2624244Y1512038D02*
X2637771Y1580888D01*
X2637771Y1580888D02*
X2647732Y1649273D01*
X2647732Y1649273D02*
X2654002Y1716923D01*
X2654002Y1716923D02*
X2656911Y1776395D01*
X2656911Y1776395D02*
X2657871Y1836180D01*
X2657871Y1836180D02*
X2656851Y1896451D01*
X2656851Y1896451D02*
X2653817Y1957376D01*
X2653817Y1957376D02*
X2648737Y2019129D01*
X2648737Y2019129D02*
X2641579Y2081880D01*
X2641579Y2081880D02*
X2632311Y2145800D01*
X2632311Y2145800D02*
X2620899Y2211060D01*
X2620899Y2211060D02*
X2607308Y2277831D01*
X2607308Y2277831D02*
X2591514Y2346285D01*
X2591514Y2346285D02*
X2573479Y2416593D01*
X2573479Y2416593D02*
X2553172Y2488925D01*
X2553172Y2488925D02*
X2530560Y2563454D01*
X2530560Y2563454D02*
X2505611Y2640349D01*
X2505611Y2640349D02*
X2448570Y2801926D01*
X2448570Y2801926D02*
X2407697Y2913791D01*
X2407697Y2913791D02*
X2375848Y3005483D01*
X2375848Y3005483D02*
X2351919Y3081917D01*
X2351919Y3081917D02*
X2334805Y3147996D01*
X2334805Y3147996D02*
X2323402Y3208628D01*
X2323402Y3208628D02*
X2316606Y3268720D01*
X2316606Y3268720D02*
X2313312Y3333179D01*
X2313312Y3333179D02*
X2312412Y3406913D01*
X2312412Y3406913D02*
X2313546Y3509538D01*
X2313546Y3509538D02*
X2315541Y3546435D01*
X2315541Y3546435D02*
X2318927Y3576610D01*
X2318927Y3576610D02*
X2324034Y3602229D01*
X2324034Y3602229D02*
X2331191Y3625457D01*
X2331191Y3625457D02*
X2340727Y3648460D01*
X2340727Y3648460D02*
X2352971Y3673404D01*
X2352971Y3673404D02*
X2376743Y3714925D01*
X2376743Y3714925D02*
X2402566Y3750959D01*
X2402566Y3750959D02*
X2430592Y3781617D01*
X2430592Y3781617D02*
X2460977Y3807010D01*
X2460977Y3807010D02*
X2493874Y3827249D01*
X2493874Y3827249D02*
X2529438Y3842445D01*
X2529438Y3842445D02*
X2567821Y3852709D01*
X2567821Y3852709D02*
X2609179Y3858152D01*
X2609179Y3858152D02*
X2657442Y3860092D01*
X2657442Y3860092D02*
X2676221Y3859268D01*
X2676221Y3859268D02*
X2692351Y3857069D01*
X2692351Y3857069D02*
X2706524Y3853360D01*
X2706524Y3853360D02*
X2719430Y3848007D01*
X2719430Y3848007D02*
X2731759Y3840874D01*
X2731759Y3840874D02*
X2744202Y3831827D01*
X2744202Y3831827D02*
X2766264Y3811048D01*
X2766264Y3811048D02*
X2784093Y3786991D01*
X2784093Y3786991D02*
X2797643Y3759857D01*
X2797643Y3759857D02*
X2806870Y3729845D01*
X2806870Y3729845D02*
X2811730Y3697153D01*
X2811730Y3697153D02*
X2812180Y3661983D01*
X2812180Y3661983D02*
X2808170Y3624532D01*
X2808170Y3624532D02*
X2799657Y3585001D01*
X2799657Y3585001D02*
X2790087Y3542821D01*
X2790087Y3542821D02*
X2783184Y3498914D01*
X2783184Y3498914D02*
X2778953Y3454332D01*
X2778953Y3454332D02*
X2777399Y3410127D01*
X2777399Y3410127D02*
X2778527Y3367350D01*
X2778527Y3367350D02*
X2782343Y3327052D01*
X2782343Y3327052D02*
X2788851Y3290285D01*
X2788851Y3290285D02*
X2798057Y3258100D01*
X2798057Y3258100D02*
X2814653Y3223134D01*
X2814653Y3223134D02*
X2844265Y3171521D01*
X2844265Y3171521D02*
X2882701Y3110216D01*
X2882701Y3110216D02*
X2925771Y3046172D01*
X2925771Y3046172D02*
X2996934Y2941681D01*
X2996934Y2941681D02*
X3057262Y2847194D01*
X3057262Y2847194D02*
X3108341Y2759395D01*
X3108341Y2759395D02*
X3151756Y2674971D01*
X3151756Y2674971D02*
X3189093Y2590606D01*
X3189093Y2590606D02*
X3221938Y2502986D01*
X3221938Y2502986D02*
X3251876Y2408798D01*
X3251876Y2408798D02*
X3280494Y2304725D01*
X3280494Y2304725D02*
X3297333Y2235255D01*
X3297333Y2235255D02*
X3312674Y2163079D01*
X3312674Y2163079D02*
X3326485Y2088689D01*
X3326485Y2088689D02*
X3338735Y2012573D01*
X3338735Y2012573D02*
X3349395Y1935223D01*
X3349395Y1935223D02*
X3358434Y1857128D01*
X3358434Y1857128D02*
X3365821Y1778777D01*
X3365821Y1778777D02*
X3371525Y1700662D01*
X3371525Y1700662D02*
X3375516Y1623271D01*
X3375516Y1623271D02*
X3377764Y1547096D01*
X3377764Y1547096D02*
X3378234Y1472625D01*
X3378234Y1472625D02*
X3376904Y1400349D01*
X3376904Y1400349D02*
X3373738Y1330757D01*
X3373738Y1330757D02*
X3368707Y1264340D01*
X3368707Y1264340D02*
X3361780Y1201588D01*
X3361780Y1201588D02*
X3352926Y1142990D01*
X3352926Y1142990D02*
X3340607Y1079325D01*
X3340607Y1079325D02*
X3325935Y1015978D01*
X3325935Y1015978D02*
X3308956Y953007D01*
X3308956Y953007D02*
X3289717Y890468D01*
X3289717Y890468D02*
X3268266Y828416D01*
X3268266Y828416D02*
X3244648Y766909D01*
X3244648Y766909D02*
X3218912Y706003D01*
X3218912Y706003D02*
X3191102Y645753D01*
X3191102Y645753D02*
X3161267Y586217D01*
X3161267Y586217D02*
X3129452Y527449D01*
X3129452Y527449D02*
X3095706Y469508D01*
X3095706Y469508D02*
X3060074Y412448D01*
X3060074Y412448D02*
X3022603Y356327D01*
X3022603Y356327D02*
X2983340Y301201D01*
X2983340Y301201D02*
X2942331Y247125D01*
X2942331Y247125D02*
X2899625Y194156D01*
X2899625Y194156D02*
X2855267Y142351D01*
X2855267Y142351D02*
X2809303Y91765D01*
X2809303Y91765D02*
X2761782Y42456D01*
X2761782Y42456D02*
X2712749Y-5522D01*
X2712749Y-5522D02*
X2662252Y-52111D01*
X2662252Y-52111D02*
X2610336Y-97255D01*
X2610336Y-97255D02*
X2557050Y-140898D01*
X2557050Y-140898D02*
X2502439Y-182984D01*
X2502439Y-182984D02*
X2446551Y-223456D01*
X2446551Y-223456D02*
X2389432Y-262259D01*
X2389432Y-262259D02*
X2331129Y-299335D01*
X2331129Y-299335D02*
X2271689Y-334628D01*
X2271689Y-334628D02*
X2211158Y-368083D01*
X2211158Y-368083D02*
X2149584Y-399643D01*
X2149584Y-399643D02*
X2087012Y-429252D01*
X2087012Y-429252D02*
X2023491Y-456852D01*
X2023491Y-456852D02*
X1964985Y-482787D01*
X1964985Y-482787D02*
X1911003Y-509652D01*
X1911003Y-509652D02*
X1867545Y-534276D01*
X1867545Y-534276D02*
X1840611Y-553489D01*
X1840611Y-553489D02*
X1824873Y-570941D01*
X1824873Y-570941D02*
X1813059Y-590226D01*
X1813059Y-590226D02*
X1805206Y-610917D01*
X1805206Y-610917D02*
X1801348Y-632585D01*
X1801348Y-632585D02*
X1801518Y-654804D01*
X1801518Y-654804D02*
X1805760Y-677146D01*
X1805760Y-677146D02*
X1814106Y-699184D01*
X1814106Y-699184D02*
X1826592Y-720490D01*
X1826592Y-720490D02*
X1836788Y-733101D01*
X1836788Y-733101D02*
X1851121Y-747936D01*
X1851121Y-747936D02*
X1890433Y-783024D01*
X1890433Y-783024D02*
X1940997Y-823245D01*
X1940997Y-823245D02*
X1999285Y-866093D01*
X1999285Y-866093D02*
X2061769Y-909059D01*
X2061769Y-909059D02*
X2124919Y-949638D01*
X2124919Y-949638D02*
X2185207Y-985320D01*
X2185207Y-985320D02*
X2239103Y-1013600D01*
X2239103Y-1013600D02*
X2279147Y-1032531D01*
X2279147Y-1032531D02*
X2312120Y-1046853D01*
X2312120Y-1046853D02*
X2341499Y-1057202D01*
X2341499Y-1057202D02*
X2370757Y-1064215D01*
X2370757Y-1064215D02*
X2403371Y-1068527D01*
X2403371Y-1068527D02*
X2442815Y-1070775D01*
X2442815Y-1070775D02*
X2556095Y-1071625D01*
X2556095Y-1071625D02*
X2667701Y-1069678D01*
X2667701Y-1069678D02*
X2711978Y-1066633D01*
X2711978Y-1066633D02*
X2753296Y-1061469D01*
X2753296Y-1061469D02*
X2795199Y-1053632D01*
X2795199Y-1053632D02*
X2841230Y-1042569D01*
X2841230Y-1042569D02*
X2959852Y-1008551D01*
X2959852Y-1008551D02*
X3168536Y-945903D01*
X3168536Y-945903D02*
X3211820Y-978096D01*
X3211820Y-978096D02*
X3229034Y-993339D01*
X3229034Y-993339D02*
X3243908Y-1011046D01*
X3243908Y-1011046D02*
X3254852Y-1029019D01*
X3254852Y-1029019D02*
X3260276Y-1045061D01*
X3260276Y-1045061D02*
X3260396Y-1064384D01*
X3260396Y-1064384D02*
X3255744Y-1086710D01*
X3255744Y-1086710D02*
X3246670Y-1111625D01*
X3246670Y-1111625D02*
X3233526Y-1138716D01*
X3233526Y-1138716D02*
X3216666Y-1167568D01*
X3216666Y-1167568D02*
X3196444Y-1197766D01*
X3196444Y-1197766D02*
X3173213Y-1228896D01*
X3173213Y-1228896D02*
X3147326Y-1260545D01*
X3147326Y-1260545D02*
X3119136Y-1292297D01*
X3119136Y-1292297D02*
X3088998Y-1323739D01*
X3088998Y-1323739D02*
X3057264Y-1354455D01*
X3057264Y-1354455D02*
X3024288Y-1384032D01*
X3024288Y-1384032D02*
X2990423Y-1412056D01*
X2990423Y-1412056D02*
X2956022Y-1438111D01*
X2956022Y-1438111D02*
X2921440Y-1461785D01*
X2921440Y-1461785D02*
X2887028Y-1482661D01*
X2887028Y-1482661D02*
X2840469Y-1507244D01*
X2840469Y-1507244D02*
X2789797Y-1530805D01*
X2789797Y-1530805D02*
X2735932Y-1553027D01*
X2735932Y-1553027D02*
X2679792Y-1573593D01*
X2679792Y-1573593D02*
X2622298Y-1592187D01*
X2622298Y-1592187D02*
X2564367Y-1608492D01*
X2564367Y-1608492D02*
X2506919Y-1622191D01*
X2506919Y-1622191D02*
X2450872Y-1632969D01*
X2450872Y-1632969D02*
X2379309Y-1642058D01*
X2379309Y-1642058D02*
X2306908Y-1645634D01*
X2306908Y-1645634D02*
X2233979Y-1643826D01*
X2233979Y-1643826D02*
X2160835Y-1636762D01*
X2160835Y-1636762D02*
X2087784Y-1624572D01*
X2087784Y-1624572D02*
X2015139Y-1607384D01*
X2015139Y-1607384D02*
X1943211Y-1585328D01*
X1943211Y-1585328D02*
X1872309Y-1558532D01*
X1872309Y-1558532D02*
X1802746Y-1527124D01*
X1802746Y-1527124D02*
X1734833Y-1491235D01*
X1734833Y-1491235D02*
X1668879Y-1450992D01*
X1668879Y-1450992D02*
X1605196Y-1406524D01*
X1605196Y-1406524D02*
X1544095Y-1357961D01*
X1544095Y-1357961D02*
X1485887Y-1305431D01*
X1485887Y-1305431D02*
X1430882Y-1249063D01*
X1430882Y-1249063D02*
X1379392Y-1188985D01*
X1379392Y-1188985D02*
X1345089Y-1148040D01*
X1345089Y-1148040D02*
X1314629Y-1115845D01*
X1314629Y-1115845D02*
X1287435Y-1092114D01*
X1287435Y-1092114D02*
X1262927Y-1076560D01*
X1262927Y-1076560D02*
X1251499Y-1071760D01*
X1251499Y-1071760D02*
X1240525Y-1068897D01*
X1240525Y-1068897D02*
X1229933Y-1067937D01*
X1229933Y-1067937D02*
X1219650Y-1068837D01*
X1219650Y-1068837D02*
X1209605Y-1071569D01*
X1209605Y-1071569D02*
X1199724Y-1076095D01*
X1199724Y-1076095D02*
X1180166Y-1090383D01*
X1180166Y-1090383D02*
X1170535Y-1101033D01*
X1170535Y-1101033D02*
X1162772Y-1113740D01*
X1162772Y-1113740D02*
X1156820Y-1128377D01*
X1156820Y-1128377D02*
X1152621Y-1144815D01*
X1152621Y-1144815D02*
X1150116Y-1162928D01*
X1150116Y-1162928D02*
X1149246Y-1182588D01*
X1149246Y-1182588D02*
X1152189Y-1226039D01*
X1152189Y-1226039D02*
X1160983Y-1274148D01*
X1160983Y-1274148D02*
X1175166Y-1325895D01*
X1175166Y-1325895D02*
X1194273Y-1380260D01*
X1194273Y-1380260D02*
X1217841Y-1436223D01*
X1217841Y-1436223D02*
X1245407Y-1492765D01*
X1245407Y-1492765D02*
X1276506Y-1548865D01*
X1276506Y-1548865D02*
X1310676Y-1603504D01*
X1310676Y-1603504D02*
X1347453Y-1655661D01*
X1347453Y-1655661D02*
X1386372Y-1704316D01*
X1386372Y-1704316D02*
X1426972Y-1748450D01*
X1426972Y-1748450D02*
X1468787Y-1787043D01*
X1468787Y-1787043D02*
X1490006Y-1803942D01*
X1490006Y-1803942D02*
X1511355Y-1819074D01*
X1511355Y-1819074D02*
X1533165Y-1832565D01*
X1533165Y-1832565D02*
X1557422Y-1845740D01*
X1557422Y-1845740D02*
X1612364Y-1870767D01*
X1612364Y-1870767D02*
X1674353Y-1893411D01*
X1674353Y-1893411D02*
X1741563Y-1912928D01*
X1741563Y-1912928D02*
X1813172Y-1932864D01*
X1813172Y-1932864D02*
X1840360Y-1942049D01*
X1840360Y-1942049D02*
X1862738Y-1951134D01*
X1862738Y-1951134D02*
X1881004Y-1960436D01*
X1881004Y-1960436D02*
X1895861Y-1970272D01*
X1895861Y-1970272D02*
X1908007Y-1980959D01*
X1908007Y-1980959D02*
X1918144Y-1992814D01*
X1918144Y-1992814D02*
X1927574Y-2007492D01*
X1927574Y-2007492D02*
X1934304Y-2022512D01*
X1934304Y-2022512D02*
X1938437Y-2037810D01*
X1938437Y-2037810D02*
X1940077Y-2053323D01*
X1940077Y-2053323D02*
X1939327Y-2068986D01*
X1939327Y-2068986D02*
X1936293Y-2084735D01*
X1936293Y-2084735D02*
X1931078Y-2100507D01*
X1931078Y-2100507D02*
X1923786Y-2116237D01*
X1923786Y-2116237D02*
X1914520Y-2131861D01*
X1914520Y-2131861D02*
X1903384Y-2147316D01*
X1903384Y-2147316D02*
X1875918Y-2177460D01*
X1875918Y-2177460D02*
X1842219Y-2206158D01*
X1842219Y-2206158D02*
X1803116Y-2232897D01*
X1803116Y-2232897D02*
X1779398Y-2265898D01*
X1779398Y-2265898D02*
X1789085Y-2311963D01*
X1789085Y-2311963D02*
X3389708Y-2308758D01*
X3389708Y-2308758D02*
X3388826Y-3830113D01*
X3388826Y-3830113D02*
X3388826Y-3830113D01*
X349243Y4143479D02*
X348200Y4120935D01*
X348200Y4120935D02*
X345110Y4098773D01*
X345110Y4098773D02*
X340031Y4077143D01*
X340031Y4077143D02*
X333020Y4056193D01*
X333020Y4056193D02*
X324136Y4036074D01*
X324136Y4036074D02*
X313437Y4016935D01*
X313437Y4016935D02*
X300979Y3998925D01*
X300979Y3998925D02*
X286821Y3982195D01*
X286821Y3982195D02*
X271189Y3967044D01*
X271189Y3967044D02*
X254362Y3953711D01*
X254362Y3953711D02*
X236478Y3942260D01*
X236478Y3942260D02*
X217680Y3932752D01*
X217680Y3932752D02*
X198105Y3925249D01*
X198105Y3925249D02*
X177893Y3919813D01*
X177893Y3919813D02*
X157186Y3916506D01*
X157186Y3916506D02*
X136121Y3915390D01*
X136121Y3915390D02*
X115056Y3916506D01*
X115056Y3916506D02*
X94349Y3919813D01*
X94349Y3919813D02*
X74138Y3925249D01*
X74138Y3925249D02*
X54563Y3932752D01*
X54563Y3932752D02*
X35764Y3942260D01*
X35764Y3942260D02*
X17881Y3953711D01*
X17881Y3953711D02*
X1053Y3967044D01*
X1053Y3967044D02*
X-14579Y3982195D01*
X-14579Y3982195D02*
X-28737Y3998925D01*
X-28737Y3998925D02*
X-41194Y4016935D01*
X-41194Y4016935D02*
X-51894Y4036074D01*
X-51894Y4036074D02*
X-60778Y4056193D01*
X-60778Y4056193D02*
X-67789Y4077143D01*
X-67789Y4077143D02*
X-72868Y4098773D01*
X-72868Y4098773D02*
X-75958Y4120935D01*
X-75958Y4120935D02*
X-77001Y4143479D01*
X-77001Y4143479D02*
X-75958Y4166023D01*
X-75958Y4166023D02*
X-72868Y4188185D01*
X-72868Y4188185D02*
X-67789Y4209815D01*
X-67789Y4209815D02*
X-60778Y4230765D01*
X-60778Y4230765D02*
X-51894Y4250884D01*
X-51894Y4250884D02*
X-41194Y4270023D01*
X-41194Y4270023D02*
X-28737Y4288032D01*
X-28737Y4288032D02*
X-14579Y4304763D01*
X-14579Y4304763D02*
X1053Y4319914D01*
X1053Y4319914D02*
X17881Y4333247D01*
X17881Y4333247D02*
X35764Y4344698D01*
X35764Y4344698D02*
X54563Y4354206D01*
X54563Y4354206D02*
X74138Y4361709D01*
X74138Y4361709D02*
X94349Y4367145D01*
X94349Y4367145D02*
X115056Y4370452D01*
X115056Y4370452D02*
X136121Y4371569D01*
X136121Y4371569D02*
X157186Y4370452D01*
X157186Y4370452D02*
X177893Y4367145D01*
X177893Y4367145D02*
X198104Y4361709D01*
X198104Y4361709D02*
X217679Y4354206D01*
X217679Y4354206D02*
X236478Y4344698D01*
X236478Y4344698D02*
X254361Y4333247D01*
X254361Y4333247D02*
X271189Y4319914D01*
X271189Y4319914D02*
X286821Y4304763D01*
X286821Y4304763D02*
X300979Y4288032D01*
X300979Y4288032D02*
X313436Y4270023D01*
X313436Y4270023D02*
X324136Y4250884D01*
X324136Y4250884D02*
X333020Y4230765D01*
X333020Y4230765D02*
X340031Y4209815D01*
X340031Y4209815D02*
X345110Y4188185D01*
X345110Y4188185D02*
X348200Y4166023D01*
X348200Y4166023D02*
X349243Y4143479D01*
X349243Y4143479D02*
X349243Y4143479D01*
X349243Y4143479D02*
X349243Y4143479D01*
D11*
D12*
X-3074856Y-4300827D02*
X-3074856Y-4000827D01*
X-3003427Y-4000827D01*
X-2960570Y-4015113D01*
X-2931999Y-4043685D01*
X-2917713Y-4072256D01*
X-2903427Y-4129399D01*
X-2903427Y-4172256D01*
X-2917713Y-4229399D01*
X-2931999Y-4257970D01*
X-2960570Y-4286542D01*
X-3003427Y-4300827D01*
X-3074856Y-4300827D01*
X-2774856Y-4300827D02*
X-2774856Y-4100827D01*
X-2774856Y-4157970D02*
X-2760570Y-4129399D01*
X-2746285Y-4115113D01*
X-2717713Y-4100827D01*
X-2689142Y-4100827D01*
X-2589142Y-4300827D02*
X-2589142Y-4100827D01*
X-2589142Y-4000827D02*
X-2603427Y-4015113D01*
X-2589142Y-4029399D01*
X-2574856Y-4015113D01*
X-2589142Y-4000827D01*
X-2589142Y-4029399D01*
X-2403427Y-4300827D02*
X-2431999Y-4286542D01*
X-2446285Y-4257970D01*
X-2446285Y-4000827D01*
X-2246285Y-4300827D02*
X-2274856Y-4286542D01*
X-2289142Y-4257970D01*
X-2289142Y-4000827D01*
X-1903427Y-4300827D02*
X-1903427Y-4000827D01*
X-1803427Y-4215113D01*
X-1703427Y-4000827D01*
X-1703427Y-4300827D01*
X-1431999Y-4300827D02*
X-1431999Y-4143685D01*
X-1446284Y-4115113D01*
X-1474856Y-4100827D01*
X-1531999Y-4100827D01*
X-1560570Y-4115113D01*
X-1431999Y-4286542D02*
X-1460570Y-4300827D01*
X-1531999Y-4300827D01*
X-1560570Y-4286542D01*
X-1574856Y-4257970D01*
X-1574856Y-4229399D01*
X-1560570Y-4200827D01*
X-1531999Y-4186542D01*
X-1460570Y-4186542D01*
X-1431999Y-4172256D01*
X-1289142Y-4100827D02*
X-1289142Y-4400827D01*
X-1289142Y-4115113D02*
X-1260570Y-4100827D01*
X-1203427Y-4100827D01*
X-1174856Y-4115113D01*
X-1160570Y-4129399D01*
X-1146285Y-4157970D01*
X-1146285Y-4243685D01*
X-1160570Y-4272256D01*
X-1174856Y-4286542D01*
X-1203427Y-4300827D01*
X-1260570Y-4300827D01*
X-1289142Y-4286542D01*
X-1017713Y-4272256D02*
X-1003427Y-4286542D01*
X-1017713Y-4300827D01*
X-1031999Y-4286542D01*
X-1017713Y-4272256D01*
X-1017713Y-4300827D01*
X-1017713Y-4115113D02*
X-1003427Y-4129399D01*
X-1017713Y-4143685D01*
X-1031999Y-4129399D01*
X-1017713Y-4115113D01*
X-1017713Y-4143685D01*
M02*
