G04 #@! TF.GenerationSoftware,KiCad,Pcbnew,(5.1.5-0)*
G04 #@! TF.CreationDate,2019-12-30T00:03:19-08:00*
G04 #@! TF.ProjectId,badge,62616467-652e-46b6-9963-61645f706362,rev?*
G04 #@! TF.SameCoordinates,Original*
G04 #@! TF.FileFunction,Legend,Bot*
G04 #@! TF.FilePolarity,Positive*
%FSLAX46Y46*%
G04 Gerber Fmt 4.6, Leading zero omitted, Abs format (unit mm)*
G04 Created by KiCad (PCBNEW (5.1.5-0)) date 2019-12-30 00:03:19*
%MOMM*%
%LPD*%
G04 APERTURE LIST*
%ADD10C,0.010000*%
G04 APERTURE END LIST*
D10*
G36*
X33866666Y-38227000D02*
G01*
X-33485667Y-38227000D01*
X-33485667Y-23029333D01*
X33866666Y-23029333D01*
X33866666Y-38227000D01*
G37*
X33866666Y-38227000D02*
X-33485667Y-38227000D01*
X-33485667Y-23029333D01*
X33866666Y-23029333D01*
X33866666Y-38227000D01*
G36*
X-3259667Y3346653D02*
G01*
X-3263012Y3220169D01*
X-3280152Y3156748D01*
X-3321741Y3134846D01*
X-3365500Y3132667D01*
X-3445159Y3127568D01*
X-3471334Y3117818D01*
X-3451868Y3034694D01*
X-3405980Y2932554D01*
X-3352434Y2848390D01*
X-3320209Y2819890D01*
X-3270380Y2763468D01*
X-3259667Y2710662D01*
X-3288034Y2641171D01*
X-3360447Y2628249D01*
X-3457881Y2671987D01*
X-3504099Y2709506D01*
X-3593875Y2841481D01*
X-3653767Y3029769D01*
X-3676928Y3249214D01*
X-3674646Y3335968D01*
X-3661834Y3534834D01*
X-3460750Y3547737D01*
X-3259667Y3560639D01*
X-3259667Y3346653D01*
G37*
X-3259667Y3346653D02*
X-3263012Y3220169D01*
X-3280152Y3156748D01*
X-3321741Y3134846D01*
X-3365500Y3132667D01*
X-3445159Y3127568D01*
X-3471334Y3117818D01*
X-3451868Y3034694D01*
X-3405980Y2932554D01*
X-3352434Y2848390D01*
X-3320209Y2819890D01*
X-3270380Y2763468D01*
X-3259667Y2710662D01*
X-3288034Y2641171D01*
X-3360447Y2628249D01*
X-3457881Y2671987D01*
X-3504099Y2709506D01*
X-3593875Y2841481D01*
X-3653767Y3029769D01*
X-3676928Y3249214D01*
X-3674646Y3335968D01*
X-3661834Y3534834D01*
X-3460750Y3547737D01*
X-3259667Y3560639D01*
X-3259667Y3346653D01*
G36*
X-6021063Y5722691D02*
G01*
X-5813211Y5677605D01*
X-5639002Y5591533D01*
X-5474494Y5455399D01*
X-5431419Y5411793D01*
X-5265374Y5180801D01*
X-5151163Y4897052D01*
X-5092695Y4577591D01*
X-5093884Y4239459D01*
X-5120417Y4056574D01*
X-5217673Y3727278D01*
X-5366941Y3464719D01*
X-5568593Y3268542D01*
X-5822999Y3138391D01*
X-6130532Y3073908D01*
X-6145794Y3072531D01*
X-6290885Y3065346D01*
X-6411930Y3068328D01*
X-6455834Y3074552D01*
X-6769305Y3188863D01*
X-7019718Y3357046D01*
X-7204669Y3576740D01*
X-7321752Y3845581D01*
X-7346011Y3949553D01*
X-7375423Y4106334D01*
X-7180212Y4106334D01*
X-7053960Y4098763D01*
X-6994994Y4072414D01*
X-6985000Y4041147D01*
X-6957885Y3931543D01*
X-6888310Y3792264D01*
X-6793927Y3653256D01*
X-6692392Y3544465D01*
X-6691993Y3544128D01*
X-6507579Y3441019D01*
X-6287531Y3400610D01*
X-6063961Y3426229D01*
X-5837758Y3524045D01*
X-5668259Y3681423D01*
X-5554387Y3900183D01*
X-5495062Y4182145D01*
X-5485257Y4402667D01*
X-5513588Y4734243D01*
X-5593810Y4999176D01*
X-5726381Y5198082D01*
X-5911763Y5331573D01*
X-6150414Y5400263D01*
X-6238666Y5408690D01*
X-6483513Y5398835D01*
X-6669839Y5334694D01*
X-6808079Y5211111D01*
X-6879167Y5092118D01*
X-6937325Y4982598D01*
X-6994855Y4930205D01*
X-7083062Y4913652D01*
X-7143750Y4912201D01*
X-7257270Y4916373D01*
X-7309470Y4939990D01*
X-7323432Y4995820D01*
X-7323667Y5011716D01*
X-7291719Y5135939D01*
X-7207495Y5285085D01*
X-7088425Y5436021D01*
X-6951939Y5565613D01*
X-6858000Y5629779D01*
X-6750958Y5682918D01*
X-6645909Y5714964D01*
X-6515912Y5730919D01*
X-6334023Y5735783D01*
X-6286500Y5735864D01*
X-6021063Y5722691D01*
G37*
X-6021063Y5722691D02*
X-5813211Y5677605D01*
X-5639002Y5591533D01*
X-5474494Y5455399D01*
X-5431419Y5411793D01*
X-5265374Y5180801D01*
X-5151163Y4897052D01*
X-5092695Y4577591D01*
X-5093884Y4239459D01*
X-5120417Y4056574D01*
X-5217673Y3727278D01*
X-5366941Y3464719D01*
X-5568593Y3268542D01*
X-5822999Y3138391D01*
X-6130532Y3073908D01*
X-6145794Y3072531D01*
X-6290885Y3065346D01*
X-6411930Y3068328D01*
X-6455834Y3074552D01*
X-6769305Y3188863D01*
X-7019718Y3357046D01*
X-7204669Y3576740D01*
X-7321752Y3845581D01*
X-7346011Y3949553D01*
X-7375423Y4106334D01*
X-7180212Y4106334D01*
X-7053960Y4098763D01*
X-6994994Y4072414D01*
X-6985000Y4041147D01*
X-6957885Y3931543D01*
X-6888310Y3792264D01*
X-6793927Y3653256D01*
X-6692392Y3544465D01*
X-6691993Y3544128D01*
X-6507579Y3441019D01*
X-6287531Y3400610D01*
X-6063961Y3426229D01*
X-5837758Y3524045D01*
X-5668259Y3681423D01*
X-5554387Y3900183D01*
X-5495062Y4182145D01*
X-5485257Y4402667D01*
X-5513588Y4734243D01*
X-5593810Y4999176D01*
X-5726381Y5198082D01*
X-5911763Y5331573D01*
X-6150414Y5400263D01*
X-6238666Y5408690D01*
X-6483513Y5398835D01*
X-6669839Y5334694D01*
X-6808079Y5211111D01*
X-6879167Y5092118D01*
X-6937325Y4982598D01*
X-6994855Y4930205D01*
X-7083062Y4913652D01*
X-7143750Y4912201D01*
X-7257270Y4916373D01*
X-7309470Y4939990D01*
X-7323432Y4995820D01*
X-7323667Y5011716D01*
X-7291719Y5135939D01*
X-7207495Y5285085D01*
X-7088425Y5436021D01*
X-6951939Y5565613D01*
X-6858000Y5629779D01*
X-6750958Y5682918D01*
X-6645909Y5714964D01*
X-6515912Y5730919D01*
X-6334023Y5735783D01*
X-6286500Y5735864D01*
X-6021063Y5722691D01*
G36*
X3359480Y5734052D02*
G01*
X3652680Y5648760D01*
X3900520Y5494921D01*
X4098075Y5275303D01*
X4202602Y5086618D01*
X4262619Y4892506D01*
X4300262Y4646068D01*
X4313531Y4377160D01*
X4300427Y4115635D01*
X4277587Y3967421D01*
X4178332Y3681792D01*
X4015418Y3441838D01*
X3800436Y3254430D01*
X3544976Y3126437D01*
X3260631Y3064729D01*
X2958990Y3076175D01*
X2824204Y3106036D01*
X2662703Y3169502D01*
X2505179Y3259297D01*
X2464370Y3289425D01*
X2342883Y3418695D01*
X2222088Y3598811D01*
X2120598Y3797869D01*
X2057026Y3983966D01*
X2055702Y3989917D01*
X2045112Y4061727D01*
X2068190Y4095561D01*
X2144872Y4105693D01*
X2218291Y4106334D01*
X2329804Y4102747D01*
X2393502Y4078293D01*
X2434981Y4012431D01*
X2474480Y3900748D01*
X2570112Y3695522D01*
X2709358Y3549989D01*
X2888468Y3452188D01*
X3029671Y3402633D01*
X3150633Y3390806D01*
X3293033Y3414869D01*
X3356073Y3431546D01*
X3575525Y3533700D01*
X3745903Y3701771D01*
X3864109Y3930578D01*
X3927044Y4214941D01*
X3937000Y4402667D01*
X3906795Y4725098D01*
X3816740Y4990879D01*
X3667671Y5197685D01*
X3642950Y5221068D01*
X3444899Y5350904D01*
X3223021Y5415741D01*
X2997178Y5415120D01*
X2787230Y5348585D01*
X2640520Y5244185D01*
X2547347Y5139070D01*
X2482912Y5039266D01*
X2470222Y5006560D01*
X2442379Y4946134D01*
X2382326Y4917936D01*
X2264810Y4910683D01*
X2255654Y4910667D01*
X2139422Y4913560D01*
X2088382Y4931572D01*
X2083070Y4978706D01*
X2093806Y5027084D01*
X2197491Y5287920D01*
X2364184Y5494326D01*
X2589113Y5642611D01*
X2867510Y5729086D01*
X3025845Y5748029D01*
X3359480Y5734052D01*
G37*
X3359480Y5734052D02*
X3652680Y5648760D01*
X3900520Y5494921D01*
X4098075Y5275303D01*
X4202602Y5086618D01*
X4262619Y4892506D01*
X4300262Y4646068D01*
X4313531Y4377160D01*
X4300427Y4115635D01*
X4277587Y3967421D01*
X4178332Y3681792D01*
X4015418Y3441838D01*
X3800436Y3254430D01*
X3544976Y3126437D01*
X3260631Y3064729D01*
X2958990Y3076175D01*
X2824204Y3106036D01*
X2662703Y3169502D01*
X2505179Y3259297D01*
X2464370Y3289425D01*
X2342883Y3418695D01*
X2222088Y3598811D01*
X2120598Y3797869D01*
X2057026Y3983966D01*
X2055702Y3989917D01*
X2045112Y4061727D01*
X2068190Y4095561D01*
X2144872Y4105693D01*
X2218291Y4106334D01*
X2329804Y4102747D01*
X2393502Y4078293D01*
X2434981Y4012431D01*
X2474480Y3900748D01*
X2570112Y3695522D01*
X2709358Y3549989D01*
X2888468Y3452188D01*
X3029671Y3402633D01*
X3150633Y3390806D01*
X3293033Y3414869D01*
X3356073Y3431546D01*
X3575525Y3533700D01*
X3745903Y3701771D01*
X3864109Y3930578D01*
X3927044Y4214941D01*
X3937000Y4402667D01*
X3906795Y4725098D01*
X3816740Y4990879D01*
X3667671Y5197685D01*
X3642950Y5221068D01*
X3444899Y5350904D01*
X3223021Y5415741D01*
X2997178Y5415120D01*
X2787230Y5348585D01*
X2640520Y5244185D01*
X2547347Y5139070D01*
X2482912Y5039266D01*
X2470222Y5006560D01*
X2442379Y4946134D01*
X2382326Y4917936D01*
X2264810Y4910683D01*
X2255654Y4910667D01*
X2139422Y4913560D01*
X2088382Y4931572D01*
X2083070Y4978706D01*
X2093806Y5027084D01*
X2197491Y5287920D01*
X2364184Y5494326D01*
X2589113Y5642611D01*
X2867510Y5729086D01*
X3025845Y5748029D01*
X3359480Y5734052D01*
G36*
X6711962Y5008331D02*
G01*
X6927134Y4921611D01*
X7080848Y4778858D01*
X7170988Y4581487D01*
X7180302Y4540250D01*
X7193283Y4453120D01*
X7172708Y4413724D01*
X7098231Y4403107D01*
X7032625Y4402667D01*
X6914101Y4412031D01*
X6863073Y4443993D01*
X6858000Y4468091D01*
X6829884Y4540845D01*
X6761460Y4629891D01*
X6754090Y4637425D01*
X6661272Y4707022D01*
X6545347Y4737108D01*
X6446010Y4741334D01*
X6249461Y4717808D01*
X6118811Y4648849D01*
X6057847Y4536882D01*
X6053666Y4490117D01*
X6063131Y4403878D01*
X6101052Y4343272D01*
X6181720Y4300422D01*
X6319427Y4267449D01*
X6509223Y4239008D01*
X6764332Y4195255D01*
X6950972Y4137209D01*
X7085051Y4057609D01*
X7182474Y3949191D01*
X7198380Y3924362D01*
X7266459Y3743035D01*
X7270495Y3549018D01*
X7215607Y3366344D01*
X7106917Y3219047D01*
X7037232Y3168021D01*
X6842999Y3094395D01*
X6627248Y3071621D01*
X6498166Y3087426D01*
X6276449Y3168830D01*
X6088731Y3289963D01*
X6085416Y3292835D01*
X6029541Y3334600D01*
X6012216Y3316684D01*
X6011333Y3293956D01*
X5973282Y3195649D01*
X5873511Y3125578D01*
X5733592Y3096785D01*
X5687402Y3098114D01*
X5580261Y3113894D01*
X5530882Y3152776D01*
X5512361Y3237816D01*
X5511234Y3249084D01*
X5509927Y3343670D01*
X5543250Y3380921D01*
X5606484Y3386667D01*
X5715000Y3386667D01*
X5715000Y3861406D01*
X6053666Y3861406D01*
X6088514Y3685558D01*
X6181269Y3533091D01*
X6314247Y3432336D01*
X6324096Y3428157D01*
X6446906Y3399779D01*
X6601177Y3389978D01*
X6741888Y3400147D01*
X6794280Y3413607D01*
X6873750Y3484238D01*
X6915471Y3600089D01*
X6907677Y3725798D01*
X6902846Y3739889D01*
X6827553Y3834989D01*
X6680164Y3906337D01*
X6455833Y3956412D01*
X6312930Y3979570D01*
X6184389Y4002525D01*
X6170083Y4005312D01*
X6095297Y4014040D01*
X6062195Y3986129D01*
X6053863Y3900676D01*
X6053666Y3861406D01*
X5715000Y3861406D01*
X5715000Y4019675D01*
X5718494Y4292504D01*
X5728469Y4514841D01*
X5744166Y4675163D01*
X5763843Y4759884D01*
X5860109Y4875978D01*
X6021887Y4965507D01*
X6232328Y5021525D01*
X6437448Y5037601D01*
X6711962Y5008331D01*
G37*
X6711962Y5008331D02*
X6927134Y4921611D01*
X7080848Y4778858D01*
X7170988Y4581487D01*
X7180302Y4540250D01*
X7193283Y4453120D01*
X7172708Y4413724D01*
X7098231Y4403107D01*
X7032625Y4402667D01*
X6914101Y4412031D01*
X6863073Y4443993D01*
X6858000Y4468091D01*
X6829884Y4540845D01*
X6761460Y4629891D01*
X6754090Y4637425D01*
X6661272Y4707022D01*
X6545347Y4737108D01*
X6446010Y4741334D01*
X6249461Y4717808D01*
X6118811Y4648849D01*
X6057847Y4536882D01*
X6053666Y4490117D01*
X6063131Y4403878D01*
X6101052Y4343272D01*
X6181720Y4300422D01*
X6319427Y4267449D01*
X6509223Y4239008D01*
X6764332Y4195255D01*
X6950972Y4137209D01*
X7085051Y4057609D01*
X7182474Y3949191D01*
X7198380Y3924362D01*
X7266459Y3743035D01*
X7270495Y3549018D01*
X7215607Y3366344D01*
X7106917Y3219047D01*
X7037232Y3168021D01*
X6842999Y3094395D01*
X6627248Y3071621D01*
X6498166Y3087426D01*
X6276449Y3168830D01*
X6088731Y3289963D01*
X6085416Y3292835D01*
X6029541Y3334600D01*
X6012216Y3316684D01*
X6011333Y3293956D01*
X5973282Y3195649D01*
X5873511Y3125578D01*
X5733592Y3096785D01*
X5687402Y3098114D01*
X5580261Y3113894D01*
X5530882Y3152776D01*
X5512361Y3237816D01*
X5511234Y3249084D01*
X5509927Y3343670D01*
X5543250Y3380921D01*
X5606484Y3386667D01*
X5715000Y3386667D01*
X5715000Y3861406D01*
X6053666Y3861406D01*
X6088514Y3685558D01*
X6181269Y3533091D01*
X6314247Y3432336D01*
X6324096Y3428157D01*
X6446906Y3399779D01*
X6601177Y3389978D01*
X6741888Y3400147D01*
X6794280Y3413607D01*
X6873750Y3484238D01*
X6915471Y3600089D01*
X6907677Y3725798D01*
X6902846Y3739889D01*
X6827553Y3834989D01*
X6680164Y3906337D01*
X6455833Y3956412D01*
X6312930Y3979570D01*
X6184389Y4002525D01*
X6170083Y4005312D01*
X6095297Y4014040D01*
X6062195Y3986129D01*
X6053863Y3900676D01*
X6053666Y3861406D01*
X5715000Y3861406D01*
X5715000Y4019675D01*
X5718494Y4292504D01*
X5728469Y4514841D01*
X5744166Y4675163D01*
X5763843Y4759884D01*
X5860109Y4875978D01*
X6021887Y4965507D01*
X6232328Y5021525D01*
X6437448Y5037601D01*
X6711962Y5008331D01*
G36*
X11627342Y5007717D02*
G01*
X11840606Y4919625D01*
X11993434Y4775444D01*
X12082701Y4577293D01*
X12090969Y4540250D01*
X12103950Y4453120D01*
X12083375Y4413724D01*
X12008897Y4403107D01*
X11943291Y4402667D01*
X11824768Y4412031D01*
X11773740Y4443993D01*
X11768666Y4468091D01*
X11740551Y4540845D01*
X11672127Y4629891D01*
X11664757Y4637425D01*
X11571939Y4707022D01*
X11456014Y4737108D01*
X11356677Y4741334D01*
X11160128Y4717808D01*
X11029477Y4648849D01*
X10968514Y4536882D01*
X10964333Y4490117D01*
X10973797Y4403878D01*
X11011718Y4343272D01*
X11092387Y4300422D01*
X11230094Y4267449D01*
X11419890Y4239008D01*
X11674781Y4195305D01*
X11861540Y4137254D01*
X11996417Y4057461D01*
X12095660Y3948536D01*
X12111562Y3924362D01*
X12178264Y3744589D01*
X12177091Y3548810D01*
X12114663Y3361250D01*
X11997600Y3206136D01*
X11895666Y3134352D01*
X11761213Y3092228D01*
X11591142Y3073446D01*
X11432383Y3082531D01*
X11408833Y3087426D01*
X11187116Y3168830D01*
X10999398Y3289963D01*
X10996083Y3292835D01*
X10940208Y3334600D01*
X10922883Y3316684D01*
X10922000Y3293956D01*
X10883949Y3195649D01*
X10784178Y3125578D01*
X10644259Y3096785D01*
X10598069Y3098114D01*
X10490815Y3114015D01*
X10441402Y3152883D01*
X10423002Y3237241D01*
X10422144Y3245820D01*
X10423201Y3341878D01*
X10462515Y3383865D01*
X10506811Y3393987D01*
X10543886Y3401979D01*
X10570649Y3422218D01*
X10589348Y3467375D01*
X10602231Y3550121D01*
X10611545Y3683128D01*
X10618868Y3862632D01*
X10964333Y3862632D01*
X10999120Y3685850D01*
X11091869Y3533053D01*
X11225164Y3432224D01*
X11234763Y3428157D01*
X11369334Y3395993D01*
X11521838Y3390851D01*
X11658679Y3411083D01*
X11744476Y3453191D01*
X11795515Y3552062D01*
X11809362Y3680244D01*
X11781135Y3789119D01*
X11778601Y3793080D01*
X11676174Y3874434D01*
X11492118Y3933869D01*
X11366500Y3955794D01*
X11221845Y3977887D01*
X11098453Y3999843D01*
X11059583Y4008128D01*
X10998454Y4014177D01*
X10971162Y3979426D01*
X10964399Y3883547D01*
X10964333Y3862632D01*
X10618868Y3862632D01*
X10619539Y3879067D01*
X10625666Y4064000D01*
X10637760Y4336798D01*
X10654326Y4558834D01*
X10674291Y4719118D01*
X10696582Y4806653D01*
X10698514Y4810326D01*
X10795566Y4904375D01*
X10956843Y4977961D01*
X11163039Y5024419D01*
X11356773Y5037601D01*
X11627342Y5007717D01*
G37*
X11627342Y5007717D02*
X11840606Y4919625D01*
X11993434Y4775444D01*
X12082701Y4577293D01*
X12090969Y4540250D01*
X12103950Y4453120D01*
X12083375Y4413724D01*
X12008897Y4403107D01*
X11943291Y4402667D01*
X11824768Y4412031D01*
X11773740Y4443993D01*
X11768666Y4468091D01*
X11740551Y4540845D01*
X11672127Y4629891D01*
X11664757Y4637425D01*
X11571939Y4707022D01*
X11456014Y4737108D01*
X11356677Y4741334D01*
X11160128Y4717808D01*
X11029477Y4648849D01*
X10968514Y4536882D01*
X10964333Y4490117D01*
X10973797Y4403878D01*
X11011718Y4343272D01*
X11092387Y4300422D01*
X11230094Y4267449D01*
X11419890Y4239008D01*
X11674781Y4195305D01*
X11861540Y4137254D01*
X11996417Y4057461D01*
X12095660Y3948536D01*
X12111562Y3924362D01*
X12178264Y3744589D01*
X12177091Y3548810D01*
X12114663Y3361250D01*
X11997600Y3206136D01*
X11895666Y3134352D01*
X11761213Y3092228D01*
X11591142Y3073446D01*
X11432383Y3082531D01*
X11408833Y3087426D01*
X11187116Y3168830D01*
X10999398Y3289963D01*
X10996083Y3292835D01*
X10940208Y3334600D01*
X10922883Y3316684D01*
X10922000Y3293956D01*
X10883949Y3195649D01*
X10784178Y3125578D01*
X10644259Y3096785D01*
X10598069Y3098114D01*
X10490815Y3114015D01*
X10441402Y3152883D01*
X10423002Y3237241D01*
X10422144Y3245820D01*
X10423201Y3341878D01*
X10462515Y3383865D01*
X10506811Y3393987D01*
X10543886Y3401979D01*
X10570649Y3422218D01*
X10589348Y3467375D01*
X10602231Y3550121D01*
X10611545Y3683128D01*
X10618868Y3862632D01*
X10964333Y3862632D01*
X10999120Y3685850D01*
X11091869Y3533053D01*
X11225164Y3432224D01*
X11234763Y3428157D01*
X11369334Y3395993D01*
X11521838Y3390851D01*
X11658679Y3411083D01*
X11744476Y3453191D01*
X11795515Y3552062D01*
X11809362Y3680244D01*
X11781135Y3789119D01*
X11778601Y3793080D01*
X11676174Y3874434D01*
X11492118Y3933869D01*
X11366500Y3955794D01*
X11221845Y3977887D01*
X11098453Y3999843D01*
X11059583Y4008128D01*
X10998454Y4014177D01*
X10971162Y3979426D01*
X10964399Y3883547D01*
X10964333Y3862632D01*
X10618868Y3862632D01*
X10619539Y3879067D01*
X10625666Y4064000D01*
X10637760Y4336798D01*
X10654326Y4558834D01*
X10674291Y4719118D01*
X10696582Y4806653D01*
X10698514Y4810326D01*
X10795566Y4904375D01*
X10956843Y4977961D01*
X11163039Y5024419D01*
X11356773Y5037601D01*
X11627342Y5007717D01*
G36*
X13692545Y5732551D02*
G01*
X13824882Y5718634D01*
X13929993Y5687976D01*
X14036529Y5634644D01*
X14061183Y5620349D01*
X14239281Y5475877D01*
X14359614Y5296299D01*
X14422195Y5097341D01*
X14427036Y4894729D01*
X14374149Y4704188D01*
X14263545Y4541445D01*
X14095235Y4422226D01*
X14060276Y4407178D01*
X13973030Y4378657D01*
X13826576Y4336798D01*
X13644035Y4288038D01*
X13510650Y4254115D01*
X13261998Y4187746D01*
X13084496Y4127695D01*
X12965651Y4067156D01*
X12892969Y3999324D01*
X12853957Y3917394D01*
X12847814Y3893062D01*
X12849180Y3726849D01*
X12923779Y3584856D01*
X13061685Y3475392D01*
X13252975Y3406762D01*
X13452776Y3386733D01*
X13691429Y3413642D01*
X13890736Y3489067D01*
X14038783Y3604830D01*
X14123658Y3752754D01*
X14139333Y3858043D01*
X14145375Y3932667D01*
X14178791Y3968015D01*
X14262512Y3978688D01*
X14329833Y3979334D01*
X14447341Y3975002D01*
X14503015Y3953483D01*
X14519572Y3901994D01*
X14520333Y3872141D01*
X14493403Y3719004D01*
X14423981Y3545269D01*
X14329118Y3390532D01*
X14296062Y3351375D01*
X14108983Y3207797D01*
X13869560Y3109185D01*
X13599544Y3059536D01*
X13320685Y3062846D01*
X13054733Y3123113D01*
X13054417Y3123226D01*
X12811602Y3228266D01*
X12643125Y3349218D01*
X12538719Y3498753D01*
X12488118Y3689543D01*
X12479272Y3833050D01*
X12510882Y4077119D01*
X12609349Y4271957D01*
X12772914Y4414091D01*
X12773816Y4414619D01*
X12868312Y4455992D01*
X13023058Y4508866D01*
X13215715Y4566107D01*
X13401689Y4615123D01*
X13602352Y4669000D01*
X13778172Y4724042D01*
X13909509Y4773597D01*
X13974954Y4809317D01*
X14041621Y4921721D01*
X14049638Y5065364D01*
X14000174Y5211569D01*
X13956006Y5274645D01*
X13875665Y5347400D01*
X13773650Y5387997D01*
X13622083Y5408855D01*
X13361339Y5404141D01*
X13158418Y5342909D01*
X13016652Y5226306D01*
X12993215Y5192053D01*
X12938552Y5083108D01*
X12912240Y4992757D01*
X12911824Y4984750D01*
X12894871Y4937669D01*
X12831066Y4915567D01*
X12721166Y4910667D01*
X12601231Y4919493D01*
X12540293Y4956131D01*
X12531138Y5035818D01*
X12566552Y5173795D01*
X12578864Y5211267D01*
X12682560Y5409049D01*
X12853035Y5569853D01*
X12975166Y5644529D01*
X13087021Y5693417D01*
X13213627Y5721677D01*
X13382148Y5733988D01*
X13504333Y5735659D01*
X13692545Y5732551D01*
G37*
X13692545Y5732551D02*
X13824882Y5718634D01*
X13929993Y5687976D01*
X14036529Y5634644D01*
X14061183Y5620349D01*
X14239281Y5475877D01*
X14359614Y5296299D01*
X14422195Y5097341D01*
X14427036Y4894729D01*
X14374149Y4704188D01*
X14263545Y4541445D01*
X14095235Y4422226D01*
X14060276Y4407178D01*
X13973030Y4378657D01*
X13826576Y4336798D01*
X13644035Y4288038D01*
X13510650Y4254115D01*
X13261998Y4187746D01*
X13084496Y4127695D01*
X12965651Y4067156D01*
X12892969Y3999324D01*
X12853957Y3917394D01*
X12847814Y3893062D01*
X12849180Y3726849D01*
X12923779Y3584856D01*
X13061685Y3475392D01*
X13252975Y3406762D01*
X13452776Y3386733D01*
X13691429Y3413642D01*
X13890736Y3489067D01*
X14038783Y3604830D01*
X14123658Y3752754D01*
X14139333Y3858043D01*
X14145375Y3932667D01*
X14178791Y3968015D01*
X14262512Y3978688D01*
X14329833Y3979334D01*
X14447341Y3975002D01*
X14503015Y3953483D01*
X14519572Y3901994D01*
X14520333Y3872141D01*
X14493403Y3719004D01*
X14423981Y3545269D01*
X14329118Y3390532D01*
X14296062Y3351375D01*
X14108983Y3207797D01*
X13869560Y3109185D01*
X13599544Y3059536D01*
X13320685Y3062846D01*
X13054733Y3123113D01*
X13054417Y3123226D01*
X12811602Y3228266D01*
X12643125Y3349218D01*
X12538719Y3498753D01*
X12488118Y3689543D01*
X12479272Y3833050D01*
X12510882Y4077119D01*
X12609349Y4271957D01*
X12772914Y4414091D01*
X12773816Y4414619D01*
X12868312Y4455992D01*
X13023058Y4508866D01*
X13215715Y4566107D01*
X13401689Y4615123D01*
X13602352Y4669000D01*
X13778172Y4724042D01*
X13909509Y4773597D01*
X13974954Y4809317D01*
X14041621Y4921721D01*
X14049638Y5065364D01*
X14000174Y5211569D01*
X13956006Y5274645D01*
X13875665Y5347400D01*
X13773650Y5387997D01*
X13622083Y5408855D01*
X13361339Y5404141D01*
X13158418Y5342909D01*
X13016652Y5226306D01*
X12993215Y5192053D01*
X12938552Y5083108D01*
X12912240Y4992757D01*
X12911824Y4984750D01*
X12894871Y4937669D01*
X12831066Y4915567D01*
X12721166Y4910667D01*
X12601231Y4919493D01*
X12540293Y4956131D01*
X12531138Y5035818D01*
X12566552Y5173795D01*
X12578864Y5211267D01*
X12682560Y5409049D01*
X12853035Y5569853D01*
X12975166Y5644529D01*
X13087021Y5693417D01*
X13213627Y5721677D01*
X13382148Y5733988D01*
X13504333Y5735659D01*
X13692545Y5732551D01*
G36*
X-628217Y4349750D02*
G01*
X-620817Y4089304D01*
X-610886Y3899319D01*
X-596751Y3765597D01*
X-576737Y3673936D01*
X-549171Y3610137D01*
X-539157Y3594275D01*
X-407506Y3462733D01*
X-248405Y3398034D01*
X-82092Y3404240D01*
X57790Y3474406D01*
X169333Y3562146D01*
X169333Y4995334D01*
X557189Y4995334D01*
X543133Y4243917D01*
X534742Y3929137D01*
X520772Y3687170D01*
X498102Y3506198D01*
X463611Y3374404D01*
X414177Y3279968D01*
X346677Y3211074D01*
X257992Y3155903D01*
X255385Y3154550D01*
X126380Y3114369D01*
X-42487Y3094996D01*
X-215930Y3097228D01*
X-358659Y3121859D01*
X-402167Y3139736D01*
X-496582Y3203130D01*
X-586198Y3276032D01*
X-685563Y3365500D01*
X-670865Y3259667D01*
X-670701Y3189351D01*
X-711162Y3155760D01*
X-814215Y3140753D01*
X-814917Y3140695D01*
X-973667Y3127556D01*
X-973667Y4995334D01*
X-642599Y4995334D01*
X-628217Y4349750D01*
G37*
X-628217Y4349750D02*
X-620817Y4089304D01*
X-610886Y3899319D01*
X-596751Y3765597D01*
X-576737Y3673936D01*
X-549171Y3610137D01*
X-539157Y3594275D01*
X-407506Y3462733D01*
X-248405Y3398034D01*
X-82092Y3404240D01*
X57790Y3474406D01*
X169333Y3562146D01*
X169333Y4995334D01*
X557189Y4995334D01*
X543133Y4243917D01*
X534742Y3929137D01*
X520772Y3687170D01*
X498102Y3506198D01*
X463611Y3374404D01*
X414177Y3279968D01*
X346677Y3211074D01*
X257992Y3155903D01*
X255385Y3154550D01*
X126380Y3114369D01*
X-42487Y3094996D01*
X-215930Y3097228D01*
X-358659Y3121859D01*
X-402167Y3139736D01*
X-496582Y3203130D01*
X-586198Y3276032D01*
X-685563Y3365500D01*
X-670865Y3259667D01*
X-670701Y3189351D01*
X-711162Y3155760D01*
X-814215Y3140753D01*
X-814917Y3140695D01*
X-973667Y3127556D01*
X-973667Y4995334D01*
X-642599Y4995334D01*
X-628217Y4349750D01*
G36*
X8119436Y5259917D02*
G01*
X8127976Y5115736D01*
X8143039Y5036613D01*
X8174976Y5003026D01*
X8234136Y4995452D01*
X8259702Y4995334D01*
X8346411Y4987476D01*
X8376877Y4946400D01*
X8374098Y4857750D01*
X8351757Y4758725D01*
X8295480Y4715982D01*
X8247232Y4707044D01*
X8133631Y4693920D01*
X8106833Y3294476D01*
X7988056Y3192405D01*
X7828040Y3109422D01*
X7628724Y3099330D01*
X7524750Y3119515D01*
X7467059Y3167980D01*
X7446100Y3250797D01*
X7460965Y3333959D01*
X7510748Y3383462D01*
X7531870Y3386667D01*
X7612145Y3389419D01*
X7669465Y3405806D01*
X7707696Y3448028D01*
X7730700Y3528282D01*
X7742343Y3658767D01*
X7746487Y3851681D01*
X7747000Y4065848D01*
X7747000Y4693636D01*
X7609416Y4706902D01*
X7512434Y4727426D01*
X7470661Y4782617D01*
X7458567Y4857750D01*
X7455989Y4949686D01*
X7488384Y4987592D01*
X7579239Y4995305D01*
X7594131Y4995334D01*
X7742959Y4995334D01*
X7755563Y5259917D01*
X7768166Y5524500D01*
X8106833Y5524500D01*
X8119436Y5259917D01*
G37*
X8119436Y5259917D02*
X8127976Y5115736D01*
X8143039Y5036613D01*
X8174976Y5003026D01*
X8234136Y4995452D01*
X8259702Y4995334D01*
X8346411Y4987476D01*
X8376877Y4946400D01*
X8374098Y4857750D01*
X8351757Y4758725D01*
X8295480Y4715982D01*
X8247232Y4707044D01*
X8133631Y4693920D01*
X8106833Y3294476D01*
X7988056Y3192405D01*
X7828040Y3109422D01*
X7628724Y3099330D01*
X7524750Y3119515D01*
X7467059Y3167980D01*
X7446100Y3250797D01*
X7460965Y3333959D01*
X7510748Y3383462D01*
X7531870Y3386667D01*
X7612145Y3389419D01*
X7669465Y3405806D01*
X7707696Y3448028D01*
X7730700Y3528282D01*
X7742343Y3658767D01*
X7746487Y3851681D01*
X7747000Y4065848D01*
X7747000Y4693636D01*
X7609416Y4706902D01*
X7512434Y4727426D01*
X7470661Y4782617D01*
X7458567Y4857750D01*
X7455989Y4949686D01*
X7488384Y4987592D01*
X7579239Y4995305D01*
X7594131Y4995334D01*
X7742959Y4995334D01*
X7755563Y5259917D01*
X7768166Y5524500D01*
X8106833Y5524500D01*
X8119436Y5259917D01*
G36*
X-8014416Y4445000D02*
G01*
X-7898261Y4137780D01*
X-7792260Y3855851D01*
X-7700039Y3608985D01*
X-7625228Y3406955D01*
X-7571454Y3259534D01*
X-7542345Y3176495D01*
X-7538166Y3162098D01*
X-7574146Y3144574D01*
X-7668738Y3138600D01*
X-7731745Y3140931D01*
X-7928155Y3153834D01*
X-8059360Y3525506D01*
X-8190566Y3897179D01*
X-8674099Y3885340D01*
X-9157632Y3873500D01*
X-9288400Y3503204D01*
X-9419167Y3132908D01*
X-9623103Y3132788D01*
X-9745019Y3136918D01*
X-9800457Y3154411D01*
X-9807398Y3192638D01*
X-9803519Y3206750D01*
X-9783530Y3264004D01*
X-9738300Y3390320D01*
X-9671615Y3575224D01*
X-9587265Y3808243D01*
X-9489034Y4078904D01*
X-9436746Y4222671D01*
X-9017000Y4222671D01*
X-8977920Y4208336D01*
X-8873658Y4197383D01*
X-8723681Y4191530D01*
X-8658428Y4191000D01*
X-8299855Y4191000D01*
X-8467928Y4660186D01*
X-8533614Y4844965D01*
X-8587275Y4998604D01*
X-8623278Y5104785D01*
X-8636000Y5147019D01*
X-8668332Y5164418D01*
X-8674834Y5164667D01*
X-8699205Y5127590D01*
X-8742743Y5029124D01*
X-8798491Y4888417D01*
X-8859496Y4724615D01*
X-8918803Y4556866D01*
X-8969455Y4404319D01*
X-9004499Y4286119D01*
X-9017000Y4222671D01*
X-9436746Y4222671D01*
X-9380712Y4376735D01*
X-9340432Y4487334D01*
X-8900865Y5693834D01*
X-8487834Y5693834D01*
X-8014416Y4445000D01*
G37*
X-8014416Y4445000D02*
X-7898261Y4137780D01*
X-7792260Y3855851D01*
X-7700039Y3608985D01*
X-7625228Y3406955D01*
X-7571454Y3259534D01*
X-7542345Y3176495D01*
X-7538166Y3162098D01*
X-7574146Y3144574D01*
X-7668738Y3138600D01*
X-7731745Y3140931D01*
X-7928155Y3153834D01*
X-8059360Y3525506D01*
X-8190566Y3897179D01*
X-8674099Y3885340D01*
X-9157632Y3873500D01*
X-9288400Y3503204D01*
X-9419167Y3132908D01*
X-9623103Y3132788D01*
X-9745019Y3136918D01*
X-9800457Y3154411D01*
X-9807398Y3192638D01*
X-9803519Y3206750D01*
X-9783530Y3264004D01*
X-9738300Y3390320D01*
X-9671615Y3575224D01*
X-9587265Y3808243D01*
X-9489034Y4078904D01*
X-9436746Y4222671D01*
X-9017000Y4222671D01*
X-8977920Y4208336D01*
X-8873658Y4197383D01*
X-8723681Y4191530D01*
X-8658428Y4191000D01*
X-8299855Y4191000D01*
X-8467928Y4660186D01*
X-8533614Y4844965D01*
X-8587275Y4998604D01*
X-8623278Y5104785D01*
X-8636000Y5147019D01*
X-8668332Y5164418D01*
X-8674834Y5164667D01*
X-8699205Y5127590D01*
X-8742743Y5029124D01*
X-8798491Y4888417D01*
X-8859496Y4724615D01*
X-8918803Y4556866D01*
X-8969455Y4404319D01*
X-9004499Y4286119D01*
X-9017000Y4222671D01*
X-9436746Y4222671D01*
X-9380712Y4376735D01*
X-9340432Y4487334D01*
X-8900865Y5693834D01*
X-8487834Y5693834D01*
X-8014416Y4445000D01*
G36*
X-1397000Y4701687D02*
G01*
X-1876897Y4689761D01*
X-2356793Y4677834D01*
X-1834564Y4048764D01*
X-1648751Y3822911D01*
X-1511734Y3650510D01*
X-1416566Y3521284D01*
X-1356300Y3424959D01*
X-1323991Y3351257D01*
X-1312691Y3289902D01*
X-1312334Y3276181D01*
X-1312334Y3132667D01*
X-2878667Y3132667D01*
X-2878667Y3426543D01*
X-2334623Y3438355D01*
X-1790580Y3450167D01*
X-2313457Y4083539D01*
X-2500265Y4312019D01*
X-2638136Y4486816D01*
X-2733869Y4617980D01*
X-2794266Y4715558D01*
X-2826128Y4789600D01*
X-2836255Y4850154D01*
X-2836334Y4856122D01*
X-2836334Y4995334D01*
X-1397000Y4995334D01*
X-1397000Y4701687D01*
G37*
X-1397000Y4701687D02*
X-1876897Y4689761D01*
X-2356793Y4677834D01*
X-1834564Y4048764D01*
X-1648751Y3822911D01*
X-1511734Y3650510D01*
X-1416566Y3521284D01*
X-1356300Y3424959D01*
X-1323991Y3351257D01*
X-1312691Y3289902D01*
X-1312334Y3276181D01*
X-1312334Y3132667D01*
X-2878667Y3132667D01*
X-2878667Y3426543D01*
X-2334623Y3438355D01*
X-1790580Y3450167D01*
X-2313457Y4083539D01*
X-2500265Y4312019D01*
X-2638136Y4486816D01*
X-2733869Y4617980D01*
X-2794266Y4715558D01*
X-2826128Y4789600D01*
X-2836255Y4850154D01*
X-2836334Y4856122D01*
X-2836334Y4995334D01*
X-1397000Y4995334D01*
X-1397000Y4701687D01*
G36*
X1054612Y5007456D02*
G01*
X1201792Y4909109D01*
X1205026Y4906282D01*
X1354666Y4774896D01*
X1354666Y4885115D01*
X1363253Y4956022D01*
X1404978Y4987544D01*
X1503786Y4995265D01*
X1524000Y4995334D01*
X1693333Y4995334D01*
X1693333Y3132667D01*
X1354666Y3132667D01*
X1354666Y3705527D01*
X1350342Y3999947D01*
X1334997Y4222196D01*
X1305077Y4384439D01*
X1257025Y4498842D01*
X1187285Y4577569D01*
X1092301Y4632787D01*
X1082383Y4637024D01*
X960617Y4678571D01*
X857876Y4698659D01*
X848026Y4699000D01*
X791837Y4712746D01*
X766982Y4768900D01*
X762000Y4868334D01*
X766517Y4976757D01*
X794165Y5024942D01*
X866085Y5037293D01*
X908693Y5037667D01*
X1054612Y5007456D01*
G37*
X1054612Y5007456D02*
X1201792Y4909109D01*
X1205026Y4906282D01*
X1354666Y4774896D01*
X1354666Y4885115D01*
X1363253Y4956022D01*
X1404978Y4987544D01*
X1503786Y4995265D01*
X1524000Y4995334D01*
X1693333Y4995334D01*
X1693333Y3132667D01*
X1354666Y3132667D01*
X1354666Y3705527D01*
X1350342Y3999947D01*
X1334997Y4222196D01*
X1305077Y4384439D01*
X1257025Y4498842D01*
X1187285Y4577569D01*
X1092301Y4632787D01*
X1082383Y4637024D01*
X960617Y4678571D01*
X857876Y4698659D01*
X848026Y4699000D01*
X791837Y4712746D01*
X766982Y4768900D01*
X762000Y4868334D01*
X766517Y4976757D01*
X794165Y5024942D01*
X866085Y5037293D01*
X908693Y5037667D01*
X1054612Y5007456D01*
G36*
X9524913Y4979820D02*
G01*
X9705537Y4876301D01*
X9726083Y4858135D01*
X9821333Y4768909D01*
X9821333Y4882121D01*
X9829518Y4954894D01*
X9870088Y4987247D01*
X9967069Y4995242D01*
X9990666Y4995334D01*
X10160000Y4995334D01*
X10160000Y3132667D01*
X9779000Y3132667D01*
X9779000Y4436047D01*
X9659243Y4564246D01*
X9508577Y4679400D01*
X9343941Y4729409D01*
X9186042Y4710366D01*
X9108445Y4668208D01*
X9067290Y4635541D01*
X9037236Y4599448D01*
X9016060Y4546646D01*
X9001538Y4463852D01*
X8991447Y4337784D01*
X8983563Y4155159D01*
X8975663Y3902695D01*
X8974666Y3869033D01*
X8953500Y3153834D01*
X8586734Y3127460D01*
X8600828Y3881480D01*
X8609202Y4196667D01*
X8623107Y4439020D01*
X8645653Y4620341D01*
X8679948Y4752427D01*
X8729104Y4847079D01*
X8796228Y4916095D01*
X8884432Y4971276D01*
X8888614Y4973451D01*
X9085501Y5032656D01*
X9307918Y5033359D01*
X9524913Y4979820D01*
G37*
X9524913Y4979820D02*
X9705537Y4876301D01*
X9726083Y4858135D01*
X9821333Y4768909D01*
X9821333Y4882121D01*
X9829518Y4954894D01*
X9870088Y4987247D01*
X9967069Y4995242D01*
X9990666Y4995334D01*
X10160000Y4995334D01*
X10160000Y3132667D01*
X9779000Y3132667D01*
X9779000Y4436047D01*
X9659243Y4564246D01*
X9508577Y4679400D01*
X9343941Y4729409D01*
X9186042Y4710366D01*
X9108445Y4668208D01*
X9067290Y4635541D01*
X9037236Y4599448D01*
X9016060Y4546646D01*
X9001538Y4463852D01*
X8991447Y4337784D01*
X8983563Y4155159D01*
X8975663Y3902695D01*
X8974666Y3869033D01*
X8953500Y3153834D01*
X8586734Y3127460D01*
X8600828Y3881480D01*
X8609202Y4196667D01*
X8623107Y4439020D01*
X8645653Y4620341D01*
X8679948Y4752427D01*
X8729104Y4847079D01*
X8796228Y4916095D01*
X8884432Y4971276D01*
X8888614Y4973451D01*
X9085501Y5032656D01*
X9307918Y5033359D01*
X9524913Y4979820D01*
G36*
X4271668Y10470912D02*
G01*
X4474824Y10382110D01*
X4643214Y10232354D01*
X4769411Y10035294D01*
X4834989Y9814073D01*
X4843931Y9584341D01*
X4800220Y9361747D01*
X4707839Y9161939D01*
X4570772Y9000565D01*
X4393002Y8893276D01*
X4295360Y8865764D01*
X4078281Y8847197D01*
X3869482Y8868161D01*
X3695834Y8924194D01*
X3612495Y8979169D01*
X3502420Y9080500D01*
X3532555Y8911167D01*
X3607565Y8635141D01*
X3720718Y8430522D01*
X3870253Y8299453D01*
X4054404Y8244077D01*
X4083039Y8242481D01*
X4231115Y8272526D01*
X4359373Y8357255D01*
X4440575Y8475899D01*
X4453328Y8524845D01*
X4478241Y8584700D01*
X4546017Y8615646D01*
X4646083Y8627851D01*
X4761499Y8625568D01*
X4819078Y8590632D01*
X4821533Y8512440D01*
X4771573Y8380388D01*
X4730750Y8296689D01*
X4594510Y8115667D01*
X4405353Y7995420D01*
X4173179Y7939962D01*
X3907889Y7953303D01*
X3890964Y7956411D01*
X3668766Y8040164D01*
X3483059Y8196501D01*
X3336526Y8420384D01*
X3231846Y8706776D01*
X3171700Y9050637D01*
X3157456Y9334951D01*
X3178539Y9647126D01*
X3556624Y9647126D01*
X3591791Y9446226D01*
X3688639Y9289107D01*
X3832085Y9185084D01*
X4007042Y9143472D01*
X4198427Y9173585D01*
X4271806Y9205504D01*
X4396192Y9315353D01*
X4467117Y9481631D01*
X4479268Y9691123D01*
X4476862Y9715591D01*
X4428677Y9921936D01*
X4333225Y10064264D01*
X4182308Y10153669D01*
X4143789Y10166463D01*
X4019918Y10195382D01*
X3926057Y10186463D01*
X3816545Y10136464D01*
X3671081Y10027045D01*
X3587635Y9880930D01*
X3557176Y9681119D01*
X3556624Y9647126D01*
X3178539Y9647126D01*
X3181740Y9694519D01*
X3257616Y9989050D01*
X3384386Y10217604D01*
X3561348Y10379239D01*
X3787806Y10473014D01*
X4021666Y10498667D01*
X4271668Y10470912D01*
G37*
X4271668Y10470912D02*
X4474824Y10382110D01*
X4643214Y10232354D01*
X4769411Y10035294D01*
X4834989Y9814073D01*
X4843931Y9584341D01*
X4800220Y9361747D01*
X4707839Y9161939D01*
X4570772Y9000565D01*
X4393002Y8893276D01*
X4295360Y8865764D01*
X4078281Y8847197D01*
X3869482Y8868161D01*
X3695834Y8924194D01*
X3612495Y8979169D01*
X3502420Y9080500D01*
X3532555Y8911167D01*
X3607565Y8635141D01*
X3720718Y8430522D01*
X3870253Y8299453D01*
X4054404Y8244077D01*
X4083039Y8242481D01*
X4231115Y8272526D01*
X4359373Y8357255D01*
X4440575Y8475899D01*
X4453328Y8524845D01*
X4478241Y8584700D01*
X4546017Y8615646D01*
X4646083Y8627851D01*
X4761499Y8625568D01*
X4819078Y8590632D01*
X4821533Y8512440D01*
X4771573Y8380388D01*
X4730750Y8296689D01*
X4594510Y8115667D01*
X4405353Y7995420D01*
X4173179Y7939962D01*
X3907889Y7953303D01*
X3890964Y7956411D01*
X3668766Y8040164D01*
X3483059Y8196501D01*
X3336526Y8420384D01*
X3231846Y8706776D01*
X3171700Y9050637D01*
X3157456Y9334951D01*
X3178539Y9647126D01*
X3556624Y9647126D01*
X3591791Y9446226D01*
X3688639Y9289107D01*
X3832085Y9185084D01*
X4007042Y9143472D01*
X4198427Y9173585D01*
X4271806Y9205504D01*
X4396192Y9315353D01*
X4467117Y9481631D01*
X4479268Y9691123D01*
X4476862Y9715591D01*
X4428677Y9921936D01*
X4333225Y10064264D01*
X4182308Y10153669D01*
X4143789Y10166463D01*
X4019918Y10195382D01*
X3926057Y10186463D01*
X3816545Y10136464D01*
X3671081Y10027045D01*
X3587635Y9880930D01*
X3557176Y9681119D01*
X3556624Y9647126D01*
X3178539Y9647126D01*
X3181740Y9694519D01*
X3257616Y9989050D01*
X3384386Y10217604D01*
X3561348Y10379239D01*
X3787806Y10473014D01*
X4021666Y10498667D01*
X4271668Y10470912D01*
G36*
X-3783660Y9885403D02*
G01*
X-3586181Y9810938D01*
X-3435699Y9698821D01*
X-3362298Y9587366D01*
X-3307655Y9431987D01*
X-3304056Y9335294D01*
X-3355546Y9285550D01*
X-3466171Y9271016D01*
X-3471334Y9271000D01*
X-3582118Y9278101D01*
X-3631080Y9306798D01*
X-3640667Y9355667D01*
X-3678169Y9479389D01*
X-3786355Y9564174D01*
X-3958742Y9605929D01*
X-4042834Y9609667D01*
X-4243272Y9585324D01*
X-4375968Y9513000D01*
X-4439380Y9393753D01*
X-4445000Y9333593D01*
X-4432908Y9264818D01*
X-4388066Y9213198D01*
X-4297625Y9173096D01*
X-4148739Y9138874D01*
X-3928558Y9104897D01*
X-3921584Y9103941D01*
X-3644898Y9048023D01*
X-3442872Y8963001D01*
X-3308813Y8843221D01*
X-3236027Y8683026D01*
X-3217334Y8509000D01*
X-3253820Y8294337D01*
X-3359141Y8121682D01*
X-3492681Y8019109D01*
X-3664641Y7966712D01*
X-3874257Y7961501D01*
X-4090979Y8000494D01*
X-4284261Y8080710D01*
X-4314172Y8099276D01*
X-4422080Y8163693D01*
X-4476065Y8176008D01*
X-4487334Y8152168D01*
X-4525076Y8068638D01*
X-4621038Y8004152D01*
X-4749322Y7968128D01*
X-4884029Y7969980D01*
X-4942417Y7986704D01*
X-4980512Y8040063D01*
X-4995334Y8131528D01*
X-4983156Y8220655D01*
X-4931957Y8252511D01*
X-4889500Y8255000D01*
X-4783667Y8255000D01*
X-4783667Y8782730D01*
X-4445000Y8782730D01*
X-4445000Y8781017D01*
X-4411486Y8585650D01*
X-4319794Y8421050D01*
X-4201052Y8321269D01*
X-4047350Y8268689D01*
X-3879089Y8257573D01*
X-3728258Y8286870D01*
X-3640667Y8339667D01*
X-3565130Y8458606D01*
X-3566610Y8576019D01*
X-3637858Y8682188D01*
X-3771620Y8767396D01*
X-3960645Y8821926D01*
X-4005404Y8828414D01*
X-4158747Y8851243D01*
X-4290207Y8877681D01*
X-4349750Y8894622D01*
X-4413156Y8910192D01*
X-4439639Y8879176D01*
X-4445000Y8782730D01*
X-4783667Y8782730D01*
X-4783667Y8892103D01*
X-4781082Y9180544D01*
X-4770586Y9397188D01*
X-4748071Y9554821D01*
X-4709426Y9666228D01*
X-4650543Y9744192D01*
X-4567312Y9801499D01*
X-4478377Y9841897D01*
X-4247728Y9904980D01*
X-4010166Y9918116D01*
X-3783660Y9885403D01*
G37*
X-3783660Y9885403D02*
X-3586181Y9810938D01*
X-3435699Y9698821D01*
X-3362298Y9587366D01*
X-3307655Y9431987D01*
X-3304056Y9335294D01*
X-3355546Y9285550D01*
X-3466171Y9271016D01*
X-3471334Y9271000D01*
X-3582118Y9278101D01*
X-3631080Y9306798D01*
X-3640667Y9355667D01*
X-3678169Y9479389D01*
X-3786355Y9564174D01*
X-3958742Y9605929D01*
X-4042834Y9609667D01*
X-4243272Y9585324D01*
X-4375968Y9513000D01*
X-4439380Y9393753D01*
X-4445000Y9333593D01*
X-4432908Y9264818D01*
X-4388066Y9213198D01*
X-4297625Y9173096D01*
X-4148739Y9138874D01*
X-3928558Y9104897D01*
X-3921584Y9103941D01*
X-3644898Y9048023D01*
X-3442872Y8963001D01*
X-3308813Y8843221D01*
X-3236027Y8683026D01*
X-3217334Y8509000D01*
X-3253820Y8294337D01*
X-3359141Y8121682D01*
X-3492681Y8019109D01*
X-3664641Y7966712D01*
X-3874257Y7961501D01*
X-4090979Y8000494D01*
X-4284261Y8080710D01*
X-4314172Y8099276D01*
X-4422080Y8163693D01*
X-4476065Y8176008D01*
X-4487334Y8152168D01*
X-4525076Y8068638D01*
X-4621038Y8004152D01*
X-4749322Y7968128D01*
X-4884029Y7969980D01*
X-4942417Y7986704D01*
X-4980512Y8040063D01*
X-4995334Y8131528D01*
X-4983156Y8220655D01*
X-4931957Y8252511D01*
X-4889500Y8255000D01*
X-4783667Y8255000D01*
X-4783667Y8782730D01*
X-4445000Y8782730D01*
X-4445000Y8781017D01*
X-4411486Y8585650D01*
X-4319794Y8421050D01*
X-4201052Y8321269D01*
X-4047350Y8268689D01*
X-3879089Y8257573D01*
X-3728258Y8286870D01*
X-3640667Y8339667D01*
X-3565130Y8458606D01*
X-3566610Y8576019D01*
X-3637858Y8682188D01*
X-3771620Y8767396D01*
X-3960645Y8821926D01*
X-4005404Y8828414D01*
X-4158747Y8851243D01*
X-4290207Y8877681D01*
X-4349750Y8894622D01*
X-4413156Y8910192D01*
X-4439639Y8879176D01*
X-4445000Y8782730D01*
X-4783667Y8782730D01*
X-4783667Y8892103D01*
X-4781082Y9180544D01*
X-4770586Y9397188D01*
X-4748071Y9554821D01*
X-4709426Y9666228D01*
X-4650543Y9744192D01*
X-4567312Y9801499D01*
X-4478377Y9841897D01*
X-4247728Y9904980D01*
X-4010166Y9918116D01*
X-3783660Y9885403D01*
G36*
X9694333Y8001000D02*
G01*
X9525000Y8001000D01*
X9414029Y8008216D01*
X9365031Y8037086D01*
X9355666Y8084391D01*
X9350550Y8132400D01*
X9322684Y8137764D01*
X9253288Y8097904D01*
X9201592Y8063225D01*
X9012659Y7981292D01*
X8792885Y7957295D01*
X8574213Y7992363D01*
X8466006Y8037225D01*
X8294846Y8173551D01*
X8164548Y8367289D01*
X8076334Y8601037D01*
X8031425Y8857393D01*
X8031151Y9045501D01*
X8388441Y9045501D01*
X8388605Y8830873D01*
X8424930Y8627103D01*
X8497045Y8454881D01*
X8604581Y8334897D01*
X8630547Y8318859D01*
X8816387Y8260316D01*
X8998390Y8281900D01*
X9137926Y8362219D01*
X9238415Y8476596D01*
X9311809Y8610952D01*
X9315811Y8622344D01*
X9342006Y8763995D01*
X9347842Y8943621D01*
X9335238Y9129687D01*
X9306111Y9290657D01*
X9269437Y9384771D01*
X9151565Y9505841D01*
X8992329Y9582634D01*
X8819226Y9608375D01*
X8659752Y9576286D01*
X8608604Y9547632D01*
X8498071Y9424571D01*
X8424807Y9250297D01*
X8388441Y9045501D01*
X8031151Y9045501D01*
X8031044Y9118954D01*
X8076414Y9368319D01*
X8168757Y9588084D01*
X8309294Y9760849D01*
X8343034Y9788038D01*
X8545229Y9889214D01*
X8774601Y9924604D01*
X9005463Y9894557D01*
X9212129Y9799423D01*
X9244306Y9775784D01*
X9355666Y9688189D01*
X9355666Y10583334D01*
X9694333Y10583334D01*
X9694333Y8001000D01*
G37*
X9694333Y8001000D02*
X9525000Y8001000D01*
X9414029Y8008216D01*
X9365031Y8037086D01*
X9355666Y8084391D01*
X9350550Y8132400D01*
X9322684Y8137764D01*
X9253288Y8097904D01*
X9201592Y8063225D01*
X9012659Y7981292D01*
X8792885Y7957295D01*
X8574213Y7992363D01*
X8466006Y8037225D01*
X8294846Y8173551D01*
X8164548Y8367289D01*
X8076334Y8601037D01*
X8031425Y8857393D01*
X8031151Y9045501D01*
X8388441Y9045501D01*
X8388605Y8830873D01*
X8424930Y8627103D01*
X8497045Y8454881D01*
X8604581Y8334897D01*
X8630547Y8318859D01*
X8816387Y8260316D01*
X8998390Y8281900D01*
X9137926Y8362219D01*
X9238415Y8476596D01*
X9311809Y8610952D01*
X9315811Y8622344D01*
X9342006Y8763995D01*
X9347842Y8943621D01*
X9335238Y9129687D01*
X9306111Y9290657D01*
X9269437Y9384771D01*
X9151565Y9505841D01*
X8992329Y9582634D01*
X8819226Y9608375D01*
X8659752Y9576286D01*
X8608604Y9547632D01*
X8498071Y9424571D01*
X8424807Y9250297D01*
X8388441Y9045501D01*
X8031151Y9045501D01*
X8031044Y9118954D01*
X8076414Y9368319D01*
X8168757Y9588084D01*
X8309294Y9760849D01*
X8343034Y9788038D01*
X8545229Y9889214D01*
X8774601Y9924604D01*
X9005463Y9894557D01*
X9212129Y9799423D01*
X9244306Y9775784D01*
X9355666Y9688189D01*
X9355666Y10583334D01*
X9694333Y10583334D01*
X9694333Y8001000D01*
G36*
X11038411Y9896475D02*
G01*
X11175974Y9858945D01*
X11304164Y9779982D01*
X11441866Y9658317D01*
X11589216Y9466485D01*
X11681418Y9237667D01*
X11720544Y8988175D01*
X11708666Y8734321D01*
X11647856Y8492418D01*
X11540183Y8278778D01*
X11387720Y8109713D01*
X11233442Y8016908D01*
X11089816Y7980757D01*
X10902495Y7964087D01*
X10708615Y7967446D01*
X10545311Y7991378D01*
X10498666Y8006111D01*
X10358898Y8089140D01*
X10223785Y8214742D01*
X10112661Y8359490D01*
X10044858Y8499958D01*
X10033000Y8570398D01*
X10067605Y8619875D01*
X10151217Y8641176D01*
X10253529Y8635751D01*
X10344233Y8605052D01*
X10392243Y8553193D01*
X10472800Y8424291D01*
X10609541Y8321245D01*
X10774326Y8262291D01*
X10852328Y8255000D01*
X11049578Y8287925D01*
X11196204Y8388207D01*
X11286305Y8534340D01*
X11325981Y8632024D01*
X11344106Y8702708D01*
X11330633Y8751028D01*
X11275515Y8781623D01*
X11168703Y8799130D01*
X11000149Y8808186D01*
X10759807Y8813431D01*
X10678583Y8814842D01*
X10011833Y8826500D01*
X10015205Y8995834D01*
X10024432Y9101667D01*
X10361083Y9101667D01*
X10853208Y9101667D01*
X11098091Y9105568D01*
X11259238Y9117306D01*
X11337220Y9136935D01*
X11345333Y9148186D01*
X11315427Y9261295D01*
X11240818Y9390494D01*
X11144167Y9500586D01*
X11094700Y9537444D01*
X10916712Y9600232D01*
X10737214Y9592420D01*
X10575781Y9522261D01*
X10451989Y9398007D01*
X10387436Y9239250D01*
X10361083Y9101667D01*
X10024432Y9101667D01*
X10037993Y9257190D01*
X10098729Y9460363D01*
X10203722Y9625705D01*
X10214343Y9638045D01*
X10380786Y9787258D01*
X10571954Y9873286D01*
X10809878Y9905276D01*
X10859923Y9906000D01*
X11038411Y9896475D01*
G37*
X11038411Y9896475D02*
X11175974Y9858945D01*
X11304164Y9779982D01*
X11441866Y9658317D01*
X11589216Y9466485D01*
X11681418Y9237667D01*
X11720544Y8988175D01*
X11708666Y8734321D01*
X11647856Y8492418D01*
X11540183Y8278778D01*
X11387720Y8109713D01*
X11233442Y8016908D01*
X11089816Y7980757D01*
X10902495Y7964087D01*
X10708615Y7967446D01*
X10545311Y7991378D01*
X10498666Y8006111D01*
X10358898Y8089140D01*
X10223785Y8214742D01*
X10112661Y8359490D01*
X10044858Y8499958D01*
X10033000Y8570398D01*
X10067605Y8619875D01*
X10151217Y8641176D01*
X10253529Y8635751D01*
X10344233Y8605052D01*
X10392243Y8553193D01*
X10472800Y8424291D01*
X10609541Y8321245D01*
X10774326Y8262291D01*
X10852328Y8255000D01*
X11049578Y8287925D01*
X11196204Y8388207D01*
X11286305Y8534340D01*
X11325981Y8632024D01*
X11344106Y8702708D01*
X11330633Y8751028D01*
X11275515Y8781623D01*
X11168703Y8799130D01*
X11000149Y8808186D01*
X10759807Y8813431D01*
X10678583Y8814842D01*
X10011833Y8826500D01*
X10015205Y8995834D01*
X10024432Y9101667D01*
X10361083Y9101667D01*
X10853208Y9101667D01*
X11098091Y9105568D01*
X11259238Y9117306D01*
X11337220Y9136935D01*
X11345333Y9148186D01*
X11315427Y9261295D01*
X11240818Y9390494D01*
X11144167Y9500586D01*
X11094700Y9537444D01*
X10916712Y9600232D01*
X10737214Y9592420D01*
X10575781Y9522261D01*
X10451989Y9398007D01*
X10387436Y9239250D01*
X10361083Y9101667D01*
X10024432Y9101667D01*
X10037993Y9257190D01*
X10098729Y9460363D01*
X10203722Y9625705D01*
X10214343Y9638045D01*
X10380786Y9787258D01*
X10571954Y9873286D01*
X10809878Y9905276D01*
X10859923Y9906000D01*
X11038411Y9896475D01*
G36*
X-8216842Y10489524D02*
G01*
X-8175642Y10452961D01*
X-8170334Y10410744D01*
X-8131864Y10295372D01*
X-8030370Y10185660D01*
X-7886720Y10098671D01*
X-7732716Y10052986D01*
X-7613160Y10031168D01*
X-7555309Y10000007D01*
X-7536823Y9939928D01*
X-7535334Y9880027D01*
X-7535334Y9736667D01*
X-8085667Y9736667D01*
X-8085667Y8001000D01*
X-8466667Y8001000D01*
X-8466667Y10498667D01*
X-8318500Y10498667D01*
X-8216842Y10489524D01*
G37*
X-8216842Y10489524D02*
X-8175642Y10452961D01*
X-8170334Y10410744D01*
X-8131864Y10295372D01*
X-8030370Y10185660D01*
X-7886720Y10098671D01*
X-7732716Y10052986D01*
X-7613160Y10031168D01*
X-7555309Y10000007D01*
X-7536823Y9939928D01*
X-7535334Y9880027D01*
X-7535334Y9736667D01*
X-8085667Y9736667D01*
X-8085667Y8001000D01*
X-8466667Y8001000D01*
X-8466667Y10498667D01*
X-8318500Y10498667D01*
X-8216842Y10489524D01*
G36*
X-5884812Y9874449D02*
G01*
X-5740623Y9777234D01*
X-5593965Y9648467D01*
X-5580400Y9766650D01*
X-5560376Y9846822D01*
X-5507156Y9879381D01*
X-5418667Y9884834D01*
X-5270500Y9884834D01*
X-5247714Y8001000D01*
X-5630334Y8001000D01*
X-5630334Y8632752D01*
X-5630870Y8876967D01*
X-5633952Y9051877D01*
X-5641792Y9172843D01*
X-5656599Y9255226D01*
X-5680586Y9314386D01*
X-5715962Y9365684D01*
X-5740029Y9394870D01*
X-5887840Y9512652D01*
X-6015196Y9551695D01*
X-6121784Y9574428D01*
X-6168714Y9615115D01*
X-6180391Y9701832D01*
X-6180667Y9742078D01*
X-6175710Y9848222D01*
X-6146050Y9894521D01*
X-6069510Y9905760D01*
X-6033974Y9906000D01*
X-5884812Y9874449D01*
G37*
X-5884812Y9874449D02*
X-5740623Y9777234D01*
X-5593965Y9648467D01*
X-5580400Y9766650D01*
X-5560376Y9846822D01*
X-5507156Y9879381D01*
X-5418667Y9884834D01*
X-5270500Y9884834D01*
X-5247714Y8001000D01*
X-5630334Y8001000D01*
X-5630334Y8632752D01*
X-5630870Y8876967D01*
X-5633952Y9051877D01*
X-5641792Y9172843D01*
X-5656599Y9255226D01*
X-5680586Y9314386D01*
X-5715962Y9365684D01*
X-5740029Y9394870D01*
X-5887840Y9512652D01*
X-6015196Y9551695D01*
X-6121784Y9574428D01*
X-6168714Y9615115D01*
X-6180391Y9701832D01*
X-6180667Y9742078D01*
X-6175710Y9848222D01*
X-6146050Y9894521D01*
X-6069510Y9905760D01*
X-6033974Y9906000D01*
X-5884812Y9874449D01*
G36*
X-381000Y8001000D02*
G01*
X-768716Y8001000D01*
X-740834Y10023050D01*
X-1084298Y9022609D01*
X-1427762Y8022167D01*
X-1613465Y8010229D01*
X-1799167Y7998290D01*
X-2137834Y9000181D01*
X-2476500Y10002073D01*
X-2487850Y9001537D01*
X-2499200Y8001000D01*
X-2836334Y8001000D01*
X-2836334Y10583334D01*
X-2337840Y10583334D01*
X-2084450Y9853084D01*
X-1994703Y9593107D01*
X-1906893Y9336354D01*
X-1827992Y9103386D01*
X-1764976Y8914765D01*
X-1733009Y8816883D01*
X-1683762Y8674933D01*
X-1641683Y8574673D01*
X-1614445Y8533889D01*
X-1611229Y8534641D01*
X-1591690Y8579694D01*
X-1549214Y8693940D01*
X-1487724Y8866277D01*
X-1411141Y9085603D01*
X-1323389Y9340818D01*
X-1248834Y9560258D01*
X-910167Y10562167D01*
X-645584Y10574771D01*
X-381000Y10587374D01*
X-381000Y8001000D01*
G37*
X-381000Y8001000D02*
X-768716Y8001000D01*
X-740834Y10023050D01*
X-1084298Y9022609D01*
X-1427762Y8022167D01*
X-1613465Y8010229D01*
X-1799167Y7998290D01*
X-2137834Y9000181D01*
X-2476500Y10002073D01*
X-2487850Y9001537D01*
X-2499200Y8001000D01*
X-2836334Y8001000D01*
X-2836334Y10583334D01*
X-2337840Y10583334D01*
X-2084450Y9853084D01*
X-1994703Y9593107D01*
X-1906893Y9336354D01*
X-1827992Y9103386D01*
X-1764976Y8914765D01*
X-1733009Y8816883D01*
X-1683762Y8674933D01*
X-1641683Y8574673D01*
X-1614445Y8533889D01*
X-1611229Y8534641D01*
X-1591690Y8579694D01*
X-1549214Y8693940D01*
X-1487724Y8866277D01*
X-1411141Y9085603D01*
X-1323389Y9340818D01*
X-1248834Y9560258D01*
X-910167Y10562167D01*
X-645584Y10574771D01*
X-381000Y10587374D01*
X-381000Y8001000D01*
G36*
X6138360Y10489995D02*
G01*
X6201288Y10480396D01*
X6392187Y10403960D01*
X6556595Y10260523D01*
X6677107Y10067260D01*
X6709376Y9978999D01*
X6757086Y9805235D01*
X6772116Y9696294D01*
X6750407Y9637322D01*
X6687905Y9613461D01*
X6608529Y9609667D01*
X6478662Y9627508D01*
X6411905Y9691548D01*
X6392358Y9817558D01*
X6392333Y9824128D01*
X6365364Y9904397D01*
X6297864Y10008128D01*
X6268805Y10042916D01*
X6181445Y10128002D01*
X6094970Y10168813D01*
X5971532Y10180841D01*
X5931101Y10181167D01*
X5728280Y10150541D01*
X5584372Y10060303D01*
X5502003Y9912917D01*
X5482166Y9760282D01*
X5494616Y9636749D01*
X5539185Y9529318D01*
X5626701Y9425654D01*
X5767989Y9313420D01*
X5973878Y9180280D01*
X6010992Y9157749D01*
X6274806Y8991129D01*
X6471664Y8845929D01*
X6612124Y8709509D01*
X6706743Y8569227D01*
X6766079Y8412444D01*
X6800689Y8226518D01*
X6802734Y8209772D01*
X6827459Y8001000D01*
X5973568Y8001000D01*
X5675459Y8001962D01*
X5451833Y8005314D01*
X5292525Y8011757D01*
X5187368Y8021991D01*
X5126196Y8036717D01*
X5098843Y8056634D01*
X5096490Y8061422D01*
X5083509Y8150552D01*
X5087235Y8220172D01*
X5095078Y8257236D01*
X5114827Y8284053D01*
X5159050Y8302832D01*
X5240321Y8315779D01*
X5371208Y8325104D01*
X5564283Y8333013D01*
X5767639Y8339667D01*
X6434112Y8360834D01*
X6352499Y8494875D01*
X6261378Y8594495D01*
X6093810Y8721347D01*
X5852736Y8873233D01*
X5824570Y8889789D01*
X5639513Y9003181D01*
X5472509Y9114995D01*
X5342746Y9211796D01*
X5272588Y9276239D01*
X5145403Y9486940D01*
X5094787Y9714288D01*
X5118669Y9943556D01*
X5214978Y10160018D01*
X5381642Y10348948D01*
X5428681Y10386199D01*
X5553674Y10443438D01*
X5732972Y10482177D01*
X5937544Y10498876D01*
X6138360Y10489995D01*
G37*
X6138360Y10489995D02*
X6201288Y10480396D01*
X6392187Y10403960D01*
X6556595Y10260523D01*
X6677107Y10067260D01*
X6709376Y9978999D01*
X6757086Y9805235D01*
X6772116Y9696294D01*
X6750407Y9637322D01*
X6687905Y9613461D01*
X6608529Y9609667D01*
X6478662Y9627508D01*
X6411905Y9691548D01*
X6392358Y9817558D01*
X6392333Y9824128D01*
X6365364Y9904397D01*
X6297864Y10008128D01*
X6268805Y10042916D01*
X6181445Y10128002D01*
X6094970Y10168813D01*
X5971532Y10180841D01*
X5931101Y10181167D01*
X5728280Y10150541D01*
X5584372Y10060303D01*
X5502003Y9912917D01*
X5482166Y9760282D01*
X5494616Y9636749D01*
X5539185Y9529318D01*
X5626701Y9425654D01*
X5767989Y9313420D01*
X5973878Y9180280D01*
X6010992Y9157749D01*
X6274806Y8991129D01*
X6471664Y8845929D01*
X6612124Y8709509D01*
X6706743Y8569227D01*
X6766079Y8412444D01*
X6800689Y8226518D01*
X6802734Y8209772D01*
X6827459Y8001000D01*
X5973568Y8001000D01*
X5675459Y8001962D01*
X5451833Y8005314D01*
X5292525Y8011757D01*
X5187368Y8021991D01*
X5126196Y8036717D01*
X5098843Y8056634D01*
X5096490Y8061422D01*
X5083509Y8150552D01*
X5087235Y8220172D01*
X5095078Y8257236D01*
X5114827Y8284053D01*
X5159050Y8302832D01*
X5240321Y8315779D01*
X5371208Y8325104D01*
X5564283Y8333013D01*
X5767639Y8339667D01*
X6434112Y8360834D01*
X6352499Y8494875D01*
X6261378Y8594495D01*
X6093810Y8721347D01*
X5852736Y8873233D01*
X5824570Y8889789D01*
X5639513Y9003181D01*
X5472509Y9114995D01*
X5342746Y9211796D01*
X5272588Y9276239D01*
X5145403Y9486940D01*
X5094787Y9714288D01*
X5118669Y9943556D01*
X5214978Y10160018D01*
X5381642Y10348948D01*
X5428681Y10386199D01*
X5553674Y10443438D01*
X5732972Y10482177D01*
X5937544Y10498876D01*
X6138360Y10489995D01*
G36*
X13716000Y8001000D02*
G01*
X13335000Y8001000D01*
X13335000Y9144000D01*
X12065000Y9144000D01*
X12065000Y9482667D01*
X13335000Y9482667D01*
X13335000Y10200287D01*
X12625916Y10211894D01*
X11916833Y10223500D01*
X11903815Y10403417D01*
X11890798Y10583334D01*
X13716000Y10583334D01*
X13716000Y8001000D01*
G37*
X13716000Y8001000D02*
X13335000Y8001000D01*
X13335000Y9144000D01*
X12065000Y9144000D01*
X12065000Y9482667D01*
X13335000Y9482667D01*
X13335000Y10200287D01*
X12625916Y10211894D01*
X11916833Y10223500D01*
X11903815Y10403417D01*
X11890798Y10583334D01*
X13716000Y10583334D01*
X13716000Y8001000D01*
G36*
X1896850Y9006417D02*
G01*
X1883833Y8826500D01*
X1458359Y8814529D01*
X1276189Y8812260D01*
X1126676Y8815748D01*
X1029367Y8824238D01*
X1003276Y8832168D01*
X984083Y8890318D01*
X974078Y8996685D01*
X973666Y9024056D01*
X973666Y9186334D01*
X1909868Y9186334D01*
X1896850Y9006417D01*
G37*
X1896850Y9006417D02*
X1883833Y8826500D01*
X1458359Y8814529D01*
X1276189Y8812260D01*
X1126676Y8815748D01*
X1029367Y8824238D01*
X1003276Y8832168D01*
X984083Y8890318D01*
X974078Y8996685D01*
X973666Y9024056D01*
X973666Y9186334D01*
X1909868Y9186334D01*
X1896850Y9006417D01*
G36*
X-9541126Y15348852D02*
G01*
X-9328585Y15277315D01*
X-9158551Y15138813D01*
X-9023050Y14927683D01*
X-8951241Y14753167D01*
X-8909302Y14575556D01*
X-8883640Y14345166D01*
X-8874315Y14088795D01*
X-8881387Y13833237D01*
X-8904914Y13605289D01*
X-8944956Y13431747D01*
X-8948286Y13422574D01*
X-9060800Y13192863D01*
X-9202985Y13011291D01*
X-9360974Y12895052D01*
X-9381055Y12886009D01*
X-9563607Y12838670D01*
X-9770153Y12828690D01*
X-9965626Y12854990D01*
X-10102180Y12908221D01*
X-10291755Y13064665D01*
X-10432071Y13275311D01*
X-10524868Y13545038D01*
X-10571882Y13878721D01*
X-10574218Y14064041D01*
X-10211810Y14064041D01*
X-10208053Y13850562D01*
X-10196121Y13697263D01*
X-10172144Y13579765D01*
X-10132251Y13473689D01*
X-10110992Y13429041D01*
X-9991754Y13250660D01*
X-9853789Y13149963D01*
X-9704348Y13128813D01*
X-9550683Y13189071D01*
X-9462164Y13262370D01*
X-9337276Y13446199D01*
X-9261286Y13698793D01*
X-9234289Y14019733D01*
X-9242097Y14251452D01*
X-9283955Y14564789D01*
X-9360476Y14801296D01*
X-9472077Y14961577D01*
X-9619175Y15046232D01*
X-9799735Y15056198D01*
X-9944978Y15012639D01*
X-10055438Y14920766D01*
X-10134141Y14773295D01*
X-10184110Y14562942D01*
X-10208372Y14282426D01*
X-10211810Y14064041D01*
X-10574218Y14064041D01*
X-10576430Y14239437D01*
X-10565660Y14468077D01*
X-10548598Y14634880D01*
X-10521367Y14762640D01*
X-10480090Y14874153D01*
X-10461848Y14913068D01*
X-10324149Y15127554D01*
X-10151506Y15268510D01*
X-9932349Y15343784D01*
X-9804148Y15359089D01*
X-9541126Y15348852D01*
G37*
X-9541126Y15348852D02*
X-9328585Y15277315D01*
X-9158551Y15138813D01*
X-9023050Y14927683D01*
X-8951241Y14753167D01*
X-8909302Y14575556D01*
X-8883640Y14345166D01*
X-8874315Y14088795D01*
X-8881387Y13833237D01*
X-8904914Y13605289D01*
X-8944956Y13431747D01*
X-8948286Y13422574D01*
X-9060800Y13192863D01*
X-9202985Y13011291D01*
X-9360974Y12895052D01*
X-9381055Y12886009D01*
X-9563607Y12838670D01*
X-9770153Y12828690D01*
X-9965626Y12854990D01*
X-10102180Y12908221D01*
X-10291755Y13064665D01*
X-10432071Y13275311D01*
X-10524868Y13545038D01*
X-10571882Y13878721D01*
X-10574218Y14064041D01*
X-10211810Y14064041D01*
X-10208053Y13850562D01*
X-10196121Y13697263D01*
X-10172144Y13579765D01*
X-10132251Y13473689D01*
X-10110992Y13429041D01*
X-9991754Y13250660D01*
X-9853789Y13149963D01*
X-9704348Y13128813D01*
X-9550683Y13189071D01*
X-9462164Y13262370D01*
X-9337276Y13446199D01*
X-9261286Y13698793D01*
X-9234289Y14019733D01*
X-9242097Y14251452D01*
X-9283955Y14564789D01*
X-9360476Y14801296D01*
X-9472077Y14961577D01*
X-9619175Y15046232D01*
X-9799735Y15056198D01*
X-9944978Y15012639D01*
X-10055438Y14920766D01*
X-10134141Y14773295D01*
X-10184110Y14562942D01*
X-10208372Y14282426D01*
X-10211810Y14064041D01*
X-10574218Y14064041D01*
X-10576430Y14239437D01*
X-10565660Y14468077D01*
X-10548598Y14634880D01*
X-10521367Y14762640D01*
X-10480090Y14874153D01*
X-10461848Y14913068D01*
X-10324149Y15127554D01*
X-10151506Y15268510D01*
X-9932349Y15343784D01*
X-9804148Y15359089D01*
X-9541126Y15348852D01*
G36*
X-5526022Y15322582D02*
G01*
X-5371189Y15264953D01*
X-5347198Y15249562D01*
X-5206362Y15104488D01*
X-5088651Y14895551D01*
X-5002840Y14642331D01*
X-4959364Y14384317D01*
X-4946647Y13994968D01*
X-4980062Y13649121D01*
X-5057468Y13354805D01*
X-5176724Y13120046D01*
X-5335690Y12952871D01*
X-5342467Y12947972D01*
X-5511116Y12870356D01*
X-5720885Y12833323D01*
X-5938046Y12838271D01*
X-6128870Y12886595D01*
X-6181881Y12913228D01*
X-6368085Y13065889D01*
X-6506347Y13275697D01*
X-6598493Y13547310D01*
X-6646349Y13885380D01*
X-6650331Y13998438D01*
X-6298810Y13998438D01*
X-6276631Y13753786D01*
X-6232308Y13538127D01*
X-6169679Y13374784D01*
X-6144670Y13335000D01*
X-6004386Y13202437D01*
X-5842849Y13143039D01*
X-5676646Y13158959D01*
X-5522361Y13252352D01*
X-5520614Y13253985D01*
X-5423959Y13397237D01*
X-5356900Y13614671D01*
X-5320777Y13900653D01*
X-5314519Y14119656D01*
X-5335802Y14446752D01*
X-5396623Y14708424D01*
X-5495347Y14901601D01*
X-5630340Y15023213D01*
X-5799967Y15070188D01*
X-5820834Y15070667D01*
X-5978797Y15040094D01*
X-6102803Y14945489D01*
X-6195350Y14782521D01*
X-6258934Y14546860D01*
X-6295008Y14248762D01*
X-6298810Y13998438D01*
X-6650331Y13998438D01*
X-6654550Y14118167D01*
X-6641174Y14461763D01*
X-6595337Y14737619D01*
X-6512760Y14957834D01*
X-6389161Y15134508D01*
X-6251646Y15257275D01*
X-6114076Y15318484D01*
X-5927356Y15349602D01*
X-5721374Y15350883D01*
X-5526022Y15322582D01*
G37*
X-5526022Y15322582D02*
X-5371189Y15264953D01*
X-5347198Y15249562D01*
X-5206362Y15104488D01*
X-5088651Y14895551D01*
X-5002840Y14642331D01*
X-4959364Y14384317D01*
X-4946647Y13994968D01*
X-4980062Y13649121D01*
X-5057468Y13354805D01*
X-5176724Y13120046D01*
X-5335690Y12952871D01*
X-5342467Y12947972D01*
X-5511116Y12870356D01*
X-5720885Y12833323D01*
X-5938046Y12838271D01*
X-6128870Y12886595D01*
X-6181881Y12913228D01*
X-6368085Y13065889D01*
X-6506347Y13275697D01*
X-6598493Y13547310D01*
X-6646349Y13885380D01*
X-6650331Y13998438D01*
X-6298810Y13998438D01*
X-6276631Y13753786D01*
X-6232308Y13538127D01*
X-6169679Y13374784D01*
X-6144670Y13335000D01*
X-6004386Y13202437D01*
X-5842849Y13143039D01*
X-5676646Y13158959D01*
X-5522361Y13252352D01*
X-5520614Y13253985D01*
X-5423959Y13397237D01*
X-5356900Y13614671D01*
X-5320777Y13900653D01*
X-5314519Y14119656D01*
X-5335802Y14446752D01*
X-5396623Y14708424D01*
X-5495347Y14901601D01*
X-5630340Y15023213D01*
X-5799967Y15070188D01*
X-5820834Y15070667D01*
X-5978797Y15040094D01*
X-6102803Y14945489D01*
X-6195350Y14782521D01*
X-6258934Y14546860D01*
X-6295008Y14248762D01*
X-6298810Y13998438D01*
X-6650331Y13998438D01*
X-6654550Y14118167D01*
X-6641174Y14461763D01*
X-6595337Y14737619D01*
X-6512760Y14957834D01*
X-6389161Y15134508D01*
X-6251646Y15257275D01*
X-6114076Y15318484D01*
X-5927356Y15349602D01*
X-5721374Y15350883D01*
X-5526022Y15322582D01*
G36*
X209935Y14776069D02*
G01*
X416334Y14688426D01*
X550923Y14576694D01*
X632831Y14465473D01*
X669748Y14352279D01*
X677333Y14220506D01*
X669456Y14092401D01*
X638903Y13990467D01*
X575293Y13907398D01*
X468246Y13835888D01*
X307380Y13768629D01*
X82314Y13698317D01*
X-156845Y13633410D01*
X-333036Y13565264D01*
X-437473Y13474320D01*
X-465019Y13384893D01*
X-425559Y13262888D01*
X-316419Y13175540D01*
X-147706Y13129176D01*
X-47109Y13123334D01*
X156660Y13147589D01*
X296740Y13222776D01*
X379665Y13352524D01*
X383058Y13362404D01*
X422211Y13454543D01*
X478407Y13494858D01*
X583548Y13504284D01*
X599313Y13504334D01*
X706992Y13500920D01*
X750227Y13477461D01*
X749239Y13414129D01*
X739630Y13366750D01*
X662678Y13156470D01*
X536894Y12987884D01*
X405684Y12895007D01*
X243871Y12847794D01*
X37477Y12827513D01*
X-179056Y12833921D01*
X-371285Y12866774D01*
X-464823Y12901150D01*
X-641058Y13034320D01*
X-758139Y13218119D01*
X-804089Y13433169D01*
X-804334Y13450351D01*
X-784176Y13605158D01*
X-716985Y13727415D01*
X-592687Y13825894D01*
X-401206Y13909363D01*
X-211667Y13966269D01*
X21854Y14033957D01*
X182579Y14095552D01*
X281462Y14157364D01*
X329462Y14225705D01*
X338666Y14283293D01*
X303499Y14393902D01*
X211536Y14468872D01*
X83086Y14507538D01*
X-61541Y14509237D01*
X-202037Y14473306D01*
X-318092Y14399081D01*
X-381762Y14306828D01*
X-428865Y14223266D01*
X-497904Y14188069D01*
X-597803Y14181667D01*
X-709637Y14193452D01*
X-760758Y14224812D01*
X-762000Y14231802D01*
X-734608Y14339972D01*
X-665740Y14474280D01*
X-575359Y14602608D01*
X-483428Y14692839D01*
X-470057Y14701507D01*
X-256856Y14785494D01*
X-22326Y14809387D01*
X209935Y14776069D01*
G37*
X209935Y14776069D02*
X416334Y14688426D01*
X550923Y14576694D01*
X632831Y14465473D01*
X669748Y14352279D01*
X677333Y14220506D01*
X669456Y14092401D01*
X638903Y13990467D01*
X575293Y13907398D01*
X468246Y13835888D01*
X307380Y13768629D01*
X82314Y13698317D01*
X-156845Y13633410D01*
X-333036Y13565264D01*
X-437473Y13474320D01*
X-465019Y13384893D01*
X-425559Y13262888D01*
X-316419Y13175540D01*
X-147706Y13129176D01*
X-47109Y13123334D01*
X156660Y13147589D01*
X296740Y13222776D01*
X379665Y13352524D01*
X383058Y13362404D01*
X422211Y13454543D01*
X478407Y13494858D01*
X583548Y13504284D01*
X599313Y13504334D01*
X706992Y13500920D01*
X750227Y13477461D01*
X749239Y13414129D01*
X739630Y13366750D01*
X662678Y13156470D01*
X536894Y12987884D01*
X405684Y12895007D01*
X243871Y12847794D01*
X37477Y12827513D01*
X-179056Y12833921D01*
X-371285Y12866774D01*
X-464823Y12901150D01*
X-641058Y13034320D01*
X-758139Y13218119D01*
X-804089Y13433169D01*
X-804334Y13450351D01*
X-784176Y13605158D01*
X-716985Y13727415D01*
X-592687Y13825894D01*
X-401206Y13909363D01*
X-211667Y13966269D01*
X21854Y14033957D01*
X182579Y14095552D01*
X281462Y14157364D01*
X329462Y14225705D01*
X338666Y14283293D01*
X303499Y14393902D01*
X211536Y14468872D01*
X83086Y14507538D01*
X-61541Y14509237D01*
X-202037Y14473306D01*
X-318092Y14399081D01*
X-381762Y14306828D01*
X-428865Y14223266D01*
X-497904Y14188069D01*
X-597803Y14181667D01*
X-709637Y14193452D01*
X-760758Y14224812D01*
X-762000Y14231802D01*
X-734608Y14339972D01*
X-665740Y14474280D01*
X-575359Y14602608D01*
X-483428Y14692839D01*
X-470057Y14701507D01*
X-256856Y14785494D01*
X-22326Y14809387D01*
X209935Y14776069D01*
G36*
X2080819Y14754838D02*
G01*
X2304802Y14646186D01*
X2485296Y14476279D01*
X2615318Y14254167D01*
X2687880Y13988901D01*
X2696000Y13689530D01*
X2693414Y13662022D01*
X2631160Y13367404D01*
X2513140Y13134859D01*
X2341416Y12966382D01*
X2118049Y12863967D01*
X1845103Y12829608D01*
X1832603Y12829684D01*
X1677225Y12838437D01*
X1541436Y12858032D01*
X1481666Y12874445D01*
X1341898Y12957473D01*
X1206785Y13083075D01*
X1095661Y13227823D01*
X1027858Y13368291D01*
X1016000Y13438732D01*
X1041593Y13483835D01*
X1128510Y13502768D01*
X1185333Y13504334D01*
X1291380Y13495663D01*
X1350354Y13474004D01*
X1354666Y13465249D01*
X1387559Y13387401D01*
X1469218Y13292884D01*
X1574117Y13205634D01*
X1676728Y13149586D01*
X1697787Y13143522D01*
X1911812Y13132559D01*
X2090650Y13195866D01*
X2225120Y13327142D01*
X2306038Y13520082D01*
X2315301Y13567432D01*
X2339411Y13716000D01*
X962730Y13716000D01*
X992388Y13980584D01*
X1009383Y14056769D01*
X1354666Y14056769D01*
X1359404Y14019510D01*
X1383184Y13994783D01*
X1440355Y13980030D01*
X1545267Y13972694D01*
X1712269Y13970218D01*
X1841500Y13970000D01*
X2038151Y13973230D01*
X2195137Y13982074D01*
X2296876Y13995266D01*
X2328333Y14009578D01*
X2298921Y14129105D01*
X2223936Y14265461D01*
X2132082Y14373789D01*
X1999624Y14447815D01*
X1828709Y14480550D01*
X1656898Y14467985D01*
X1563988Y14434412D01*
X1475160Y14351817D01*
X1398992Y14224284D01*
X1357234Y14091052D01*
X1354666Y14056769D01*
X1009383Y14056769D01*
X1057076Y14270556D01*
X1177595Y14499606D01*
X1351057Y14664903D01*
X1574579Y14763613D01*
X1820333Y14793186D01*
X2080819Y14754838D01*
G37*
X2080819Y14754838D02*
X2304802Y14646186D01*
X2485296Y14476279D01*
X2615318Y14254167D01*
X2687880Y13988901D01*
X2696000Y13689530D01*
X2693414Y13662022D01*
X2631160Y13367404D01*
X2513140Y13134859D01*
X2341416Y12966382D01*
X2118049Y12863967D01*
X1845103Y12829608D01*
X1832603Y12829684D01*
X1677225Y12838437D01*
X1541436Y12858032D01*
X1481666Y12874445D01*
X1341898Y12957473D01*
X1206785Y13083075D01*
X1095661Y13227823D01*
X1027858Y13368291D01*
X1016000Y13438732D01*
X1041593Y13483835D01*
X1128510Y13502768D01*
X1185333Y13504334D01*
X1291380Y13495663D01*
X1350354Y13474004D01*
X1354666Y13465249D01*
X1387559Y13387401D01*
X1469218Y13292884D01*
X1574117Y13205634D01*
X1676728Y13149586D01*
X1697787Y13143522D01*
X1911812Y13132559D01*
X2090650Y13195866D01*
X2225120Y13327142D01*
X2306038Y13520082D01*
X2315301Y13567432D01*
X2339411Y13716000D01*
X962730Y13716000D01*
X992388Y13980584D01*
X1009383Y14056769D01*
X1354666Y14056769D01*
X1359404Y14019510D01*
X1383184Y13994783D01*
X1440355Y13980030D01*
X1545267Y13972694D01*
X1712269Y13970218D01*
X1841500Y13970000D01*
X2038151Y13973230D01*
X2195137Y13982074D01*
X2296876Y13995266D01*
X2328333Y14009578D01*
X2298921Y14129105D01*
X2223936Y14265461D01*
X2132082Y14373789D01*
X1999624Y14447815D01*
X1828709Y14480550D01*
X1656898Y14467985D01*
X1563988Y14434412D01*
X1475160Y14351817D01*
X1398992Y14224284D01*
X1357234Y14091052D01*
X1354666Y14056769D01*
X1009383Y14056769D01*
X1057076Y14270556D01*
X1177595Y14499606D01*
X1351057Y14664903D01*
X1574579Y14763613D01*
X1820333Y14793186D01*
X2080819Y14754838D01*
G36*
X10388191Y14758451D02*
G01*
X10600951Y14636593D01*
X10776685Y14449789D01*
X10842047Y14340938D01*
X10913304Y14137683D01*
X10950576Y13891849D01*
X10950390Y13639832D01*
X10924789Y13473630D01*
X10844059Y13264579D01*
X10716056Y13076326D01*
X10560158Y12934022D01*
X10471442Y12885241D01*
X10315058Y12845839D01*
X10117888Y12830835D01*
X9917196Y12840143D01*
X9750246Y12873677D01*
X9715500Y12887002D01*
X9511822Y13022771D01*
X9358110Y13222117D01*
X9258401Y13477489D01*
X9217412Y13776400D01*
X9570544Y13776400D01*
X9607402Y13557362D01*
X9681135Y13366090D01*
X9787360Y13228628D01*
X9787422Y13228576D01*
X9938946Y13148492D01*
X10117776Y13122333D01*
X10289390Y13152259D01*
X10366719Y13192366D01*
X10483571Y13324803D01*
X10556548Y13524324D01*
X10583254Y13784204D01*
X10583333Y13800667D01*
X10559599Y14073660D01*
X10487764Y14277630D01*
X10366874Y14413878D01*
X10195978Y14483704D01*
X10075333Y14494283D01*
X9883420Y14468324D01*
X9743851Y14383145D01*
X9640215Y14227788D01*
X9624990Y14193610D01*
X9574946Y13997164D01*
X9570544Y13776400D01*
X9217412Y13776400D01*
X9216735Y13781336D01*
X9215820Y13821273D01*
X9228706Y14088560D01*
X9278271Y14295916D01*
X9370652Y14462373D01*
X9451714Y14552990D01*
X9670167Y14712633D01*
X9908558Y14798643D01*
X10152647Y14813192D01*
X10388191Y14758451D01*
G37*
X10388191Y14758451D02*
X10600951Y14636593D01*
X10776685Y14449789D01*
X10842047Y14340938D01*
X10913304Y14137683D01*
X10950576Y13891849D01*
X10950390Y13639832D01*
X10924789Y13473630D01*
X10844059Y13264579D01*
X10716056Y13076326D01*
X10560158Y12934022D01*
X10471442Y12885241D01*
X10315058Y12845839D01*
X10117888Y12830835D01*
X9917196Y12840143D01*
X9750246Y12873677D01*
X9715500Y12887002D01*
X9511822Y13022771D01*
X9358110Y13222117D01*
X9258401Y13477489D01*
X9217412Y13776400D01*
X9570544Y13776400D01*
X9607402Y13557362D01*
X9681135Y13366090D01*
X9787360Y13228628D01*
X9787422Y13228576D01*
X9938946Y13148492D01*
X10117776Y13122333D01*
X10289390Y13152259D01*
X10366719Y13192366D01*
X10483571Y13324803D01*
X10556548Y13524324D01*
X10583254Y13784204D01*
X10583333Y13800667D01*
X10559599Y14073660D01*
X10487764Y14277630D01*
X10366874Y14413878D01*
X10195978Y14483704D01*
X10075333Y14494283D01*
X9883420Y14468324D01*
X9743851Y14383145D01*
X9640215Y14227788D01*
X9624990Y14193610D01*
X9574946Y13997164D01*
X9570544Y13776400D01*
X9217412Y13776400D01*
X9216735Y13781336D01*
X9215820Y13821273D01*
X9228706Y14088560D01*
X9278271Y14295916D01*
X9370652Y14462373D01*
X9451714Y14552990D01*
X9670167Y14712633D01*
X9908558Y14798643D01*
X10152647Y14813192D01*
X10388191Y14758451D01*
G36*
X12574236Y15470654D02*
G01*
X12838609Y15378992D01*
X13055798Y15221237D01*
X13233765Y14992563D01*
X13302963Y14865668D01*
X13368833Y14724559D01*
X13409542Y14608326D01*
X13430977Y14487594D01*
X13439021Y14332990D01*
X13439822Y14182557D01*
X13416134Y13816821D01*
X13344665Y13516062D01*
X13221798Y13273021D01*
X13043913Y13080438D01*
X12818754Y12936654D01*
X12551424Y12847090D01*
X12258080Y12822571D01*
X11967200Y12863341D01*
X11786833Y12927786D01*
X11549584Y13083188D01*
X11360442Y13299142D01*
X11240681Y13541254D01*
X11192643Y13693859D01*
X11181976Y13783938D01*
X11215323Y13827860D01*
X11299326Y13841991D01*
X11363136Y13843000D01*
X11481236Y13837597D01*
X11541412Y13811581D01*
X11570199Y13750241D01*
X11576217Y13724874D01*
X11665665Y13493749D01*
X11815271Y13318778D01*
X12016147Y13207114D01*
X12259407Y13165908D01*
X12270902Y13165825D01*
X12522365Y13202682D01*
X12731460Y13310961D01*
X12894282Y13486659D01*
X13006925Y13725774D01*
X13060186Y13974941D01*
X13067641Y14285097D01*
X13014957Y14561411D01*
X12908907Y14795877D01*
X12756266Y14980490D01*
X12563807Y15107246D01*
X12338305Y15168138D01*
X12086534Y15155163D01*
X12065286Y15150655D01*
X11848629Y15065377D01*
X11689793Y14918650D01*
X11614476Y14784917D01*
X11565515Y14694600D01*
X11500532Y14655641D01*
X11387098Y14647334D01*
X11276117Y14654744D01*
X11227282Y14684017D01*
X11218333Y14729245D01*
X11255902Y14904798D01*
X11370498Y15096950D01*
X11437747Y15178859D01*
X11627510Y15346456D01*
X11852906Y15450875D01*
X12127423Y15497437D01*
X12254715Y15501050D01*
X12574236Y15470654D01*
G37*
X12574236Y15470654D02*
X12838609Y15378992D01*
X13055798Y15221237D01*
X13233765Y14992563D01*
X13302963Y14865668D01*
X13368833Y14724559D01*
X13409542Y14608326D01*
X13430977Y14487594D01*
X13439021Y14332990D01*
X13439822Y14182557D01*
X13416134Y13816821D01*
X13344665Y13516062D01*
X13221798Y13273021D01*
X13043913Y13080438D01*
X12818754Y12936654D01*
X12551424Y12847090D01*
X12258080Y12822571D01*
X11967200Y12863341D01*
X11786833Y12927786D01*
X11549584Y13083188D01*
X11360442Y13299142D01*
X11240681Y13541254D01*
X11192643Y13693859D01*
X11181976Y13783938D01*
X11215323Y13827860D01*
X11299326Y13841991D01*
X11363136Y13843000D01*
X11481236Y13837597D01*
X11541412Y13811581D01*
X11570199Y13750241D01*
X11576217Y13724874D01*
X11665665Y13493749D01*
X11815271Y13318778D01*
X12016147Y13207114D01*
X12259407Y13165908D01*
X12270902Y13165825D01*
X12522365Y13202682D01*
X12731460Y13310961D01*
X12894282Y13486659D01*
X13006925Y13725774D01*
X13060186Y13974941D01*
X13067641Y14285097D01*
X13014957Y14561411D01*
X12908907Y14795877D01*
X12756266Y14980490D01*
X12563807Y15107246D01*
X12338305Y15168138D01*
X12086534Y15155163D01*
X12065286Y15150655D01*
X11848629Y15065377D01*
X11689793Y14918650D01*
X11614476Y14784917D01*
X11565515Y14694600D01*
X11500532Y14655641D01*
X11387098Y14647334D01*
X11276117Y14654744D01*
X11227282Y14684017D01*
X11218333Y14729245D01*
X11255902Y14904798D01*
X11370498Y15096950D01*
X11437747Y15178859D01*
X11627510Y15346456D01*
X11852906Y15450875D01*
X12127423Y15497437D01*
X12254715Y15501050D01*
X12574236Y15470654D01*
G36*
X-7584601Y15364533D02*
G01*
X-7345186Y15278979D01*
X-7164908Y15135730D01*
X-7040614Y14931170D01*
X-6969151Y14661683D01*
X-6968583Y14657917D01*
X-6941667Y14478000D01*
X-7312519Y14478000D01*
X-7336646Y14657917D01*
X-7393965Y14837957D01*
X-7499827Y14966104D01*
X-7638064Y15043196D01*
X-7792514Y15070071D01*
X-7947009Y15047565D01*
X-8085386Y14976516D01*
X-8191480Y14857761D01*
X-8249124Y14692137D01*
X-8255000Y14610351D01*
X-8233704Y14498598D01*
X-8164614Y14385066D01*
X-8039927Y14261904D01*
X-7851843Y14121261D01*
X-7621913Y13973247D01*
X-7444351Y13857888D01*
X-7286092Y13743717D01*
X-7166240Y13645190D01*
X-7109480Y13585460D01*
X-7028721Y13439291D01*
X-6958314Y13255976D01*
X-6911671Y13075084D01*
X-6900334Y12968439D01*
X-6900334Y12869334D01*
X-8636000Y12869334D01*
X-8636000Y13208000D01*
X-7273019Y13208000D01*
X-7357952Y13345584D01*
X-7443349Y13440521D01*
X-7596638Y13563725D01*
X-7808760Y13708150D01*
X-7888616Y13758334D01*
X-8117608Y13901847D01*
X-8285093Y14013484D01*
X-8403086Y14103360D01*
X-8483599Y14181590D01*
X-8538647Y14258290D01*
X-8578343Y14339057D01*
X-8627843Y14552327D01*
X-8613862Y14780764D01*
X-8542731Y14998098D01*
X-8420780Y15178058D01*
X-8363580Y15230277D01*
X-8189830Y15322553D01*
X-7968747Y15375643D01*
X-7730547Y15384340D01*
X-7584601Y15364533D01*
G37*
X-7584601Y15364533D02*
X-7345186Y15278979D01*
X-7164908Y15135730D01*
X-7040614Y14931170D01*
X-6969151Y14661683D01*
X-6968583Y14657917D01*
X-6941667Y14478000D01*
X-7312519Y14478000D01*
X-7336646Y14657917D01*
X-7393965Y14837957D01*
X-7499827Y14966104D01*
X-7638064Y15043196D01*
X-7792514Y15070071D01*
X-7947009Y15047565D01*
X-8085386Y14976516D01*
X-8191480Y14857761D01*
X-8249124Y14692137D01*
X-8255000Y14610351D01*
X-8233704Y14498598D01*
X-8164614Y14385066D01*
X-8039927Y14261904D01*
X-7851843Y14121261D01*
X-7621913Y13973247D01*
X-7444351Y13857888D01*
X-7286092Y13743717D01*
X-7166240Y13645190D01*
X-7109480Y13585460D01*
X-7028721Y13439291D01*
X-6958314Y13255976D01*
X-6911671Y13075084D01*
X-6900334Y12968439D01*
X-6900334Y12869334D01*
X-8636000Y12869334D01*
X-8636000Y13208000D01*
X-7273019Y13208000D01*
X-7357952Y13345584D01*
X-7443349Y13440521D01*
X-7596638Y13563725D01*
X-7808760Y13708150D01*
X-7888616Y13758334D01*
X-8117608Y13901847D01*
X-8285093Y14013484D01*
X-8403086Y14103360D01*
X-8483599Y14181590D01*
X-8538647Y14258290D01*
X-8578343Y14339057D01*
X-8627843Y14552327D01*
X-8613862Y14780764D01*
X-8542731Y14998098D01*
X-8420780Y15178058D01*
X-8363580Y15230277D01*
X-8189830Y15322553D01*
X-7968747Y15375643D01*
X-7730547Y15384340D01*
X-7584601Y15364533D01*
G36*
X-3693966Y15371312D02*
G01*
X-3464726Y15305088D01*
X-3333126Y15232020D01*
X-3207223Y15099843D01*
X-3109188Y14917077D01*
X-3054880Y14716941D01*
X-3048930Y14636750D01*
X-3053147Y14533998D01*
X-3083891Y14489182D01*
X-3165844Y14478263D01*
X-3211923Y14478000D01*
X-3318033Y14483638D01*
X-3369926Y14516733D01*
X-3395290Y14601562D01*
X-3402574Y14645149D01*
X-3447526Y14789256D01*
X-3521830Y14919292D01*
X-3531319Y14930899D01*
X-3602210Y15000453D01*
X-3680631Y15036063D01*
X-3797795Y15048546D01*
X-3873500Y15049500D01*
X-4019021Y15044044D01*
X-4111419Y15020451D01*
X-4181921Y14967886D01*
X-4215833Y14930723D01*
X-4299634Y14772010D01*
X-4314580Y14585066D01*
X-4267519Y14413524D01*
X-4202680Y14334605D01*
X-4071122Y14226917D01*
X-3882558Y14098111D01*
X-3807039Y14050776D01*
X-3629245Y13938395D01*
X-3467599Y13830610D01*
X-3342493Y13741335D01*
X-3283502Y13693599D01*
X-3163431Y13541211D01*
X-3061391Y13334875D01*
X-2991723Y13105229D01*
X-2980995Y13047452D01*
X-2952513Y12869334D01*
X-4699000Y12869334D01*
X-4699000Y13208000D01*
X-4042834Y13208000D01*
X-3782513Y13209551D01*
X-3596782Y13214763D01*
X-3475610Y13224483D01*
X-3408966Y13239552D01*
X-3386821Y13260815D01*
X-3386667Y13263196D01*
X-3423068Y13341733D01*
X-3525400Y13448418D01*
X-3683360Y13574570D01*
X-3886642Y13711506D01*
X-4000500Y13780395D01*
X-4261449Y13942819D01*
X-4452006Y14087870D01*
X-4581429Y14226881D01*
X-4658977Y14371187D01*
X-4693909Y14532123D01*
X-4698304Y14634648D01*
X-4659977Y14867216D01*
X-4555618Y15079761D01*
X-4398756Y15246083D01*
X-4373132Y15264353D01*
X-4175872Y15351806D01*
X-3940249Y15387172D01*
X-3693966Y15371312D01*
G37*
X-3693966Y15371312D02*
X-3464726Y15305088D01*
X-3333126Y15232020D01*
X-3207223Y15099843D01*
X-3109188Y14917077D01*
X-3054880Y14716941D01*
X-3048930Y14636750D01*
X-3053147Y14533998D01*
X-3083891Y14489182D01*
X-3165844Y14478263D01*
X-3211923Y14478000D01*
X-3318033Y14483638D01*
X-3369926Y14516733D01*
X-3395290Y14601562D01*
X-3402574Y14645149D01*
X-3447526Y14789256D01*
X-3521830Y14919292D01*
X-3531319Y14930899D01*
X-3602210Y15000453D01*
X-3680631Y15036063D01*
X-3797795Y15048546D01*
X-3873500Y15049500D01*
X-4019021Y15044044D01*
X-4111419Y15020451D01*
X-4181921Y14967886D01*
X-4215833Y14930723D01*
X-4299634Y14772010D01*
X-4314580Y14585066D01*
X-4267519Y14413524D01*
X-4202680Y14334605D01*
X-4071122Y14226917D01*
X-3882558Y14098111D01*
X-3807039Y14050776D01*
X-3629245Y13938395D01*
X-3467599Y13830610D01*
X-3342493Y13741335D01*
X-3283502Y13693599D01*
X-3163431Y13541211D01*
X-3061391Y13334875D01*
X-2991723Y13105229D01*
X-2980995Y13047452D01*
X-2952513Y12869334D01*
X-4699000Y12869334D01*
X-4699000Y13208000D01*
X-4042834Y13208000D01*
X-3782513Y13209551D01*
X-3596782Y13214763D01*
X-3475610Y13224483D01*
X-3408966Y13239552D01*
X-3386821Y13260815D01*
X-3386667Y13263196D01*
X-3423068Y13341733D01*
X-3525400Y13448418D01*
X-3683360Y13574570D01*
X-3886642Y13711506D01*
X-4000500Y13780395D01*
X-4261449Y13942819D01*
X-4452006Y14087870D01*
X-4581429Y14226881D01*
X-4658977Y14371187D01*
X-4693909Y14532123D01*
X-4698304Y14634648D01*
X-4659977Y14867216D01*
X-4555618Y15079761D01*
X-4398756Y15246083D01*
X-4373132Y15264353D01*
X-4175872Y15351806D01*
X-3940249Y15387172D01*
X-3693966Y15371312D01*
G36*
X-1185334Y15028334D02*
G01*
X-1183671Y14887736D01*
X-1172030Y14811849D01*
X-1140433Y14780716D01*
X-1078901Y14774381D01*
X-1058334Y14774334D01*
X-973007Y14766074D01*
X-938010Y14724179D01*
X-931334Y14626167D01*
X-938500Y14526566D01*
X-974314Y14485717D01*
X-1055546Y14478000D01*
X-1179759Y14478000D01*
X-1193130Y13762654D01*
X-1200241Y13466089D01*
X-1212148Y13243579D01*
X-1233613Y13084515D01*
X-1269397Y12978286D01*
X-1324263Y12914281D01*
X-1402974Y12881890D01*
X-1510290Y12870501D01*
X-1594062Y12869334D01*
X-1820334Y12869334D01*
X-1820334Y13017500D01*
X-1813110Y13117138D01*
X-1777351Y13158001D01*
X-1697863Y13165667D01*
X-1594754Y13187889D01*
X-1549696Y13232630D01*
X-1540325Y13297848D01*
X-1532484Y13430149D01*
X-1526862Y13611956D01*
X-1524146Y13825689D01*
X-1524000Y13888796D01*
X-1524000Y14478000D01*
X-1672167Y14478000D01*
X-1771473Y14484554D01*
X-1812199Y14521527D01*
X-1820315Y14614889D01*
X-1820334Y14626167D01*
X-1813781Y14725473D01*
X-1776807Y14766199D01*
X-1683445Y14774315D01*
X-1672167Y14774334D01*
X-1524000Y14774334D01*
X-1524000Y15282334D01*
X-1185334Y15282334D01*
X-1185334Y15028334D01*
G37*
X-1185334Y15028334D02*
X-1183671Y14887736D01*
X-1172030Y14811849D01*
X-1140433Y14780716D01*
X-1078901Y14774381D01*
X-1058334Y14774334D01*
X-973007Y14766074D01*
X-938010Y14724179D01*
X-931334Y14626167D01*
X-938500Y14526566D01*
X-974314Y14485717D01*
X-1055546Y14478000D01*
X-1179759Y14478000D01*
X-1193130Y13762654D01*
X-1200241Y13466089D01*
X-1212148Y13243579D01*
X-1233613Y13084515D01*
X-1269397Y12978286D01*
X-1324263Y12914281D01*
X-1402974Y12881890D01*
X-1510290Y12870501D01*
X-1594062Y12869334D01*
X-1820334Y12869334D01*
X-1820334Y13017500D01*
X-1813110Y13117138D01*
X-1777351Y13158001D01*
X-1697863Y13165667D01*
X-1594754Y13187889D01*
X-1549696Y13232630D01*
X-1540325Y13297848D01*
X-1532484Y13430149D01*
X-1526862Y13611956D01*
X-1524146Y13825689D01*
X-1524000Y13888796D01*
X-1524000Y14478000D01*
X-1672167Y14478000D01*
X-1771473Y14484554D01*
X-1812199Y14521527D01*
X-1820315Y14614889D01*
X-1820334Y14626167D01*
X-1813781Y14725473D01*
X-1776807Y14766199D01*
X-1683445Y14774315D01*
X-1672167Y14774334D01*
X-1524000Y14774334D01*
X-1524000Y15282334D01*
X-1185334Y15282334D01*
X-1185334Y15028334D01*
G36*
X3474631Y14458579D02*
G01*
X3538928Y14185526D01*
X3597774Y13945348D01*
X3648401Y13748560D01*
X3688040Y13605679D01*
X3713925Y13527220D01*
X3722543Y13516663D01*
X3738807Y13570700D01*
X3774290Y13694027D01*
X3825512Y13874365D01*
X3888993Y14099437D01*
X3961252Y14356963D01*
X4001013Y14499167D01*
X4261106Y15430500D01*
X4671227Y15430500D01*
X4931319Y14499167D01*
X5006770Y14229566D01*
X5075243Y13985976D01*
X5133257Y13780694D01*
X5177331Y13626017D01*
X5203983Y13534243D01*
X5209789Y13515499D01*
X5223880Y13539997D01*
X5253732Y13636616D01*
X5296584Y13794861D01*
X5349671Y14004238D01*
X5410230Y14254252D01*
X5457805Y14457416D01*
X5687443Y15451667D01*
X5891721Y15451667D01*
X6009865Y15449699D01*
X6083204Y15444683D01*
X6095147Y15441084D01*
X6084652Y15399085D01*
X6055325Y15285130D01*
X6009751Y15109175D01*
X5950516Y14881177D01*
X5880204Y14611093D01*
X5801400Y14308878D01*
X5762668Y14160500D01*
X5431043Y12890500D01*
X5237989Y12877746D01*
X5044936Y12864992D01*
X4980152Y13089413D01*
X4947930Y13202404D01*
X4897973Y13379267D01*
X4835257Y13602309D01*
X4764756Y13853838D01*
X4696794Y14097000D01*
X4628491Y14340560D01*
X4567914Y14554348D01*
X4518708Y14725674D01*
X4484522Y14841849D01*
X4469003Y14890181D01*
X4468667Y14890748D01*
X4462115Y14878622D01*
X4446589Y14832519D01*
X4420411Y14746572D01*
X4381901Y14614920D01*
X4329380Y14431697D01*
X4261169Y14191039D01*
X4175587Y13887083D01*
X4070955Y13513964D01*
X3945595Y13065818D01*
X3929134Y13006917D01*
X3898378Y12921660D01*
X3850818Y12881634D01*
X3758349Y12869900D01*
X3700848Y12869334D01*
X3571801Y12880707D01*
X3500183Y12911309D01*
X3493354Y12922250D01*
X3478094Y12976486D01*
X3445265Y13098617D01*
X3398057Y13276436D01*
X3339660Y13497735D01*
X3273267Y13750306D01*
X3202066Y14021944D01*
X3129250Y14300439D01*
X3058009Y14573586D01*
X2991533Y14829175D01*
X2933013Y15055001D01*
X2885641Y15238855D01*
X2852606Y15368530D01*
X2837100Y15431819D01*
X2836333Y15435935D01*
X2874362Y15445047D01*
X2971257Y15450726D01*
X3040714Y15451667D01*
X3245095Y15451667D01*
X3474631Y14458579D01*
G37*
X3474631Y14458579D02*
X3538928Y14185526D01*
X3597774Y13945348D01*
X3648401Y13748560D01*
X3688040Y13605679D01*
X3713925Y13527220D01*
X3722543Y13516663D01*
X3738807Y13570700D01*
X3774290Y13694027D01*
X3825512Y13874365D01*
X3888993Y14099437D01*
X3961252Y14356963D01*
X4001013Y14499167D01*
X4261106Y15430500D01*
X4671227Y15430500D01*
X4931319Y14499167D01*
X5006770Y14229566D01*
X5075243Y13985976D01*
X5133257Y13780694D01*
X5177331Y13626017D01*
X5203983Y13534243D01*
X5209789Y13515499D01*
X5223880Y13539997D01*
X5253732Y13636616D01*
X5296584Y13794861D01*
X5349671Y14004238D01*
X5410230Y14254252D01*
X5457805Y14457416D01*
X5687443Y15451667D01*
X5891721Y15451667D01*
X6009865Y15449699D01*
X6083204Y15444683D01*
X6095147Y15441084D01*
X6084652Y15399085D01*
X6055325Y15285130D01*
X6009751Y15109175D01*
X5950516Y14881177D01*
X5880204Y14611093D01*
X5801400Y14308878D01*
X5762668Y14160500D01*
X5431043Y12890500D01*
X5237989Y12877746D01*
X5044936Y12864992D01*
X4980152Y13089413D01*
X4947930Y13202404D01*
X4897973Y13379267D01*
X4835257Y13602309D01*
X4764756Y13853838D01*
X4696794Y14097000D01*
X4628491Y14340560D01*
X4567914Y14554348D01*
X4518708Y14725674D01*
X4484522Y14841849D01*
X4469003Y14890181D01*
X4468667Y14890748D01*
X4462115Y14878622D01*
X4446589Y14832519D01*
X4420411Y14746572D01*
X4381901Y14614920D01*
X4329380Y14431697D01*
X4261169Y14191039D01*
X4175587Y13887083D01*
X4070955Y13513964D01*
X3945595Y13065818D01*
X3929134Y13006917D01*
X3898378Y12921660D01*
X3850818Y12881634D01*
X3758349Y12869900D01*
X3700848Y12869334D01*
X3571801Y12880707D01*
X3500183Y12911309D01*
X3493354Y12922250D01*
X3478094Y12976486D01*
X3445265Y13098617D01*
X3398057Y13276436D01*
X3339660Y13497735D01*
X3273267Y13750306D01*
X3202066Y14021944D01*
X3129250Y14300439D01*
X3058009Y14573586D01*
X2991533Y14829175D01*
X2933013Y15055001D01*
X2885641Y15238855D01*
X2852606Y15368530D01*
X2837100Y15431819D01*
X2836333Y15435935D01*
X2874362Y15445047D01*
X2971257Y15450726D01*
X3040714Y15451667D01*
X3245095Y15451667D01*
X3474631Y14458579D01*
G36*
X8180990Y14764186D02*
G01*
X8365376Y14684363D01*
X8375574Y14677778D01*
X8551333Y14561466D01*
X8551333Y14670455D01*
X8559518Y14741168D01*
X8600399Y14768504D01*
X8698463Y14767246D01*
X8710083Y14766306D01*
X8868833Y14753167D01*
X8868833Y12890500D01*
X8688916Y12877483D01*
X8509000Y12864466D01*
X8509000Y14190134D01*
X8365066Y14334067D01*
X8251161Y14430209D01*
X8142596Y14471775D01*
X8055657Y14478000D01*
X7932007Y14468047D01*
X7836871Y14431943D01*
X7766669Y14360325D01*
X7717825Y14243830D01*
X7686759Y14073093D01*
X7669894Y13838751D01*
X7663649Y13531439D01*
X7663343Y13451417D01*
X7662333Y12869334D01*
X7316942Y12869334D01*
X7330887Y13643928D01*
X7337856Y13946597D01*
X7348591Y14177327D01*
X7366360Y14348845D01*
X7394428Y14473876D01*
X7436062Y14565147D01*
X7494526Y14635383D01*
X7573087Y14697313D01*
X7607067Y14720122D01*
X7771441Y14783740D01*
X7972880Y14797870D01*
X8180990Y14764186D01*
G37*
X8180990Y14764186D02*
X8365376Y14684363D01*
X8375574Y14677778D01*
X8551333Y14561466D01*
X8551333Y14670455D01*
X8559518Y14741168D01*
X8600399Y14768504D01*
X8698463Y14767246D01*
X8710083Y14766306D01*
X8868833Y14753167D01*
X8868833Y12890500D01*
X8688916Y12877483D01*
X8509000Y12864466D01*
X8509000Y14190134D01*
X8365066Y14334067D01*
X8251161Y14430209D01*
X8142596Y14471775D01*
X8055657Y14478000D01*
X7932007Y14468047D01*
X7836871Y14431943D01*
X7766669Y14360325D01*
X7717825Y14243830D01*
X7686759Y14073093D01*
X7669894Y13838751D01*
X7663649Y13531439D01*
X7663343Y13451417D01*
X7662333Y12869334D01*
X7316942Y12869334D01*
X7330887Y13643928D01*
X7337856Y13946597D01*
X7348591Y14177327D01*
X7366360Y14348845D01*
X7394428Y14473876D01*
X7436062Y14565147D01*
X7494526Y14635383D01*
X7573087Y14697313D01*
X7607067Y14720122D01*
X7771441Y14783740D01*
X7972880Y14797870D01*
X8180990Y14764186D01*
G36*
X14181666Y12869334D02*
G01*
X13800666Y12869334D01*
X13800666Y13292667D01*
X14181666Y13292667D01*
X14181666Y12869334D01*
G37*
X14181666Y12869334D02*
X13800666Y12869334D01*
X13800666Y13292667D01*
X14181666Y13292667D01*
X14181666Y12869334D01*
G36*
X15155333Y12869334D02*
G01*
X14774333Y12869334D01*
X14774333Y13292667D01*
X15155333Y13292667D01*
X15155333Y12869334D01*
G37*
X15155333Y12869334D02*
X14774333Y12869334D01*
X14774333Y13292667D01*
X15155333Y13292667D01*
X15155333Y12869334D01*
G36*
X14165220Y14657917D02*
G01*
X14151115Y14308571D01*
X14137079Y14034784D01*
X14121743Y13827459D01*
X14103739Y13677500D01*
X14081697Y13575813D01*
X14054248Y13513301D01*
X14020023Y13480867D01*
X13986474Y13470412D01*
X13924553Y13476719D01*
X13888838Y13532107D01*
X13869530Y13618578D01*
X13859551Y13710741D01*
X13848225Y13871311D01*
X13836445Y14084058D01*
X13825106Y14332753D01*
X13815101Y14601165D01*
X13814627Y14615584D01*
X13787309Y15451667D01*
X14194915Y15451667D01*
X14165220Y14657917D01*
G37*
X14165220Y14657917D02*
X14151115Y14308571D01*
X14137079Y14034784D01*
X14121743Y13827459D01*
X14103739Y13677500D01*
X14081697Y13575813D01*
X14054248Y13513301D01*
X14020023Y13480867D01*
X13986474Y13470412D01*
X13924553Y13476719D01*
X13888838Y13532107D01*
X13869530Y13618578D01*
X13859551Y13710741D01*
X13848225Y13871311D01*
X13836445Y14084058D01*
X13825106Y14332753D01*
X13815101Y14601165D01*
X13814627Y14615584D01*
X13787309Y15451667D01*
X14194915Y15451667D01*
X14165220Y14657917D01*
G36*
X15139726Y14636750D02*
G01*
X15125945Y14286182D01*
X15111466Y14011562D01*
X15095087Y13804175D01*
X15075605Y13655305D01*
X15051815Y13556237D01*
X15022515Y13498253D01*
X14986500Y13472638D01*
X14978719Y13470696D01*
X14905434Y13479385D01*
X14884744Y13496927D01*
X14867403Y13562805D01*
X14848669Y13697028D01*
X14829756Y13883313D01*
X14811874Y14105378D01*
X14796236Y14346942D01*
X14784053Y14591722D01*
X14776538Y14823435D01*
X14774695Y14975417D01*
X14774333Y15451667D01*
X15168527Y15451667D01*
X15139726Y14636750D01*
G37*
X15139726Y14636750D02*
X15125945Y14286182D01*
X15111466Y14011562D01*
X15095087Y13804175D01*
X15075605Y13655305D01*
X15051815Y13556237D01*
X15022515Y13498253D01*
X14986500Y13472638D01*
X14978719Y13470696D01*
X14905434Y13479385D01*
X14884744Y13496927D01*
X14867403Y13562805D01*
X14848669Y13697028D01*
X14829756Y13883313D01*
X14811874Y14105378D01*
X14796236Y14346942D01*
X14784053Y14591722D01*
X14776538Y14823435D01*
X14774695Y14975417D01*
X14774333Y15451667D01*
X15168527Y15451667D01*
X15139726Y14636750D01*
M02*
