G04 #@! TF.GenerationSoftware,KiCad,Pcbnew,(5.1.5-0)*
G04 #@! TF.CreationDate,2019-12-30T00:03:19-08:00*
G04 #@! TF.ProjectId,badge,62616467-652e-46b6-9963-61645f706362,rev?*
G04 #@! TF.SameCoordinates,Original*
G04 #@! TF.FileFunction,Profile,NP*
%FSLAX46Y46*%
G04 Gerber Fmt 4.6, Leading zero omitted, Abs format (unit mm)*
G04 Created by KiCad (PCBNEW (5.1.5-0)) date 2019-12-30 00:03:19*
%MOMM*%
%LPD*%
G04 APERTURE LIST*
%ADD10C,0.100000*%
G04 APERTURE END LIST*
D10*
X12648983Y-22622337D02*
X12236258Y-22389871D01*
X12236258Y-22389871D02*
X11846952Y-22147828D01*
X11846952Y-22147828D02*
X11060053Y-21622209D01*
X11060053Y-21622209D02*
X10253982Y-21012145D01*
X10253982Y-21012145D02*
X9490593Y-20364786D01*
X9490593Y-20364786D02*
X9136720Y-20035568D01*
X9136720Y-20035568D02*
X8807699Y-19707161D01*
X8807699Y-19707161D02*
X8508254Y-19382945D01*
X8508254Y-19382945D02*
X8243113Y-19066298D01*
X8243113Y-19066298D02*
X7481227Y-18041284D01*
X7481227Y-18041284D02*
X6577645Y-16751132D01*
X6577645Y-16751132D02*
X6198023Y-16205229D01*
X6198023Y-16205229D02*
X5830924Y-15704244D01*
X5830924Y-15704244D02*
X5475519Y-15247573D01*
X5475519Y-15247573D02*
X5130980Y-14834608D01*
X5130980Y-14834608D02*
X4796481Y-14464745D01*
X4796481Y-14464745D02*
X4471192Y-14137377D01*
X4471192Y-14137377D02*
X4154286Y-13851900D01*
X4154286Y-13851900D02*
X3844936Y-13607707D01*
X3844936Y-13607707D02*
X3542312Y-13404193D01*
X3542312Y-13404193D02*
X3245588Y-13240752D01*
X3245588Y-13240752D02*
X2953936Y-13116778D01*
X2953936Y-13116778D02*
X2666527Y-13031668D01*
X2666527Y-13031668D02*
X2382534Y-12984808D01*
X2382534Y-12984808D02*
X2101129Y-12975608D01*
X2101129Y-12975608D02*
X1821483Y-13003448D01*
X1821483Y-13003448D02*
X1542770Y-13067728D01*
X1542770Y-13067728D02*
X1226016Y-13173448D01*
X1226016Y-13173448D02*
X923278Y-13308132D01*
X923278Y-13308132D02*
X606789Y-13493261D01*
X606789Y-13493261D02*
X248781Y-13750316D01*
X248781Y-13750316D02*
X-178513Y-14100778D01*
X-178513Y-14100778D02*
X-702859Y-14566128D01*
X-702859Y-14566128D02*
X-2153776Y-15927412D01*
X-2153776Y-15927412D02*
X-3044764Y-16764553D01*
X-3044764Y-16764553D02*
X-3862907Y-17506499D01*
X-3862907Y-17506499D02*
X-4624269Y-18165976D01*
X-4624269Y-18165976D02*
X-5344913Y-18755713D01*
X-5344913Y-18755713D02*
X-6040902Y-19288438D01*
X-6040902Y-19288438D02*
X-6728300Y-19776878D01*
X-6728300Y-19776878D02*
X-7423170Y-20233760D01*
X-7423170Y-20233760D02*
X-8141575Y-20671813D01*
X-8141575Y-20671813D02*
X-9251244Y-21296125D01*
X-9251244Y-21296125D02*
X-9769794Y-21564292D01*
X-9769794Y-21564292D02*
X-10267188Y-21803974D01*
X-10267188Y-21803974D02*
X-10745702Y-22015802D01*
X-10745702Y-22015802D02*
X-11207610Y-22200407D01*
X-11207610Y-22200407D02*
X-11563279Y-22313956D01*
X-11563279Y-22313956D02*
X-11838531Y-22433053D01*
X-11838531Y-22433053D02*
X-12036899Y-22554250D01*
X-12036899Y-22554250D02*
X-12161915Y-22674097D01*
X-12161915Y-22674097D02*
X-12217115Y-22789146D01*
X-12217115Y-22789146D02*
X-12219615Y-22843796D01*
X-12219615Y-22843796D02*
X-12206005Y-22895946D01*
X-12206005Y-22895946D02*
X-12132165Y-22991046D01*
X-12132165Y-22991046D02*
X-11999105Y-23071006D01*
X-11999105Y-23071006D02*
X-9280231Y-23103126D01*
X-9280231Y-23103126D02*
X-6411204Y-23113026D01*
X-6411204Y-23113026D02*
X-325238Y-23095066D01*
X-325238Y-23095066D02*
X6053707Y-23075216D01*
X6053707Y-23075216D02*
X9288957Y-23082716D01*
X9288957Y-23082716D02*
X12520545Y-23111526D01*
X12520545Y-23111526D02*
X12870814Y-23101266D01*
X12870814Y-23101266D02*
X13087108Y-23074396D01*
X13087108Y-23074396D02*
X13188671Y-23031956D01*
X13188671Y-23031956D02*
X13202441Y-23005216D01*
X13202441Y-23005216D02*
X13194741Y-22974976D01*
X13194741Y-22974976D02*
X13124571Y-22904496D01*
X13124571Y-22904496D02*
X12997394Y-22821536D01*
X12997394Y-22821536D02*
X12649002Y-22622331D01*
X12649002Y-22622331D02*
X12648983Y-22622337D01*
X33888262Y-38301131D02*
X-33562844Y-38301131D01*
X-33562844Y-38301131D02*
X-33562844Y-23078773D01*
X-33562844Y-23078773D02*
X-16097099Y-23094303D01*
X-16097099Y-23094303D02*
X-16424909Y-22699602D01*
X-16424909Y-22699602D02*
X-16533184Y-22441528D01*
X-16533184Y-22441528D02*
X-16851046Y-22331428D01*
X-16851046Y-22331428D02*
X-17141842Y-22206860D01*
X-17141842Y-22206860D02*
X-17405897Y-22067535D01*
X-17405897Y-22067535D02*
X-17643536Y-21913162D01*
X-17643536Y-21913162D02*
X-17855086Y-21743449D01*
X-17855086Y-21743449D02*
X-18040871Y-21558105D01*
X-18040871Y-21558105D02*
X-18201217Y-21356840D01*
X-18201217Y-21356840D02*
X-18336449Y-21139364D01*
X-18336449Y-21139364D02*
X-18446894Y-20905384D01*
X-18446894Y-20905384D02*
X-18532874Y-20654610D01*
X-18532874Y-20654610D02*
X-18594724Y-20386752D01*
X-18594724Y-20386752D02*
X-18632754Y-20101518D01*
X-18632754Y-20101518D02*
X-18647304Y-19798618D01*
X-18647304Y-19798618D02*
X-18638504Y-19384442D01*
X-18638504Y-19384442D02*
X-18620864Y-19211662D01*
X-18620864Y-19211662D02*
X-18591374Y-19059609D01*
X-18591374Y-19059609D02*
X-18547774Y-18926677D01*
X-18547774Y-18926677D02*
X-18487794Y-18811257D01*
X-18487794Y-18811257D02*
X-18409174Y-18711737D01*
X-18409174Y-18711737D02*
X-18309644Y-18626517D01*
X-18309644Y-18626517D02*
X-18186944Y-18553987D01*
X-18186944Y-18553987D02*
X-18038806Y-18492537D01*
X-18038806Y-18492537D02*
X-17862965Y-18440557D01*
X-17862965Y-18440557D02*
X-17657156Y-18396447D01*
X-17657156Y-18396447D02*
X-17146574Y-18325387D01*
X-17146574Y-18325387D02*
X-16488940Y-18266487D01*
X-16488940Y-18266487D02*
X-15681900Y-18186927D01*
X-15681900Y-18186927D02*
X-15051161Y-18081321D01*
X-15051161Y-18081321D02*
X-14783269Y-18014681D01*
X-14783269Y-18014681D02*
X-14537091Y-17936631D01*
X-14537091Y-17936631D02*
X-14305172Y-17845561D01*
X-14305172Y-17845561D02*
X-14080058Y-17739825D01*
X-14080058Y-17739825D02*
X-13681339Y-17500208D01*
X-13681339Y-17500208D02*
X-13171153Y-17138219D01*
X-13171153Y-17138219D02*
X-12590332Y-16688431D01*
X-12590332Y-16688431D02*
X-11979709Y-16185417D01*
X-11979709Y-16185417D02*
X-11380118Y-15663750D01*
X-11380118Y-15663750D02*
X-10832390Y-15158002D01*
X-10832390Y-15158002D02*
X-10377358Y-14702747D01*
X-10377358Y-14702747D02*
X-10055856Y-14332557D01*
X-10055856Y-14332557D02*
X-9755068Y-13894497D01*
X-9755068Y-13894497D02*
X-9513012Y-13450397D01*
X-9513012Y-13450397D02*
X-9331555Y-13009258D01*
X-9331555Y-13009258D02*
X-9212564Y-12580082D01*
X-9212564Y-12580082D02*
X-9177074Y-12372794D01*
X-9177074Y-12372794D02*
X-9157904Y-12171873D01*
X-9157904Y-12171873D02*
X-9155304Y-11978444D01*
X-9155304Y-11978444D02*
X-9169464Y-11793633D01*
X-9169464Y-11793633D02*
X-9200644Y-11618564D01*
X-9200644Y-11618564D02*
X-9249074Y-11454363D01*
X-9249074Y-11454363D02*
X-9314984Y-11302156D01*
X-9314984Y-11302156D02*
X-9398614Y-11163067D01*
X-9398614Y-11163067D02*
X-9487844Y-11052132D01*
X-9487844Y-11052132D02*
X-9588250Y-10960132D01*
X-9588250Y-10960132D02*
X-9701647Y-10887392D01*
X-9701647Y-10887392D02*
X-9829855Y-10834242D01*
X-9829855Y-10834242D02*
X-9974697Y-10801002D01*
X-9974697Y-10801002D02*
X-10137991Y-10788002D01*
X-10137991Y-10788002D02*
X-10321560Y-10795602D01*
X-10321560Y-10795602D02*
X-10527223Y-10824062D01*
X-10527223Y-10824062D02*
X-11012118Y-10944984D01*
X-11012118Y-10944984D02*
X-11607240Y-11153410D01*
X-11607240Y-11153410D02*
X-12327156Y-11451954D01*
X-12327156Y-11451954D02*
X-13186431Y-11843232D01*
X-13186431Y-11843232D02*
X-14137303Y-12275153D01*
X-14137303Y-12275153D02*
X-15086932Y-12681321D01*
X-15086932Y-12681321D02*
X-15925210Y-13016107D01*
X-15925210Y-13016107D02*
X-16542032Y-13233879D01*
X-16542032Y-13233879D02*
X-16968999Y-13351643D01*
X-16968999Y-13351643D02*
X-17402744Y-13445453D01*
X-17402744Y-13445453D02*
X-17841519Y-13515533D01*
X-17841519Y-13515533D02*
X-18283572Y-13562123D01*
X-18283572Y-13562123D02*
X-18727154Y-13585433D01*
X-18727154Y-13585433D02*
X-19170514Y-13585699D01*
X-19170514Y-13585699D02*
X-19611904Y-13563149D01*
X-19611904Y-13563149D02*
X-20049574Y-13518000D01*
X-20049574Y-13518000D02*
X-20481772Y-13450490D01*
X-20481772Y-13450490D02*
X-20906750Y-13360840D01*
X-20906750Y-13360840D02*
X-21322754Y-13249225D01*
X-21322754Y-13249225D02*
X-21728041Y-13115972D01*
X-21728041Y-13115972D02*
X-22120858Y-12961260D01*
X-22120858Y-12961260D02*
X-22499455Y-12785314D01*
X-22499455Y-12785314D02*
X-22862081Y-12588362D01*
X-22862081Y-12588362D02*
X-23206988Y-12370630D01*
X-23206988Y-12370630D02*
X-23696533Y-11990336D01*
X-23696533Y-11990336D02*
X-24428604Y-11363335D01*
X-24428604Y-11363335D02*
X-25304195Y-10576686D01*
X-25304195Y-10576686D02*
X-26224300Y-9717445D01*
X-26224300Y-9717445D02*
X-27158209Y-8841830D01*
X-27158209Y-8841830D02*
X-28071383Y-8010598D01*
X-28071383Y-8010598D02*
X-28859078Y-7317617D01*
X-28859078Y-7317617D02*
X-29416546Y-6856751D01*
X-29416546Y-6856751D02*
X-29900913Y-6472805D01*
X-29900913Y-6472805D02*
X-30299331Y-6130178D01*
X-30299331Y-6130178D02*
X-30618386Y-5820283D01*
X-30618386Y-5820283D02*
X-30864663Y-5534534D01*
X-30864663Y-5534534D02*
X-31044749Y-5264343D01*
X-31044749Y-5264343D02*
X-31165228Y-5001123D01*
X-31165228Y-5001123D02*
X-31232686Y-4736288D01*
X-31232686Y-4736288D02*
X-31253709Y-4461251D01*
X-31253709Y-4461251D02*
X-31232969Y-4140783D01*
X-31232969Y-4140783D02*
X-31204344Y-4009352D01*
X-31204344Y-4009352D02*
X-31161149Y-3891869D01*
X-31161149Y-3891869D02*
X-31101584Y-3784394D01*
X-31101584Y-3784394D02*
X-31023849Y-3682986D01*
X-31023849Y-3682986D02*
X-30806669Y-3482611D01*
X-30806669Y-3482611D02*
X-30668615Y-3380044D01*
X-30668615Y-3380044D02*
X-30539626Y-3301504D01*
X-30539626Y-3301504D02*
X-30409493Y-3245224D01*
X-30409493Y-3245224D02*
X-30268003Y-3209424D01*
X-30268003Y-3209424D02*
X-30104947Y-3192334D01*
X-30104947Y-3192334D02*
X-29910113Y-3192177D01*
X-29910113Y-3192177D02*
X-29384269Y-3235577D01*
X-29384269Y-3235577D02*
X-28886287Y-3313817D01*
X-28886287Y-3313817D02*
X-28383137Y-3441696D01*
X-28383137Y-3441696D02*
X-27872989Y-3620107D01*
X-27872989Y-3620107D02*
X-27354012Y-3849945D01*
X-27354012Y-3849945D02*
X-26824377Y-4132103D01*
X-26824377Y-4132103D02*
X-26282253Y-4467474D01*
X-26282253Y-4467474D02*
X-25725810Y-4856952D01*
X-25725810Y-4856952D02*
X-25153219Y-5301430D01*
X-25153219Y-5301430D02*
X-24546539Y-5783588D01*
X-24546539Y-5783588D02*
X-24008184Y-6186259D01*
X-24008184Y-6186259D02*
X-23523867Y-6517372D01*
X-23523867Y-6517372D02*
X-23079301Y-6784854D01*
X-23079301Y-6784854D02*
X-22660198Y-6996634D01*
X-22660198Y-6996634D02*
X-22252271Y-7160640D01*
X-22252271Y-7160640D02*
X-21841232Y-7284801D01*
X-21841232Y-7284801D02*
X-21412795Y-7377041D01*
X-21412795Y-7377041D02*
X-21078876Y-7426961D01*
X-21078876Y-7426961D02*
X-20747589Y-7456981D01*
X-20747589Y-7456981D02*
X-20419031Y-7467141D01*
X-20419031Y-7467141D02*
X-20093300Y-7457441D01*
X-20093300Y-7457441D02*
X-19770493Y-7427981D01*
X-19770493Y-7427981D02*
X-19450709Y-7378751D01*
X-19450709Y-7378751D02*
X-19134043Y-7309781D01*
X-19134043Y-7309781D02*
X-18820594Y-7221111D01*
X-18820594Y-7221111D02*
X-18510459Y-7112764D01*
X-18510459Y-7112764D02*
X-18203736Y-6984772D01*
X-18203736Y-6984772D02*
X-17900521Y-6837166D01*
X-17900521Y-6837166D02*
X-17600913Y-6669978D01*
X-17600913Y-6669978D02*
X-17305009Y-6483238D01*
X-17305009Y-6483238D02*
X-17012906Y-6276977D01*
X-17012906Y-6276977D02*
X-16724701Y-6051225D01*
X-16724701Y-6051225D02*
X-16440493Y-5806014D01*
X-16440493Y-5806014D02*
X-16196041Y-5570482D01*
X-16196041Y-5570482D02*
X-15996156Y-5349917D01*
X-15996156Y-5349917D02*
X-15861445Y-5169042D01*
X-15861445Y-5169042D02*
X-15824965Y-5101212D01*
X-15824965Y-5101212D02*
X-15812505Y-5052582D01*
X-15812505Y-5052582D02*
X-15835265Y-5006482D01*
X-15835265Y-5006482D02*
X-15899705Y-4945912D01*
X-15899705Y-4945912D02*
X-16135656Y-4791690D01*
X-16135656Y-4791690D02*
X-16484351Y-4610571D01*
X-16484351Y-4610571D02*
X-16909784Y-4423209D01*
X-16909784Y-4423209D02*
X-17383207Y-4220800D01*
X-17383207Y-4220800D02*
X-17864825Y-3995390D01*
X-17864825Y-3995390D02*
X-18352750Y-3748303D01*
X-18352750Y-3748303D02*
X-18845094Y-3480862D01*
X-18845094Y-3480862D02*
X-19835483Y-2890212D01*
X-19835483Y-2890212D02*
X-20820889Y-2234029D01*
X-20820889Y-2234029D02*
X-21786203Y-1522900D01*
X-21786203Y-1522900D02*
X-22716322Y-767414D01*
X-22716322Y-767414D02*
X-23163462Y-376346D01*
X-23163462Y-376346D02*
X-23596138Y21840D01*
X-23596138Y21840D02*
X-24012462Y425822D01*
X-24012462Y425822D02*
X-24410546Y834276D01*
X-24410546Y834276D02*
X-24953783Y1430878D01*
X-24953783Y1430878D02*
X-25473793Y2047952D01*
X-25473793Y2047952D02*
X-25969948Y2684222D01*
X-25969948Y2684222D02*
X-26441621Y3338410D01*
X-26441621Y3338410D02*
X-26888182Y4009241D01*
X-26888182Y4009241D02*
X-27309004Y4695437D01*
X-27309004Y4695437D02*
X-27703459Y5395721D01*
X-27703459Y5395721D02*
X-28070918Y6108817D01*
X-28070918Y6108817D02*
X-28410754Y6833447D01*
X-28410754Y6833447D02*
X-28722338Y7568335D01*
X-28722338Y7568335D02*
X-29005041Y8312203D01*
X-29005041Y8312203D02*
X-29258236Y9063775D01*
X-29258236Y9063775D02*
X-29481295Y9821774D01*
X-29481295Y9821774D02*
X-29673590Y10584924D01*
X-29673590Y10584924D02*
X-29834491Y11351946D01*
X-29834491Y11351946D02*
X-29963372Y12121565D01*
X-29963372Y12121565D02*
X-30010013Y12505231D01*
X-30010013Y12505231D02*
X-30046516Y12943090D01*
X-30046516Y12943090D02*
X-30090147Y13953448D01*
X-30090147Y13953448D02*
X-30096347Y15096760D01*
X-30096347Y15096760D02*
X-30067187Y16317149D01*
X-30067187Y16317149D02*
X-30004750Y17558737D01*
X-30004750Y17558737D02*
X-29911115Y18765647D01*
X-29911115Y18765647D02*
X-29788361Y19881999D01*
X-29788361Y19881999D02*
X-29638567Y20851918D01*
X-29638567Y20851918D02*
X-29449777Y21804417D01*
X-29449777Y21804417D02*
X-29246178Y22682246D01*
X-29246178Y22682246D02*
X-29015371Y23521013D01*
X-29015371Y23521013D02*
X-28744961Y24356327D01*
X-28744961Y24356327D02*
X-28422550Y25223796D01*
X-28422550Y25223796D02*
X-28035741Y26159029D01*
X-28035741Y26159029D02*
X-27572137Y27197632D01*
X-27572137Y27197632D02*
X-27019342Y28375215D01*
X-27019342Y28375215D02*
X-26385982Y29714751D01*
X-26385982Y29714751D02*
X-25902284Y30785410D01*
X-25902284Y30785410D02*
X-25552294Y31645221D01*
X-25552294Y31645221D02*
X-25422455Y32014192D01*
X-25422455Y32014192D02*
X-25320060Y32352212D01*
X-25320060Y32352212D02*
X-25243120Y32666535D01*
X-25243120Y32666535D02*
X-25189630Y32964413D01*
X-25189630Y32964413D02*
X-25157600Y33253102D01*
X-25157600Y33253102D02*
X-25145040Y33539853D01*
X-25145040Y33539853D02*
X-25149940Y33831921D01*
X-25149940Y33831921D02*
X-25170340Y34136559D01*
X-25170340Y34136559D02*
X-25249600Y34812562D01*
X-25249600Y34812562D02*
X-25336800Y35537269D01*
X-25336800Y35537269D02*
X-25370960Y36074084D01*
X-25370960Y36074084D02*
X-25352660Y36456127D01*
X-25352660Y36456127D02*
X-25324010Y36599460D01*
X-25324010Y36599460D02*
X-25282460Y36716520D01*
X-25282460Y36716520D02*
X-25168750Y36895921D01*
X-25168750Y36895921D02*
X-25000168Y37066222D01*
X-25000168Y37066222D02*
X-24786181Y37222856D01*
X-24786181Y37222856D02*
X-24536255Y37361255D01*
X-24536255Y37361255D02*
X-24259856Y37476850D01*
X-24259856Y37476850D02*
X-23966449Y37565075D01*
X-23966449Y37565075D02*
X-23665500Y37621358D01*
X-23665500Y37621358D02*
X-23366476Y37641134D01*
X-23366476Y37641134D02*
X-23188317Y37629635D01*
X-23188317Y37629635D02*
X-23013974Y37595624D01*
X-23013974Y37595624D02*
X-22843691Y37539839D01*
X-22843691Y37539839D02*
X-22677710Y37463014D01*
X-22677710Y37463014D02*
X-22516275Y37365884D01*
X-22516275Y37365884D02*
X-22359628Y37249187D01*
X-22359628Y37249187D02*
X-22208012Y37113656D01*
X-22208012Y37113656D02*
X-22061669Y36960027D01*
X-22061669Y36960027D02*
X-21785777Y36601417D01*
X-21785777Y36601417D02*
X-21533893Y36179240D01*
X-21533893Y36179240D02*
X-21307960Y35699380D01*
X-21307960Y35699380D02*
X-21109921Y35167720D01*
X-21109921Y35167720D02*
X-20941719Y34590142D01*
X-20941719Y34590142D02*
X-20805294Y33972532D01*
X-20805294Y33972532D02*
X-20702591Y33320770D01*
X-20702591Y33320770D02*
X-20635551Y32640742D01*
X-20635551Y32640742D02*
X-20606121Y31938329D01*
X-20606121Y31938329D02*
X-20616241Y31219416D01*
X-20616241Y31219416D02*
X-20667851Y30489886D01*
X-20667851Y30489886D02*
X-20762891Y29755621D01*
X-20762891Y29755621D02*
X-20919836Y28906898D01*
X-20919836Y28906898D02*
X-21155283Y27796713D01*
X-21155283Y27796713D02*
X-21437361Y26569041D01*
X-21437361Y26569041D02*
X-21734199Y25367855D01*
X-21734199Y25367855D02*
X-22112303Y23838907D01*
X-22112303Y23838907D02*
X-22414091Y22473931D01*
X-22414091Y22473931D02*
X-22642935Y21243898D01*
X-22642935Y21243898D02*
X-22802209Y20119782D01*
X-22802209Y20119782D02*
X-22895289Y19072554D01*
X-22895289Y19072554D02*
X-22918059Y18568703D01*
X-22918059Y18568703D02*
X-22925559Y18073189D01*
X-22925559Y18073189D02*
X-22896359Y17092659D01*
X-22896359Y17092659D02*
X-22811089Y16101936D01*
X-22811089Y16101936D02*
X-22723399Y15394152D01*
X-22723399Y15394152D02*
X-22623064Y14745841D01*
X-22623064Y14745841D02*
X-22505321Y14138965D01*
X-22505321Y14138965D02*
X-22365406Y13555485D01*
X-22365406Y13555485D02*
X-22198555Y12977362D01*
X-22198555Y12977362D02*
X-22000005Y12386557D01*
X-22000005Y12386557D02*
X-21764991Y11765033D01*
X-21764991Y11765033D02*
X-21488750Y11094749D01*
X-21488750Y11094749D02*
X-21145769Y10316821D01*
X-21145769Y10316821D02*
X-20817023Y9636035D01*
X-20817023Y9636035D02*
X-20486539Y9028529D01*
X-20486539Y9028529D02*
X-20138341Y8470436D01*
X-20138341Y8470436D02*
X-19756454Y7937895D01*
X-19756454Y7937895D02*
X-19324903Y7407040D01*
X-19324903Y7407040D02*
X-18827714Y6854007D01*
X-18827714Y6854007D02*
X-18248912Y6254933D01*
X-18248912Y6254933D02*
X-17419084Y5447377D01*
X-17419084Y5447377D02*
X-17067469Y5134714D01*
X-17067469Y5134714D02*
X-16737662Y4867124D01*
X-16737662Y4867124D02*
X-16414371Y4632857D01*
X-16414371Y4632857D02*
X-16082301Y4420160D01*
X-16082301Y4420160D02*
X-15726159Y4217281D01*
X-15726159Y4217281D02*
X-15330653Y4012470D01*
X-15330653Y4012470D02*
X-14531163Y3640586D01*
X-14531163Y3640586D02*
X-14206288Y3513580D01*
X-14206288Y3513580D02*
X-13930806Y3426790D01*
X-13930806Y3426790D02*
X-13704328Y3380890D01*
X-13704328Y3380890D02*
X-13526465Y3376590D01*
X-13526465Y3376590D02*
X-13396826Y3414560D01*
X-13396826Y3414560D02*
X-13349966Y3449620D01*
X-13349966Y3449620D02*
X-13315016Y3495510D01*
X-13315016Y3495510D02*
X-13280656Y3620113D01*
X-13280656Y3620113D02*
X-13293356Y3789064D01*
X-13293356Y3789064D02*
X-13352716Y4003054D01*
X-13352716Y4003054D02*
X-13458352Y4262771D01*
X-13458352Y4262771D02*
X-13609875Y4568906D01*
X-13609875Y4568906D02*
X-13806894Y4922148D01*
X-13806894Y4922148D02*
X-14335861Y5772710D01*
X-14335861Y5772710D02*
X-14717092Y6369995D01*
X-14717092Y6369995D02*
X-15069159Y6948837D01*
X-15069159Y6948837D02*
X-15393268Y7512640D01*
X-15393268Y7512640D02*
X-15690626Y8064811D01*
X-15690626Y8064811D02*
X-15962437Y8608757D01*
X-15962437Y8608757D02*
X-16209909Y9147882D01*
X-16209909Y9147882D02*
X-16434246Y9685593D01*
X-16434246Y9685593D02*
X-16636656Y10225296D01*
X-16636656Y10225296D02*
X-16818343Y10770397D01*
X-16818343Y10770397D02*
X-16980514Y11324301D01*
X-16980514Y11324301D02*
X-17124375Y11890415D01*
X-17124375Y11890415D02*
X-17251131Y12472145D01*
X-17251131Y12472145D02*
X-17361990Y13072896D01*
X-17361990Y13072896D02*
X-17458160Y13696075D01*
X-17458160Y13696075D02*
X-17540840Y14345087D01*
X-17540840Y14345087D02*
X-17611240Y15023339D01*
X-17611240Y15023339D02*
X-17668180Y15797417D01*
X-17668180Y15797417D02*
X-17695330Y16576630D01*
X-17695330Y16576630D02*
X-17692830Y17360451D01*
X-17692830Y17360451D02*
X-17660740Y18148352D01*
X-17660740Y18148352D02*
X-17599190Y18939804D01*
X-17599190Y18939804D02*
X-17508290Y19734278D01*
X-17508290Y19734278D02*
X-17388150Y20531247D01*
X-17388150Y20531247D02*
X-17238876Y21330183D01*
X-17238876Y21330183D02*
X-17060576Y22130556D01*
X-17060576Y22130556D02*
X-16853359Y22931839D01*
X-16853359Y22931839D02*
X-16617332Y23733503D01*
X-16617332Y23733503D02*
X-16352604Y24535020D01*
X-16352604Y24535020D02*
X-16059282Y25335863D01*
X-16059282Y25335863D02*
X-15737476Y26135501D01*
X-15737476Y26135501D02*
X-15387293Y26933408D01*
X-15387293Y26933408D02*
X-15008842Y27729055D01*
X-15008842Y27729055D02*
X-14544154Y28644552D01*
X-14544154Y28644552D02*
X-14107385Y29445613D01*
X-14107385Y29445613D02*
X-13678451Y30160420D01*
X-13678451Y30160420D02*
X-13237271Y30817153D01*
X-13237271Y30817153D02*
X-12763762Y31443995D01*
X-12763762Y31443995D02*
X-12237842Y32069126D01*
X-12237842Y32069126D02*
X-11639429Y32720728D01*
X-11639429Y32720728D02*
X-10948440Y33426982D01*
X-10948440Y33426982D02*
X-10447441Y33914117D01*
X-10447441Y33914117D02*
X-9942973Y34378406D01*
X-9942973Y34378406D02*
X-9435301Y34819688D01*
X-9435301Y34819688D02*
X-8924693Y35237803D01*
X-8924693Y35237803D02*
X-8411417Y35632592D01*
X-8411417Y35632592D02*
X-7895737Y36003895D01*
X-7895737Y36003895D02*
X-7377923Y36351551D01*
X-7377923Y36351551D02*
X-6858239Y36675401D01*
X-6858239Y36675401D02*
X-6336954Y36975285D01*
X-6336954Y36975285D02*
X-5814334Y37251042D01*
X-5814334Y37251042D02*
X-5290646Y37502514D01*
X-5290646Y37502514D02*
X-4766157Y37729540D01*
X-4766157Y37729540D02*
X-4241134Y37931960D01*
X-4241134Y37931960D02*
X-3715843Y38109615D01*
X-3715843Y38109615D02*
X-3190552Y38262344D01*
X-3190552Y38262344D02*
X-2665527Y38389987D01*
X-2665527Y38389987D02*
X-2109453Y38499610D01*
X-2109453Y38499610D02*
X-1532310Y38589702D01*
X-1532310Y38589702D02*
X-936361Y38660379D01*
X-936361Y38660379D02*
X-796851Y38765525D01*
X-796851Y38765525D02*
X-708121Y38859794D01*
X-708121Y38859794D02*
X-663041Y38945022D01*
X-663041Y38945022D02*
X-654441Y39023048D01*
X-654441Y39023048D02*
X-675261Y39095709D01*
X-675261Y39095709D02*
X-718331Y39164842D01*
X-718331Y39164842D02*
X-842675Y39299875D01*
X-842675Y39299875D02*
X-1041364Y39516716D01*
X-1041364Y39516716D02*
X-1218581Y39751784D01*
X-1218581Y39751784D02*
X-1372779Y40003545D01*
X-1372779Y40003545D02*
X-1502411Y40270464D01*
X-1502411Y40270464D02*
X-1605929Y40551006D01*
X-1605929Y40551006D02*
X-1681789Y40843636D01*
X-1681789Y40843636D02*
X-1728439Y41146820D01*
X-1728439Y41146820D02*
X-1744329Y41459022D01*
X-1744329Y41459022D02*
X-1728439Y41771224D01*
X-1728439Y41771224D02*
X-1681789Y42074408D01*
X-1681789Y42074408D02*
X-1605929Y42367038D01*
X-1605929Y42367038D02*
X-1502411Y42647580D01*
X-1502411Y42647580D02*
X-1372779Y42914499D01*
X-1372779Y42914499D02*
X-1218581Y43166260D01*
X-1218581Y43166260D02*
X-1041364Y43401329D01*
X-1041364Y43401329D02*
X-842676Y43618170D01*
X-842676Y43618170D02*
X-624063Y43815248D01*
X-624063Y43815248D02*
X-387075Y43991028D01*
X-387075Y43991028D02*
X-133257Y44143977D01*
X-133257Y44143977D02*
X135843Y44272559D01*
X135843Y44272559D02*
X418677Y44375238D01*
X418677Y44375238D02*
X713698Y44450481D01*
X713698Y44450481D02*
X1019358Y44496752D01*
X1019358Y44496752D02*
X1334111Y44512517D01*
X1334111Y44512517D02*
X1648864Y44496752D01*
X1648864Y44496752D02*
X1954524Y44450481D01*
X1954524Y44450481D02*
X2249545Y44375238D01*
X2249545Y44375238D02*
X2532379Y44272559D01*
X2532379Y44272559D02*
X2801479Y44143977D01*
X2801479Y44143977D02*
X3055296Y43991028D01*
X3055296Y43991028D02*
X3292285Y43815247D01*
X3292285Y43815247D02*
X3510897Y43618169D01*
X3510897Y43618169D02*
X3709585Y43401329D01*
X3709585Y43401329D02*
X3886802Y43166260D01*
X3886802Y43166260D02*
X4041000Y42914499D01*
X4041000Y42914499D02*
X4170632Y42647580D01*
X4170632Y42647580D02*
X4274150Y42367038D01*
X4274150Y42367038D02*
X4350010Y42074408D01*
X4350010Y42074408D02*
X4396660Y41771225D01*
X4396660Y41771225D02*
X4412550Y41459022D01*
X4412550Y41459022D02*
X4396660Y41146820D01*
X4396660Y41146820D02*
X4350010Y40843637D01*
X4350010Y40843637D02*
X4274150Y40551007D01*
X4274150Y40551007D02*
X4170631Y40270464D01*
X4170631Y40270464D02*
X4040999Y40003546D01*
X4040999Y40003546D02*
X3886801Y39751785D01*
X3886801Y39751785D02*
X3709584Y39516716D01*
X3709584Y39516716D02*
X3510896Y39299876D01*
X3510896Y39299876D02*
X3418406Y39144622D01*
X3418406Y39144622D02*
X3366256Y39010183D01*
X3366256Y39010183D02*
X3348576Y38896213D01*
X3348576Y38896213D02*
X3359496Y38802367D01*
X3359496Y38802367D02*
X3393156Y38728298D01*
X3393156Y38728298D02*
X3443696Y38673661D01*
X3443696Y38673661D02*
X3505246Y38638110D01*
X3505246Y38638110D02*
X3571936Y38621300D01*
X3571936Y38621300D02*
X4236916Y38540860D01*
X4236916Y38540860D02*
X4900347Y38442056D01*
X4900347Y38442056D02*
X5559968Y38325005D01*
X5559968Y38325005D02*
X6213516Y38189824D01*
X6213516Y38189824D02*
X6858730Y38036628D01*
X6858730Y38036628D02*
X7493349Y37865536D01*
X7493349Y37865536D02*
X8116204Y37676673D01*
X8116204Y37676673D02*
X8725481Y37470599D01*
X8725481Y37470599D02*
X9321670Y37247017D01*
X9321670Y37247017D02*
X9905259Y37005628D01*
X9905259Y37005628D02*
X10476737Y36746133D01*
X10476737Y36746133D02*
X11036593Y36468234D01*
X11036593Y36468234D02*
X11585316Y36171633D01*
X11585316Y36171633D02*
X12123395Y35856032D01*
X12123395Y35856032D02*
X12651318Y35521133D01*
X12651318Y35521133D02*
X13169574Y35166636D01*
X13169574Y35166636D02*
X13678652Y34792244D01*
X13678652Y34792244D02*
X14179041Y34397659D01*
X14179041Y34397659D02*
X14671230Y33982582D01*
X14671230Y33982582D02*
X15155707Y33546714D01*
X15155707Y33546714D02*
X15632961Y33089759D01*
X15632961Y33089759D02*
X16103482Y32611416D01*
X16103482Y32611416D02*
X16498149Y32185117D01*
X16498149Y32185117D02*
X16877027Y31748928D01*
X16877027Y31748928D02*
X17240127Y31302825D01*
X17240127Y31302825D02*
X17587463Y30846787D01*
X17587463Y30846787D02*
X17919045Y30380792D01*
X17919045Y30380792D02*
X18234887Y29904818D01*
X18234887Y29904818D02*
X18535001Y29418843D01*
X18535001Y29418843D02*
X18819398Y28922844D01*
X18819398Y28922844D02*
X19088091Y28416800D01*
X19088091Y28416800D02*
X19341092Y27900688D01*
X19341092Y27900688D02*
X19578414Y27374487D01*
X19578414Y27374487D02*
X19800068Y26838174D01*
X19800068Y26838174D02*
X20006066Y26291728D01*
X20006066Y26291728D02*
X20196422Y25735125D01*
X20196422Y25735125D02*
X20371146Y25168345D01*
X20371146Y25168345D02*
X20530252Y24591365D01*
X20530252Y24591365D02*
X20658471Y24076761D01*
X20658471Y24076761D02*
X20760760Y23603870D01*
X20760760Y23603870D02*
X20840980Y23134713D01*
X20840980Y23134713D02*
X20902990Y22631312D01*
X20902990Y22631312D02*
X20950650Y22055688D01*
X20950650Y22055688D02*
X20987820Y21369862D01*
X20987820Y21369862D02*
X21046130Y19515694D01*
X21046130Y19515694D02*
X21062470Y18539037D01*
X21062470Y18539037D02*
X21061629Y17613965D01*
X21061629Y17613965D02*
X21042819Y16736356D01*
X21042819Y16736356D02*
X21005259Y15902092D01*
X21005259Y15902092D02*
X20948159Y15107051D01*
X20948159Y15107051D02*
X20870729Y14347113D01*
X20870729Y14347113D02*
X20772189Y13618156D01*
X20772189Y13618156D02*
X20651749Y12916062D01*
X20651749Y12916062D02*
X20508626Y12236708D01*
X20508626Y12236708D02*
X20342031Y11575975D01*
X20342031Y11575975D02*
X20151180Y10929741D01*
X20151180Y10929741D02*
X19935286Y10293887D01*
X19935286Y10293887D02*
X19693563Y9664292D01*
X19693563Y9664292D02*
X19425224Y9036836D01*
X19425224Y9036836D02*
X19129484Y8407397D01*
X19129484Y8407397D02*
X18805557Y7771855D01*
X18805557Y7771855D02*
X18430437Y7030683D01*
X18430437Y7030683D02*
X18123246Y6363721D01*
X18123246Y6363721D02*
X17915685Y5844044D01*
X17915685Y5844044D02*
X17859175Y5662275D01*
X17859175Y5662275D02*
X17839455Y5544732D01*
X17839455Y5544732D02*
X17862145Y5333510D01*
X17862145Y5333510D02*
X17928295Y5167179D01*
X17928295Y5167179D02*
X18035023Y5044704D01*
X18035023Y5044704D02*
X18179463Y4965054D01*
X18179463Y4965054D02*
X18358739Y4927194D01*
X18358739Y4927194D02*
X18569978Y4930094D01*
X18569978Y4930094D02*
X18810307Y4972704D01*
X18810307Y4972704D02*
X19076852Y5054004D01*
X19076852Y5054004D02*
X19366738Y5172952D01*
X19366738Y5172952D02*
X19677093Y5328518D01*
X19677093Y5328518D02*
X20005043Y5519667D01*
X20005043Y5519667D02*
X20347714Y5745366D01*
X20347714Y5745366D02*
X20702232Y6004579D01*
X20702232Y6004579D02*
X21065723Y6296274D01*
X21065723Y6296274D02*
X21435315Y6619415D01*
X21435315Y6619415D02*
X21808133Y6972969D01*
X21808133Y6972969D02*
X22293134Y7476652D01*
X22293134Y7476652D02*
X22758739Y8010726D01*
X22758739Y8010726D02*
X23203697Y8572496D01*
X23203697Y8572496D02*
X23626756Y9159265D01*
X23626756Y9159265D02*
X24026665Y9768338D01*
X24026665Y9768338D02*
X24402174Y10397019D01*
X24402174Y10397019D02*
X24752032Y11042613D01*
X24752032Y11042613D02*
X25074987Y11702423D01*
X25074987Y11702423D02*
X25369789Y12373755D01*
X25369789Y12373755D02*
X25635185Y13053912D01*
X25635185Y13053912D02*
X25869927Y13740198D01*
X25869927Y13740198D02*
X26072761Y14429919D01*
X26072761Y14429919D02*
X26242438Y15120378D01*
X26242438Y15120378D02*
X26377706Y15808879D01*
X26377706Y15808879D02*
X26477316Y16492727D01*
X26477316Y16492727D02*
X26540016Y17169226D01*
X26540016Y17169226D02*
X26569106Y17763948D01*
X26569106Y17763948D02*
X26578706Y18361804D01*
X26578706Y18361804D02*
X26568506Y18964506D01*
X26568506Y18964506D02*
X26538166Y19573765D01*
X26538166Y19573765D02*
X26487366Y20191292D01*
X26487366Y20191292D02*
X26415786Y20818798D01*
X26415786Y20818798D02*
X26323106Y21457996D01*
X26323106Y21457996D02*
X26208993Y22110596D01*
X26208993Y22110596D02*
X26073079Y22778311D01*
X26073079Y22778311D02*
X25915136Y23462850D01*
X25915136Y23462850D02*
X25734791Y24165927D01*
X25734791Y24165927D02*
X25531720Y24889251D01*
X25531720Y24889251D02*
X25305600Y25634536D01*
X25305600Y25634536D02*
X25056106Y26403491D01*
X25056106Y26403491D02*
X24485701Y28019261D01*
X24485701Y28019261D02*
X24076971Y29137913D01*
X24076971Y29137913D02*
X23758480Y30054833D01*
X23758480Y30054833D02*
X23519189Y30819172D01*
X23519189Y30819172D02*
X23348051Y31479965D01*
X23348051Y31479965D02*
X23234022Y32086283D01*
X23234022Y32086283D02*
X23166059Y32687202D01*
X23166059Y32687202D02*
X23133119Y33331794D01*
X23133119Y33331794D02*
X23124119Y34069131D01*
X23124119Y34069131D02*
X23135459Y35095376D01*
X23135459Y35095376D02*
X23155409Y35464349D01*
X23155409Y35464349D02*
X23189269Y35766101D01*
X23189269Y35766101D02*
X23240339Y36022288D01*
X23240339Y36022288D02*
X23311909Y36254568D01*
X23311909Y36254568D02*
X23407269Y36484599D01*
X23407269Y36484599D02*
X23529707Y36734039D01*
X23529707Y36734039D02*
X23767430Y37149253D01*
X23767430Y37149253D02*
X24025655Y37509594D01*
X24025655Y37509594D02*
X24305922Y37816173D01*
X24305922Y37816173D02*
X24609770Y38070102D01*
X24609770Y38070102D02*
X24938742Y38272490D01*
X24938742Y38272490D02*
X25294376Y38424448D01*
X25294376Y38424448D02*
X25678213Y38527088D01*
X25678213Y38527088D02*
X26091794Y38581520D01*
X26091794Y38581520D02*
X26574421Y38600925D01*
X26574421Y38600925D02*
X26762205Y38592685D01*
X26762205Y38592685D02*
X26923510Y38570694D01*
X26923510Y38570694D02*
X27065240Y38533603D01*
X27065240Y38533603D02*
X27194298Y38480066D01*
X27194298Y38480066D02*
X27317590Y38408738D01*
X27317590Y38408738D02*
X27442019Y38318273D01*
X27442019Y38318273D02*
X27662640Y38110480D01*
X27662640Y38110480D02*
X27840927Y37869915D01*
X27840927Y37869915D02*
X27976432Y37598573D01*
X27976432Y37598573D02*
X28068702Y37298448D01*
X28068702Y37298448D02*
X28117302Y36971534D01*
X28117302Y36971534D02*
X28121802Y36619826D01*
X28121802Y36619826D02*
X28081702Y36245319D01*
X28081702Y36245319D02*
X27996572Y35850006D01*
X27996572Y35850006D02*
X27900872Y35428207D01*
X27900872Y35428207D02*
X27831842Y34989140D01*
X27831842Y34989140D02*
X27789532Y34543323D01*
X27789532Y34543323D02*
X27773992Y34101270D01*
X27773992Y34101270D02*
X27785272Y33673497D01*
X27785272Y33673497D02*
X27823432Y33270517D01*
X27823432Y33270517D02*
X27888512Y32902848D01*
X27888512Y32902848D02*
X27980572Y32581003D01*
X27980572Y32581003D02*
X28146535Y32231337D01*
X28146535Y32231337D02*
X28442650Y31715209D01*
X28442650Y31715209D02*
X28827011Y31102158D01*
X28827011Y31102158D02*
X29257712Y30461721D01*
X29257712Y30461721D02*
X29969342Y29416813D01*
X29969342Y29416813D02*
X30572621Y28471938D01*
X30572621Y28471938D02*
X31083407Y27593950D01*
X31083407Y27593950D02*
X31517557Y26749705D01*
X31517557Y26749705D02*
X31890928Y25906058D01*
X31890928Y25906058D02*
X32219377Y25029864D01*
X32219377Y25029864D02*
X32518762Y24087978D01*
X32518762Y24087978D02*
X32804940Y23047254D01*
X32804940Y23047254D02*
X32973335Y22352546D01*
X32973335Y22352546D02*
X33126739Y21630790D01*
X33126739Y21630790D02*
X33264846Y20886886D01*
X33264846Y20886886D02*
X33387352Y20125733D01*
X33387352Y20125733D02*
X33493951Y19352230D01*
X33493951Y19352230D02*
X33584341Y18571277D01*
X33584341Y18571277D02*
X33658211Y17787774D01*
X33658211Y17787774D02*
X33715251Y17006620D01*
X33715251Y17006620D02*
X33755161Y16232715D01*
X33755161Y16232715D02*
X33777641Y15470958D01*
X33777641Y15470958D02*
X33782341Y14726249D01*
X33782341Y14726249D02*
X33769041Y14003487D01*
X33769041Y14003487D02*
X33737381Y13307572D01*
X33737381Y13307572D02*
X33687071Y12643404D01*
X33687071Y12643404D02*
X33617801Y12015881D01*
X33617801Y12015881D02*
X33529261Y11429904D01*
X33529261Y11429904D02*
X33406070Y10793247D01*
X33406070Y10793247D02*
X33259346Y10159781D01*
X33259346Y10159781D02*
X33089559Y9530070D01*
X33089559Y9530070D02*
X32897174Y8904676D01*
X32897174Y8904676D02*
X32682660Y8284162D01*
X32682660Y8284162D02*
X32446485Y7669091D01*
X32446485Y7669091D02*
X32189117Y7060026D01*
X32189117Y7060026D02*
X31911022Y6457530D01*
X31911022Y6457530D02*
X31612669Y5862165D01*
X31612669Y5862165D02*
X31294525Y5274494D01*
X31294525Y5274494D02*
X30957058Y4695080D01*
X30957058Y4695080D02*
X30600736Y4124485D01*
X30600736Y4124485D02*
X30226027Y3563274D01*
X30226027Y3563274D02*
X29833397Y3012007D01*
X29833397Y3012007D02*
X29423315Y2471249D01*
X29423315Y2471249D02*
X28996249Y1941562D01*
X28996249Y1941562D02*
X28552666Y1423509D01*
X28552666Y1423509D02*
X28093033Y917652D01*
X28093033Y917652D02*
X27617819Y424555D01*
X27617819Y424555D02*
X27127491Y-55220D01*
X27127491Y-55220D02*
X26622517Y-521110D01*
X26622517Y-521110D02*
X26103364Y-972552D01*
X26103364Y-972552D02*
X25570501Y-1408984D01*
X25570501Y-1408984D02*
X25024394Y-1829842D01*
X25024394Y-1829842D02*
X24465512Y-2234563D01*
X24465512Y-2234563D02*
X23894322Y-2622586D01*
X23894322Y-2622586D02*
X23311292Y-2993347D01*
X23311292Y-2993347D02*
X22716890Y-3346283D01*
X22716890Y-3346283D02*
X22111583Y-3680832D01*
X22111583Y-3680832D02*
X21495839Y-3996430D01*
X21495839Y-3996430D02*
X20870125Y-4292516D01*
X20870125Y-4292516D02*
X20234910Y-4568525D01*
X20234910Y-4568525D02*
X19649854Y-4827871D01*
X19649854Y-4827871D02*
X19110031Y-5096520D01*
X19110031Y-5096520D02*
X18675447Y-5342764D01*
X18675447Y-5342764D02*
X18406110Y-5534894D01*
X18406110Y-5534894D02*
X18248729Y-5709413D01*
X18248729Y-5709413D02*
X18130592Y-5902262D01*
X18130592Y-5902262D02*
X18052062Y-6109167D01*
X18052062Y-6109167D02*
X18013482Y-6325852D01*
X18013482Y-6325852D02*
X18015182Y-6548042D01*
X18015182Y-6548042D02*
X18057602Y-6771464D01*
X18057602Y-6771464D02*
X18141062Y-6991843D01*
X18141062Y-6991843D02*
X18265917Y-7204904D01*
X18265917Y-7204904D02*
X18367882Y-7331015D01*
X18367882Y-7331015D02*
X18511213Y-7479364D01*
X18511213Y-7479364D02*
X18904326Y-7830237D01*
X18904326Y-7830237D02*
X19409969Y-8232449D01*
X19409969Y-8232449D02*
X19992852Y-8660926D01*
X19992852Y-8660926D02*
X20617689Y-9090593D01*
X20617689Y-9090593D02*
X21249190Y-9496378D01*
X21249190Y-9496378D02*
X21852068Y-9853205D01*
X21852068Y-9853205D02*
X22391034Y-10136002D01*
X22391034Y-10136002D02*
X22791468Y-10325308D01*
X22791468Y-10325308D02*
X23121202Y-10468527D01*
X23121202Y-10468527D02*
X23414986Y-10572020D01*
X23414986Y-10572020D02*
X23707572Y-10642150D01*
X23707572Y-10642150D02*
X24033711Y-10685270D01*
X24033711Y-10685270D02*
X24428153Y-10707750D01*
X24428153Y-10707750D02*
X25560954Y-10716250D01*
X25560954Y-10716250D02*
X26677013Y-10696780D01*
X26677013Y-10696780D02*
X27119782Y-10666330D01*
X27119782Y-10666330D02*
X27532961Y-10614690D01*
X27532961Y-10614690D02*
X27951986Y-10536320D01*
X27951986Y-10536320D02*
X28412296Y-10425693D01*
X28412296Y-10425693D02*
X29598518Y-10085510D01*
X29598518Y-10085510D02*
X31685362Y-9459034D01*
X31685362Y-9459034D02*
X32118198Y-9780956D01*
X32118198Y-9780956D02*
X32290341Y-9933392D01*
X32290341Y-9933392D02*
X32439081Y-10110462D01*
X32439081Y-10110462D02*
X32548519Y-10290194D01*
X32548519Y-10290194D02*
X32602759Y-10450614D01*
X32602759Y-10450614D02*
X32603959Y-10643836D01*
X32603959Y-10643836D02*
X32557439Y-10867096D01*
X32557439Y-10867096D02*
X32466699Y-11116252D01*
X32466699Y-11116252D02*
X32335261Y-11387160D01*
X32335261Y-11387160D02*
X32166665Y-11675676D01*
X32166665Y-11675676D02*
X31964443Y-11977659D01*
X31964443Y-11977659D02*
X31732130Y-12288964D01*
X31732130Y-12288964D02*
X31473259Y-12605449D01*
X31473259Y-12605449D02*
X31191365Y-12922970D01*
X31191365Y-12922970D02*
X30889981Y-13237385D01*
X30889981Y-13237385D02*
X30572641Y-13544550D01*
X30572641Y-13544550D02*
X30242878Y-13840321D01*
X30242878Y-13840321D02*
X29904228Y-14120557D01*
X29904228Y-14120557D02*
X29560223Y-14381113D01*
X29560223Y-14381113D02*
X29214397Y-14617847D01*
X29214397Y-14617847D02*
X28870284Y-14826615D01*
X28870284Y-14826615D02*
X28404687Y-15072442D01*
X28404687Y-15072442D02*
X27897968Y-15308048D01*
X27897968Y-15308048D02*
X27359317Y-15530266D01*
X27359317Y-15530266D02*
X26797923Y-15735929D01*
X26797923Y-15735929D02*
X26222976Y-15921869D01*
X26222976Y-15921869D02*
X25643667Y-16084920D01*
X25643667Y-16084920D02*
X25069185Y-16221915D01*
X25069185Y-16221915D02*
X24508719Y-16329687D01*
X24508719Y-16329687D02*
X23793090Y-16420577D01*
X23793090Y-16420577D02*
X23069078Y-16456337D01*
X23069078Y-16456337D02*
X22339794Y-16438257D01*
X22339794Y-16438257D02*
X21608345Y-16367617D01*
X21608345Y-16367617D02*
X20877842Y-16245717D01*
X20877842Y-16245717D02*
X20151393Y-16073841D01*
X20151393Y-16073841D02*
X19432108Y-15853278D01*
X19432108Y-15853278D02*
X18723095Y-15585316D01*
X18723095Y-15585316D02*
X18027465Y-15271243D01*
X18027465Y-15271243D02*
X17348326Y-14912347D01*
X17348326Y-14912347D02*
X16688788Y-14509917D01*
X16688788Y-14509917D02*
X16051959Y-14065242D01*
X16051959Y-14065242D02*
X15440949Y-13579609D01*
X15440949Y-13579609D02*
X14858867Y-13054307D01*
X14858867Y-13054307D02*
X14308822Y-12490625D01*
X14308822Y-12490625D02*
X13793924Y-11889850D01*
X13793924Y-11889850D02*
X13450886Y-11480398D01*
X13450886Y-11480398D02*
X13146292Y-11158450D01*
X13146292Y-11158450D02*
X12874350Y-10921142D01*
X12874350Y-10921142D02*
X12629266Y-10765604D01*
X12629266Y-10765604D02*
X12514986Y-10717604D01*
X12514986Y-10717604D02*
X12405248Y-10688974D01*
X12405248Y-10688974D02*
X12299328Y-10679374D01*
X12299328Y-10679374D02*
X12196503Y-10688374D01*
X12196503Y-10688374D02*
X12096048Y-10715694D01*
X12096048Y-10715694D02*
X11997238Y-10760954D01*
X11997238Y-10760954D02*
X11801661Y-10903831D01*
X11801661Y-10903831D02*
X11705351Y-11010332D01*
X11705351Y-11010332D02*
X11627721Y-11137402D01*
X11627721Y-11137402D02*
X11568201Y-11283767D01*
X11568201Y-11283767D02*
X11526211Y-11448152D01*
X11526211Y-11448152D02*
X11501161Y-11629281D01*
X11501161Y-11629281D02*
X11492461Y-11825881D01*
X11492461Y-11825881D02*
X11521891Y-12260389D01*
X11521891Y-12260389D02*
X11609831Y-12741479D01*
X11609831Y-12741479D02*
X11751657Y-13258949D01*
X11751657Y-13258949D02*
X11942728Y-13802600D01*
X11942728Y-13802600D02*
X12178410Y-14362234D01*
X12178410Y-14362234D02*
X12454066Y-14927651D01*
X12454066Y-14927651D02*
X12765061Y-15488652D01*
X12765061Y-15488652D02*
X13106760Y-16035036D01*
X13106760Y-16035036D02*
X13474526Y-16556606D01*
X13474526Y-16556606D02*
X13863724Y-17043160D01*
X13863724Y-17043160D02*
X14269718Y-17484501D01*
X14269718Y-17484501D02*
X14687873Y-17870428D01*
X14687873Y-17870428D02*
X14900062Y-18039424D01*
X14900062Y-18039424D02*
X15113553Y-18190742D01*
X15113553Y-18190742D02*
X15331654Y-18325652D01*
X15331654Y-18325652D02*
X15574224Y-18457396D01*
X15574224Y-18457396D02*
X16123639Y-18707668D01*
X16123639Y-18707668D02*
X16743532Y-18934111D01*
X16743532Y-18934111D02*
X17415635Y-19129276D01*
X17415635Y-19129276D02*
X18131725Y-19328643D01*
X18131725Y-19328643D02*
X18403604Y-19420493D01*
X18403604Y-19420493D02*
X18627377Y-19511343D01*
X18627377Y-19511343D02*
X18810044Y-19604363D01*
X18810044Y-19604363D02*
X18958609Y-19702723D01*
X18958609Y-19702723D02*
X19080074Y-19809592D01*
X19080074Y-19809592D02*
X19181441Y-19928136D01*
X19181441Y-19928136D02*
X19275741Y-20074917D01*
X19275741Y-20074917D02*
X19343041Y-20225120D01*
X19343041Y-20225120D02*
X19384371Y-20378105D01*
X19384371Y-20378105D02*
X19400771Y-20533233D01*
X19400771Y-20533233D02*
X19393271Y-20689863D01*
X19393271Y-20689863D02*
X19362931Y-20847355D01*
X19362931Y-20847355D02*
X19310781Y-21005071D01*
X19310781Y-21005071D02*
X19237861Y-21162370D01*
X19237861Y-21162370D02*
X19145201Y-21318612D01*
X19145201Y-21318612D02*
X19033841Y-21473157D01*
X19033841Y-21473157D02*
X18759180Y-21774599D01*
X18759180Y-21774599D02*
X18422186Y-22061577D01*
X18422186Y-22061577D02*
X18031163Y-22328973D01*
X18031163Y-22328973D02*
X17793981Y-22658976D01*
X17793981Y-22658976D02*
X17890851Y-23119633D01*
X17890851Y-23119633D02*
X33897079Y-23087583D01*
X33897079Y-23087583D02*
X33888279Y-38301131D01*
X33888279Y-38301131D02*
X33888262Y-38301131D01*
X3488949Y41508202D02*
X3478439Y41292650D01*
X3478439Y41292650D02*
X3447298Y41080748D01*
X3447298Y41080748D02*
X3396110Y40873927D01*
X3396110Y40873927D02*
X3325457Y40673618D01*
X3325457Y40673618D02*
X3235924Y40481250D01*
X3235924Y40481250D02*
X3128093Y40298252D01*
X3128093Y40298252D02*
X3002548Y40126056D01*
X3002548Y40126056D02*
X2859873Y39966092D01*
X2859873Y39966092D02*
X2702334Y39821219D01*
X2702334Y39821219D02*
X2532749Y39693741D01*
X2532749Y39693741D02*
X2352527Y39584250D01*
X2352527Y39584250D02*
X2163076Y39493338D01*
X2163076Y39493338D02*
X1965804Y39421597D01*
X1965804Y39421597D02*
X1762120Y39369621D01*
X1762120Y39369621D02*
X1553432Y39338000D01*
X1553432Y39338000D02*
X1341148Y39327329D01*
X1341148Y39327329D02*
X1121548Y39338588D01*
X1121548Y39338588D02*
X908291Y39371636D01*
X908291Y39371636D02*
X702458Y39425376D01*
X702458Y39425376D02*
X505127Y39498713D01*
X505127Y39498713D02*
X317379Y39590548D01*
X317379Y39590548D02*
X140293Y39699788D01*
X140293Y39699788D02*
X-25052Y39825334D01*
X-25052Y39825334D02*
X-177576Y39966092D01*
X-177576Y39966092D02*
X-316199Y40120964D01*
X-316199Y40120964D02*
X-439842Y40288855D01*
X-439842Y40288855D02*
X-547424Y40468669D01*
X-547424Y40468669D02*
X-637867Y40659308D01*
X-637867Y40659308D02*
X-710091Y40859677D01*
X-710091Y40859677D02*
X-763016Y41068680D01*
X-763016Y41068680D02*
X-795563Y41285221D01*
X-795563Y41285221D02*
X-806652Y41508202D01*
X-806652Y41508202D02*
X-795563Y41731184D01*
X-795563Y41731184D02*
X-763016Y41947724D01*
X-763016Y41947724D02*
X-710091Y42156727D01*
X-710091Y42156727D02*
X-637867Y42357096D01*
X-637867Y42357096D02*
X-547424Y42547736D01*
X-547424Y42547736D02*
X-439842Y42727549D01*
X-439842Y42727549D02*
X-316199Y42895440D01*
X-316199Y42895440D02*
X-177576Y43050312D01*
X-177576Y43050312D02*
X-25052Y43191070D01*
X-25052Y43191070D02*
X140293Y43316617D01*
X140293Y43316617D02*
X317379Y43425856D01*
X317379Y43425856D02*
X505127Y43517692D01*
X505127Y43517692D02*
X702458Y43591028D01*
X702458Y43591028D02*
X908291Y43644768D01*
X908291Y43644768D02*
X1121548Y43677816D01*
X1121548Y43677816D02*
X1341148Y43689076D01*
X1341148Y43689076D02*
X1553432Y43678404D01*
X1553432Y43678404D02*
X1762120Y43646784D01*
X1762120Y43646784D02*
X1965804Y43594807D01*
X1965804Y43594807D02*
X2163076Y43523067D01*
X2163076Y43523067D02*
X2352527Y43432155D01*
X2352527Y43432155D02*
X2532749Y43322664D01*
X2532749Y43322664D02*
X2702334Y43195185D01*
X2702334Y43195185D02*
X2859873Y43050313D01*
X2859873Y43050313D02*
X3002548Y42890348D01*
X3002548Y42890348D02*
X3128093Y42718152D01*
X3128093Y42718152D02*
X3235924Y42535155D01*
X3235924Y42535155D02*
X3325457Y42342786D01*
X3325457Y42342786D02*
X3396110Y42142477D01*
X3396110Y42142477D02*
X3447298Y41935656D01*
X3447298Y41935656D02*
X3478439Y41723755D01*
X3478439Y41723755D02*
X3488949Y41508202D01*
X3488949Y41508202D02*
X3488949Y41508202D01*
X3488949Y41508202D02*
X3488949Y41508202D01*
M02*
